<svg width="100" height="100" viewBox="0 0 192 133" fill="none" xmlns="http://www.w3.org/2000/svg">
<g opacity="0.8">
<g clip-path="url(#clip0)">
<path d="M19.2303 22.6223C24.4206 22.6223 28.6282 18.4375 28.6282 13.2754C28.6282 8.11322 24.4206 3.92847 19.2303 3.92847C14.04 3.92847 9.83247 8.11322 9.83247 13.2754C9.83247 18.4375 14.04 22.6223 19.2303 22.6223Z" fill="#C8EDF9"/>
<path opacity="0.1" d="M18.0821 32.3031C22.0281 41.1675 16.9946 51.3749 11.0696 59.0611C9.08655 61.6386 6.89729 64.3408 6.62237 67.5737C6.29085 71.5284 8.98345 75.1634 12.1774 77.5398C18.0033 81.8705 25.9598 83.2095 32.8935 81.0241C38.8852 79.1362 43.9227 74.8719 49.9669 73.1529C60.0743 70.2738 70.7881 75.0468 79.4441 80.9939C85.5712 85.1979 92.1329 90.3207 99.5194 89.42C104.717 88.7867 109.127 85.1577 112.121 80.8853C113.567 78.8225 114.824 76.5105 116.928 75.1192C118.18 74.2908 119.649 73.8525 121.119 73.5389C134.539 70.686 148.783 77.6484 162.026 74.0677C170.971 71.655 178.102 64.6182 182.537 56.5219C186.973 48.4255 189.043 39.2836 190.767 30.2262C191.992 23.7926 193.009 16.8422 190.193 10.9252C187.213 4.66046 180.316 0.862581 173.384 0.150857C166.453 -0.560868 159.501 1.40341 153.115 4.17391C145.136 7.64407 137.315 12.5015 128.606 12.5176C122.675 12.5296 117.019 10.2658 111.349 8.53875C101.868 5.65365 92.0096 4.22015 82.1852 2.89723C72.7793 1.6306 63.2804 0.452435 53.8178 1.20035C47.1227 1.72912 41.2099 4.27444 34.7128 5.4526C30.4778 6.22062 26.2226 5.65365 22.0665 6.94039C16.9481 8.53272 11.6842 12.222 11.4011 18.0324C11.1343 23.5634 15.9899 27.6005 18.0821 32.3031Z" fill="#B7B5D7"/>
<path d="M121.673 40.1964C120.81 37.9587 118.584 32.6991 117.118 33.7426C115.267 35.0615 118.97 40.888 118.97 40.888C119.075 41.9576 116.993 44.1832 115.877 45.293C115.877 45.2046 115.877 45.1543 115.877 45.1543C115.867 45.1965 115.85 45.2371 115.829 45.275L115.736 45.2247C115.711 45.3134 115.666 45.3952 115.604 45.4639C115.604 45.3132 115.594 45.2247 115.594 45.2247C115.38 46.1274 111.64 47.2714 111.64 47.2714C111.64 47.2714 111.539 47.2714 111.365 47.2714C110.326 47.2714 107.621 47.0382 106.368 45.0437C105.72 43.9633 104.891 43.0011 103.916 42.1989C103.582 41.9388 103.177 41.7859 102.754 41.7606C99.291 41.5394 96.4872 39.7963 95.9272 39.4243L95.8241 39.354L95.8019 39.4183C95.6705 39.2313 95.5432 39.0323 95.4239 38.8272L95.3632 38.7166C96.2014 38.2981 96.9067 37.657 97.4009 36.8642C97.8951 36.0714 98.1589 35.1579 98.163 34.2251C98.163 34.191 98.163 34.1548 98.163 34.1206C98.4676 33.5969 98.628 33.0026 98.6279 32.3976V31.7944L99.4183 31.0947C99.7802 30.7751 100.154 30.4373 100.338 29.997C100.412 29.8188 100.445 29.6265 100.435 29.4341C100.453 29.2692 100.428 29.1025 100.363 28.9498C100.298 28.7971 100.195 28.6635 100.063 28.5615C99.4567 28.1453 98.446 28.5615 98.0073 27.9825C97.8052 27.7211 97.8416 27.3652 97.7425 27.0576C97.5404 26.4324 96.8126 26.0946 96.1395 26.0845C95.4663 26.0745 94.8215 26.3178 94.1746 26.5007C92.8156 26.8844 91.3972 27.0167 89.9902 26.8908C89.6095 26.8234 89.2189 26.8371 88.844 26.931C88.615 27.0251 88.4115 27.1715 88.25 27.3584C88.0884 27.5452 87.9734 27.7673 87.9141 28.0066C87.8641 28.1864 87.8343 28.3711 87.8251 28.5575C87.2612 29.1901 86.9492 30.006 86.9478 30.8515V32.3976C86.949 33.2229 87.2466 34.0208 87.7867 34.6473C87.8505 35.3748 88.0729 36.0797 88.4384 36.7131C88.8039 37.3464 89.3038 37.8929 89.9032 38.3145C89.9032 38.3547 89.9032 38.3956 89.9032 38.4372L89.9295 38.4533C89.8968 38.9326 89.8224 39.4082 89.7071 39.8747V39.7722C89.7071 39.7722 86.8771 41.27 83.8449 41.3062H83.5113C82.9132 41.2861 82.3315 41.5031 81.8941 41.9093C80.9966 42.7497 79.4239 44.0787 78.4576 44.0787C78.2555 44.0787 73.1533 45.0699 72.3083 45.2347L70.7295 43.6967L70.681 43.7872L70.588 43.6967C70.4154 43.71 70.2438 43.7348 70.0745 43.7711C69.266 42.8181 67.6488 40.6025 67.2748 37.6289C67.2748 37.6289 70.7659 33.6742 69.4823 29.989C68.3866 26.8485 65.3685 33.5798 64.5114 35.6084C64.3615 35.9624 64.3429 36.3578 64.4589 36.7242L67.295 45.8158C67.025 46.5203 66.9475 47.2834 67.0706 48.0274H67.0383L69.1042 50.6632C69.1042 50.6632 70.6588 51.3226 73.0906 51.3105C74.8729 51.3135 76.6393 50.9763 78.2939 50.3173H78.773L78.682 50.3515H81.1421L82.7068 55.0582C82.6542 55.4864 81.8982 61.4637 81.2917 62.8007C81.1118 63.2474 81.0304 63.7273 81.0532 64.208C81.085 65.1316 81.2365 66.0473 81.504 66.9323L82.8745 66.882L82.822 66.9886C81.6617 69.355 79.7231 73.571 78.5769 77.5117L76.5817 81.5327L78.0776 99.5671H78.1382L78.2535 99.5852C78.4152 99.6093 78.6577 99.6455 78.9771 99.6857L78.8599 99.8867L75.5629 105.315C75.5629 105.315 73.2119 110.102 78.4131 109.199C78.4131 109.199 80.3356 108.645 81.1199 105.379L84.5402 102.189C84.5402 102.189 84.6999 100.07 83.7317 99.2233C83.671 98.2442 83.5174 95.3852 83.7539 94.6976C84.0389 93.8652 82.541 84.2931 82.541 84.2931C82.541 84.2931 87.9545 73.1247 91.2334 72.8472C91.4737 72.8305 91.715 72.8619 91.9429 72.9397C94.6375 73.8123 97.9022 80.2922 98.8624 82.3088L98.9069 82.4012V82.4193L98.9433 82.4978V82.5199L98.9756 82.5882V82.6063L99.0039 82.6686V82.6827L99.0282 82.733V82.7531L99.0464 82.7913V82.8074L99.0585 82.8355V82.8516V82.8697L99.0686 82.8938L99.4951 95.4495L99.5376 95.4716H99.5578L99.5214 95.731L99.3354 97.0278C99.3354 97.0278 101.686 101.954 101.543 102.577C101.399 103.2 103.11 105.699 105.531 105.006C107.953 104.312 106.512 100.401 106.512 100.401L104.179 95.6204L104.076 95.4073C104.308 95.2655 104.527 95.1033 104.731 94.9228C104.731 94.9228 104.019 89.7899 104.731 88.6801C105.442 87.5703 105.657 82.5058 105.657 82.5058C105.657 82.5058 105.157 79.0376 104.302 77.5117L100.72 64.7951C101.794 65.7883 102.628 66.1763 103.326 66.1502H103.441C103.748 66.1559 104.05 66.081 104.318 65.9331C104.462 65.8522 104.598 65.7573 104.723 65.6496C104.747 65.6291 104.769 65.607 104.789 65.5832C105.786 64.7509 103.649 61.4898 102.438 59.5517C101.272 57.6819 102.879 52.6013 103 52.2233C103.108 52.1445 103.224 52.0772 103.346 52.0223C103.597 51.9154 103.866 51.8574 104.138 51.8514C105.299 51.8916 106.726 52.5551 108.493 52.8888C109.721 53.0965 110.965 53.1928 112.21 53.1763H112.283C112.778 53.1763 113.227 53.1662 113.591 53.1522C113.923 53.1392 114.248 53.0519 114.541 52.8968C114.792 52.751 115.02 52.568 115.216 52.354L118.317 48.8698L118.236 48.908C118.387 48.5128 118.387 48.0767 118.236 47.6816L121.513 42.0521C121.679 41.7747 121.779 41.4637 121.806 41.1424C121.834 40.8211 121.788 40.4977 121.673 40.1964Z" fill="url(#paint0_linear)"/>
<path d="M84.8576 101.712L81.5565 104.859C80.8005 108.076 78.9428 108.62 78.9428 108.62C73.9234 109.509 76.1915 104.8 76.1915 104.8L79.3754 99.4424L79.7675 98.7809C79.7675 98.7809 82.0376 98.0974 83.5497 98.5075C83.7406 98.5596 83.917 98.6545 84.0652 98.785C85.0133 99.6033 84.8576 101.712 84.8576 101.712Z" fill="#444176"/>
<path d="M105.212 104.517C102.873 105.201 101.223 102.74 101.371 102.123C101.519 101.505 99.2343 96.6579 99.2343 96.6579L99.4122 95.3793L99.578 94.1951L103.419 94.4685L103.781 95.2245L106.033 99.9391C106.033 99.9391 107.551 103.833 105.212 104.517Z" fill="#444176"/>
<path opacity="0.1" d="M84.1016 99.3196C83.7397 99.9368 80.8066 99.6252 79.3774 99.4322L79.7696 98.7707C79.7696 98.7707 82.0397 98.0871 83.5517 98.4973C83.7426 98.5493 83.919 98.6442 84.0672 98.7747C84.0874 99.1085 84.1016 99.3196 84.1016 99.3196Z" fill="black"/>
<path opacity="0.1" d="M103.785 95.2203C101.818 96.5231 99.7236 95.538 99.4082 95.3751L99.574 94.1909L103.415 94.4644L103.785 95.2203Z" fill="black"/>
<path d="M104.318 88.3765C103.631 89.4702 104.318 94.5327 104.318 94.5327C102.048 96.5854 99.3678 95.0796 99.3678 95.0796L98.9635 82.7008C98.9635 82.7008 94.494 72.5094 91.3304 72.7829C88.1668 73.0563 82.9413 84.0679 82.9413 84.0679C82.9413 84.0679 84.3846 93.5053 84.1097 94.3216C83.8347 95.1379 84.1097 99.1086 84.1097 99.1086C83.6286 99.9289 78.6092 99.1086 78.6092 99.1086L77.1659 81.3256L79.0823 77.3568C80.184 73.4725 82.0558 69.3147 83.1757 66.9825C83.7317 65.8224 84.1036 65.1147 84.1036 65.1147L87.7625 64.3568L99.6387 61.908L103.906 77.3568C104.731 78.8607 105.212 82.2806 105.212 82.2806C105.212 82.2806 105.006 87.2828 104.318 88.3765Z" fill="#565387"/>
<g opacity="0.1">
<path opacity="0.1" d="M100.467 95.0799L100.063 82.7011C100.063 82.7011 95.5937 72.5098 92.4301 72.7832C92.2886 72.7969 92.1494 72.828 92.0157 72.8757C95.1004 73.8951 98.9635 82.7011 98.9635 82.7011L99.3678 95.0799C100.211 95.5073 101.162 95.6799 102.103 95.5765C101.533 95.5083 100.979 95.3402 100.467 95.0799Z" fill="black"/>
<path opacity="0.1" d="M79.7008 99.1149L78.2575 81.3318L80.1819 77.357C81.2836 73.4727 83.1555 69.3149 84.2754 66.9827C84.8313 65.8227 85.2033 65.115 85.2033 65.115L88.8622 64.357L99.7033 62.1153L99.6447 61.9001L87.7625 64.357L84.1036 65.115C84.1036 65.115 83.7316 65.8227 83.1757 66.9827C82.0518 69.3149 80.1839 73.4807 79.0822 77.357L77.1578 81.3238L78.6011 99.1068C78.6011 99.1068 81.3423 99.5552 82.9675 99.4567C81.8735 99.3976 80.7832 99.2835 79.7008 99.1149Z" fill="black"/>
</g>
<path d="M71.338 44.0244C71.338 44.0244 67.4183 44.2255 67.9682 48.333L69.0678 48.4697L70.7174 46.6924L71.5421 45.1885V44.8467L71.338 44.0244Z" fill="#CED2DF"/>
<path opacity="0.1" d="M71.338 44.0244C71.338 44.0244 67.4183 44.2255 67.9682 48.333L69.0678 48.4697L70.7174 46.6924L71.5421 45.1885V44.8467L71.338 44.0244Z" fill="black"/>
<path d="M114.943 45.5283C114.943 45.5283 118.178 47.2373 117.351 49.2217L116.32 49.6238L114.945 48.8718L114.743 47.0945L114.881 45.8641L114.943 45.5283Z" fill="#CED2DF"/>
<path opacity="0.1" d="M114.943 45.5283C114.943 45.5283 118.178 47.2373 117.351 49.2217L116.32 49.6238L114.945 48.8718L114.743 47.0945L114.881 45.8641L114.943 45.5283Z" fill="black"/>
<path d="M94.1766 27.8818H91.4254C89.0708 27.8818 87.1621 29.7802 87.1621 32.122C87.1621 34.4638 89.0708 36.3622 91.4254 36.3622H94.1766C96.5312 36.3622 98.4399 34.4638 98.4399 32.122C98.4399 29.7802 96.5312 27.8818 94.1766 27.8818Z" fill="#88455E"/>
<path d="M71.3117 44.6054L68.9041 48.4254L68.702 47.7458L65.4312 37.1464C65.3193 36.785 65.3372 36.3963 65.4817 36.0466C66.3085 34.0481 69.2235 27.4014 70.2807 30.5076C71.5179 34.1266 68.1481 38.031 68.1481 38.031C68.5322 41.1996 70.3212 43.4956 71.0246 44.2918C71.2025 44.4988 71.3117 44.6054 71.3117 44.6054Z" fill="#EC8C9C"/>
<path d="M114.428 46.2461C114.428 46.2461 118.21 42.6894 118.066 41.2539C118.066 41.2539 114.49 35.5099 116.279 34.2171C117.694 33.1877 119.843 38.3749 120.676 40.5804C120.786 40.8742 120.83 41.1884 120.806 41.5009C120.781 41.8135 120.688 42.1169 120.533 42.3899L116.013 50.3495L114.428 46.2461Z" fill="#EC8C9C"/>
<path d="M89.9457 36.3301C89.9457 36.3301 90.633 40.707 88.6398 42.3496C86.6466 43.9922 94.3485 43.9821 94.3485 43.9821L97.0997 41.4509C97.0997 41.4509 93.9361 38.5095 94.8983 36.322L89.9457 36.3301Z" fill="#EC8C9C"/>
<path opacity="0.1" d="M89.8082 41.3223C89.8082 41.3223 92.7656 43.5117 95.721 41.0488L100.534 50.9667L100.259 63.0721C100.259 63.0721 90.2873 68.2009 86.1615 65.0565C82.0356 61.912 85.4742 60.2694 85.4742 60.2694L84.5119 50.9687L85.5429 44.9492C85.5429 44.9492 87.3986 42.0762 87.5381 42.0762C87.6776 42.0762 89.8082 41.3223 89.8082 41.3223Z" fill="black"/>
<path d="M89.8082 41.1855C89.8082 41.1855 92.7656 43.379 95.723 40.9121L100.536 50.83L100.261 62.9354C100.261 62.9354 90.2893 68.0642 86.1635 64.9197C82.0376 61.7753 85.4762 60.1327 85.4762 60.1327L84.514 50.832L85.5449 44.8125C85.5449 44.8125 87.4006 41.9395 87.5401 41.9395C87.6796 41.9395 89.8082 41.1855 89.8082 41.1855Z" fill="#EBF1F6"/>
<path opacity="0.1" d="M89.8082 40.1621C89.8082 40.1621 87.0044 41.7504 83.9601 41.672C83.6745 41.6631 83.39 41.7108 83.1231 41.8123C82.8563 41.9138 82.6123 42.067 82.4056 42.2631C81.5383 43.0914 80.0202 44.4023 79.0802 44.4023C78.8781 44.4023 73.0279 45.5644 73.0279 45.5644L71.4815 44.0263C71.4815 44.0263 69.177 48.5058 68.0773 48.3007L70.0725 50.9003C70.0725 50.9003 73.8547 52.5409 78.8053 50.5585H81.694L83.2061 55.2089C83.2061 55.2089 82.45 61.5018 81.8315 62.8689C81.2129 64.2361 82.0336 66.9041 82.0336 66.9041L87.4653 66.703C87.4653 66.703 87.7402 64.0351 88.1526 63.6872C88.565 63.3394 86.7093 51.5819 86.7093 51.5819C86.7093 51.5819 85.4721 44.9472 90.0104 42.5546L89.8082 40.1621Z" fill="black"/>
<path opacity="0.1" d="M87.7604 64.3647C87.5604 65.1761 87.4179 66.0004 87.3339 66.8317L83.1757 66.9885C83.7316 65.8284 84.1036 65.1207 84.1036 65.1207L87.7604 64.3647Z" fill="black"/>
<path opacity="0.1" d="M71.3117 44.6054L68.9041 48.4254L68.702 47.7459C69.5853 46.8733 70.6203 45.0498 71.0327 44.2898C71.2025 44.4989 71.3117 44.6054 71.3117 44.6054Z" fill="black"/>
<path d="M89.8082 40.1621C89.8082 40.1621 86.8649 41.7504 83.8226 41.672C83.537 41.6631 83.2525 41.7108 82.9857 41.8123C82.7188 41.9138 82.4749 42.067 82.2681 42.2631C81.4009 43.0914 79.8827 44.4023 78.9428 44.4023C78.7406 44.4023 72.8905 45.5644 72.8905 45.5644L71.338 44.0243C71.338 44.0243 69.0335 48.5038 67.9338 48.2987L69.929 50.8983C69.929 50.8983 73.7112 52.5389 78.6618 50.5565H81.5505L83.0625 55.2048C83.0625 55.2048 82.3065 61.4978 81.6879 62.8649C81.0694 64.2321 81.8901 66.9 81.8901 66.9L87.3218 66.699C87.3218 66.699 87.5967 64.031 88.0091 63.6832C88.4215 63.3354 86.5658 51.5779 86.5658 51.5779C86.5658 51.5779 85.3286 44.9431 89.8668 42.5506L89.8082 40.1621Z" fill="#CED2DF"/>
<path opacity="0.1" d="M95.7231 39.748C95.7231 39.748 98.5289 41.8752 102.275 42.1205C102.685 42.146 103.076 42.297 103.397 42.5527C104.341 43.3498 105.142 44.3018 105.764 45.3675C107.276 47.8303 110.989 47.5569 110.989 47.5569C110.989 47.5569 114.6 46.429 114.806 45.5464C114.806 45.5464 114.909 50.3716 117.179 49.2055L114.193 52.6274C114.005 52.8436 113.774 53.0192 113.515 53.1433C113.256 53.2674 112.975 53.3375 112.687 53.3492C111.565 53.3934 109.617 53.4075 107.971 53.0899C105.495 52.6114 103.708 51.4493 102.402 52.4746C102.402 52.4746 100.684 57.8085 101.852 59.7246C103.021 61.6406 105.087 64.8534 104.122 65.6757C103.158 66.498 101.99 66.4277 100.065 64.4453C98.1407 62.4629 97.9325 59.1114 97.9325 59.1114L98.4136 50.4943C98.4136 50.4943 96.5579 43.9963 94.775 42.6975L95.7231 39.748Z" fill="black"/>
<path opacity="0.1" d="M117.452 49.1191L114.458 52.5551C114.259 52.7831 114.013 52.9655 113.736 53.0899C113.491 53.2003 113.226 53.2624 112.956 53.2729C111.834 53.3191 109.885 53.3332 108.24 53.0135C105.923 52.5652 104.209 51.5197 102.928 52.2254C102.837 52.2752 102.75 52.3323 102.669 52.3963C102.669 52.3963 100.951 57.7302 102.119 59.6462C103.287 61.5623 105.353 64.7751 104.389 65.5974C104.228 65.7386 104.047 65.8557 103.851 65.9452C102.986 66.3332 101.913 65.9975 100.332 64.3669C98.4076 62.3826 98.1993 59.033 98.1993 59.033L98.6805 50.4159C98.6805 50.4159 96.8247 43.9179 95.0418 42.6191L95.8282 39.8145C96.3699 40.1804 99.0746 41.8994 102.418 42.1185C102.828 42.1441 103.22 42.2951 103.54 42.5508C104.485 43.348 105.285 44.2999 105.907 45.3655C107.419 47.8284 111.133 47.555 111.133 47.555C112.023 47.2725 112.892 46.9285 113.734 46.5256C114.262 46.2682 114.727 45.9868 114.947 45.7214C115.009 45.6521 115.054 45.5695 115.079 45.4801C115.079 45.4801 115.184 50.2812 117.452 49.1191Z" fill="black"/>
<path d="M117.314 49.1874L114.323 52.6274C114.158 52.8162 113.961 52.9742 113.741 53.0938C113.458 53.2464 113.144 53.3324 112.823 53.3451C111.701 53.3914 109.752 53.4055 108.107 53.0858C105.873 52.6535 104.197 51.6643 102.934 52.2293C102.789 52.2918 102.653 52.3722 102.529 52.4686C102.529 52.4686 100.811 57.8025 101.98 59.7185C103.148 61.6345 105.214 64.8473 104.25 65.6696C104.125 65.7764 103.989 65.8701 103.845 65.9491C102.956 66.4377 101.856 66.1501 100.189 64.4392C98.2641 62.4548 98.0559 59.1053 98.0559 59.1053L98.537 50.4882C98.537 50.4882 96.6813 43.9902 94.8983 42.6914L95.7231 39.75L95.8221 39.8184C96.3639 40.1843 99.0686 41.9033 102.412 42.1224C102.822 42.148 103.214 42.299 103.534 42.5547C104.479 43.3519 105.279 44.3038 105.901 45.3694C107.413 47.8323 111.127 47.5589 111.127 47.5589C112.017 47.2764 112.886 46.9324 113.728 46.5295C114.353 46.2118 114.862 45.864 114.941 45.5463C114.941 45.5463 114.941 45.6087 114.941 45.7192C115.002 46.5496 115.305 50.2148 117.314 49.1874Z" fill="#CED2DF"/>
<path opacity="0.1" d="M94.9589 36.4326H89.9052C90.0164 37.2318 90.0482 38.0399 90.0002 38.8452C90.7717 39.3851 91.6764 39.706 92.6173 39.7733C93.5582 39.8406 94.4998 39.6518 95.341 39.2272C94.8558 38.3346 94.5607 37.3213 94.9589 36.4326Z" fill="black"/>
<path d="M92.9718 39.6796C95.7439 39.6796 97.9912 37.4445 97.9912 34.6874C97.9912 31.9304 95.7439 29.6953 92.9718 29.6953C90.1997 29.6953 87.9525 31.9304 87.9525 34.6874C87.9525 37.4445 90.1997 39.6796 92.9718 39.6796Z" fill="#EC8C9C"/>
<path opacity="0.1" d="M91.9287 33.7989C92.4887 33.7325 93.0486 33.5355 93.6005 33.6461C94.1018 33.7466 94.5284 34.0904 95.0297 34.195C95.996 34.396 96.8935 33.6883 97.6232 33.0288L99.2 31.6014C99.5497 31.2857 99.9095 30.954 100.089 30.5197C100.269 30.0854 100.207 29.5145 99.8226 29.241C99.2465 28.8389 98.2539 29.241 97.8375 28.67C97.6495 28.4127 97.6778 28.0669 97.5808 27.7593C97.3786 27.144 96.6832 26.8083 96.0323 26.8002C95.3814 26.7922 94.7588 27.0294 94.1362 27.2024C92.8246 27.5808 91.4532 27.711 90.0932 27.5864C89.7262 27.5195 89.349 27.5326 88.9875 27.6246C88.765 27.719 88.5679 27.8641 88.412 28.0481C88.2561 28.2322 88.1458 28.45 88.09 28.6841C87.7786 29.7778 88.3103 31.5411 88.844 32.5202C89.3776 33.4993 90.8634 33.9296 91.9287 33.7989Z" fill="black"/>
<path d="M91.9287 33.6621C92.4887 33.5958 93.0486 33.3988 93.6005 33.5093C94.1018 33.6099 94.5284 33.9537 95.0297 34.0582C95.996 34.2593 96.8935 33.5516 97.6232 32.8921L99.2 31.4646C99.5497 31.149 99.9095 30.8173 100.089 30.383C100.269 29.9487 100.207 29.3777 99.8226 29.1043C99.2465 28.7022 98.2539 29.1043 97.8375 28.5333C97.6495 28.276 97.6778 27.9302 97.5808 27.6225C97.3786 27.0073 96.6832 26.6716 96.0323 26.6635C95.3814 26.6555 94.7588 26.8927 94.1362 27.0656C92.8246 27.444 91.4532 27.5743 90.0932 27.4496C89.7262 27.3828 89.349 27.3958 88.9875 27.4878C88.765 27.5823 88.5679 27.7274 88.412 27.9114C88.2561 28.0954 88.1458 28.3133 88.09 28.5474C87.7786 29.6411 88.3103 31.4043 88.844 32.3834C89.3776 33.3626 90.8634 33.7828 91.9287 33.6621Z" fill="#88455E"/>
<path opacity="0.1" d="M83.1737 55.2412C83.1737 55.2412 84.2734 55.3779 84.8233 56.0615C85.3731 56.7451 86.3353 56.9502 86.3353 56.9502" fill="black"/>
<path opacity="0.1" d="M73.2705 46.2117C73.2705 46.2117 74.168 48.2041 73.6141 48.4052C73.0603 48.6062 73.2705 50.0457 73.2705 50.0457" fill="black"/>
<g opacity="0.1">
<path opacity="0.1" d="M73.5798 45.5284C73.5798 45.5284 79.4239 44.3663 79.626 44.3663C80.568 44.3663 82.0841 43.0554 82.9514 42.2271C83.2151 41.9758 83.5395 41.7964 83.8934 41.7064H83.8186C83.533 41.6975 83.2485 41.7452 82.9816 41.8466C82.7147 41.9481 82.4708 42.1014 82.264 42.2975C81.3968 43.1258 79.8787 44.4367 78.9387 44.4367C78.775 44.4367 75.0352 45.1745 73.5171 45.4741L73.5798 45.5284Z" fill="black"/>
<path opacity="0.1" d="M89.8163 40.4497V40.1943C88.4104 40.9073 86.8976 41.3887 85.3367 41.6198C86.8854 41.4827 88.3998 41.0871 89.8163 40.4497Z" fill="black"/>
<path opacity="0.1" d="M82.5895 66.8661C82.5895 66.8661 81.7647 64.1981 82.3874 62.8309C83.01 61.4638 83.762 55.1708 83.762 55.1708L82.2539 50.5205H79.3572L79.1813 50.5889H81.5565L83.0625 55.2412C83.0625 55.2412 82.3065 61.5342 81.6879 62.9013C81.0694 64.2685 81.8901 66.9364 81.8901 66.9364L87.3218 66.7354V66.6931L82.5895 66.8661Z" fill="black"/>
</g>
<g opacity="0.1">
<path opacity="0.1" d="M104.318 64.576C104.194 64.6828 104.058 64.7765 103.914 64.8555C103.025 65.3441 101.925 65.0566 100.257 63.3456C98.729 61.7714 98.2843 59.3246 98.165 58.3977L98.1246 59.1054C98.1246 59.1054 98.3267 62.4569 100.257 64.4393C101.925 66.1563 103.025 66.4378 103.914 65.9492C104.058 65.8702 104.194 65.7765 104.318 65.6698C104.607 65.4225 104.624 64.958 104.472 64.379C104.434 64.4542 104.382 64.5211 104.318 64.576Z" fill="black"/>
<path opacity="0.1" d="M116.342 49.2899L114.395 51.5276C114.231 51.7164 114.034 51.8744 113.813 51.9941C113.531 52.1467 113.217 52.2326 112.896 52.2454C111.774 52.2916 109.825 52.3057 108.179 51.986C105.946 51.5538 104.27 50.5646 103.006 51.1295C102.862 51.192 102.726 51.2724 102.602 51.3688C102.602 51.3688 101.492 54.8148 101.662 57.1611C101.794 54.9676 102.602 52.4625 102.602 52.4625C102.726 52.3662 102.862 52.2858 103.006 52.2233C104.272 51.6583 105.946 52.6475 108.179 53.0798C109.825 53.3974 111.772 53.3833 112.896 53.3391C113.217 53.3264 113.531 53.2404 113.813 53.0878C114.033 52.9699 114.23 52.814 114.395 52.6274L117.389 49.1914C117.234 49.2874 117.059 49.3462 116.877 49.3633C116.696 49.3804 116.512 49.3553 116.342 49.2899Z" fill="black"/>
</g>
<path d="M28.4301 73.917C28.4542 73.9403 28.4852 73.9552 28.5185 73.9596C28.5518 73.964 28.5856 73.9576 28.6149 73.9413C28.5525 73.9424 28.4901 73.9342 28.4301 73.917Z" fill="url(#paint1_linear)"/>
<path d="M49.0309 40.6124C48.6671 40.5079 48.1476 40.337 47.5229 40.1198C48.172 39.2893 48.647 38.3376 48.9198 37.3212L48.8672 37.3413C48.8854 37.279 48.9036 37.2187 48.9198 37.1543C47.721 37.6389 46.3949 36.8186 45.55 35.7651C44.705 34.7115 44.1349 33.4047 43.2091 32.4356C42.8233 32.0501 42.4083 31.6946 41.9679 31.3721C41.695 31.171 41.4019 30.9438 41.0683 30.9338C40.5286 30.9177 40.1061 31.4444 39.5866 31.5993C39.2448 31.6758 38.8888 31.6626 38.5536 31.5611C37.2134 31.2555 35.9257 30.6905 34.5572 30.5417C33.825 30.4518 33.0818 30.5351 32.3881 30.785C31.7008 31.0443 31.3875 31.5611 30.8316 31.9752C30.2251 32.4195 29.0405 32.4095 28.335 32.4879C27.4789 32.5852 26.6169 32.6208 25.7556 32.5945C25.2607 32.5518 24.7623 32.57 24.2719 32.6487C23.247 32.8719 22.4242 33.6822 21.6561 34.4582C21.4464 34.6338 21.2955 34.8687 21.2235 35.1317C21.2136 35.2058 21.2136 35.2808 21.2235 35.3549C21.2158 35.5576 21.2509 35.7597 21.3266 35.948C21.563 36.6459 21.8972 37.3071 22.3191 37.9123C22.6325 38.3586 22.9983 38.7788 23.1762 39.3076C23.2606 39.5675 23.3049 39.8387 23.3076 40.1118C23.2989 40.4018 23.2685 40.6908 23.2167 40.9763C23.081 41.7657 22.858 42.5378 22.5516 43.2784C22.3614 43.6585 22.2305 44.0653 22.1635 44.4847C22.1577 44.5704 22.1577 44.6563 22.1635 44.742C22.1129 46.069 23.4592 47.024 23.72 48.3429C23.7414 48.4523 23.7543 48.5632 23.7584 48.6746C23.7301 49.4969 23.2591 50.3011 22.5637 50.6208C22.6244 50.6449 22.687 50.665 22.7497 50.6851C22.6899 50.7225 22.6278 50.7561 22.5637 50.7857C22.6911 50.8339 22.8205 50.8761 22.9519 50.9103C22.1615 51.5949 21.4973 52.4114 20.989 53.3229C18.6501 57.6536 2.80985 66.136 2.80985 66.136L3.04434 66.2687L2.85432 66.3913C1.48376 67.2981 -1.73241 69.9419 1.17447 73.2854C1.17447 73.2854 3.44459 69.7228 5.03549 68.2048C5.10624 68.1365 5.177 68.0741 5.23764 68.0158C5.27259 68.0694 5.29602 68.1295 5.30646 68.1925C5.3169 68.2554 5.31411 68.3199 5.29829 68.3817L15.7129 62.5613C15.7129 62.5613 19.4143 59.9838 20.4472 59.4028C21.1743 58.9522 21.9655 58.6133 22.7942 58.3975L22.6729 58.4478C23.0623 58.3412 23.4638 58.2845 23.8676 58.2789C25.7112 58.307 27.7084 59.65 28.3654 64.9679C29.2467 72.0891 28.8384 73.3739 28.5554 73.5488C28.5205 73.5462 28.486 73.5402 28.4523 73.5307C28.461 73.5383 28.4705 73.545 28.4806 73.5508C28.4422 73.5481 28.4043 73.5414 28.3674 73.5307C28.3878 73.5493 28.4126 73.5624 28.4395 73.5687C28.4664 73.575 28.4944 73.5744 28.521 73.5669C28.5402 73.5726 28.5603 73.5744 28.5801 73.5719C28.6 73.5695 28.6191 73.563 28.6363 73.5528C28.6827 73.5555 28.7293 73.5555 28.7757 73.5528C28.7757 73.6185 28.771 73.6855 28.7616 73.7538C28.7474 73.7538 28.6787 73.7921 28.7616 73.7961C28.7393 74.1982 28.7414 74.6345 28.7616 75.0909C27.8459 75.1411 26.9301 75.1954 26.1337 75.2436L26.2044 74.8677L26.2368 74.6988C26.9402 74.6425 27.6073 74.4374 27.6862 73.8705C27.858 72.6239 26.1377 71.9585 24.6742 71.876C23.2106 71.7936 14.4333 72.3746 14.4333 72.3746C14.4333 72.3746 13.1174 74.0695 17.2917 74.5862C17.4157 74.6505 17.5444 74.7176 17.6778 74.7873C19.3132 75.7141 21.5308 77.421 22.5941 78.2614L22.7416 78.378L22.2646 78.7641C24.846 79.3451 27.3425 89.1565 28.7191 93.6419C30.0958 98.1274 33.1078 97.9646 35.6043 97.2991C37.9431 96.6758 38.2322 89.9205 38.2706 89.072V88.9856L42.4308 94.0963L42.7462 94.4843C42.8675 94.5473 42.9874 94.6063 43.106 94.6613C46.2555 96.1511 49.7344 93.2941 48.7459 90.0371C47.7453 86.7539 46.1928 81.8985 45.1578 79.8457C44.2906 78.1267 43.1707 75.2718 42.4915 73.4844C42.5797 73.4492 42.6654 73.4083 42.7482 73.3618C42.7482 73.3618 42.732 73.2814 42.7057 73.1346L42.7482 73.1125C42.7482 73.1125 41.7374 67.9414 41.693 64.2662C41.693 64.2019 41.693 64.1349 41.693 64.0652C41.693 64.0249 41.693 63.9847 41.693 63.9465C42.445 63.7756 42.922 63.7093 42.922 63.7093L42.9362 63.5485L42.8493 63.5665L43.2677 58.8036C43.2677 58.8036 44.804 55.5526 43.6275 54.1995C43.2699 53.8038 43.031 53.3162 42.9382 52.7922C42.7361 51.5476 42.9382 49.4708 45.6773 47.7458C49.8941 45.0858 51.5396 42.9205 51.5396 42.9205C51.5396 42.9205 51.6124 41.3684 49.0309 40.6124ZM40.656 43.9177V41.7162C41.4383 41.678 42.2368 41.7685 43.0231 41.7162C43.4091 41.6894 43.7916 41.6254 44.1652 41.5252L44.3553 41.6559C43.2048 42.536 41.965 43.2941 40.656 43.9177ZM28.6989 78.4263C29.0082 78.6394 29.3195 78.8606 29.6248 79.0838C29.8148 80.1694 29.9826 80.9354 29.9947 80.9897C29.6458 80.0962 29.2119 79.2378 28.6989 78.4263Z" fill="url(#paint2_linear)"/>
<path d="M35.3819 76.6169L35.2 77.6001L35.0605 78.352L34.8058 79.7272L32.3356 81.4462C32.3356 81.4462 32.1132 81.2572 31.7453 80.9577C30.7346 80.1293 28.6059 78.4485 27.0433 77.5398C26.6418 77.2848 26.2072 77.0852 25.7516 76.9467L35.3819 76.6169Z" fill="#FFBDC6"/>
<path opacity="0.1" d="M35.3819 76.6169L35.2 77.6001C34.6555 77.6302 34.1093 77.6026 33.5707 77.5177L27.8075 77.6001C27.5346 77.584 27.2798 77.5619 27.0413 77.5378C26.6398 77.2827 26.2052 77.0832 25.7496 76.9447L35.3819 76.6169Z" fill="black"/>
<path d="M33.5707 77.3567C33.5707 77.3567 36.4533 77.8472 36.6171 76.6188C36.7808 75.3904 35.1353 74.743 33.7385 74.6505C32.3416 74.558 23.9384 75.1451 23.9384 75.1451C23.9384 75.1451 22.4566 77.1094 27.8075 77.4371L33.5707 77.3567Z" fill="#7679B4"/>
<path opacity="0.1" d="M35.3819 76.6169L35.2 77.6001L35.0605 78.352L34.8058 79.7272L32.3356 81.4462C32.3356 81.4462 32.1132 81.2572 31.7453 80.9577C30.7346 80.1293 28.6059 78.4485 27.0433 77.5398C26.6418 77.2848 26.2072 77.0852 25.7516 76.9467L35.3819 76.6169Z" fill="black"/>
<path opacity="0.1" d="M35.3819 76.6169L35.2 77.6001C34.6555 77.6302 34.1093 77.6026 33.5707 77.5177L27.8075 77.6001C27.5346 77.584 27.2798 77.5619 27.0413 77.5378C26.6398 77.2827 26.2052 77.0832 25.7496 76.9447L35.3819 76.6169Z" fill="black"/>
<path opacity="0.1" d="M33.5707 77.3567C33.5707 77.3567 36.4533 77.8472 36.6171 76.6188C36.7808 75.3904 35.1353 74.743 33.7385 74.6505C32.3416 74.558 23.9384 75.1451 23.9384 75.1451C23.9384 75.1451 22.4566 77.1094 27.8075 77.4371L33.5707 77.3567Z" fill="black"/>
<path d="M39.8676 36.9836H24.8015V54.7526H39.8676V36.9836Z" fill="#A66477"/>
<path opacity="0.1" d="M39.8676 36.9836H24.8015V54.7526H39.8676V36.9836Z" fill="black"/>
<path d="M7.14188 67.4049C6.89324 67.4673 6.57789 67.7045 6.22413 68.0503C4.70196 69.5461 2.53089 73.0545 2.53089 73.0545C-0.250668 69.7613 2.82805 67.1576 4.14807 66.2629C4.46746 66.0458 4.68174 65.9292 4.68174 65.9292L7.14188 67.4049Z" fill="#FFBDC6"/>
<path d="M35.2182 42.5928C35.2182 42.5928 35.9601 47.7518 38.5112 48.9802C41.0623 50.2086 35.2182 52.5006 35.2182 52.5006L27.2313 49.5532C27.2313 49.5532 31.7594 48.0795 30.8538 43.7388L35.2182 42.5928Z" fill="#FFBDC6"/>
<path d="M26.6633 73.6272L26.4814 74.6103L26.3419 75.3623L26.0872 76.7375L23.6169 78.4565C23.6169 78.4565 23.3946 78.2675 23.0267 77.9679C22.0159 77.1396 19.8873 75.4588 18.3247 74.55C17.9231 74.295 17.4886 74.0955 17.033 73.9569L26.6633 73.6272Z" fill="#FFBDC6"/>
<path opacity="0.1" d="M26.6633 73.6272L26.4814 74.6103C25.9369 74.6405 25.3907 74.6128 24.852 74.5279L19.0888 74.6103C18.8159 74.5943 18.5612 74.5721 18.3227 74.548C17.9211 74.293 17.4866 74.0935 17.0309 73.9549L26.6633 73.6272Z" fill="black"/>
<path d="M24.844 74.3652C24.844 74.3652 27.7266 74.8558 27.8903 73.6273C28.0541 72.3989 26.4086 71.7435 25.0077 71.663C23.6068 71.5826 15.2096 72.1536 15.2096 72.1536C15.2096 72.1536 13.7278 74.1179 19.0787 74.4456L24.844 74.3652Z" fill="#7679B4"/>
<path opacity="0.1" d="M26.3338 75.3645L26.0791 76.7397L23.6089 78.4586C23.6089 78.4586 23.3865 78.2697 23.0186 77.9701L26.2853 75.3062L26.3338 75.3645Z" fill="black"/>
<path d="M42.633 94.1106C42.5198 94.0556 42.4052 93.9973 42.2893 93.9357L41.9881 93.5537L38.0099 88.5273V88.6158C37.9836 89.4502 37.6965 96.105 35.4608 96.7182C33.0734 97.3736 30.1908 97.5365 28.8748 93.1154C27.5588 88.6942 25.1694 79.0317 22.6992 78.4587L26.3621 75.469C26.3621 75.469 28.7879 78.2837 29.7784 80.9939C29.742 80.821 28.0662 73.0383 29.4489 71.6631H41.4686C41.4686 71.6631 43.3203 76.9186 44.5978 79.5242C45.5884 81.5468 47.0742 86.3278 48.0344 89.5628C48.9845 92.7635 45.6652 95.5783 42.633 94.1106Z" fill="#7679B4"/>
<path opacity="0.1" d="M42.2974 73.1348C40.4437 74.2265 32.2931 73.7822 29.6369 73.6052L28.9152 73.553C28.8364 73.553 28.9274 73.5087 28.9274 73.5087L29.0022 72.7648L30.9771 67.7707L41.5576 61.6748C41.3433 62.3162 41.2705 63.2993 41.2887 64.4272C41.3413 68.0421 42.2974 73.1348 42.2974 73.1348Z" fill="black"/>
<path d="M42.2974 72.8915C40.4437 73.9832 32.2931 73.5389 29.6369 73.362L28.9152 73.3097H28.796L28.9274 73.2755L29.5783 73.1046L30.9771 67.5355L41.5576 61.4355C41.3433 62.0769 41.2705 63.06 41.2887 64.188C41.3413 67.7968 42.2974 72.8915 42.2974 72.8915Z" fill="#F2F1F2"/>
<path opacity="0.1" d="M41.2887 64.1799C39.1378 64.6725 34.4035 66.1221 32.5842 69.6083C31.3713 71.9365 30.3606 72.9357 29.6389 73.3539L28.9172 73.3016L28.9294 73.2574L29.5803 73.0865L30.9791 67.5174L41.5596 61.4175C41.3412 62.0769 41.2705 63.052 41.2887 64.1799Z" fill="black"/>
<path opacity="0.1" d="M4.67164 65.9312L7.14188 67.4049C6.89324 67.4672 6.57789 67.7044 6.22413 68.0502C6.02199 67.4471 4.7242 66.6187 4.13797 66.2649C4.45736 66.0478 4.67164 65.9312 4.67164 65.9312Z" fill="black"/>
<path opacity="0.1" d="M28.4835 73.4044C28.4558 73.4197 28.4239 73.4259 28.3925 73.4219C28.361 73.4179 28.3317 73.4039 28.3088 73.3821C28.3656 73.3981 28.4245 73.4056 28.4835 73.4044Z" fill="black"/>
<path d="M34.0639 48.6528C34.0639 48.6528 31.8403 48.898 30.2757 47.2615C30.2757 47.2615 23.6897 49.1453 21.4661 53.4036C19.2425 57.6619 4.09351 66.0136 4.09351 66.0136C4.09351 66.0136 6.72143 67.4873 6.48087 68.2252L16.4427 62.4932C16.4427 62.4932 19.9823 59.9539 20.9708 59.3809C21.9593 58.8079 27.3931 55.2875 28.5453 64.8676C29.6975 74.4477 28.5453 73.3118 28.5453 73.3118C28.5453 73.3118 30.1928 73.8848 32.5883 69.2908C34.9837 64.6967 42.3864 63.6412 42.3864 63.6412L42.7907 58.8159C42.7907 58.8159 44.2603 55.6152 43.1343 54.2802C42.7909 53.8874 42.5629 53.4081 42.4753 52.895C42.2873 51.6685 42.4753 49.6238 45.1032 47.9249C49.1462 45.3113 50.7027 43.1761 50.7027 43.1761C50.7027 43.1761 50.7856 41.62 48.3154 40.8841C45.8451 40.1483 35.8004 36.1353 35.8004 36.1353L35.4709 37.5265L43.3749 43.0957C43.3749 43.0957 39.4229 46.2884 36.2997 46.208C36.2876 46.1939 36.8637 48.5703 34.0639 48.6528Z" fill="#565388"/>
<path opacity="0.1" d="M35.5901 44.8386C35.3955 44.1788 35.2436 43.5073 35.1353 42.8281L30.7709 43.9822C30.962 44.8105 30.9278 45.6744 30.6719 46.4853C31.5638 46.7219 32.5062 46.6918 33.381 46.3985C34.2558 46.1053 35.0242 45.562 35.5901 44.8366V44.8386Z" fill="black"/>
<path d="M31.9656 46.4008C34.558 46.4008 36.6595 44.3107 36.6595 41.7324C36.6595 39.1541 34.558 37.064 31.9656 37.064C29.3733 37.064 27.2718 39.1541 27.2718 41.7324C27.2718 44.3107 29.3733 46.4008 31.9656 46.4008Z" fill="#FFBDC6"/>
<path opacity="0.1" d="M34.4602 31.1149C35.762 31.2617 37.0012 31.8186 38.2828 32.1201C38.603 32.22 38.9442 32.2332 39.2713 32.1583C39.7686 32.0055 40.1728 31.4868 40.6863 31.5029C41.0037 31.5029 41.2927 31.7281 41.5475 31.9352C41.9694 32.2536 42.3661 32.6038 42.7341 32.9827C43.6174 33.9377 44.1673 35.2244 44.9739 36.2618C45.7804 37.2993 47.0519 38.1075 48.1981 37.631C47.4198 40.6468 44.8647 42.9528 42.1034 43.1398C41.0017 43.2142 39.8797 42.987 38.8063 43.3087C38.5403 43.4166 38.2596 43.4843 37.9735 43.5098C37.367 43.5098 36.8657 42.9488 36.4816 42.404C35.5841 41.1213 34.8644 39.6656 33.8537 38.4975C33.5202 38.1115 33.126 37.7436 32.655 37.6732C32.184 37.6028 31.7493 37.826 31.3289 38.0431C30.6355 38.401 29.926 38.771 29.3883 39.3822C28.8506 39.9934 28.5109 40.9081 28.7333 41.7365C28.8526 42.1828 29.1275 42.5849 29.1376 43.0534C29.1376 43.7973 28.4867 44.3421 28.3553 45.0639C28.3263 45.3686 28.3155 45.6747 28.3229 45.9807C28.2643 46.9739 27.6134 47.7902 26.9301 48.4114C26.6653 48.6547 26.3702 48.914 26.2934 49.29C26.2408 49.5453 26.2934 49.8168 26.259 50.0761C26.16 50.7215 25.5131 51.0472 24.941 51.1316C24.2729 51.229 23.5907 51.1486 22.964 50.8984C23.7726 50.5225 24.2557 49.4508 24.0698 48.4858C23.815 47.1568 22.4728 46.2039 22.586 44.8488C22.6493 44.4338 22.7747 44.0306 22.9579 43.6525C23.2509 42.9214 23.4637 42.1611 23.5927 41.3846C23.7249 40.787 23.7118 40.1667 23.5543 39.5752C23.3825 39.0544 23.0327 38.6403 22.7336 38.2C22.3284 37.6014 22.0086 36.9498 21.7835 36.2638C21.7019 36.0611 21.6707 35.8418 21.6925 35.6245C21.7577 35.3682 21.8985 35.1371 22.0968 34.961C22.8326 34.195 23.621 33.3968 24.5994 33.1757C25.0669 33.0982 25.5423 33.08 26.0144 33.1214C26.8386 33.1475 27.6636 33.1125 28.4826 33.0168C29.1578 32.9384 30.302 32.9485 30.872 32.5102C31.4037 32.1081 31.7049 31.5954 32.3619 31.3381C33.0324 31.0939 33.7529 31.0173 34.4602 31.1149Z" fill="black"/>
<path opacity="0.1" d="M37.0699 79.3191C37.0699 79.3191 39.7867 84.6409 38.964 86.2795L37.0699 79.3191Z" fill="black"/>
<path opacity="0.1" d="M41.9962 93.5538L38.0179 88.5275V88.6159C38.0179 88.6159 37.7875 86.9914 38.5455 87.5383C40.2052 88.7325 42.8614 90.6908 42.918 91.0286C42.9746 91.3663 42.3803 92.7214 41.9962 93.5538Z" fill="black"/>
<g opacity="0.1">
<path opacity="0.1" d="M36.3664 46.1938C36.3664 46.1938 36.7019 47.577 35.6164 48.2686C37.2882 47.9832 37.3609 46.6904 37.3104 46.1274C36.9984 46.1777 36.6824 46.1999 36.3664 46.1938Z" fill="black"/>
<path opacity="0.1" d="M5.08401 65.6857C5.08401 65.6857 20.233 57.334 22.4566 53.0757C24.0515 50.0197 27.8944 48.1881 29.9361 47.396C28.4462 47.8926 23.433 49.7966 21.5489 53.4034C19.3253 57.6617 4.17636 66.0134 4.17636 66.0134L5.08401 65.6857Z" fill="black"/>
<path opacity="0.1" d="M39.3137 45.5444C41.8911 44.7402 44.3553 42.7558 44.3553 42.7558L36.4513 37.1867L36.6312 36.4227L35.8752 36.1211L35.5457 37.5124L43.4496 43.0815C42.1813 44.0731 40.7915 44.9007 39.3137 45.5444Z" fill="black"/>
<path opacity="0.1" d="M39.3642 64.4152C40.3742 64.0723 41.4106 63.8121 42.4632 63.6371L42.4773 63.4783C41.4168 63.71 40.376 64.0232 39.3642 64.4152Z" fill="black"/>
<path opacity="0.1" d="M29.7845 72.9941H29.7117C29.6841 73.0094 29.6524 73.0155 29.6211 73.0115C29.5898 73.0075 29.5606 72.9937 29.5378 72.972C29.5944 72.9877 29.653 72.9952 29.7117 72.9941C29.9826 72.8373 30.3889 71.6149 29.5378 64.5379C28.6282 56.9823 25.0582 57.5754 23.1035 58.444C25.1007 57.8971 27.8499 58.3696 28.6322 64.8656C29.4833 71.9426 29.0769 73.167 28.8061 73.3218C29.1572 73.3089 29.497 73.195 29.7845 72.9941Z" fill="black"/>
<path opacity="0.1" d="M28.8069 73.324C28.7479 73.3251 28.6891 73.3176 28.6322 73.3018C28.6551 73.3236 28.6844 73.3375 28.7159 73.3415C28.7473 73.3455 28.7792 73.3394 28.8069 73.324Z" fill="black"/>
</g>
<path d="M34.4602 30.956C35.762 31.1027 37.0012 31.6596 38.2828 31.9612C38.603 32.0611 38.9442 32.0743 39.2713 31.9994C39.7686 31.8466 40.1728 31.3279 40.6863 31.344C41.0037 31.344 41.2927 31.5692 41.5475 31.7762C41.9694 32.0946 42.3661 32.4448 42.7341 32.8237C43.6174 33.7787 44.1673 35.0655 44.9739 36.1029C45.7804 37.1403 47.0519 37.9485 48.1981 37.472C47.4198 40.4878 44.8647 42.7939 42.1034 42.9809C41.0017 43.0553 39.8797 42.8281 38.8063 43.1498C38.5403 43.2576 38.2596 43.3254 37.9735 43.3508C37.367 43.3508 36.8657 42.7899 36.4816 42.245C35.5841 40.9623 34.8644 39.5067 33.8537 38.3386C33.5202 37.9526 33.126 37.5846 32.655 37.5143C32.184 37.4439 31.7493 37.6671 31.3289 37.8842C30.6355 38.2421 29.926 38.612 29.3883 39.2232C28.8506 39.8344 28.5109 40.7492 28.7333 41.5775C28.8526 42.0239 29.1275 42.426 29.1376 42.8944C29.1376 43.6383 28.4867 44.1832 28.3553 44.9049C28.3263 45.2096 28.3155 45.5158 28.3229 45.8217C28.2643 46.8149 27.6134 47.6312 26.9301 48.2525C26.6653 48.4957 26.3702 48.7551 26.2934 49.1311C26.2408 49.3864 26.2934 49.6578 26.259 49.9172C26.16 50.5625 25.5131 50.8883 24.941 50.9727C24.2729 51.0701 23.5907 50.9896 22.964 50.7395C23.7726 50.3635 24.2557 49.2919 24.0698 48.3269C23.815 46.9979 22.4728 46.0449 22.586 44.6898C22.6493 44.2748 22.7747 43.8716 22.9579 43.4936C23.2509 42.7625 23.4637 42.0021 23.5927 41.2257C23.7249 40.6281 23.7118 40.0077 23.5543 39.4162C23.3825 38.8955 23.0327 38.4813 22.7336 38.041C22.3284 37.4424 22.0086 36.7909 21.7835 36.1049C21.7019 35.9022 21.6707 35.6828 21.6925 35.4656C21.7577 35.2092 21.8985 34.9782 22.0968 34.8021C22.8326 34.0361 23.621 33.2379 24.5994 33.0167C25.0669 32.9393 25.5423 32.921 26.0144 32.9625C26.8386 32.9885 27.6636 32.9536 28.4826 32.8579C29.1578 32.7795 30.302 32.7895 30.872 32.3513C31.4037 31.9491 31.7049 31.4365 32.3619 31.1791C33.0324 30.935 33.7529 30.8583 34.4602 30.956Z" fill="#A66477"/>
<path d="M168.49 20.4774C168.49 20.4512 168.49 20.4271 168.49 20.403C168.49 20.3788 168.49 20.3507 168.478 20.3266H168.446C168.446 20.2723 168.446 20.218 168.446 20.1597C168.365 18.2959 165.773 14.3292 164.734 15.4872C163.825 16.5046 165.197 19.078 165.897 20.2361L165.959 20.3406L165.925 20.3185C165.925 20.3185 163.032 28.8994 162.691 29.2332C162.349 29.5669 159.968 36.3142 156.828 37.0742C156.208 37.221 155.692 37.3537 155.26 37.4763L155.294 37.3617C155.496 36.7043 155.745 36.083 155.846 35.3512C155.947 34.6194 155.846 33.7327 155.474 33.3769C155.292 33.1999 155.07 33.1758 154.92 32.8943C154.823 32.6475 154.771 32.3853 154.766 32.1203L154.5 28.8673L154.686 28.811C155.809 28.4531 156.899 27.6047 157.026 26.4627C156.987 26.4774 156.948 26.4902 156.907 26.5009C156.922 26.4345 156.933 26.3674 156.942 26.2998C155.997 26.6698 155.122 25.6967 154.213 25.2604C152.715 24.5306 151.002 25.2182 149.456 25.385C147.703 25.576 146.04 24.8523 144.249 24.9829C143.274 25.0573 142.191 25.7148 142.243 26.6698C142.274 27.1945 142.648 27.6388 142.801 28.1415C143.189 29.3578 142.326 30.5782 141.57 31.6156C141.073 32.2972 140.596 33.1276 140.511 33.9277C138.77 32.1183 136.888 30.0273 136.67 29.2412L131.635 20.6603C131.635 20.6603 131.515 20.787 131.323 20.974C131.293 20.8815 131.257 20.7729 131.216 20.6643C130.573 18.873 128.754 14.5322 126.447 15.3284C124.141 16.1246 127.404 20.5739 128.823 22.3471L129.025 22.5924C128.906 22.6215 128.781 22.6159 128.665 22.5763L134.281 32.1565C134.281 32.1565 135.302 33.9901 136.238 34.4887C136.238 34.4887 143.214 43.2365 143.299 44.9856C143.383 46.7348 146.436 51.4012 146.436 51.4012C146.436 51.4012 147.457 58.9829 145.67 60.3158H145.692H145.706H145.728H145.749H145.789H145.815H145.842H145.876H145.904H145.945H145.965C145.88 60.3983 145.793 60.4887 145.704 60.5873C144.38 62.0469 142.688 65.1753 145.001 70.4951C148.403 78.3361 148.914 81.4082 148.914 81.4082C148.914 81.4082 142.445 81.742 141.172 81.9913C140.044 82.2124 135.659 82.3672 134.657 82.3934C134.299 81.9792 133.242 81.0624 131.815 82.3934C130.028 84.0601 128.752 89.6312 128.752 89.6312C128.752 89.6312 128.071 94.1308 130.369 92.9627C130.369 92.9627 133.092 89.2131 133.856 89.0462C134.236 88.9638 134.639 88.4068 134.946 87.87L134.962 87.8801C134.98 87.8801 135.055 87.8399 135.176 87.7916C135.742 87.5685 137.301 87.0316 138.53 87.299C139.203 87.4458 142.09 87.48 145.116 87.4719C144.433 89.1005 143.208 93.3025 143.208 93.3025C143.208 93.3025 142.696 97.221 144.394 97.0601C145.607 96.9415 147.467 93.8594 148.437 92.1002C149.141 91.5875 151.156 89.7499 152.646 89.8886L162.685 86.0565C162.685 86.0565 165.066 84.7236 163.79 80.3085C162.78 76.7981 159.903 69.6125 158.767 66.8118L158.733 66.7395C158.458 66.0619 158.292 65.6598 158.292 65.6598C157.825 64.3812 157.519 63.0503 157.38 61.6971C157.37 61.5905 157.362 61.4819 157.354 61.3754C157.494 61.3167 157.627 61.2403 157.748 61.1482C157.748 61.1482 156.812 51.7349 157.748 50.7337L157.764 50.7156V50.7035L157.78 50.6834L157.817 50.6372L157.861 50.5809C157.912 50.5145 157.972 50.4321 158.041 50.3316C158.577 49.5515 159.576 47.7702 159.288 45.6672C159.276 45.576 159.261 45.4842 159.244 45.3917C159.134 44.8214 158.938 44.271 158.662 43.7592C158.621 43.5461 158.596 43.3304 158.587 43.1138C158.587 42.9912 158.587 42.8565 158.587 42.7117V42.6876C158.587 42.6487 158.587 42.6098 158.587 42.571V42.5428C158.587 42.4483 158.603 42.3418 158.617 42.2533V42.2171C158.617 42.1809 158.623 42.1441 158.636 42.1066V42.0603C158.636 42.0241 158.652 41.9879 158.66 41.9517V41.9135C158.672 41.8653 158.684 41.817 158.7 41.7688V41.7447C158.712 41.7044 158.726 41.6649 158.741 41.626L158.759 41.5798L158.799 41.4833L158.819 41.435C158.836 41.3988 158.854 41.3627 158.872 41.3265L158.886 41.2963C158.91 41.2521 158.936 41.2085 158.963 41.1656L158.985 41.1314L159.052 41.037L159.084 40.9947L159.155 40.9103L159.187 40.8741C159.224 40.8359 159.26 40.7977 159.301 40.7615C160.406 39.7562 165.341 32.3475 165.341 32.3475C165.341 32.3475 166.531 30.6808 166.531 29.5991C166.598 29.575 168.702 22.5985 168.49 20.4774ZM155.243 82.7533C155.122 81.6113 155.001 80.1959 154.89 78.7322L156.814 81.7158C156.814 81.7158 156.632 82.6246 155.243 82.7533Z" fill="url(#paint3_linear)"/>
<path d="M135.178 82.1218C135.178 82.1218 134.026 80.3123 132.296 81.959C130.565 83.6056 129.332 89.0822 129.332 89.0822C129.332 89.0822 128.673 93.5054 130.897 92.3574C130.897 92.3574 133.525 88.6721 134.273 88.5092C135.021 88.3464 135.837 86.2977 135.837 86.2977L135.178 82.1218Z" fill="#493545"/>
<path d="M147.527 86.543C147.527 86.543 145.963 85.8051 145.47 86.3801C144.976 86.9551 143.329 92.6851 143.329 92.6851C143.329 92.6851 142.836 96.4528 144.481 96.288C146.127 96.1231 149.009 90.2242 149.009 90.2242L147.527 86.543Z" fill="#493545"/>
<path opacity="0.05" d="M147.527 86.543C147.527 86.543 145.963 85.8051 145.47 86.3801C144.976 86.9551 143.329 92.6851 143.329 92.6851C143.329 92.6851 142.836 96.4528 144.481 96.288C146.127 96.1231 149.009 90.2242 149.009 90.2242L147.527 86.543Z" fill="black"/>
<path d="M152.961 75.4066L156.501 80.8934C156.501 80.8934 156.254 82.1218 154.113 81.8765L146.786 86.4625C146.786 86.4625 146.149 92.0457 148.184 91.5391C148.514 91.4566 150.812 89.0822 152.466 89.2471L162.183 85.4794C162.183 85.4794 164.488 84.1685 163.253 79.8298C162.017 75.4911 157.934 65.4304 157.934 65.4304L151.479 69.0212L152.961 75.4066Z" fill="#3E3D77"/>
<path opacity="0.05" d="M152.961 75.4066L156.501 80.8934C156.501 80.8934 156.254 82.1218 154.113 81.8765L146.786 86.4625C146.786 86.4625 146.149 92.0457 148.184 91.5391C148.514 91.4566 150.812 89.0822 152.466 89.2471L162.183 85.4794C162.183 85.4794 164.488 84.1685 163.253 79.8298C162.017 75.4911 157.934 65.4304 157.934 65.4304L151.479 69.0212L152.961 75.4066Z" fill="black"/>
<path d="M155.185 83.513C155.678 86.6253 152.88 86.8706 152.88 86.8706C152.88 86.8706 140.282 87.1158 138.801 86.7881C137.319 86.4604 135.342 87.3611 135.342 87.3611C132.789 85.805 134.849 81.9568 134.849 81.9568C134.849 81.9568 140.119 81.794 141.354 81.5547C142.589 81.3155 148.845 80.9757 148.845 80.9757C148.845 80.9757 148.352 77.9458 145.057 70.2496C142.819 65.0222 144.451 61.9461 145.738 60.5126C146.067 60.1322 146.447 59.7993 146.868 59.5234L156.996 60.014C156.985 60.522 157.004 61.0302 157.053 61.536C157.226 63.2725 157.68 64.9697 158.397 66.5623C157.821 66.5623 154.115 70.0023 154.115 70.0023C154.115 70.0023 154.69 80.4027 155.185 83.513Z" fill="#3E3D77"/>
<path opacity="0.1" d="M135.589 82.2846C135.589 82.2846 140.859 82.1217 142.094 81.8825C143.329 81.6432 149.585 81.3095 149.585 81.3095C149.585 81.3095 149.092 78.2796 145.797 70.5834C143.559 65.356 145.191 62.2799 146.478 60.8464C146.807 60.4661 147.187 60.1331 147.608 59.8573L156.992 60.3116C156.992 60.2151 156.992 60.1106 156.992 60.0201L146.864 59.5295C146.443 59.8054 146.063 60.1383 145.734 60.5187C144.453 61.9542 142.815 65.0283 145.053 70.2557C148.356 77.9459 148.845 80.9757 148.845 80.9757C148.845 80.9757 142.579 81.3035 141.354 81.5487C140.129 81.794 134.849 81.9508 134.849 81.9508C134.849 81.9508 132.791 85.801 135.342 87.3632C135.342 87.3632 135.419 87.327 135.544 87.2747C133.848 85.5396 135.589 82.2846 135.589 82.2846Z" fill="black"/>
<path d="M150.655 29.4683H145.55V42.3235H150.655V29.4683Z" fill="#493545"/>
<path opacity="0.1" d="M150.655 29.4683H145.55V42.3235H150.655V29.4683Z" fill="black"/>
<path d="M153.574 27.5823C153.75 27.6306 153.948 27.6366 154.067 27.8779C154.141 28.0707 154.181 28.2747 154.186 28.481L154.508 32.4538C154.512 32.7139 154.563 32.9712 154.657 33.2138C154.793 33.4832 155.017 33.5154 155.193 33.6883C155.547 34.0381 155.65 34.9147 155.553 35.6284C155.456 36.3422 155.211 36.9534 155.019 37.5987C154.744 38.5236 154.562 39.563 154.176 40.3431C153.79 41.1232 153.089 41.5494 152.636 40.894C152.183 40.2386 152.244 38.9156 152.159 37.832C152.017 36.0225 151.308 34.4623 151.259 32.6408C151.219 31.1671 151.617 29.7919 151.866 28.3946C152.043 27.4355 152.054 26.2714 152.312 25.4089C152.529 26.4343 152.941 27.4094 153.574 27.5823Z" fill="#493545"/>
<path opacity="0.1" d="M153.574 27.5823C153.75 27.6306 153.948 27.6366 154.067 27.8779C154.141 28.0707 154.181 28.2747 154.186 28.481L154.508 32.4538C154.512 32.7139 154.563 32.9712 154.657 33.2138C154.793 33.4832 155.017 33.5154 155.193 33.6883C155.547 34.0381 155.65 34.9147 155.553 35.6284C155.456 36.3422 155.211 36.9534 155.019 37.5987C154.744 38.5236 154.562 39.563 154.176 40.3431C153.79 41.1232 153.089 41.5494 152.636 40.894C152.183 40.2386 152.244 38.9156 152.159 37.832C152.017 36.0225 151.308 34.4623 151.259 32.6408C151.219 31.1671 151.617 29.7919 151.866 28.3946C152.043 27.4355 152.054 26.2714 152.312 25.4089C152.529 26.4343 152.941 27.4094 153.574 27.5823Z" fill="black"/>
<path d="M131.966 21.9348L129.991 23.5734C129.991 23.5734 129.757 23.2999 129.407 22.8576C128.034 21.1145 124.879 16.7416 127.109 15.9595C129.338 15.1774 131.101 19.4417 131.724 21.203C131.881 21.6493 131.966 21.9348 131.966 21.9348Z" fill="#C77485"/>
<path d="M167.617 21.3618C166.794 22.5902 165.642 21.3618 165.642 21.3618C165.642 21.3618 165.494 21.1426 165.286 20.7888C164.609 19.6488 163.281 17.1216 164.16 16.1203C165.171 14.9763 167.676 18.8808 167.752 20.7124C167.776 20.9376 167.729 21.1645 167.617 21.3618Z" fill="#C77485"/>
<path d="M147.362 34.627C147.362 34.627 149.009 39.8684 148.514 41.4226C148.019 42.9767 152.056 44.7862 152.056 44.7862H156.667C156.667 44.7862 158.314 41.4286 157.902 40.4455C157.489 39.4623 153.95 38.7265 153.95 38.7265C153.95 38.7265 151.892 38.7265 151.975 33.2397L147.362 34.627Z" fill="#C77485"/>
<path opacity="0.1" d="M131.966 21.9347L129.991 23.5733C129.991 23.5733 129.757 23.2999 129.407 22.8575C130.125 22.7309 131.238 21.6894 131.726 21.2029C131.881 21.6492 131.966 21.9347 131.966 21.9347Z" fill="black"/>
<path opacity="0.1" d="M167.617 21.3617C166.794 22.5901 165.642 21.3617 165.642 21.3617C165.642 21.3617 165.494 21.1426 165.286 20.7887L165.312 20.7063C165.846 21.0863 167.506 20.7626 167.752 20.7063C167.777 20.9335 167.73 21.1628 167.617 21.3617Z" fill="black"/>
<path opacity="0.1" d="M157.049 61.5341C154.502 62.6901 146.226 60.6314 145.728 60.5087C146.057 60.1283 146.437 59.7954 146.858 59.5195L156.986 60.0101C156.977 60.5189 156.998 61.0277 157.049 61.5341Z" fill="black"/>
<path d="M148.433 39.1307C148.433 39.1307 146.458 39.7861 143.658 37.2469C143.658 37.2469 137.392 31.1047 136.988 29.631L132.136 21.1868C132.136 21.1868 130.078 23.3984 129.253 23.0707L134.687 32.4879C134.687 32.4879 135.676 34.2974 136.581 34.7799C136.581 34.7799 143.333 43.3789 143.414 45.0979C143.495 46.8169 146.456 51.421 146.456 51.421C146.456 51.421 147.445 58.872 145.714 60.1829C145.714 60.1829 155.347 62.6397 157.404 61.0012C157.404 61.0012 156.499 51.7528 157.404 50.7656C157.404 50.7656 160.204 47.4905 158.31 43.8876C158.31 43.8876 157.906 41.9233 158.969 40.9402C160.032 39.957 164.815 32.6689 164.815 32.6689C164.815 32.6689 165.967 31.0303 165.967 29.9668C165.967 29.9668 168.108 22.7611 167.787 20.8772C167.787 20.8772 165.893 21.2793 165.316 20.8772C165.316 20.8772 162.517 29.3214 162.187 29.639C161.858 29.9567 159.559 36.5995 156.507 37.3373C153.454 38.0752 152.967 38.4009 152.967 38.4009C152.967 38.4009 158.894 42.0862 156.014 43.7227C153.133 45.3593 148.433 39.1307 148.433 39.1307Z" fill="#FFAAC4"/>
<path opacity="0.1" d="M152.175 35.8877C152.077 35.1163 152.037 34.3388 152.056 33.5615L147.445 34.9528C147.566 35.2583 147.663 35.573 147.734 35.8937C148.261 36.1249 148.973 36.6718 149.585 36.6718C150.512 36.7019 151.422 36.4262 152.175 35.8877Z" fill="black"/>
<path d="M149.502 36.4287C151.867 36.4287 153.784 34.5222 153.784 32.1704C153.784 29.8186 151.867 27.9121 149.502 27.9121C147.138 27.9121 145.221 29.8186 145.221 32.1704C145.221 34.5222 147.138 36.4287 149.502 36.4287Z" fill="#C77485"/>
<path opacity="0.1" d="M144.408 25.61C143.466 25.6824 142.415 26.3298 142.468 27.2687C142.496 27.7854 142.852 28.2217 143.007 28.7163C143.381 29.9126 142.549 31.1129 141.817 32.1342C141.085 33.1555 140.402 34.5086 141.028 35.5903C141.207 35.8507 141.4 36.1011 141.607 36.3402C142.381 37.3796 142.371 38.783 142.714 40.0315C143.153 41.6288 144.191 42.9982 145.613 43.8583C147.036 44.7184 148.736 45.0037 150.364 44.6557C149.751 43.8778 149.445 42.9039 149.505 41.9174C149.551 41.2017 149.783 40.4537 149.505 39.7923C149.145 38.9418 148.089 38.6061 147.546 37.8622C147.002 37.1183 147.038 36.0869 147.301 35.2002C147.564 34.3136 148.019 33.4913 148.237 32.5866C148.291 32.3226 148.358 32.0616 148.439 31.8045C148.819 30.7308 149.955 30.1076 151.067 29.8402C152.179 29.5728 153.347 29.5567 154.433 29.2049C155.518 28.853 156.574 28.0287 156.699 26.8968C155.785 27.2607 154.938 26.3117 154.057 25.8754C152.605 25.1597 150.95 25.8332 149.454 25.9981C147.75 26.1871 146.133 25.4854 144.408 25.61Z" fill="black"/>
<path d="M144.325 25.4472C143.383 25.5196 142.332 26.167 142.385 27.1059C142.413 27.6226 142.769 28.0589 142.925 28.5535C143.299 29.7497 142.466 30.95 141.734 31.9713C141.002 32.9927 140.319 34.3458 140.946 35.4274C141.124 35.6879 141.317 35.9382 141.524 36.1774C142.298 37.2168 142.288 38.6201 142.631 39.8687C143.07 41.466 144.108 42.8354 145.53 43.6954C146.953 44.5555 148.653 44.8409 150.281 44.4929C149.668 43.7149 149.362 42.741 149.422 41.7545C149.468 41.0388 149.701 40.2909 149.422 39.6294C149.062 38.779 148.007 38.4432 147.463 37.6993C146.919 36.9554 146.955 35.924 147.218 35.0374C147.481 34.1508 147.936 33.3284 148.154 32.4237C148.208 32.1598 148.275 31.8987 148.356 31.6416C148.736 30.568 149.872 29.9447 150.984 29.6773C152.096 29.4099 153.264 29.3939 154.35 29.042C155.435 28.6902 156.491 27.8659 156.616 26.7339C155.702 27.0978 154.855 26.1489 153.974 25.7126C152.523 24.9969 150.867 25.6704 149.371 25.8352C147.671 26.0222 146.06 25.3125 144.325 25.4472Z" fill="#493545"/>
<path opacity="0.1" d="M153.744 41.6299C153.744 41.6299 155.458 43.1518 155.795 43.8234L153.744 41.6299Z" fill="black"/>
<path opacity="0.1" d="M157.453 50.7195C157.453 50.7195 155.312 50.7195 154.324 50.9648C153.335 51.2101 150.948 50.9648 150.948 50.9648" fill="black"/>
<g opacity="0.1">
<path opacity="0.1" d="M156.008 43.7166C155.823 43.8217 155.623 43.8976 155.415 43.9418C155.952 44.0602 156.514 43.9802 156.996 43.7166C159.879 42.0781 153.95 38.3948 153.95 38.3948H152.961C152.961 38.3948 158.89 42.0801 156.008 43.7166Z" fill="black"/>
<path opacity="0.1" d="M167.801 21.0199C167.801 20.9676 167.789 20.9173 167.781 20.8711C167.442 20.9409 167.1 20.9926 166.756 21.0259C167.103 21.0639 167.454 21.0619 167.801 21.0199Z" fill="black"/>
<path opacity="0.1" d="M146.705 60.1769C148.433 58.866 147.447 51.415 147.447 51.415C147.447 51.415 144.483 46.829 144.4 45.11C144.317 43.391 137.568 34.792 137.568 34.792C136.662 34.3015 135.674 32.5 135.674 32.5C135.674 32.5 130.074 23.4105 129.251 23.0828L134.685 32.5C134.685 32.5 135.674 34.3095 136.579 34.792C136.579 34.792 143.331 43.391 143.412 45.11C143.493 46.829 146.456 51.4211 146.456 51.4211C146.456 51.4211 147.445 58.872 145.714 60.1829C145.714 60.1829 151.635 61.6928 155.185 61.5561C151.627 61.4314 146.705 60.1769 146.705 60.1769Z" fill="black"/>
<path opacity="0.1" d="M148.482 39.1949L148.433 39.1326C148.377 39.1491 148.319 39.1619 148.261 39.1708C148.338 39.1808 148.411 39.1889 148.482 39.1949Z" fill="black"/>
</g>
<g opacity="0.1">
<path opacity="0.1" d="M167.781 20.8611L167.73 20.8711C167.643 23.3863 165.889 29.2952 165.889 29.2952C165.889 30.3588 164.736 31.9974 164.736 31.9974C164.736 31.9974 159.962 39.2855 158.89 40.2686C157.819 41.2518 158.231 43.2161 158.231 43.2161L158.241 43.2362C158.209 42.5747 158.29 41.5493 158.971 40.9221C160.04 39.9389 164.817 32.6508 164.817 32.6508C164.817 32.6508 165.969 31.0122 165.969 29.9486C165.969 29.9607 168.11 22.755 167.781 20.8611Z" fill="black"/>
<path opacity="0.1" d="M157.326 50.104C157.449 50.7996 157.366 50.0638 157.408 50.7594C157.408 50.7594 159.43 48.4011 158.878 45.4858C159.044 48.0915 157.326 50.104 157.326 50.104Z" fill="black"/>
</g>
<path opacity="0.1" d="M94.967 133C142.713 133 181.42 129.302 181.42 124.741C181.42 120.179 142.713 116.482 94.967 116.482C47.2206 116.482 8.51447 120.179 8.51447 124.741C8.51447 129.302 47.2206 133 94.967 133Z" fill="#8E87FF"/>
<path d="M61.4549 116.361C61.4549 116.361 58.5117 106.419 62.0068 99.1027C63.4933 96.0429 63.9416 92.586 63.2844 89.2512C62.9598 87.6704 62.4902 86.1225 61.8815 84.627" stroke="#535461" stroke-width="2" stroke-miterlimit="10"/>
<path d="M64.0607 80.0066C64.0607 81.225 61.837 84.7575 61.837 84.7575C61.837 84.7575 59.6134 81.225 59.6134 80.0066C59.5908 79.7033 59.6314 79.3986 59.7326 79.1115C59.8338 78.8245 59.9935 78.5613 60.2016 78.3384C60.4098 78.1155 60.6619 77.9377 60.9422 77.8162C61.2226 77.6946 61.5251 77.6318 61.831 77.6318C62.1368 77.6318 62.4394 77.6946 62.7197 77.8162C63.0001 77.9377 63.2522 78.1155 63.4603 78.3384C63.6684 78.5613 63.8281 78.8245 63.9293 79.1115C64.0305 79.3986 64.0711 79.7033 64.0485 80.0066H64.0607Z" fill="#8E87FF"/>
<path d="M67.7215 86.7541C67.0565 87.7775 63.2642 89.5427 63.2642 89.5427C63.2642 89.5427 63.3329 85.3789 63.998 84.3556C64.1455 84.0899 64.3464 83.8573 64.5882 83.6722C64.83 83.487 65.1076 83.3534 65.4035 83.2796C65.6995 83.2057 66.0076 83.1933 66.3086 83.243C66.6096 83.2927 66.8972 83.4035 67.1533 83.5684C67.4094 83.7334 67.6286 83.9491 67.7973 84.202C67.9661 84.4548 68.0806 84.7396 68.1339 85.0384C68.1872 85.3372 68.1781 85.6437 68.1072 85.9389C68.0362 86.2341 67.905 86.5116 67.7215 86.7541Z" fill="#8E87FF"/>
<path d="M67.5619 98.2883C66.4682 98.8372 62.306 98.4572 62.306 98.4572C62.306 98.4572 64.4791 94.8966 65.5727 94.3477C65.8349 94.1912 66.1267 94.0901 66.4299 94.0508C66.7331 94.0115 67.0413 94.0348 67.335 94.1193C67.6288 94.2037 67.9018 94.3476 68.1372 94.5418C68.3725 94.736 68.565 94.9763 68.7027 95.2479C68.8404 95.5194 68.9204 95.8163 68.9375 96.12C68.9546 96.4236 68.9086 96.7275 68.8022 97.0127C68.6959 97.2978 68.5316 97.5581 68.3196 97.7773C68.1076 97.9964 67.8524 98.1697 67.5699 98.2863L67.5619 98.2883Z" fill="#8E87FF"/>
<path d="M65.4656 106.986C64.4811 107.71 60.3047 108.037 60.3047 108.037C60.3047 108.037 61.8411 104.163 62.8275 103.437C63.3023 103.15 63.8678 103.051 64.4128 103.158C64.9578 103.265 65.4427 103.571 65.7723 104.015C66.1019 104.46 66.2521 105.011 66.1935 105.561C66.1348 106.11 65.8716 106.618 65.4555 106.984L65.4656 106.986Z" fill="#8E87FF"/>
<path d="M58.6026 89.7799C59.482 90.6283 63.5755 91.5089 63.5755 91.5089C63.5755 91.5089 62.5647 87.4658 61.6935 86.6153C61.4902 86.3887 61.2421 86.2061 60.9648 86.079C60.6874 85.9519 60.3867 85.8829 60.0814 85.8765C59.7761 85.87 59.4727 85.9262 59.1901 86.0415C58.9076 86.1568 58.652 86.3287 58.4392 86.5466C58.2264 86.7644 58.061 87.0236 57.9533 87.3078C57.8457 87.592 57.798 87.8953 57.8133 88.1986C57.8287 88.502 57.9067 88.7989 58.0425 89.071C58.1783 89.343 58.369 89.5843 58.6026 89.7799Z" fill="#8E87FF"/>
<path d="M56.284 99.9851C57.3776 100.534 61.5399 100.154 61.5399 100.154C61.5399 100.154 59.3749 96.5933 58.2812 96.0545C57.7627 95.8404 57.1819 95.8293 56.6555 96.0235C56.1291 96.2176 55.696 96.6026 55.4432 97.1012C55.1904 97.5998 55.1366 98.175 55.2925 98.7114C55.4485 99.2478 55.8027 99.7057 56.284 99.9932V99.9851Z" fill="#8E87FF"/>
<path d="M55.3946 110.211C56.379 110.935 60.5554 111.262 60.5554 111.262C60.5554 111.262 59.0191 107.388 58.0326 106.662C57.8014 106.459 57.5301 106.305 57.2361 106.212C56.942 106.119 56.6316 106.087 56.3247 106.12C56.0177 106.152 55.7209 106.248 55.4531 106.4C55.1853 106.553 54.9525 106.76 54.7694 107.007C54.5862 107.254 54.4568 107.536 54.3894 107.836C54.322 108.135 54.3181 108.446 54.3778 108.747C54.4376 109.048 54.5598 109.334 54.7366 109.585C54.9133 109.837 55.1409 110.049 55.4047 110.209L55.3946 110.211Z" fill="#8E87FF"/>
<path opacity="0.1" d="M64.0607 80.0066C64.0607 81.225 61.837 84.7575 61.837 84.7575C61.837 84.7575 59.6134 81.225 59.6134 80.0066C59.5908 79.7033 59.6314 79.3986 59.7326 79.1115C59.8338 78.8245 59.9935 78.5613 60.2016 78.3384C60.4098 78.1155 60.6619 77.9377 60.9422 77.8162C61.2226 77.6946 61.5251 77.6318 61.831 77.6318C62.1368 77.6318 62.4394 77.6946 62.7197 77.8162C63.0001 77.9377 63.2522 78.1155 63.4603 78.3384C63.6684 78.5613 63.8281 78.8245 63.9293 79.1115C64.0305 79.3986 64.0711 79.7033 64.0485 80.0066H64.0607Z" fill="#8E87FF"/>
<path opacity="0.1" d="M67.7215 86.7541C67.0565 87.7775 63.2642 89.5427 63.2642 89.5427C63.2642 89.5427 63.3329 85.3789 63.998 84.3556C64.1455 84.0899 64.3464 83.8573 64.5882 83.6722C64.83 83.487 65.1076 83.3534 65.4035 83.2796C65.6995 83.2057 66.0076 83.1933 66.3086 83.243C66.6096 83.2927 66.8972 83.4035 67.1533 83.5684C67.4094 83.7334 67.6286 83.9491 67.7973 84.202C67.9661 84.4548 68.0806 84.7396 68.1339 85.0384C68.1872 85.3372 68.1781 85.6437 68.1072 85.9389C68.0362 86.2341 67.905 86.5116 67.7215 86.7541Z" fill="#8E87FF"/>
<path opacity="0.1" d="M67.5619 98.2883C66.4682 98.8372 62.306 98.4572 62.306 98.4572C62.306 98.4572 64.4791 94.8966 65.5727 94.3477C65.8349 94.1912 66.1267 94.0901 66.4299 94.0508C66.7331 94.0115 67.0413 94.0348 67.335 94.1193C67.6288 94.2037 67.9018 94.3476 68.1372 94.5418C68.3725 94.736 68.565 94.9763 68.7027 95.2479C68.8404 95.5194 68.9204 95.8163 68.9375 96.12C68.9546 96.4236 68.9086 96.7275 68.8022 97.0127C68.6959 97.2978 68.5316 97.5581 68.3196 97.7773C68.1076 97.9964 67.8524 98.1697 67.5699 98.2863L67.5619 98.2883Z" fill="#8E87FF"/>
<path opacity="0.1" d="M65.4656 106.986C64.4811 107.71 60.3047 108.037 60.3047 108.037C60.3047 108.037 61.8411 104.163 62.8275 103.437C63.3023 103.15 63.8678 103.051 64.4128 103.158C64.9578 103.265 65.4427 103.571 65.7723 104.015C66.1019 104.46 66.2521 105.011 66.1935 105.561C66.1348 106.11 65.8716 106.618 65.4555 106.984L65.4656 106.986Z" fill="#8E87FF"/>
<path opacity="0.1" d="M58.6026 89.7799C59.482 90.6283 63.5755 91.5089 63.5755 91.5089C63.5755 91.5089 62.5647 87.4658 61.6935 86.6153C61.4902 86.3887 61.2421 86.2061 60.9648 86.079C60.6874 85.9519 60.3867 85.8829 60.0814 85.8765C59.7761 85.87 59.4727 85.9262 59.1901 86.0415C58.9076 86.1568 58.652 86.3287 58.4392 86.5466C58.2264 86.7644 58.061 87.0236 57.9533 87.3078C57.8457 87.592 57.798 87.8953 57.8133 88.1986C57.8287 88.502 57.9067 88.7989 58.0425 89.071C58.1783 89.343 58.369 89.5843 58.6026 89.7799Z" fill="#8E87FF"/>
<path opacity="0.1" d="M56.284 99.9851C57.3776 100.534 61.5399 100.154 61.5399 100.154C61.5399 100.154 59.3749 96.5933 58.2812 96.0545C57.7627 95.8404 57.1819 95.8293 56.6555 96.0235C56.1291 96.2176 55.696 96.6026 55.4432 97.1012C55.1904 97.5998 55.1366 98.175 55.2925 98.7114C55.4485 99.2478 55.8027 99.7057 56.284 99.9932V99.9851Z" fill="#8E87FF"/>
<path opacity="0.1" d="M55.3946 110.211C56.379 110.935 60.5554 111.262 60.5554 111.262C60.5554 111.262 59.0191 107.388 58.0326 106.662C57.8014 106.459 57.5301 106.305 57.2361 106.212C56.942 106.119 56.6316 106.087 56.3247 106.12C56.0177 106.152 55.7209 106.248 55.4531 106.4C55.1853 106.553 54.9525 106.76 54.7694 107.007C54.5862 107.254 54.4568 107.536 54.3894 107.836C54.322 108.135 54.3181 108.446 54.3778 108.747C54.4376 109.048 54.5598 109.334 54.7366 109.585C54.9133 109.837 55.1409 110.049 55.4047 110.209L55.3946 110.211Z" fill="#8E87FF"/>
<path d="M121.016 116.504C121.016 116.504 118.072 106.562 121.568 99.2453C123.054 96.1855 123.502 92.7286 122.845 89.3937C122.521 87.8129 122.051 86.2651 121.442 84.7695" stroke="#535461" stroke-width="2" stroke-miterlimit="10"/>
<path d="M123.617 80.1475C123.617 81.3659 121.394 84.8984 121.394 84.8984C121.394 84.8984 119.17 81.3659 119.17 80.1475C119.212 79.5907 119.463 79.0701 119.875 78.6902C120.286 78.3103 120.826 78.0991 121.388 78.0991C121.949 78.0991 122.49 78.3103 122.901 78.6902C123.312 79.0701 123.564 79.5907 123.605 80.1475H123.617Z" fill="#8E87FF"/>
<path d="M127.284 86.8947C126.619 87.9181 122.827 89.6833 122.827 89.6833C122.827 89.6833 122.896 85.5195 123.561 84.4962C123.708 84.2305 123.909 83.9979 124.151 83.8128C124.393 83.6277 124.67 83.494 124.966 83.4202C125.262 83.3464 125.57 83.3339 125.871 83.3836C126.173 83.4333 126.46 83.5441 126.716 83.7091C126.972 83.8741 127.192 84.0897 127.36 84.3426C127.529 84.5955 127.643 84.8802 127.697 85.179C127.75 85.4778 127.741 85.7844 127.67 86.0795C127.599 86.3747 127.468 86.6522 127.284 86.8947Z" fill="#8E87FF"/>
<path d="M127.131 98.4292C126.037 98.978 121.875 98.5981 121.875 98.5981C121.875 98.5981 124.048 95.0374 125.142 94.4885C125.404 94.3305 125.697 94.2282 126.001 94.1881C126.305 94.148 126.614 94.1709 126.909 94.2555C127.204 94.34 127.478 94.4842 127.714 94.6792C127.95 94.8741 128.143 95.1156 128.28 95.3883C128.418 95.661 128.497 95.959 128.514 96.2638C128.53 96.5685 128.482 96.8732 128.374 97.1588C128.266 97.4444 128.1 97.7048 127.886 97.9234C127.672 98.142 127.415 98.3142 127.131 98.4292Z" fill="#8E87FF"/>
<path d="M125.026 107.127C124.042 107.851 119.866 108.178 119.866 108.178C119.866 108.178 121.402 104.304 122.388 103.578C122.863 103.291 123.429 103.191 123.974 103.298C124.519 103.405 125.004 103.711 125.333 104.156C125.663 104.601 125.813 105.152 125.754 105.702C125.696 106.251 125.432 106.759 125.016 107.125L125.026 107.127Z" fill="#8E87FF"/>
<path d="M118.168 89.9205C119.047 90.769 123.14 91.6496 123.14 91.6496C123.14 91.6496 122.13 87.6064 121.258 86.7559C121.055 86.5293 120.807 86.3467 120.53 86.2196C120.252 86.0925 119.952 86.0235 119.646 86.0171C119.341 86.0107 119.038 86.0668 118.755 86.1821C118.473 86.2974 118.217 86.4693 118.004 86.6872C117.791 86.9051 117.626 87.1642 117.518 87.4484C117.411 87.7326 117.363 88.0359 117.378 88.3392C117.394 88.6426 117.472 88.9395 117.607 89.2116C117.743 89.4837 117.934 89.725 118.168 89.9205Z" fill="#8E87FF"/>
<path d="M115.845 100.126C116.938 100.675 121.101 100.295 121.101 100.295C121.101 100.295 118.928 96.7343 117.834 96.1854C117.315 95.9713 116.735 95.9602 116.208 96.1543C115.682 96.3485 115.249 96.7335 114.996 97.232C114.743 97.7306 114.689 98.3059 114.845 98.8423C115.001 99.3787 115.355 99.8366 115.837 100.124L115.845 100.126Z" fill="#8E87FF"/>
<path d="M114.957 110.351C115.942 111.075 120.118 111.403 120.118 111.403C120.118 111.403 118.582 107.529 117.595 106.803C117.121 106.516 116.555 106.416 116.01 106.523C115.465 106.63 114.98 106.936 114.651 107.381C114.321 107.825 114.171 108.377 114.23 108.926C114.288 109.476 114.551 109.983 114.968 110.349L114.957 110.351Z" fill="#8E87FF"/>
<path opacity="0.1" d="M123.617 80.1475C123.617 81.3659 121.394 84.8984 121.394 84.8984C121.394 84.8984 119.17 81.3659 119.17 80.1475C119.212 79.5907 119.463 79.0701 119.875 78.6902C120.286 78.3103 120.826 78.0991 121.388 78.0991C121.949 78.0991 122.49 78.3103 122.901 78.6902C123.312 79.0701 123.564 79.5907 123.605 80.1475H123.617Z" fill="#8E87FF"/>
<path opacity="0.1" d="M127.284 86.8947C126.619 87.9181 122.827 89.6833 122.827 89.6833C122.827 89.6833 122.896 85.5195 123.561 84.4962C123.708 84.2305 123.909 83.9979 124.151 83.8128C124.393 83.6277 124.67 83.494 124.966 83.4202C125.262 83.3464 125.57 83.3339 125.871 83.3836C126.173 83.4333 126.46 83.5441 126.716 83.7091C126.972 83.8741 127.192 84.0897 127.36 84.3426C127.529 84.5955 127.643 84.8802 127.697 85.179C127.75 85.4778 127.741 85.7844 127.67 86.0795C127.599 86.3747 127.468 86.6522 127.284 86.8947Z" fill="#8E87FF"/>
<path opacity="0.1" d="M127.131 98.4292C126.037 98.978 121.875 98.5981 121.875 98.5981C121.875 98.5981 124.048 95.0374 125.142 94.4885C125.404 94.3305 125.697 94.2282 126.001 94.1881C126.305 94.148 126.614 94.1709 126.909 94.2555C127.204 94.34 127.478 94.4842 127.714 94.6792C127.95 94.8741 128.143 95.1156 128.28 95.3883C128.418 95.661 128.497 95.959 128.514 96.2638C128.53 96.5685 128.482 96.8732 128.374 97.1588C128.266 97.4444 128.1 97.7048 127.886 97.9234C127.672 98.142 127.415 98.3142 127.131 98.4292Z" fill="#8E87FF"/>
<path opacity="0.1" d="M125.026 107.127C124.042 107.851 119.866 108.178 119.866 108.178C119.866 108.178 121.402 104.304 122.388 103.578C122.863 103.291 123.429 103.191 123.974 103.298C124.519 103.405 125.004 103.711 125.333 104.156C125.663 104.601 125.813 105.152 125.754 105.702C125.696 106.251 125.432 106.759 125.016 107.125L125.026 107.127Z" fill="#8E87FF"/>
<path opacity="0.1" d="M118.168 89.9205C119.047 90.769 123.14 91.6496 123.14 91.6496C123.14 91.6496 122.13 87.6064 121.258 86.7559C121.055 86.5293 120.807 86.3467 120.53 86.2196C120.252 86.0925 119.952 86.0235 119.646 86.0171C119.341 86.0107 119.038 86.0668 118.755 86.1821C118.473 86.2974 118.217 86.4693 118.004 86.6872C117.791 86.9051 117.626 87.1642 117.518 87.4484C117.411 87.7326 117.363 88.0359 117.378 88.3392C117.394 88.6426 117.472 88.9395 117.607 89.2116C117.743 89.4837 117.934 89.725 118.168 89.9205Z" fill="#8E87FF"/>
<path opacity="0.1" d="M115.845 100.126C116.938 100.675 121.101 100.295 121.101 100.295C121.101 100.295 118.928 96.7343 117.834 96.1854C117.315 95.9713 116.735 95.9602 116.208 96.1543C115.682 96.3485 115.249 96.7335 114.996 97.232C114.743 97.7306 114.689 98.3059 114.845 98.8423C115.001 99.3787 115.355 99.8366 115.837 100.124L115.845 100.126Z" fill="#8E87FF"/>
<path opacity="0.1" d="M114.957 110.351C115.942 111.075 120.118 111.403 120.118 111.403C120.118 111.403 118.582 107.529 117.595 106.803C117.121 106.516 116.555 106.416 116.01 106.523C115.465 106.63 114.98 106.936 114.651 107.381C114.321 107.825 114.171 108.377 114.23 108.926C114.288 109.476 114.551 109.983 114.968 110.349L114.957 110.351Z" fill="#8E87FF"/>
<path opacity="0.5" d="M135.419 3.07807H134.149C134.27 3.08377 134.39 3.06514 134.503 3.02331C134.615 2.98148 134.718 2.91732 134.805 2.8347C134.893 2.75209 134.962 2.65275 135.009 2.54269C135.057 2.43264 135.081 2.31416 135.081 2.19444C135.081 2.07472 135.057 1.95625 135.009 1.84619C134.962 1.73614 134.893 1.6368 134.805 1.55418C134.718 1.47157 134.615 1.4074 134.503 1.36557C134.39 1.32374 134.27 1.30511 134.149 1.31082H123.856C123.628 1.32165 123.412 1.41948 123.255 1.584C123.097 1.74853 123.009 1.96712 123.009 2.19444C123.009 2.42176 123.097 2.64036 123.255 2.80488C123.412 2.96941 123.628 3.06723 123.856 3.07807H125.125C124.897 3.0889 124.682 3.18673 124.524 3.35125C124.366 3.51578 124.278 3.73437 124.278 3.96169C124.278 4.18901 124.366 4.4076 124.524 4.57213C124.682 4.73665 124.897 4.83448 125.125 4.84531H123.349C123.228 4.83961 123.108 4.85824 122.995 4.90007C122.883 4.9419 122.78 5.00606 122.692 5.08868C122.605 5.17129 122.536 5.27063 122.489 5.38069C122.441 5.49074 122.417 5.60922 122.417 5.72894C122.417 5.84866 122.441 5.96713 122.489 6.07719C122.536 6.18724 122.605 6.28658 122.692 6.3692C122.78 6.45181 122.883 6.51598 122.995 6.55781C123.108 6.59964 123.228 6.61827 123.349 6.61256H133.634C133.754 6.61827 133.874 6.59964 133.987 6.55781C134.1 6.51598 134.203 6.45181 134.29 6.3692C134.377 6.28658 134.446 6.18724 134.494 6.07719C134.541 5.96713 134.566 5.84866 134.566 5.72894C134.566 5.60922 134.541 5.49074 134.494 5.38069C134.446 5.27063 134.377 5.17129 134.29 5.08868C134.203 5.00606 134.1 4.9419 133.987 4.90007C133.874 4.85824 133.754 4.83961 133.634 4.84531H135.419C135.647 4.83448 135.862 4.73665 136.02 4.57213C136.178 4.4076 136.266 4.18901 136.266 3.96169C136.266 3.73437 136.178 3.51578 136.02 3.35125C135.862 3.18673 135.647 3.0889 135.419 3.07807Z" fill="#DEE3F3"/>
<path opacity="0.5" d="M75.9429 8.23301H74.9766C75.0685 8.23801 75.1605 8.22432 75.2469 8.19278C75.3333 8.16124 75.4124 8.11251 75.4792 8.04957C75.546 7.98663 75.5993 7.9108 75.6357 7.82671C75.672 7.74262 75.6908 7.65203 75.6908 7.56049C75.6908 7.46894 75.672 7.37836 75.6357 7.29427C75.5993 7.21017 75.546 7.13434 75.4792 7.0714C75.4124 7.00846 75.3333 6.95973 75.2469 6.92819C75.1605 6.89665 75.0685 6.88297 74.9766 6.88797H67.1495C66.9765 6.89738 66.8138 6.97233 66.6947 7.09742C66.5756 7.22251 66.5093 7.38823 66.5093 7.56049C66.5093 7.73275 66.5756 7.89846 66.6947 8.02355C66.8138 8.14864 66.9765 8.2236 67.1495 8.23301H68.1157C68.0238 8.22801 67.9319 8.24169 67.8454 8.27323C67.759 8.30477 67.68 8.3535 67.6132 8.41644C67.5463 8.47938 67.4931 8.55521 67.4567 8.6393C67.4203 8.72339 67.4015 8.81398 67.4015 8.90553C67.4015 8.99707 67.4203 9.08766 67.4567 9.17175C67.4931 9.25584 67.5463 9.33167 67.6132 9.39461C67.68 9.45755 67.759 9.50628 67.8454 9.53782C67.9319 9.56936 68.0238 9.58305 68.1157 9.57805H66.7634C66.6715 9.57305 66.5795 9.58673 66.4931 9.61827C66.4067 9.64981 66.3276 9.69854 66.2608 9.76148C66.1939 9.82442 66.1407 9.90025 66.1043 9.98434C66.0679 10.0684 66.0492 10.159 66.0492 10.2506C66.0492 10.3421 66.0679 10.4327 66.1043 10.5168C66.1407 10.6009 66.1939 10.6767 66.2608 10.7397C66.3276 10.8026 66.4067 10.8513 66.4931 10.8829C66.5795 10.9144 66.6715 10.9281 66.7634 10.9231H74.5905C74.6824 10.9281 74.7744 10.9144 74.8608 10.8829C74.9472 10.8513 75.0263 10.8026 75.0931 10.7397C75.1599 10.6767 75.2132 10.6009 75.2496 10.5168C75.2859 10.4327 75.3047 10.3421 75.3047 10.2506C75.3047 10.159 75.2859 10.0684 75.2496 9.98434C75.2132 9.90025 75.1599 9.82442 75.0931 9.76148C75.0263 9.69854 74.9472 9.64981 74.8608 9.61827C74.7744 9.58673 74.6824 9.57305 74.5905 9.57805H75.9429C76.1158 9.56864 76.2786 9.49368 76.3977 9.36859C76.5167 9.2435 76.5831 9.07779 76.5831 8.90553C76.5831 8.73327 76.5167 8.56755 76.3977 8.44246C76.2786 8.31737 76.1158 8.24242 75.9429 8.23301Z" fill="#DEE3F3"/>
<path d="M10.2448 103.494C10.2448 103.494 13.7824 110.4 10.8998 114.178C8.01718 117.955 11.1626 128.251 11.1626 128.251" stroke="#8E87FF" stroke-miterlimit="10"/>
<path d="M11.3001 101.334C11.3001 102.665 10.3176 103.747 10.3176 103.747C10.3176 103.747 9.33519 102.667 9.33519 101.334C9.33519 100.001 10.3176 98.9216 10.3176 98.9216C10.3176 98.9216 11.3001 100.003 11.3001 101.334Z" fill="#8E87FF"/>
<path d="M12.0783 103.494C12.0783 103.494 8.54074 110.4 11.4234 114.178C14.306 117.955 11.1606 128.251 11.1606 128.251" stroke="#8E87FF" stroke-miterlimit="10"/>
<path d="M11.0312 101.334C11.0312 102.665 12.0136 103.747 12.0136 103.747C12.0136 103.747 12.9961 102.667 12.9961 101.334C12.9961 100.001 12.0136 98.9216 12.0136 98.9216C12.0136 98.9216 11.0312 100.003 11.0312 101.334Z" fill="#8E87FF"/>
<path opacity="0.1" d="M11.0312 101.334C11.0312 102.665 12.0136 103.747 12.0136 103.747C12.0136 103.747 12.9961 102.667 12.9961 101.334C12.9961 100.001 12.0136 98.9216 12.0136 98.9216C12.0136 98.9216 11.0312 100.003 11.0312 101.334Z" fill="black"/>
<path d="M13.5237 103.494C13.5237 103.494 17.0613 110.4 14.1786 114.178C11.296 117.955 14.4414 128.251 14.4414 128.251" stroke="#8E87FF" stroke-miterlimit="10"/>
<path d="M14.5688 101.334C14.5688 102.665 13.5864 103.747 13.5864 103.747C13.5864 103.747 12.6039 102.667 12.6039 101.334C12.6039 100.001 13.5864 98.9216 13.5864 98.9216C13.5864 98.9216 14.5688 100.003 14.5688 101.334Z" fill="#8E87FF"/>
<path d="M14.0169 106.867C13.0891 107.826 11.6275 107.927 11.6275 107.927C11.6275 107.927 11.672 106.471 12.5999 105.514C13.5277 104.557 14.9893 104.455 14.9893 104.455C14.9893 104.455 14.9387 105.906 14.0169 106.867Z" fill="#8E87FF"/>
<path d="M14.1099 111.632C13.1821 112.591 11.7205 112.692 11.7205 112.692C11.7205 112.692 11.765 111.236 12.6929 110.279C13.6207 109.322 15.0823 109.219 15.0823 109.219C15.0823 109.219 15.0378 110.671 14.1099 111.632Z" fill="#8E87FF"/>
<path d="M9.07644 114.252C9.95376 115.257 9.92344 116.713 9.92344 116.713C9.92344 116.713 8.46999 116.538 7.59267 115.533C6.71535 114.527 6.74567 113.072 6.74567 113.072C6.74567 113.072 8.19911 113.247 9.07644 114.252Z" fill="#8E87FF"/>
<path d="M9.88503 104.097C11.0009 104.833 11.3627 106.244 11.3627 106.244C11.3627 106.244 9.91535 106.463 8.79949 105.727C7.68364 104.992 7.32179 103.58 7.32179 103.58C7.32179 103.58 8.77523 103.357 9.88503 104.097Z" fill="#8E87FF"/>
<path opacity="0.1" d="M9.88503 104.097C11.0009 104.833 11.3627 106.244 11.3627 106.244C11.3627 106.244 9.91535 106.463 8.79949 105.727C7.68364 104.992 7.32179 103.58 7.32179 103.58C7.32179 103.58 8.77523 103.357 9.88503 104.097Z" fill="black"/>
<path d="M15.3531 103.494C15.3531 103.494 11.8155 110.4 14.6982 114.178C17.5808 117.955 14.4354 128.251 14.4354 128.251" stroke="#8E87FF" stroke-miterlimit="10"/>
<path d="M14.306 101.334C14.306 102.665 15.2884 103.747 15.2884 103.747C15.2884 103.747 16.2709 102.667 16.2709 101.334C16.2709 100.001 15.2884 98.9216 15.2884 98.9216C15.2884 98.9216 14.306 100.003 14.306 101.334Z" fill="#8E87FF"/>
<path opacity="0.1" d="M14.306 101.334C14.306 102.665 15.2884 103.747 15.2884 103.747C15.2884 103.747 16.2709 102.667 16.2709 101.334C16.2709 100.001 15.2884 98.9216 15.2884 98.9216C15.2884 98.9216 14.306 100.003 14.306 101.334Z" fill="black"/>
<path d="M14.589 106.97C13.649 107.919 13.5783 109.383 13.5783 109.383C13.5783 109.383 15.0398 109.3 15.9798 108.351C16.9198 107.402 16.9905 105.938 16.9905 105.938C16.9905 105.938 15.529 106.021 14.589 106.97Z" fill="#8E87FF"/>
<path opacity="0.1" d="M14.589 106.97C13.649 107.919 13.5783 109.383 13.5783 109.383C13.5783 109.383 15.0398 109.3 15.9798 108.351C16.9198 107.402 16.9905 105.938 16.9905 105.938C16.9905 105.938 15.529 106.021 14.589 106.97Z" fill="black"/>
<path d="M16.4306 113.566C15.4906 114.515 15.4198 115.979 15.4198 115.979C15.4198 115.979 16.8814 115.897 17.8213 114.948C18.7613 113.999 18.8321 112.535 18.8321 112.535C18.8321 112.535 17.3645 112.617 16.4306 113.566Z" fill="#8E87FF"/>
<path d="M13.7258 112.117C13.7258 112.117 15.8545 108.779 18.8442 108.699" stroke="#8E87FF" stroke-miterlimit="10"/>
<path d="M12.0622 110.1C12.0622 110.1 9.93354 106.763 6.94377 106.682" stroke="#8E87FF" stroke-miterlimit="10"/>
<path d="M11.7852 114.865C11.7852 114.865 13.9138 111.528 16.9036 111.447" stroke="#8E87FF" stroke-miterlimit="10"/>
<path d="M18.7411 109.23C19.0459 109.23 19.293 108.984 19.293 108.681C19.293 108.378 19.0459 108.132 18.7411 108.132C18.4363 108.132 18.1893 108.378 18.1893 108.681C18.1893 108.984 18.4363 109.23 18.7411 109.23Z" fill="#8E87FF"/>
<path d="M6.99634 107.259C7.30112 107.259 7.5482 107.014 7.5482 106.71C7.5482 106.407 7.30112 106.162 6.99634 106.162C6.69155 106.162 6.44447 106.407 6.44447 106.71C6.44447 107.014 6.69155 107.259 6.99634 107.259Z" fill="#8E87FF"/>
<path d="M13.3519 115.959C13.3519 115.959 11.2233 112.621 8.23349 112.541" stroke="#8E87FF" stroke-miterlimit="10"/>
<path d="M8.28604 113.122C8.59083 113.122 8.8379 112.876 8.8379 112.573C8.8379 112.27 8.59083 112.024 8.28604 112.024C7.98125 112.024 7.73418 112.27 7.73418 112.573C7.73418 112.876 7.98125 113.122 8.28604 113.122Z" fill="#8E87FF"/>
<path d="M16.944 112.024C17.2488 112.024 17.4959 111.779 17.4959 111.475C17.4959 111.172 17.2488 110.927 16.944 110.927C16.6392 110.927 16.3922 111.172 16.3922 111.475C16.3922 111.779 16.6392 112.024 16.944 112.024Z" fill="#8E87FF"/>
<path d="M25.1229 124.232C25.1229 124.232 19.9924 123.211 18.6219 121.85C17.2513 120.489 11.0979 118.108 10.4126 119.809C9.72735 121.51 1.1765 127.294 6.99229 128.315C12.8081 129.337 20.6757 129.677 22.3859 128.995C24.096 128.313 25.1229 124.232 25.1229 124.232Z" fill="#A8A8A8"/>
<path opacity="0.2" d="M6.9923 127.682C12.8081 128.703 20.6757 129.043 22.3859 128.362C23.6877 127.843 24.5933 125.346 24.9511 124.196L25.1229 124.232C25.1229 124.232 24.096 128.315 22.3859 128.995C20.6757 129.674 12.8081 129.335 6.9923 128.315C5.31447 128.02 4.83336 127.328 5.01529 126.454C5.15679 127.017 5.74302 127.463 6.9923 127.682Z" fill="black"/>
<path d="M180.888 105.058C180.888 105.058 182.582 107.269 180.106 110.587C177.629 113.904 175.588 116.721 176.414 118.796C176.414 118.796 180.15 112.617 183.19 112.531C186.231 112.445 184.234 108.771 180.888 105.058Z" fill="#8E87FF"/>
<path opacity="0.1" d="M180.888 105.058C181.036 105.271 181.152 105.504 181.234 105.749C184.201 109.216 185.78 112.451 182.93 112.533C180.273 112.609 177.088 117.332 176.323 118.526C176.349 118.618 176.379 118.709 176.414 118.798C176.414 118.798 180.15 112.619 183.19 112.533C186.231 112.447 184.234 108.771 180.888 105.058Z" fill="black"/>
<path d="M184.037 107.864C184.037 108.641 183.95 109.272 183.835 109.272C183.72 109.272 183.633 108.643 183.633 107.864C183.633 107.086 183.742 107.462 183.849 107.462C183.957 107.462 184.037 107.09 184.037 107.864Z" fill="#FFD037"/>
<path d="M185.119 108.791C184.434 109.163 183.837 109.395 183.787 109.292C183.736 109.189 184.248 108.82 184.933 108.45C185.618 108.08 185.347 108.349 185.4 108.45C185.452 108.55 185.802 108.419 185.119 108.791Z" fill="#FFD037"/>
<path d="M171.941 105.058C171.941 105.058 170.247 107.269 172.723 110.587C175.199 113.904 177.241 116.721 176.414 118.796C176.414 118.796 172.679 112.617 169.638 112.531C166.598 112.445 168.595 108.771 171.941 105.058Z" fill="#8E87FF"/>
<path opacity="0.1" d="M171.941 105.058C171.793 105.271 171.677 105.504 171.595 105.749C168.628 109.216 167.049 112.451 169.899 112.533C172.555 112.609 175.741 117.332 176.505 118.526C176.48 118.618 176.45 118.709 176.414 118.798C176.414 118.798 172.679 112.619 169.638 112.533C166.598 112.447 168.595 108.771 171.941 105.058Z" fill="black"/>
<path d="M168.791 107.864C168.791 108.641 168.878 109.272 168.994 109.272C169.109 109.272 169.196 108.643 169.196 107.864C169.196 107.086 169.087 107.462 168.979 107.462C168.872 107.462 168.791 107.09 168.791 107.864Z" fill="#FFD037"/>
<path d="M167.71 108.791C168.395 109.163 168.992 109.395 169.042 109.292C169.093 109.189 168.581 108.82 167.896 108.45C167.211 108.08 167.481 108.349 167.429 108.45C167.376 108.55 167.025 108.419 167.71 108.791Z" fill="#FFD037"/>
<path d="M169.331 118.506C169.331 118.506 174.067 118.362 175.495 117.35C176.922 116.339 182.772 115.139 183.134 116.747C183.496 118.356 190.251 124.811 184.905 124.854C179.558 124.896 172.481 124.025 171.055 123.163C169.63 122.3 169.331 118.506 169.331 118.506Z" fill="#A8A8A8"/>
<path opacity="0.2" d="M185 124.296C179.653 124.339 172.576 123.468 171.15 122.605C170.065 121.948 169.632 119.59 169.489 118.502H169.331C169.331 118.502 169.63 122.302 171.055 123.164C172.481 124.027 179.558 124.899 184.905 124.855C186.449 124.843 186.981 124.296 186.952 123.488C186.738 123.981 186.158 124.286 185 124.296Z" fill="black"/>
<path opacity="0.5" d="M35.95 15.0065H34.6805C34.8007 15.0122 34.9209 14.9936 35.0336 14.9518C35.1464 14.91 35.2495 14.8458 35.3366 14.7632C35.4237 14.6806 35.4931 14.5812 35.5405 14.4712C35.5879 14.3611 35.6123 14.2426 35.6123 14.1229C35.6123 14.0032 35.5879 13.8847 35.5405 13.7747C35.4931 13.6646 35.4237 13.5653 35.3366 13.4826C35.2495 13.4 35.1464 13.3359 35.0336 13.294C34.9209 13.2522 34.8007 13.2336 34.6805 13.2393H24.3952C24.1669 13.2501 23.9516 13.3479 23.7938 13.5125C23.6361 13.677 23.5481 13.8956 23.5481 14.1229C23.5481 14.3502 23.6361 14.5688 23.7938 14.7334C23.9516 14.8979 24.1669 14.9957 24.3952 15.0065H25.6647C25.4364 15.0174 25.221 15.1152 25.0633 15.2797C24.9056 15.4442 24.8176 15.6628 24.8176 15.8902C24.8176 16.1175 24.9056 16.3361 25.0633 16.5006C25.221 16.6651 25.4364 16.7629 25.6647 16.7738H23.8878C23.6595 16.7846 23.4442 16.8824 23.2864 17.047C23.1287 17.2115 23.0407 17.4301 23.0407 17.6574C23.0407 17.8847 23.1287 18.1033 23.2864 18.2678C23.4442 18.4324 23.6595 18.5302 23.8878 18.541H34.1731C34.2933 18.5467 34.4135 18.5281 34.5262 18.4863C34.639 18.4444 34.7421 18.3803 34.8292 18.2977C34.9164 18.2151 34.9857 18.1157 35.0331 18.0057C35.0805 17.8956 35.1049 17.7771 35.1049 17.6574C35.1049 17.5377 35.0805 17.4192 35.0331 17.3092C34.9857 17.1991 34.9164 17.0998 34.8292 17.0171C34.7421 16.9345 34.639 16.8704 34.5262 16.8285C34.4135 16.7867 34.2933 16.7681 34.1731 16.7738H35.95C36.1783 16.7629 36.3936 16.6651 36.5513 16.5006C36.709 16.3361 36.797 16.1175 36.797 15.8902C36.797 15.6628 36.709 15.4442 36.5513 15.2797C36.3936 15.1152 36.1783 15.0174 35.95 15.0065Z" fill="#DEE3F3"/>
</g>
</g>
<defs>
<linearGradient id="paint0_linear" x1="93.0891" y1="109.324" x2="93.0891" y2="26.0886" gradientUnits="userSpaceOnUse">
<stop stop-color="#808080" stop-opacity="0.25"/>
<stop offset="0.54" stop-color="#808080" stop-opacity="0.12"/>
<stop offset="1" stop-color="#808080" stop-opacity="0.1"/>
</linearGradient>
<linearGradient id="paint1_linear" x1="77.6426" y1="95.3269" x2="77.6426" y2="95.3172" gradientUnits="userSpaceOnUse">
<stop stop-color="#808080" stop-opacity="0.25"/>
<stop offset="0.54" stop-color="#808080" stop-opacity="0.12"/>
<stop offset="1" stop-color="#808080" stop-opacity="0.1"/>
</linearGradient>
<linearGradient id="paint2_linear" x1="13017.4" y1="40652.5" x2="13017.4" y2="18226.5" gradientUnits="userSpaceOnUse">
<stop stop-color="#808080" stop-opacity="0.25"/>
<stop offset="0.54" stop-color="#808080" stop-opacity="0.12"/>
<stop offset="1" stop-color="#808080" stop-opacity="0.1"/>
</linearGradient>
<linearGradient id="paint3_linear" x1="36670" y1="49278.7" x2="36670" y2="15972.7" gradientUnits="userSpaceOnUse">
<stop stop-color="#808080" stop-opacity="0.25"/>
<stop offset="0.54" stop-color="#808080" stop-opacity="0.12"/>
<stop offset="1" stop-color="#808080" stop-opacity="0.1"/>
</linearGradient>
<clipPath id="clip0">
<rect width="192" height="133" fill="white"/>
</clipPath>
</defs>
</svg>
