<svg width="100" height="80" viewBox="0 0 109 68" fill="none" xmlns="http://www.w3.org/2000/svg">
<g clip-path="url(#clip0)">
<path d="M39.7583 47.8168C39.6326 47.8169 39.512 47.8671 39.4231 47.9563C39.3343 48.0455 39.2843 48.1664 39.2841 48.2926V67.2979C39.2843 67.424 39.3343 67.5449 39.4231 67.6341C39.512 67.7233 39.6326 67.7735 39.7583 67.7737H42.9737C43.0995 67.7735 43.22 67.7233 43.3089 67.6341C43.3978 67.5449 43.4478 67.424 43.4479 67.2979V48.2926C43.4478 48.1664 43.3978 48.0455 43.3089 47.9563C43.22 47.8671 43.0995 47.8169 42.9737 47.8168H39.7583Z" fill="#3F3D56"/>
<path d="M66.4975 47.8168C66.3718 47.8169 66.2513 47.8671 66.1624 47.9563C66.0735 48.0455 66.0235 48.1664 66.0233 48.2926V67.2979C66.0235 67.424 66.0735 67.5449 66.1624 67.6341C66.2513 67.7233 66.3718 67.7735 66.4975 67.7737H69.7129C69.8387 67.7735 69.9592 67.7233 70.0481 67.6341C70.137 67.5449 70.187 67.424 70.1871 67.2979V48.2926C70.187 48.1664 70.137 48.0455 70.0481 47.9563C69.9592 47.8671 69.8387 47.8169 69.7129 47.8168H66.4975Z" fill="#3F3D56"/>
<path d="M81.5201 32.717L56.8657 30.8071L76.5348 34.1721L81.2482 33.3536L81.5201 32.717Z" fill="#3F3D56"/>
<path d="M76.7161 33.8727L81.4295 33.0542L81.4758 32.9458L81.7014 32.9633L81.4295 33.5999L76.7161 34.4184L57.047 30.8071L62.8759 31.505L76.7161 33.8727Z" fill="#33CAFF"/>
<path d="M25.6851 32.717L1.03058 30.8071L20.6998 34.1721L25.4132 33.3536L25.6851 32.717Z" fill="#3F3D56"/>
<path d="M20.4279 33.8727L25.1412 33.0542L25.1876 32.9458L25.4132 32.9633L25.1412 33.5999L20.4279 34.4184L0.758667 30.8071L6.58759 31.505L20.4279 33.8727Z" fill="#33CAFF"/>
<path d="M85.6896 42.63L83.6049 42.721L64.5058 50.806L63.4127 51.7246L59.9475 54.6348H49.0705L45.7948 51.7246L44.5494 50.6178L26.2289 42.8119L24.5974 42.63L30.0359 39.9926H30.0649C31.2976 38.8185 41.9733 37.9009 54.9622 37.9009C67.9511 37.9009 78.6269 38.8185 79.8596 39.9926H79.9792L85.6896 42.63Z" fill="#3F3D56"/>
<path d="M29.8865 40.1274C29.9251 40.0184 29.945 39.9036 29.9452 39.7878V35.4683C29.9452 35.1969 29.8378 34.9366 29.6465 34.7447C29.4552 34.5528 29.1958 34.445 28.9253 34.445H28.5112C28.8512 34.1006 29.0821 33.6631 29.1747 33.1874C29.2673 32.7117 29.2175 32.2191 29.0316 31.7717C28.8457 31.3244 28.532 30.9422 28.1301 30.6734C27.7281 30.4046 27.2558 30.2611 26.7728 30.2611C26.2897 30.2611 25.8174 30.4046 25.4154 30.6734C25.0135 30.9422 24.6998 31.3244 24.5139 31.7717C24.328 32.2191 24.2782 32.7117 24.3708 33.1874C24.4634 33.6631 24.6943 34.1006 25.0343 34.445H24.6202C24.4863 34.445 24.3537 34.4714 24.2299 34.5228C24.1062 34.5743 23.9937 34.6496 23.899 34.7447C23.8043 34.8397 23.7292 34.9525 23.678 35.0767C23.6267 35.2008 23.6003 35.3339 23.6003 35.4683V39.7878C23.6003 39.9647 23.6461 40.1385 23.7335 40.2922C23.4256 40.3463 23.1178 40.4051 22.81 40.473C22.6225 40.5151 22.4549 40.6201 22.3349 40.7707C22.2149 40.9213 22.1497 41.1084 22.1501 41.3012V42.3275C22.1501 42.5524 22.2391 42.7682 22.3977 42.9273C22.5562 43.0863 22.7712 43.1757 22.9954 43.1757H32.5738V40.6292C31.6894 40.4057 30.7918 40.2381 29.8865 40.1274Z" fill="#3F3D56"/>
<path d="M86.5706 40.4731C86.2628 40.4051 85.955 40.3463 85.6472 40.2922C85.7345 40.1385 85.7804 39.9647 85.7803 39.7878V35.4683C85.7803 35.3339 85.7539 35.2008 85.7027 35.0767C85.6514 34.9525 85.5763 34.8397 85.4816 34.7447C85.3869 34.6497 85.2745 34.5743 85.1507 34.5229C85.027 34.4714 84.8944 34.445 84.7604 34.445H84.3463C84.6863 34.1007 84.9172 33.6631 85.0098 33.1874C85.1024 32.7117 85.0526 32.2191 84.8667 31.7717C84.6808 31.3244 84.3672 30.9422 83.9652 30.6734C83.5632 30.4046 83.0909 30.2611 82.6079 30.2611C82.1248 30.2611 81.6525 30.4046 81.2505 30.6734C80.8486 30.9422 80.5349 31.3244 80.349 31.7717C80.1631 32.2191 80.1133 32.7117 80.2059 33.1874C80.2985 33.6631 80.5294 34.1007 80.8694 34.445H80.4553C80.3214 34.445 80.1888 34.4714 80.065 34.5229C79.9413 34.5743 79.8288 34.6497 79.7341 34.7447C79.6394 34.8397 79.5643 34.9525 79.5131 35.0767C79.4618 35.2008 79.4354 35.3339 79.4354 35.4683V39.7878C79.4356 39.9036 79.4555 40.0184 79.4942 40.1275C78.5888 40.2382 77.6913 40.4058 76.8068 40.6293V43.1757H86.3852C86.6094 43.1757 86.8244 43.0864 86.983 42.9273C87.1415 42.7682 87.2306 42.5525 87.2306 42.3275V41.3012C87.2309 41.1084 87.1657 40.9213 87.0457 40.7707C86.9257 40.6201 86.7581 40.5151 86.5706 40.4731Z" fill="#3F3D56"/>
<path d="M83.6956 32.717L108.35 30.8071L88.6808 34.1721L83.9674 33.3536L83.6956 32.717Z" fill="#3F3D56"/>
<path d="M56.4214 53.8163H52.5966C52.4549 53.8163 52.3146 53.8443 52.1838 53.8987C52.0529 53.9531 51.934 54.0328 51.8338 54.1333C51.7336 54.2338 51.6542 54.3531 51.5999 54.4845C51.5457 54.6158 51.5178 54.7565 51.5178 54.8987V55.7351C51.5179 55.9548 51.5847 56.1693 51.7093 56.35C51.8339 56.5307 52.0104 56.669 52.2153 56.7466C52.0572 56.9371 51.9707 57.1772 51.971 57.4251V57.665C51.971 57.836 52.0122 58.0046 52.0911 58.1562C52.17 58.3078 52.2843 58.438 52.4242 58.5357V61.7285H56.5937V58.5357C56.7337 58.438 56.848 58.3078 56.9269 58.1562C57.0058 58.0046 57.047 57.836 57.0469 57.665V57.4251C57.0473 57.1772 56.9608 56.9371 56.8027 56.7466C57.0075 56.669 57.184 56.5307 57.3086 56.35C57.4332 56.1693 57.5 55.9548 57.5001 55.7351V54.8987C57.5001 54.7565 57.4722 54.6158 57.418 54.4845C57.3638 54.3531 57.2844 54.2338 57.1842 54.1333C57.084 54.0328 56.9651 53.9531 56.8342 53.8987C56.7033 53.8443 56.563 53.8163 56.4214 53.8163Z" fill="#3F3D56"/>
<path d="M50.6221 61.2767C50.4518 61.2769 50.2886 61.3449 50.1682 61.4657C50.0478 61.5865 49.98 61.7503 49.9798 61.9212V67.0836C49.98 67.2545 50.0477 67.4183 50.1681 67.5392C50.2886 67.66 50.4518 67.728 50.6221 67.7282H58.3959C58.5662 67.728 58.7295 67.66 58.8499 67.5391C58.9703 67.4183 59.038 67.2545 59.0382 67.0836V61.9211C59.038 61.7503 58.9703 61.5865 58.8499 61.4657C58.7295 61.3449 58.5662 61.2769 58.3959 61.2767H50.6221Z" fill="#33CAFF"/>
<path d="M63.4127 51.7245L59.9475 54.6348H49.0705L45.7947 51.7245H49.0524L49.1947 51.0124C49.2364 50.803 49.3492 50.6145 49.5137 50.479C49.6783 50.3436 49.8846 50.2695 50.0975 50.2694H59.1924C59.4053 50.2695 59.6116 50.3436 59.7762 50.479C59.9408 50.6145 60.0535 50.803 60.0952 51.0124L60.2375 51.7245H63.4127Z" fill="#33CAFF"/>
<path d="M54.509 67.0489C55.9106 67.0489 57.0469 65.9088 57.0469 64.5024C57.0469 63.096 55.9106 61.9559 54.509 61.9559C53.1073 61.9559 51.971 63.096 51.971 64.5024C51.971 65.9088 53.1073 67.0489 54.509 67.0489Z" fill="#3F3D56"/>
<path d="M54.509 65.9575C55.31 65.9575 55.9593 65.306 55.9593 64.5024C55.9593 63.6987 55.31 63.0472 54.509 63.0472C53.7081 63.0472 53.0587 63.6987 53.0587 64.5024C53.0587 65.306 53.7081 65.9575 54.509 65.9575Z" fill="#E6E6E6"/>
<path d="M55.3856 63.3451C55.5983 63.6248 55.7027 63.9725 55.6792 64.3236C55.6558 64.6747 55.5062 65.0053 55.2583 65.2541C55.0103 65.503 54.6808 65.653 54.3309 65.6765C53.9809 65.7 53.6344 65.5954 53.3556 65.3819C53.4806 65.5474 53.6395 65.6841 53.8216 65.7828C54.0037 65.8815 54.2048 65.9399 54.4113 65.9541C54.6178 65.9683 54.8249 65.9379 55.0187 65.8651C55.2125 65.7922 55.3885 65.6785 55.5349 65.5317C55.6812 65.3848 55.7945 65.2082 55.8671 65.0138C55.9398 64.8193 55.97 64.6115 55.9559 64.4043C55.9417 64.1971 55.8835 63.9954 55.7851 63.8127C55.6868 63.63 55.5505 63.4705 55.3856 63.3451Z" fill="white"/>
<path d="M87.2758 41.5577H22.1954V41.9743H87.2758V41.5577Z" fill="#E6E6E6"/>
<path d="M88.8621 33.8727L84.1487 33.0542L84.1024 32.9458L83.8768 32.9633L84.1487 33.5999L88.8621 34.4184L108.531 30.8071L102.702 31.505L88.8621 33.8727Z" fill="#33CAFF"/>
<path d="M27.8604 32.717L52.5149 30.8071L32.8457 34.1721L28.1324 33.3536L27.8604 32.717Z" fill="#3F3D56"/>
<path d="M33.1177 33.8727L28.4043 33.0542L28.3581 32.9458L28.1324 32.9633L28.4043 33.5999L33.1177 34.4184L52.7868 30.8071L46.9579 31.505L33.1177 33.8727Z" fill="#33CAFF"/>
<path d="M58.2706 51.0425H51.0193V52.4976H58.2706V51.0425Z" fill="#E6E6E6"/>
<path d="M109 67.724H0V68H109V67.724Z" fill="#3F3D56"/>
</g>
<defs>
<clipPath id="clip0">
<rect width="109" height="68" fill="white"/>
</clipPath>
</defs>
</svg>
