<svg width="100" height="80" viewBox="0 0 104 70" fill="none" xmlns="http://www.w3.org/2000/svg">
<path d="M19.1754 34.6864H0.790771V34.8781H19.1754V34.6864Z" fill="#3F3D56"/>
<path d="M53.0238 34.6864H34.6392V34.8781H53.0238V34.6864Z" fill="#3F3D56"/>
<path d="M95.2913 34.6864H76.9067V34.8781H95.2913V34.6864Z" fill="#3F3D56"/>
<path d="M2.59491 35.892C3.21172 35.892 3.71174 35.3952 3.71174 34.7823C3.71174 34.1694 3.21172 33.6726 2.59491 33.6726C1.97811 33.6726 1.47809 34.1694 1.47809 34.7823C1.47809 35.3952 1.97811 35.892 2.59491 35.892Z" fill="#33CAFF"/>
<path d="M43.8315 35.892C44.4483 35.892 44.9483 35.3952 44.9483 34.7823C44.9483 34.1694 44.4483 33.6726 43.8315 33.6726C43.2147 33.6726 42.7147 34.1694 42.7147 34.7823C42.7147 35.3952 43.2147 35.892 43.8315 35.892Z" fill="#33CAFF"/>
<path d="M93.4872 35.892C94.104 35.892 94.6041 35.3952 94.6041 34.7823C94.6041 34.1694 94.104 33.6726 93.4872 33.6726C92.8704 33.6726 92.3704 34.1694 92.3704 34.7823C92.3704 35.3952 92.8704 35.892 93.4872 35.892Z" fill="#33CAFF"/>
<path d="M43.0315 16.0169C44.2645 19.7041 43.8315 23.1661 43.8315 23.1661C43.8315 23.1661 41.3994 20.65 40.1664 16.9629C38.9333 13.2757 39.3664 9.81372 39.3664 9.81372C39.3664 9.81372 41.7985 12.3298 43.0315 16.0169Z" fill="#33CAFF"/>
<path d="M44.6314 16.0169C43.3984 19.7041 43.8315 23.1661 43.8315 23.1661C43.8315 23.1661 46.2636 20.65 47.4966 16.9629C48.7296 13.2757 48.2966 9.81372 48.2966 9.81372C48.2966 9.81372 45.8644 12.3298 44.6314 16.0169Z" fill="#33CAFF"/>
<path d="M45.1281 16.0567C45.2107 19.9412 43.7685 23.1219 43.7685 23.1219C43.7685 23.1219 42.1922 20.0046 42.1096 16.1201C42.0269 12.2356 43.4692 9.05493 43.4692 9.05493C43.4692 9.05493 45.0454 12.1722 45.1281 16.0567Z" fill="#3F3D56"/>
<path d="M43.6188 13.0041C43.8302 13.0041 44.0015 12.8338 44.0015 12.6238C44.0015 12.4138 43.8302 12.2435 43.6188 12.2435C43.4074 12.2435 43.2361 12.4138 43.2361 12.6238C43.2361 12.8338 43.4074 13.0041 43.6188 13.0041Z" fill="#33CAFF"/>
<path d="M42.8746 15.8772C42.992 15.8772 43.0872 15.7827 43.0872 15.666C43.0872 15.5493 42.992 15.4547 42.8746 15.4547C42.7572 15.4547 42.662 15.5493 42.662 15.666C42.662 15.7827 42.7572 15.8772 42.8746 15.8772Z" fill="#33CAFF"/>
<path d="M40.2807 13.7857C40.3982 13.7857 40.4934 13.6911 40.4934 13.5744C40.4934 13.4577 40.3982 13.3632 40.2807 13.3632C40.1633 13.3632 40.0681 13.4577 40.0681 13.5744C40.0681 13.6911 40.1633 13.7857 40.2807 13.7857Z" fill="#3F3D56"/>
<path d="M47.7862 11.7365C47.9036 11.7365 47.9988 11.6419 47.9988 11.5252C47.9988 11.4086 47.9036 11.314 47.7862 11.314C47.6687 11.314 47.5735 11.4086 47.5735 11.5252C47.5735 11.6419 47.6687 11.7365 47.7862 11.7365Z" fill="#3F3D56"/>
<path d="M41.3863 15.7715C41.5037 15.7715 41.5989 15.6769 41.5989 15.5603C41.5989 15.4436 41.5037 15.349 41.3863 15.349C41.2688 15.349 41.1736 15.4436 41.1736 15.5603C41.1736 15.6769 41.2688 15.7715 41.3863 15.7715Z" fill="#3F3D56"/>
<path d="M45.8513 14.5463C45.9687 14.5463 46.0639 14.4517 46.0639 14.335C46.0639 14.2184 45.9687 14.1238 45.8513 14.1238C45.7339 14.1238 45.6387 14.2184 45.6387 14.335C45.6387 14.4517 45.7339 14.5463 45.8513 14.5463Z" fill="#3F3D56"/>
<path d="M41.5139 18.8771C41.6313 18.8771 41.7265 18.7825 41.7265 18.6659C41.7265 18.5492 41.6313 18.4546 41.5139 18.4546C41.3965 18.4546 41.3013 18.5492 41.3013 18.6659C41.3013 18.7825 41.3965 18.8771 41.5139 18.8771Z" fill="#3F3D56"/>
<path d="M46.0639 17.673C46.1814 17.673 46.2766 17.5784 46.2766 17.4618C46.2766 17.3451 46.1814 17.2505 46.0639 17.2505C45.9465 17.2505 45.8513 17.3451 45.8513 17.4618C45.8513 17.5784 45.9465 17.673 46.0639 17.673Z" fill="#3F3D56"/>
<path d="M44.0016 17.8842C44.119 17.8842 44.2142 17.7896 44.2142 17.6729C44.2142 17.5563 44.119 17.4617 44.0016 17.4617C43.8841 17.4617 43.7889 17.5563 43.7889 17.6729C43.7889 17.7896 43.8841 17.8842 44.0016 17.8842Z" fill="#33CAFF"/>
<path d="M45.1559 25.567L45.1071 25.3815L56.5143 22.4211L51.7681 4.36516L31.1487 9.71644L34.6662 23.0978L34.4795 23.1463L30.9133 9.57939L51.906 4.13123L51.9304 4.22399L56.7497 22.558L45.1559 25.567Z" fill="#3F3D56"/>
<path d="M84.9876 16.4667C86.7006 21.5892 86.099 26.3988 86.099 26.3988C86.099 26.3988 82.7201 22.9033 81.0072 17.7809C79.2942 12.6585 79.8958 7.84888 79.8958 7.84888C79.8958 7.84888 83.2747 11.3443 84.9876 16.4667Z" fill="#33CAFF"/>
<path d="M87.2104 16.4667C85.4974 21.5892 86.099 26.3988 86.099 26.3988C86.099 26.3988 89.4778 22.9033 91.1908 17.7809C92.9038 12.6585 92.3022 7.84888 92.3022 7.84888C92.3022 7.84888 88.9233 11.3443 87.2104 16.4667Z" fill="#33CAFF"/>
<path d="M87.9003 16.5221C88.0151 21.9187 86.0115 26.3375 86.0115 26.3375C86.0115 26.3375 83.8217 22.0068 83.7068 16.6102C83.592 11.2136 85.5957 6.7948 85.5957 6.7948C85.5957 6.7948 87.7855 11.1255 87.9003 16.5221Z" fill="#3F3D56"/>
<path d="M85.8035 12.2811C86.0972 12.2811 86.3352 12.0446 86.3352 11.7528C86.3352 11.461 86.0972 11.2245 85.8035 11.2245C85.5099 11.2245 85.2719 11.461 85.2719 11.7528C85.2719 12.0446 85.5099 12.2811 85.8035 12.2811Z" fill="#33CAFF"/>
<path d="M84.7696 16.2727C84.9328 16.2727 85.065 16.1413 85.065 15.9792C85.065 15.8171 84.9328 15.6857 84.7696 15.6857C84.6065 15.6857 84.4742 15.8171 84.4742 15.9792C84.4742 16.1413 84.6065 16.2727 84.7696 16.2727Z" fill="#33CAFF"/>
<path d="M81.166 13.367C81.3292 13.367 81.4614 13.2356 81.4614 13.0735C81.4614 12.9114 81.3292 12.78 81.166 12.78C81.0029 12.78 80.8707 12.9114 80.8707 13.0735C80.8707 13.2356 81.0029 13.367 81.166 13.367Z" fill="#3F3D56"/>
<path d="M91.5931 10.5201C91.7562 10.5201 91.8885 10.3887 91.8885 10.2266C91.8885 10.0645 91.7562 9.93311 91.5931 9.93311C91.43 9.93311 91.2977 10.0645 91.2977 10.2266C91.2977 10.3887 91.43 10.5201 91.5931 10.5201Z" fill="#3F3D56"/>
<path d="M82.702 16.1259C82.8651 16.1259 82.9974 15.9945 82.9974 15.8324C82.9974 15.6703 82.8651 15.5389 82.702 15.5389C82.5389 15.5389 82.4066 15.6703 82.4066 15.8324C82.4066 15.9945 82.5389 16.1259 82.702 16.1259Z" fill="#3F3D56"/>
<path d="M88.905 14.4237C89.0681 14.4237 89.2004 14.2923 89.2004 14.1302C89.2004 13.9681 89.0681 13.8367 88.905 13.8367C88.7419 13.8367 88.6096 13.9681 88.6096 14.1302C88.6096 14.2923 88.7419 14.4237 88.905 14.4237Z" fill="#3F3D56"/>
<path d="M82.8793 20.4404C83.0424 20.4404 83.1747 20.309 83.1747 20.1469C83.1747 19.9848 83.0424 19.8534 82.8793 19.8534C82.7162 19.8534 82.5839 19.9848 82.5839 20.1469C82.5839 20.309 82.7162 20.4404 82.8793 20.4404Z" fill="#3F3D56"/>
<path d="M89.2004 18.7674C89.3635 18.7674 89.4958 18.636 89.4958 18.4739C89.4958 18.3118 89.3635 18.1804 89.2004 18.1804C89.0373 18.1804 88.905 18.3118 88.905 18.4739C88.905 18.636 89.0373 18.7674 89.2004 18.7674Z" fill="#3F3D56"/>
<path d="M86.3352 19.061C86.4984 19.061 86.6306 18.9296 86.6306 18.7675C86.6306 18.6054 86.4984 18.474 86.3352 18.474C86.1721 18.474 86.0399 18.6054 86.0399 18.7675C86.0399 18.9296 86.1721 19.061 86.3352 19.061Z" fill="#33CAFF"/>
<path d="M87.9294 29.6982L87.8806 29.5127L103.764 25.3904L97.1518 0.233839L68.4334 7.68708L73.3297 26.3133L73.1429 26.3618L68.1979 7.55003L97.2898 0L97.3142 0.0926732L104 25.5275L87.9294 29.6982Z" fill="#3F3D56"/>
<path d="M9.58946 20.2701C9.95554 21.4051 10.0894 22.6013 9.98314 23.7884C9.17267 22.9081 8.55807 21.8679 8.17945 20.7357C7.80083 19.6034 7.66668 18.4046 7.78577 17.2174C8.5859 18.1053 9.19917 19.1432 9.58946 20.2701Z" fill="#33CAFF"/>
<path d="M10.3769 20.2701C10.0108 21.4051 9.87691 22.6013 9.98317 23.7884C10.7936 22.9081 11.4082 21.8679 11.7869 20.7357C12.1655 19.6034 12.2996 18.4046 12.1805 17.2174C11.3804 18.1053 10.7671 19.1432 10.3769 20.2701Z" fill="#33CAFF"/>
<path d="M10.6212 20.2897C10.6338 21.4815 10.4063 22.6636 9.95208 23.7667C9.43925 22.6879 9.16108 21.5138 9.1357 20.3209C9.11032 19.1281 9.33831 17.9434 9.80479 16.844C10.3055 17.927 10.5831 19.0985 10.6212 20.2897Z" fill="#3F3D56"/>
<path d="M11.0094 26.1612L10.9606 25.9756L19.7308 23.6995L16.084 9.82646L0.235339 13.9395L2.94077 24.2313L2.75404 24.2798L0 13.8025L16.222 9.59253L19.9662 23.8366L11.0094 26.1612Z" fill="#3F3D56"/>
<path d="M88.934 9.68574C89.6457 9.68574 90.2226 9.11247 90.2226 8.40531C90.2226 7.69815 89.6457 7.12488 88.934 7.12488C88.2223 7.12488 87.6453 7.69815 87.6453 8.40531C87.6453 9.11247 88.2223 9.68574 88.934 9.68574Z" fill="#33CAFF"/>
<path d="M83.0062 9.77119C83.3858 9.77119 83.6935 9.46545 83.6935 9.08829C83.6935 8.71114 83.3858 8.4054 83.0062 8.4054C82.6267 8.4054 82.319 8.71114 82.319 9.08829C82.319 9.46545 82.6267 9.77119 83.0062 9.77119Z" fill="#3F3D56"/>
<path d="M9.98307 41.1535C10.9952 41.1535 11.8156 40.3382 11.8156 39.3326C11.8156 38.327 10.9952 37.5117 9.98307 37.5117C8.97098 37.5117 8.15051 38.327 8.15051 39.3326C8.15051 40.3382 8.97098 41.1535 9.98307 41.1535Z" fill="#3F3D56"/>
<path d="M43.8315 41.1535C44.8436 41.1535 45.6641 40.3382 45.6641 39.3326C45.6641 38.327 44.8436 37.5117 43.8315 37.5117C42.8194 37.5117 41.999 38.327 41.999 39.3326C41.999 40.3382 42.8194 41.1535 43.8315 41.1535Z" fill="#3F3D56"/>
<path d="M86.099 41.1535C87.1111 41.1535 87.9315 40.3382 87.9315 39.3326C87.9315 38.327 87.1111 37.5117 86.099 37.5117C85.0869 37.5117 84.2664 38.327 84.2664 39.3326C84.2664 40.3382 85.0869 41.1535 86.099 41.1535Z" fill="#3F3D56"/>
<path d="M63.061 70H62.9713C58.3228 70 53.9108 69.7703 50.5481 69.3533L50.4124 69.3356C50.3204 69.3236 50.2296 69.3116 50.1399 69.2995C49.6121 69.2303 49.0956 69.1527 48.6051 69.0689C46.1697 68.6476 44.9351 68.1454 44.9351 67.5763C44.9351 67.1042 45.7449 66.6927 47.4109 66.3183C48.2124 66.1384 49.2019 65.9724 50.3519 65.8251C50.5614 65.7973 50.7771 65.7714 50.9976 65.7465C54.2916 65.3635 58.5441 65.1526 62.9713 65.1526C63.8464 65.1526 64.7319 65.161 65.6033 65.1775C73.0224 65.3188 81.0075 66.1297 81.0075 67.5763C81.0075 68.4403 78.1203 68.9979 75.6983 69.3136C72.3267 69.7529 67.8387 69.9967 63.061 70ZM62.9713 65.3443C58.5513 65.3443 54.3068 65.5547 51.0198 65.9369C50.8002 65.9618 50.5859 65.9879 50.377 66.0152C49.2326 66.1618 48.2491 66.3266 47.4535 66.5053C45.3545 66.9769 45.128 67.4114 45.128 67.5763C45.128 67.7857 45.47 68.332 48.6379 68.8801C49.1257 68.9634 49.6398 69.0406 50.1656 69.1096C50.2554 69.1218 50.3459 69.1336 50.4375 69.1455L50.5727 69.1632C53.927 69.5792 58.3305 69.8083 62.9713 69.8083H63.061C73.6807 69.801 80.8146 68.6484 80.8146 67.5763C80.8146 66.6337 75.1234 65.5504 65.5996 65.3692C64.7295 65.3526 63.8451 65.3443 62.9713 65.3443Z" fill="#3F3D56"/>
<path d="M54.2653 65.5403L54.1618 65.5018C54.1391 65.4933 51.8751 64.6314 50.8146 62.6772C49.754 60.7228 50.2733 58.3698 50.2787 58.3463L50.3032 58.2391L50.4066 58.2777C50.4294 58.2862 52.6933 59.1481 53.7538 61.1023C54.8144 63.0567 54.2951 65.4097 54.2897 65.4332L54.2653 65.5403ZM50.9844 62.5862C51.8811 64.2385 53.6701 65.0855 54.1234 65.2789C54.2096 64.7961 54.4799 62.844 53.584 61.1933C52.6883 59.5427 50.8985 58.6944 50.4451 58.5006C50.3588 58.9836 50.0886 60.9355 50.9844 62.5862Z" fill="#3F3D56"/>
<path d="M51.6251 61.9917C53.5311 63.131 54.2651 65.3941 54.2651 65.3941C54.2651 65.3941 51.909 65.8099 50.0031 64.6705C48.0972 63.5312 47.3632 61.2681 47.3632 61.2681C47.3632 61.2681 49.7192 60.8523 51.6251 61.9917Z" fill="#33CAFF"/>
<path d="M66.4531 25.1534C66.4531 25.1534 64.8574 24.9269 64.0596 27.8715C63.2618 30.816 63.0338 31.0425 63.0338 31.0425C63.0338 31.0425 67.7069 31.722 67.8208 31.4955C67.9348 31.269 68.8466 25.8329 66.4531 25.1534Z" fill="#2F2E41"/>
<path d="M65.5414 24.021C67.2409 24.021 68.6187 22.652 68.6187 20.9633C68.6187 19.2745 67.2409 17.9055 65.5414 17.9055C63.8418 17.9055 62.464 19.2745 62.464 20.9633C62.464 22.652 63.8418 24.021 65.5414 24.021Z" fill="#FFB8B8"/>
<path d="M64.1736 23.4548C64.1736 23.4548 65.1994 26.0595 64.8574 26.3993C64.5155 26.739 69.0746 27.192 69.0746 27.192C69.0746 27.192 69.4165 25.4933 68.0488 24.474C68.0488 24.474 67.4789 22.7753 67.5929 22.4355C67.7069 22.0958 64.1736 23.4548 64.1736 23.4548Z" fill="#FFB8B8"/>
<path d="M66.909 24.5872C65.7407 25.0256 64.6883 25.7228 63.8317 26.6257C62.4639 28.098 61.7801 28.551 61.7801 28.551C61.7801 28.551 60.1844 29.1172 60.7543 31.8353C61.0392 33.1943 60.8398 34.7231 60.5691 35.9123C60.1556 37.7577 59.9501 39.643 59.9564 41.5336V42.7073C59.9564 42.7073 49.4706 64.5647 53.0039 66.0369C56.5372 67.5092 59.7285 67.9622 59.9564 67.6224C60.1844 67.2827 64.2876 49.6156 64.2876 49.6156C64.2876 49.6156 65.4273 68.5284 68.2767 68.5284C71.1262 68.5284 75.7992 67.7357 75.7992 67.7357L69.9864 45.0856C69.9864 45.0856 71.3541 41.2351 67.9348 38.517L67.4789 37.2713C69.3698 37.2722 70.2341 25.381 68.2767 24.3607C68.2768 24.3607 67.8208 24.021 66.909 24.5872Z" fill="#2F2E41"/>
<path d="M64.0596 30.7027L62.4639 34.893L58.7027 42.7073C58.7027 42.7073 56.9931 47.8035 58.3608 47.8035C59.7285 47.8035 60.7543 42.9338 60.7543 42.9338L64.9714 36.3652L67.3649 30.4762L64.0596 30.7027Z" fill="#FFB8B8"/>
<path d="M56.4801 68.5284C57.5817 68.5284 58.4747 68.0214 58.4747 67.3959C58.4747 66.7705 57.5817 66.2634 56.4801 66.2634C55.3785 66.2634 54.4855 66.7705 54.4855 67.3959C54.4855 68.0214 55.3785 68.5284 56.4801 68.5284Z" fill="#2F2E41"/>
<path d="M71.7531 68.5284C72.8547 68.5284 73.7477 68.0214 73.7477 67.3959C73.7477 66.7705 72.8547 66.2634 71.7531 66.2634C70.6515 66.2634 69.7585 66.7705 69.7585 67.3959C69.7585 68.0214 70.6515 68.5284 71.7531 68.5284Z" fill="#2F2E41"/>
<path d="M66.7294 16.6753H66.7294C66.571 16.6756 66.4129 16.6912 66.2575 16.7219C65.9767 16.5865 65.6688 16.516 65.3566 16.5156H65.2749C63.6984 16.5156 62.4205 17.933 62.4205 19.6815V19.6815H62.9487L63.034 19.0363L63.1591 19.6815H63.5991C63.4622 20.1992 63.3935 20.7324 63.3947 21.2676V24.49H64.1934L64.6557 23.2961L64.5401 24.49H69.6735L70.0939 23.4046L69.9888 24.49H70.5667V21.9599C70.5667 19.0413 68.8487 16.6753 66.7294 16.6753Z" fill="#2F2E41"/>
</svg>
