<svg width="100" height="80" viewBox="0 0 79 67" fill="none" xmlns="http://www.w3.org/2000/svg">
<g clip-path="url(#clip0)">
<path d="M78.822 11.3636C78.4278 13.7834 77.5308 16.0986 77.1455 18.5192C76.8381 20.4526 76.8584 22.4484 76.2849 24.321C75.7058 26.2146 74.546 27.8927 73.9798 29.788C73.9669 29.8309 73.9539 29.8747 73.9417 29.9177C73.8026 30.4172 73.702 30.9267 73.6408 31.4417C73.6197 31.6125 73.6021 31.7832 73.5881 31.954C73.4413 33.7374 73.6457 35.5719 73.7089 37.3748C73.7965 39.8724 73.5248 42.5792 71.8734 44.4558C70.7201 45.7658 69.0541 46.4824 67.4449 47.1634C65.0116 48.1897 62.5419 49.2257 59.9245 49.5783C55.019 50.2382 49.953 48.4499 45.131 49.5621C41.0902 50.4943 37.7501 53.3494 33.8026 54.6213C29.8063 55.9095 25.4646 55.4887 21.3426 54.6943C13.7735 53.2351 6.03657 50.2673 1.34037 44.1559C0.720697 43.3493 0.144012 42.4535 0.0255932 41.4435C-0.0620044 40.7033 0.106702 39.9592 0.26892 39.2328C0.998899 35.9902 1.78971 32.6244 3.89286 30.0547C5.70402 27.8424 8.40495 26.3346 9.66132 23.7665C11.3062 20.4047 9.95575 16.3896 8.36358 13.0068C7.97994 12.1961 7.57602 11.362 7.49491 10.4654C7.33837 8.77518 8.39765 7.15388 9.78218 6.1657C11.1667 5.17752 12.8432 4.69924 14.4816 4.23555C17.3942 3.42491 20.7327 2.90285 23.4409 1.54988C26.0842 0.228523 28.1898 -0.171936 31.2274 0.0631513C35.6992 0.410022 40.1331 1.13875 44.4805 2.24136C49.0875 3.41275 53.847 5.01377 58.497 4.00695C60.3511 3.60163 62.0933 2.80152 63.9264 2.31351C65.4593 1.90818 67.0434 1.72092 68.6307 1.63094C71.8402 1.45017 75.4771 1.85306 77.4959 4.35391C79.0321 6.26217 79.217 8.94541 78.822 11.3636Z" fill="#33CAFF"/>
<path d="M43.8961 65.5116C43.8961 65.5116 41.6899 58.0213 44.3097 52.508C45.4096 50.1936 45.7754 47.5963 45.2668 45.0858C45.0227 43.8941 44.6697 42.7272 44.2124 41.6" stroke="#535461" stroke-width="2" stroke-miterlimit="10"/>
<path d="M45.8476 38.1207C45.8476 39.0384 44.184 41.7014 44.184 41.7014C44.184 41.7014 42.5213 39.0351 42.5213 38.1207C42.5348 37.689 42.7159 37.2794 43.0262 36.9788C43.3366 36.6781 43.7518 36.51 44.184 36.51C44.6162 36.51 45.0315 36.6781 45.3418 36.9788C45.6522 37.2794 45.8333 37.689 45.8468 38.1207H45.8476Z" fill="#33CAFF"/>
<path d="M48.5963 43.2019C48.0975 43.9728 45.253 45.3039 45.253 45.3039C45.253 45.3039 45.3049 42.1658 45.8037 41.3949C45.9197 41.2057 46.0723 41.0416 46.2527 40.9123C46.4331 40.783 46.6375 40.6911 46.854 40.642C47.0704 40.5929 47.2946 40.5875 47.5131 40.6263C47.7317 40.6651 47.9403 40.7472 48.1266 40.8678C48.3129 40.9884 48.4732 41.145 48.598 41.3285C48.7228 41.5119 48.8096 41.7185 48.8533 41.936C48.897 42.1535 48.8967 42.3776 48.8524 42.595C48.8082 42.8124 48.7208 43.0187 48.5955 43.2019H48.5963Z" fill="#33CAFF"/>
<path d="M48.4763 51.8919C47.6563 52.307 44.5287 52.02 44.5287 52.02C44.5287 52.02 46.1582 49.3368 46.9782 48.9242C47.3707 48.7373 47.8208 48.7114 48.2322 48.8521C48.6435 48.9928 48.9834 49.2888 49.1791 49.6768C49.3748 50.0648 49.4107 50.5139 49.2792 50.9281C49.1477 51.3423 48.8592 51.6885 48.4755 51.8927L48.4763 51.8919Z" fill="#33CAFF"/>
<path d="M46.9036 58.446C46.1655 58.9916 43.0347 59.2388 43.0347 59.2388C43.0347 59.2388 44.1873 56.3205 44.9254 55.7733C45.1011 55.6435 45.3007 55.5495 45.5128 55.4968C45.7249 55.4441 45.9453 55.4336 46.1614 55.466C46.3775 55.4984 46.5851 55.5731 46.7724 55.6857C46.9597 55.7983 47.1229 55.9466 47.2528 56.1223C47.3827 56.2979 47.4767 56.4974 47.5295 56.7094C47.5822 56.9214 47.5927 57.1416 47.5602 57.3576C47.5278 57.5737 47.4531 57.7812 47.3405 57.9683C47.2278 58.1555 47.0794 58.3186 46.9036 58.4484V58.446Z" fill="#33CAFF"/>
<path d="M41.7613 45.4814C42.4199 46.121 45.4923 46.7841 45.4923 46.7841C45.4923 46.7841 44.7404 43.7369 44.0818 43.0973C43.9259 42.9418 43.7405 42.8188 43.5366 42.7355C43.3327 42.6522 43.1143 42.6102 42.894 42.612C42.6737 42.6137 42.456 42.6592 42.2534 42.7457C42.0508 42.8323 41.8675 42.9581 41.714 43.1161C41.5605 43.274 41.4399 43.4608 41.3592 43.6657C41.2785 43.8706 41.2394 44.0894 41.244 44.3095C41.2486 44.5296 41.297 44.7466 41.3862 44.948C41.4754 45.1493 41.6037 45.3308 41.7637 45.4822L41.7613 45.4814Z" fill="#33CAFF"/>
<path d="M40.0199 53.1704C40.8399 53.5838 43.9675 53.2985 43.9675 53.2985C43.9675 53.2985 42.3388 50.6152 41.5172 50.1994C41.3216 50.0953 41.1071 50.0313 40.8865 50.0112C40.6658 49.991 40.4433 50.0152 40.2321 50.0821C40.0209 50.1491 39.8252 50.2576 39.6565 50.4012C39.4878 50.5449 39.3495 50.7207 39.2498 50.9185C39.15 51.1163 39.0908 51.332 39.0756 51.5529C39.0604 51.7739 39.0896 51.9956 39.1613 52.2052C39.233 52.4147 39.3459 52.6078 39.4934 52.7732C39.6408 52.9385 39.8198 53.0727 40.0199 53.168V53.1704Z" fill="#33CAFF"/>
<path d="M39.3532 60.8756C40.0913 61.4212 43.2221 61.6684 43.2221 61.6684C43.2221 61.6684 42.0695 58.7501 41.3314 58.2029C40.9765 57.9407 40.5319 57.8302 40.0954 57.8956C39.6589 57.9611 39.2664 58.1971 39.004 58.5519C38.7417 58.9066 38.6311 59.351 38.6966 59.7872C38.7621 60.2235 38.9983 60.6158 39.3532 60.878V60.8756Z" fill="#33CAFF"/>
<path opacity="0.25" d="M45.8476 38.1207C45.8476 39.0384 44.184 41.7014 44.184 41.7014C44.184 41.7014 42.5213 39.0351 42.5213 38.1207C42.5348 37.689 42.7159 37.2794 43.0262 36.9788C43.3366 36.6781 43.7518 36.51 44.184 36.51C44.6162 36.51 45.0315 36.6781 45.3418 36.9788C45.6522 37.2794 45.8333 37.689 45.8468 38.1207H45.8476Z" fill="black"/>
<path opacity="0.25" d="M48.5963 43.2019C48.0975 43.9728 45.253 45.3039 45.253 45.3039C45.253 45.3039 45.3049 42.1658 45.8037 41.3949C45.9197 41.2057 46.0723 41.0416 46.2527 40.9123C46.4331 40.783 46.6375 40.6911 46.854 40.642C47.0704 40.5929 47.2946 40.5875 47.5131 40.6263C47.7317 40.6651 47.9403 40.7472 48.1266 40.8678C48.3129 40.9884 48.4732 41.145 48.598 41.3285C48.7228 41.5119 48.8096 41.7185 48.8533 41.936C48.897 42.1535 48.8967 42.3776 48.8524 42.595C48.8082 42.8124 48.7208 43.0187 48.5955 43.2019H48.5963Z" fill="black"/>
<path opacity="0.25" d="M48.4763 51.8919C47.6563 52.307 44.5287 52.02 44.5287 52.02C44.5287 52.02 46.1582 49.3368 46.9782 48.9242C47.3707 48.7373 47.8208 48.7114 48.2322 48.8521C48.6435 48.9928 48.9834 49.2888 49.1791 49.6768C49.3748 50.0648 49.4107 50.5139 49.2792 50.9281C49.1477 51.3423 48.8592 51.6885 48.4755 51.8927L48.4763 51.8919Z" fill="black"/>
<path opacity="0.25" d="M46.9036 58.446C46.1655 58.9916 43.0347 59.2388 43.0347 59.2388C43.0347 59.2388 44.1873 56.3205 44.9254 55.7733C45.1011 55.6435 45.3007 55.5495 45.5128 55.4968C45.7249 55.4441 45.9453 55.4336 46.1614 55.466C46.3775 55.4984 46.5851 55.5731 46.7724 55.6857C46.9597 55.7983 47.1229 55.9466 47.2528 56.1223C47.3827 56.2979 47.4767 56.4974 47.5295 56.7094C47.5822 56.9214 47.5927 57.1416 47.5602 57.3576C47.5278 57.5737 47.4531 57.7812 47.3405 57.9683C47.2278 58.1555 47.0794 58.3186 46.9036 58.4484V58.446Z" fill="black"/>
<path opacity="0.25" d="M41.7613 45.4814C42.4199 46.121 45.4923 46.7841 45.4923 46.7841C45.4923 46.7841 44.7404 43.7369 44.0818 43.0973C43.9259 42.9418 43.7405 42.8188 43.5366 42.7355C43.3327 42.6522 43.1143 42.6102 42.894 42.612C42.6737 42.6137 42.456 42.6592 42.2534 42.7457C42.0508 42.8323 41.8675 42.9581 41.714 43.1161C41.5605 43.274 41.4399 43.4608 41.3592 43.6657C41.2785 43.8706 41.2394 44.0894 41.244 44.3095C41.2486 44.5296 41.297 44.7466 41.3862 44.948C41.4754 45.1493 41.6037 45.3308 41.7637 45.4822L41.7613 45.4814Z" fill="black"/>
<path opacity="0.25" d="M40.0199 53.1704C40.8399 53.5838 43.9675 53.2985 43.9675 53.2985C43.9675 53.2985 42.3388 50.6152 41.5172 50.1994C41.3216 50.0953 41.1071 50.0313 40.8865 50.0112C40.6658 49.991 40.4433 50.0152 40.2321 50.0821C40.0209 50.1491 39.8252 50.2576 39.6565 50.4012C39.4878 50.5449 39.3495 50.7207 39.2498 50.9185C39.15 51.1163 39.0908 51.332 39.0756 51.5529C39.0604 51.7739 39.0896 51.9956 39.1613 52.2052C39.233 52.4147 39.3459 52.6078 39.4934 52.7732C39.6408 52.9385 39.8198 53.0727 40.0199 53.168V53.1704Z" fill="black"/>
<path opacity="0.25" d="M39.3532 60.8756C40.0913 61.4212 43.2221 61.6684 43.2221 61.6684C43.2221 61.6684 42.0695 58.7501 41.3314 58.2029C40.9765 57.9407 40.5319 57.8302 40.0954 57.8956C39.6589 57.9611 39.2664 58.1971 39.004 58.5519C38.7417 58.9066 38.6311 59.351 38.6966 59.7872C38.7621 60.2235 38.9983 60.6158 39.3532 60.878V60.8756Z" fill="black"/>
<path d="M11.8419 56.6334C11.8419 56.6334 9.63411 49.1422 12.2555 43.629C13.3554 41.3146 13.7212 38.7173 13.2126 36.2067C12.9685 35.015 12.6156 33.8482 12.1582 32.7209" stroke="#535461" stroke-width="2" stroke-miterlimit="10"/>
<path d="M13.7958 29.2384C13.7958 30.1561 12.1323 32.819 12.1323 32.819C12.1323 32.819 10.4688 30.1569 10.4688 29.2384C10.4822 28.8066 10.6633 28.3971 10.9737 28.0964C11.284 27.7958 11.6993 27.6277 12.1315 27.6277C12.5637 27.6277 12.9789 27.7958 13.2893 28.0964C13.5996 28.3971 13.7807 28.8066 13.7942 29.2384H13.7958Z" fill="#33CAFF"/>
<path d="M16.5462 34.3237C16.0474 35.0946 13.2029 36.4257 13.2029 36.4257C13.2029 36.4257 13.2548 33.2876 13.7536 32.5167C13.8707 32.3299 14.0238 32.1683 14.2039 32.0412C14.3841 31.914 14.5878 31.824 14.8031 31.7763C15.0184 31.7285 15.241 31.7241 15.4581 31.7631C15.6751 31.8022 15.8823 31.884 16.0674 32.0038C16.2525 32.1236 16.412 32.2789 16.5365 32.4609C16.661 32.6428 16.748 32.8477 16.7926 33.0636C16.8371 33.2794 16.8383 33.502 16.796 33.7183C16.7537 33.9347 16.6688 34.1404 16.5462 34.3237Z" fill="#33CAFF"/>
<path d="M16.4254 43.013C15.6053 43.4264 12.4778 43.1411 12.4778 43.1411C12.4778 43.1411 14.1073 40.4578 14.9273 40.0452C15.1229 39.9411 15.3373 39.8771 15.558 39.857C15.7786 39.8368 16.0011 39.861 16.2123 39.928C16.4236 39.995 16.6193 40.1035 16.7879 40.2471C16.9566 40.3907 17.0949 40.5665 17.1947 40.7643C17.2944 40.9621 17.3536 41.1778 17.3688 41.3987C17.384 41.6197 17.3549 41.8415 17.2831 42.051C17.2114 42.2605 17.0985 42.4537 16.951 42.619C16.8036 42.7843 16.6246 42.9186 16.4245 43.0138L16.4254 43.013Z" fill="#33CAFF"/>
<path d="M14.8527 49.5678C14.1146 50.1134 10.9838 50.3607 10.9838 50.3607C10.9838 50.3607 12.1363 47.4423 12.8744 46.8951C13.2294 46.633 13.674 46.5224 14.1104 46.5879C14.5469 46.6533 14.9395 46.8894 15.2018 47.2441C15.4642 47.5989 15.5748 48.0432 15.5093 48.4795C15.4438 48.9157 15.2076 49.3081 14.8527 49.5703V49.5678Z" fill="#33CAFF"/>
<path d="M9.71034 36.6032C10.3689 37.2428 13.4413 37.9059 13.4413 37.9059C13.4413 37.9059 12.6895 34.8587 12.0309 34.2191C11.7131 33.9186 11.2898 33.7552 10.8525 33.7644C10.4151 33.7736 9.99901 33.9546 9.69421 34.2682C9.38941 34.5817 9.22045 35.0027 9.22393 35.4399C9.2274 35.8771 9.40303 36.2953 9.71277 36.604L9.71034 36.6032Z" fill="#33CAFF"/>
<path d="M7.96895 44.2922C8.78896 44.7056 11.9165 44.4202 11.9165 44.4202C11.9165 44.4202 10.287 41.737 9.46703 41.3244C9.27144 41.2203 9.05701 41.1563 8.83633 41.1362C8.61565 41.116 8.39317 41.1402 8.18196 41.2072C7.97074 41.2741 7.77504 41.3826 7.60636 41.5262C7.43767 41.6699 7.29939 41.8457 7.19964 42.0435C7.09989 42.2413 7.04068 42.457 7.02549 42.6779C7.0103 42.8989 7.03942 43.1206 7.11116 43.3302C7.1829 43.5397 7.29581 43.7328 7.44325 43.8982C7.59069 44.0635 7.7697 44.1977 7.96976 44.293L7.96895 44.2922Z" fill="#33CAFF"/>
<path d="M7.29975 51.9974C8.03784 52.543 11.1686 52.7902 11.1686 52.7902C11.1686 52.7902 10.0161 49.8719 9.278 49.3247C9.10225 49.1949 8.90264 49.1009 8.69056 49.0482C8.47848 48.9955 8.25809 48.985 8.04197 49.0174C7.82585 49.0498 7.61823 49.1245 7.43097 49.2371C7.24371 49.3497 7.08047 49.498 6.95058 49.6737C6.82069 49.8493 6.72668 50.0488 6.67393 50.2608C6.62118 50.4728 6.61072 50.693 6.64314 50.909C6.67557 51.125 6.75024 51.3325 6.8629 51.5197C6.97556 51.7069 7.12401 51.87 7.29975 51.9998V51.9974Z" fill="#33CAFF"/>
<path opacity="0.25" d="M13.7958 29.2384C13.7958 30.1561 12.1323 32.819 12.1323 32.819C12.1323 32.819 10.4688 30.1569 10.4688 29.2384C10.4822 28.8066 10.6633 28.3971 10.9737 28.0964C11.284 27.7958 11.6993 27.6277 12.1315 27.6277C12.5637 27.6277 12.9789 27.7958 13.2893 28.0964C13.5996 28.3971 13.7807 28.8066 13.7942 29.2384H13.7958Z" fill="black"/>
<path opacity="0.25" d="M16.5462 34.3237C16.0474 35.0946 13.2029 36.4257 13.2029 36.4257C13.2029 36.4257 13.2548 33.2876 13.7536 32.5167C13.8707 32.3299 14.0238 32.1683 14.2039 32.0412C14.3841 31.914 14.5878 31.824 14.8031 31.7763C15.0184 31.7285 15.241 31.7241 15.4581 31.7631C15.6751 31.8022 15.8823 31.884 16.0674 32.0038C16.2525 32.1236 16.412 32.2789 16.5365 32.4609C16.661 32.6428 16.748 32.8477 16.7926 33.0636C16.8371 33.2794 16.8383 33.502 16.796 33.7183C16.7537 33.9347 16.6688 34.1404 16.5462 34.3237Z" fill="black"/>
<path opacity="0.25" d="M16.4254 43.013C15.6053 43.4264 12.4778 43.1411 12.4778 43.1411C12.4778 43.1411 14.1073 40.4578 14.9273 40.0452C15.1229 39.9411 15.3373 39.8771 15.558 39.857C15.7786 39.8368 16.0011 39.861 16.2123 39.928C16.4236 39.995 16.6193 40.1035 16.7879 40.2471C16.9566 40.3907 17.0949 40.5665 17.1947 40.7643C17.2944 40.9621 17.3536 41.1778 17.3688 41.3987C17.384 41.6197 17.3549 41.8415 17.2831 42.051C17.2114 42.2605 17.0985 42.4537 16.951 42.619C16.8036 42.7843 16.6246 42.9186 16.4245 43.0138L16.4254 43.013Z" fill="black"/>
<path opacity="0.25" d="M14.8527 49.5678C14.1146 50.1134 10.9838 50.3607 10.9838 50.3607C10.9838 50.3607 12.1363 47.4423 12.8744 46.8951C13.2294 46.633 13.674 46.5224 14.1104 46.5879C14.5469 46.6533 14.9395 46.8894 15.2018 47.2441C15.4642 47.5989 15.5748 48.0432 15.5093 48.4795C15.4438 48.9157 15.2076 49.3081 14.8527 49.5703V49.5678Z" fill="black"/>
<path opacity="0.25" d="M9.71034 36.6032C10.3689 37.2428 13.4413 37.9059 13.4413 37.9059C13.4413 37.9059 12.6895 34.8587 12.0309 34.2191C11.7131 33.9186 11.2898 33.7552 10.8525 33.7644C10.4151 33.7736 9.99901 33.9546 9.69421 34.2682C9.38941 34.5817 9.22045 35.0027 9.22393 35.4399C9.2274 35.8771 9.40303 36.2953 9.71277 36.604L9.71034 36.6032Z" fill="black"/>
<path opacity="0.25" d="M7.96895 44.2922C8.78896 44.7056 11.9165 44.4202 11.9165 44.4202C11.9165 44.4202 10.287 41.737 9.46703 41.3244C9.27144 41.2203 9.05701 41.1563 8.83633 41.1362C8.61565 41.116 8.39317 41.1402 8.18196 41.2072C7.97074 41.2741 7.77504 41.3826 7.60636 41.5262C7.43767 41.6699 7.29939 41.8457 7.19964 42.0435C7.09989 42.2413 7.04068 42.457 7.02549 42.6779C7.0103 42.8989 7.03942 43.1206 7.11116 43.3302C7.1829 43.5397 7.29581 43.7328 7.44325 43.8982C7.59069 44.0635 7.7697 44.1977 7.96976 44.293L7.96895 44.2922Z" fill="black"/>
<path opacity="0.25" d="M7.29975 51.9974C8.03784 52.543 11.1686 52.7902 11.1686 52.7902C11.1686 52.7902 10.0161 49.8719 9.278 49.3247C9.10225 49.1949 8.90264 49.1009 8.69056 49.0482C8.47848 48.9955 8.25809 48.985 8.04197 49.0174C7.82585 49.0498 7.61823 49.1245 7.43097 49.2371C7.24371 49.3497 7.08047 49.498 6.95058 49.6737C6.82069 49.8493 6.72668 50.0488 6.67393 50.2608C6.62118 50.4728 6.61072 50.693 6.64314 50.909C6.67557 51.125 6.75024 51.3325 6.8629 51.5197C6.97556 51.7069 7.12401 51.87 7.29975 51.9998V51.9974Z" fill="black"/>
<path d="M20.0639 58.9657C20.0639 58.9657 18.8692 54.9125 20.2878 51.9253C20.8911 50.6772 21.0729 49.2671 20.806 47.9069C20.6748 47.2621 20.4848 46.6306 20.2383 46.0205" stroke="#535461" stroke-width="2" stroke-miterlimit="10"/>
<path d="M21.1199 44.1341C21.1199 44.631 20.2196 46.0723 20.2196 46.0723C20.2196 46.0723 19.3193 44.631 19.3193 44.1341C19.3193 43.8954 19.4142 43.6666 19.583 43.4978C19.7518 43.3291 19.9808 43.2343 20.2196 43.2343C20.4584 43.2343 20.6874 43.3291 20.8562 43.4978C21.0251 43.6666 21.1199 43.8954 21.1199 44.1341Z" fill="#33CAFF"/>
<path d="M22.6083 46.887C22.3382 47.3045 20.7987 48.0219 20.7987 48.0219C20.7987 48.0219 20.8263 46.3195 21.0972 45.9061C21.1615 45.8069 21.2447 45.7213 21.3421 45.6542C21.4395 45.5871 21.5491 45.5399 21.6647 45.5152C21.7804 45.4904 21.8998 45.4887 22.0161 45.5101C22.1324 45.5315 22.2434 45.5756 22.3426 45.6398C22.4419 45.704 22.5276 45.7872 22.5947 45.8845C22.6618 45.9819 22.7091 46.0914 22.7338 46.207C22.7585 46.3226 22.7603 46.4419 22.7389 46.5582C22.7175 46.6744 22.6734 46.7853 22.6091 46.8845L22.6083 46.887Z" fill="#33CAFF"/>
<path d="M22.5434 51.592C22.0997 51.8157 20.4062 51.6609 20.4062 51.6609C20.4062 51.6609 21.2887 50.2082 21.7323 49.9845C21.9456 49.877 22.1929 49.8586 22.4197 49.9333C22.6466 50.008 22.8345 50.1697 22.9421 50.3829C23.0496 50.5961 23.068 50.8432 22.9933 51.07C22.9185 51.2967 22.7567 51.4845 22.5434 51.592Z" fill="#33CAFF"/>
<path d="M21.6926 55.1443C21.2927 55.4402 19.5975 55.5732 19.5975 55.5732C19.5975 55.5732 20.2213 53.9924 20.6211 53.6973C20.8131 53.5553 21.0537 53.4954 21.2899 53.5306C21.5261 53.5659 21.7387 53.6935 21.8807 53.8854C22.0228 54.0773 22.0828 54.3177 22.0475 54.5538C22.0122 54.7899 21.8846 55.0023 21.6926 55.1443Z" fill="#33CAFF"/>
<path d="M18.9081 48.1217C19.265 48.4678 20.9269 48.827 20.9269 48.827C20.9269 48.827 20.5213 47.1773 20.1628 46.8311C19.9915 46.6648 19.7611 46.5734 19.5223 46.5769C19.2834 46.5804 19.0558 46.6785 18.8894 46.8498C18.723 47.021 18.6315 47.2513 18.635 47.49C18.6385 47.7287 18.7367 47.9562 18.9081 48.1225V48.1217Z" fill="#33CAFF"/>
<path d="M17.9656 52.2843C18.4093 52.508 20.1028 52.3532 20.1028 52.3532C20.1028 52.3532 19.2228 50.9005 18.7759 50.6767C18.6703 50.6235 18.5552 50.5916 18.4373 50.5828C18.3193 50.574 18.2008 50.5885 18.0884 50.6255C17.9761 50.6625 17.8722 50.7213 17.7825 50.7984C17.6929 50.8756 17.6194 50.9696 17.5661 51.0752C17.5129 51.1807 17.4809 51.2957 17.4722 51.4136C17.4634 51.5315 17.4779 51.65 17.5149 51.7622C17.5519 51.8745 17.6107 51.9784 17.6879 52.068C17.7651 52.1575 17.8592 52.231 17.9648 52.2843H17.9656Z" fill="#33CAFF"/>
<path d="M17.6006 56.4559C18.0005 56.7518 19.6956 56.8847 19.6956 56.8847C19.6956 56.8847 19.0719 55.3039 18.672 55.0089C18.577 54.9385 18.469 54.8876 18.3542 54.859C18.2395 54.8304 18.1202 54.8247 18.0033 54.8422C17.8863 54.8596 17.7739 54.8999 17.6725 54.9608C17.5712 55.0217 17.4828 55.1019 17.4124 55.1969C17.3421 55.2919 17.2911 55.3999 17.2625 55.5146C17.2339 55.6292 17.2282 55.7484 17.2456 55.8653C17.2631 55.9823 17.3034 56.0946 17.3643 56.1959C17.4253 56.2972 17.5055 56.3856 17.6006 56.4559Z" fill="#33CAFF"/>
<path opacity="0.5" d="M21.1199 44.1341C21.1199 44.631 20.2196 46.0723 20.2196 46.0723C20.2196 46.0723 19.3193 44.631 19.3193 44.1341C19.3193 43.8954 19.4142 43.6666 19.583 43.4978C19.7518 43.3291 19.9808 43.2343 20.2196 43.2343C20.4584 43.2343 20.6874 43.3291 20.8562 43.4978C21.0251 43.6666 21.1199 43.8954 21.1199 44.1341Z" fill="white"/>
<path opacity="0.5" d="M22.6083 46.887C22.3382 47.3045 20.7987 48.0219 20.7987 48.0219C20.7987 48.0219 20.8263 46.3195 21.0972 45.9061C21.1615 45.8069 21.2447 45.7213 21.3421 45.6542C21.4395 45.5871 21.5491 45.5399 21.6647 45.5152C21.7804 45.4904 21.8998 45.4887 22.0161 45.5101C22.1324 45.5315 22.2434 45.5756 22.3426 45.6398C22.4419 45.704 22.5276 45.7872 22.5947 45.8845C22.6618 45.9819 22.7091 46.0914 22.7338 46.207C22.7585 46.3226 22.7603 46.4419 22.7389 46.5582C22.7175 46.6744 22.6734 46.7853 22.6091 46.8845L22.6083 46.887Z" fill="white"/>
<path opacity="0.5" d="M22.5434 51.592C22.0997 51.8157 20.4062 51.6609 20.4062 51.6609C20.4062 51.6609 21.2887 50.2082 21.7323 49.9845C21.9456 49.877 22.1929 49.8586 22.4197 49.9333C22.6466 50.008 22.8345 50.1697 22.9421 50.3829C23.0496 50.5961 23.068 50.8432 22.9933 51.07C22.9185 51.2967 22.7567 51.4845 22.5434 51.592Z" fill="white"/>
<path opacity="0.5" d="M21.6926 55.1443C21.2927 55.4402 19.5975 55.5732 19.5975 55.5732C19.5975 55.5732 20.2213 53.9924 20.6211 53.6973C20.8131 53.5553 21.0537 53.4954 21.2899 53.5306C21.5261 53.5659 21.7387 53.6935 21.8807 53.8854C22.0228 54.0773 22.0828 54.3177 22.0475 54.5538C22.0122 54.7899 21.8846 55.0023 21.6926 55.1443Z" fill="white"/>
<path opacity="0.5" d="M18.9081 48.1217C19.265 48.4678 20.9269 48.827 20.9269 48.827C20.9269 48.827 20.5213 47.1773 20.1628 46.8311C19.9915 46.6648 19.7611 46.5734 19.5223 46.5769C19.2834 46.5804 19.0558 46.6785 18.8894 46.8498C18.723 47.021 18.6315 47.2513 18.635 47.49C18.6385 47.7287 18.7367 47.9562 18.9081 48.1225V48.1217Z" fill="white"/>
<path opacity="0.5" d="M17.9656 52.2843C18.4093 52.508 20.1028 52.3532 20.1028 52.3532C20.1028 52.3532 19.2228 50.9005 18.7759 50.6767C18.6703 50.6235 18.5552 50.5916 18.4373 50.5828C18.3193 50.574 18.2008 50.5885 18.0884 50.6255C17.9761 50.6625 17.8722 50.7213 17.7825 50.7984C17.6929 50.8756 17.6194 50.9696 17.5661 51.0752C17.5129 51.1807 17.4809 51.2957 17.4722 51.4136C17.4634 51.5315 17.4779 51.65 17.5149 51.7622C17.5519 51.8745 17.6107 51.9784 17.6879 52.068C17.7651 52.1575 17.8592 52.231 17.9648 52.2843H17.9656Z" fill="white"/>
<path opacity="0.5" d="M17.6006 56.4559C18.0005 56.7518 19.6956 56.8847 19.6956 56.8847C19.6956 56.8847 19.0719 55.3039 18.672 55.0089C18.577 54.9385 18.469 54.8876 18.3542 54.859C18.2395 54.8304 18.1202 54.8247 18.0033 54.8422C17.8863 54.8596 17.7739 54.8999 17.6725 54.9608C17.5712 55.0217 17.4828 55.1019 17.4124 55.1969C17.3421 55.2919 17.2911 55.3999 17.2625 55.5146C17.2339 55.6292 17.2282 55.7484 17.2456 55.8653C17.2631 55.9823 17.3034 56.0946 17.3643 56.1959C17.4253 56.2972 17.5055 56.3856 17.6006 56.4559Z" fill="white"/>
<path d="M6.50167 35.1797C6.53394 35.1797 6.56488 35.1669 6.5877 35.1441C6.61051 35.1213 6.62333 35.0904 6.62333 35.0581C6.62333 35.0259 6.61051 34.9949 6.5877 34.9721C6.56488 34.9493 6.53394 34.9365 6.50167 34.9365C6.4694 34.9365 6.43845 34.9493 6.41564 34.9721C6.39282 34.9949 6.38 35.0259 6.38 35.0581C6.38 35.0904 6.39282 35.1213 6.41564 35.1441C6.43845 35.1669 6.4694 35.1797 6.50167 35.1797Z" fill="#72351C"/>
<path d="M29.0021 9.0184L29.8886 10.707C30.0735 11.0588 30.2609 11.4187 30.2941 11.8005C30.3396 12.2715 30.153 12.7417 30.1976 13.2127C30.239 13.6456 30.4726 14.0509 30.7443 14.4287C32.4313 16.7552 35.8144 18.1998 39.135 18.0117C37.8794 18.5419 36.4446 18.7032 35.0414 18.8556C34.3634 18.9294 33.6723 19.0031 32.9983 18.9099C32.3811 18.8289 31.806 18.6043 31.2577 18.3595C30.1725 17.8731 29.1408 17.2757 28.3994 16.4707C27.6581 15.6657 27.2363 14.6289 27.4488 13.6391C27.5235 13.2913 27.6735 12.9557 27.7343 12.6063C27.826 12.0778 27.7116 11.5338 27.8382 11.011C27.9485 10.5562 28.2348 10.1411 28.3629 9.68961C28.4789 9.28429 28.0847 8.69738 28.3792 8.39258C28.6963 8.46716 28.8747 8.7752 29.0021 9.0184Z" fill="url(#paint0_linear)"/>
<path d="M19.5245 36.471L24.0788 30.3911L23.3594 23.2185L33.4639 22.4038L33.4266 20.9584L35.6636 25.7137L42.4548 32.1835L42.5018 32.2507L44.0583 31.4733L38.1374 24.3129L35.344 19.5568L35.3375 19.5349C34.6432 17.3016 32.5733 15.7403 30.183 15.6438C29.5893 15.6203 29.0791 15.5773 28.8723 15.5011C28.2332 15.2677 28.5527 12.929 28.5527 12.929L24.2386 13.3959C24.2386 13.3959 24.6401 14.3525 24.9361 15.3706C25.0938 15.9264 25.0613 16.5189 24.8439 17.0542C24.6264 17.5894 24.2364 18.0368 23.7357 18.3254C22.4201 19.1004 19.7703 20.442 20.1247 21.7764C20.6844 23.884 21.283 28.829 21.283 28.829L18.6461 36.2343" fill="url(#paint1_linear)"/>
<path d="M18.6453 36.2367C18.6453 36.2367 15.0497 39.5887 16.5681 39.5887C18.0865 39.5887 19.5245 36.471 19.5245 36.471" fill="url(#paint2_linear)"/>
<path d="M44.1321 31.5601L44.0583 31.4709L42.501 32.25C42.8092 32.6804 44.5523 35.0394 45.5694 34.7557C46.6895 34.4444 44.1321 31.5601 44.1321 31.5601Z" fill="url(#paint3_linear)"/>
<path d="M32.2278 54.7122C32.2278 54.7122 33.0267 58.6843 31.8279 59.6231C30.6291 60.5618 29.9105 60.3243 29.9105 60.3243V54.9456L32.2278 54.7122Z" fill="url(#paint4_linear)"/>
<path d="M17.1578 38.8114C17.1578 38.8114 15.6889 40.5251 16.2485 40.915C16.8082 41.3049 18.0873 41.0699 18.1684 41.9308C18.2495 42.7917 21.0445 42.5542 21.0445 42.5542C21.0445 42.5542 24.0804 44.4251 26.641 43.9574C29.2016 43.4896 33.9035 42.863 33.9035 42.863L36.46 42.782C36.46 42.782 38.5397 41.7686 38.9395 41.9308C39.3394 42.0929 40.857 40.7618 40.2981 39.8231C39.7393 38.8844 17.1578 38.8114 17.1578 38.8114Z" fill="url(#paint5_linear)"/>
<g opacity="0.2">
<path opacity="0.2" d="M17.1578 38.8114C17.1578 38.8114 15.6889 40.5251 16.2485 40.915C16.8082 41.3049 18.0873 41.0699 18.1684 41.9308C18.2495 42.7917 21.0445 42.5542 21.0445 42.5542C21.0445 42.5542 24.0804 44.4251 26.641 43.9574C29.2016 43.4896 33.9035 42.863 33.9035 42.863L36.46 42.782C36.46 42.782 38.5397 41.7686 38.9395 41.9308C39.3394 42.0929 40.857 40.7618 40.2981 39.8231C39.7393 38.8844 17.1578 38.8114 17.1578 38.8114Z" fill="url(#paint6_linear)"/>
</g>
<path d="M34.4648 41.3819L33.3463 48.4759C33.3463 48.4759 34.2255 50.3469 32.467 53.1533L32.1475 54.7122L29.99 54.9457L29.1919 39.1989L34.4648 41.3819Z" fill="url(#paint7_linear)"/>
<g opacity="0.1">
<path opacity="0.1" d="M24.3181 40.3686L26.555 45.9839C26.555 45.9839 26.9549 48.3227 26.7984 48.7904C26.6418 49.2581 26.3985 53.7791 27.2777 55.1824C28.1569 56.5856 29.3549 61.8864 29.3549 61.8864L31.7517 61.6529C31.7517 61.6529 30.8692 60.1703 30.8692 59.2332V54.79C30.8692 54.79 30.8692 51.7501 30.3096 49.567L30.5229 48.1078C30.5931 47.6292 30.5794 47.142 30.4823 46.6681L29.0313 39.5887L24.3181 40.3686Z" fill="url(#paint8_linear)"/>
</g>
<path d="M24.1583 40.3686L26.3952 45.9839C26.3952 45.9839 26.7951 48.3227 26.6386 48.7904C26.482 49.2581 26.2387 53.7791 27.1179 55.1824C27.9971 56.5856 29.1951 61.8864 29.1951 61.8864L31.5919 61.6529C31.5919 61.6529 30.7094 60.1703 30.7094 59.2332V54.79C30.7094 54.79 30.7094 51.7501 30.1498 49.567L30.3631 48.1078C30.4333 47.6292 30.4196 47.142 30.3225 46.6681L28.8747 39.5887L24.1583 40.3686Z" fill="url(#paint9_linear)"/>
<path d="M29.1919 61.884C29.1919 61.884 29.6712 63.2872 29.1919 63.6771C28.7125 64.0671 28.8747 66.6392 28.8747 66.6392C28.8747 66.6392 31.8311 67.8082 32.2302 65.938C32.2302 65.938 31.4313 62.4304 31.5911 61.6505L29.1919 61.884Z" fill="url(#paint10_linear)"/>
<g opacity="0.1">
<path opacity="0.1" d="M27.4343 22.2831C27.4343 22.2831 31.3494 19.6323 33.4266 22.2831C33.4266 22.2831 33.9059 25.5573 33.4266 26.1807C33.4266 26.1807 33.0267 28.7529 33.6699 29.1428C34.3131 29.5327 34.7884 30.7795 34.7884 30.7795C34.7884 30.7795 37.1057 31.7928 37.4252 32.4948C37.7448 33.1969 41.1003 40.2122 41.1003 40.2122C41.1003 40.2122 36.6263 42.5509 35.0285 42.3199C33.4306 42.0889 29.9186 42.3199 29.9186 42.3199C29.9186 42.3199 28.0012 40.2933 24.5654 41.2288C21.1297 42.1642 16.5681 39.742 16.5681 39.742L23.6027 30.4682C23.6027 30.4682 24.8015 28.9094 24.2418 27.1162C23.6822 25.323 23.6027 22.9073 23.6027 22.9073C23.6027 22.9073 23.8387 21.0363 27.4343 22.2831Z" fill="url(#paint11_linear)"/>
</g>
<path d="M27.4343 22.1275C27.4343 22.1275 31.3494 19.4767 33.4266 22.1275C33.4266 22.1275 33.9059 25.4017 33.4266 26.0251C33.4266 26.0251 33.0267 28.5973 33.6699 28.9872C34.3131 29.3771 34.7884 30.6239 34.7884 30.6239C34.7884 30.6239 37.1057 31.6372 37.4252 32.3392C37.7448 33.0412 41.1003 40.0566 41.1003 40.0566C41.1003 40.0566 36.6263 42.3953 35.0285 42.1642C33.4306 41.9332 29.9186 42.1642 29.9186 42.1642C29.9186 42.1642 28.0012 40.1376 24.5654 41.0731C21.1297 42.0086 16.5754 39.5921 16.5754 39.5921L23.6027 30.3126C23.6027 30.3126 24.8015 28.7537 24.2418 26.9606C23.6822 25.1674 23.6027 22.7509 23.6027 22.7509C23.6027 22.7509 23.8387 20.8799 27.4343 22.1275Z" fill="url(#paint12_linear)"/>
<path opacity="0.1" d="M29.3922 15.9219C29.3922 15.9219 31.9626 15.7136 32.6057 16.5575L29.3922 15.9219Z" fill="url(#paint13_linear)"/>
<path opacity="0.1" d="M22.6991 19.535C22.6991 19.535 24.5646 17.797 25.6044 18.0589L22.6991 19.535Z" fill="url(#paint14_linear)"/>
<g opacity="0.1">
<path opacity="0.1" d="M24.4778 13.3959C24.4778 13.3959 24.6401 13.7899 24.8396 14.3403C25.3916 14.7652 26.0628 15.0068 26.7591 15.0312C27.4553 15.0556 28.1418 14.8616 28.7223 14.4765C28.7026 13.9596 28.7259 13.442 28.792 12.929L24.4778 13.3959Z" fill="url(#paint15_linear)"/>
</g>
<path d="M26.6353 15.0335C28.4446 15.0335 29.9113 13.6024 29.9113 11.8371C29.9113 10.0718 28.4446 8.64075 26.6353 8.64075C24.8261 8.64075 23.3593 10.0718 23.3593 11.8371C23.3593 13.6024 24.8261 15.0335 26.6353 15.0335Z" fill="url(#paint16_linear)"/>
<g opacity="0.1">
<path opacity="0.1" d="M30.0103 9.24143C29.8391 8.6602 29.5504 7.57961 28.9461 7.44504C28.8145 7.42525 28.6844 7.39627 28.5568 7.3583C28.3135 7.26589 28.1423 7.04782 27.9396 6.88407C27.4886 6.5209 26.7156 6.97892 26.1341 6.92055C25.5882 6.86543 25.0156 6.82814 24.5119 7.03242C23.4956 7.43774 23.1087 8.62534 22.3787 9.42707C21.8321 10.027 21.0883 10.412 20.3973 10.8465C19.7062 11.281 19.0241 11.8152 18.728 12.5635C18.5188 13.0928 18.5236 13.6789 18.5739 14.2447C18.7136 15.7992 19.1675 17.3091 19.9082 18.683C20.1207 19.077 20.3591 19.4661 20.4638 19.899C20.5684 20.3319 20.5165 20.8313 20.2034 21.1555C19.7622 21.6135 19.0119 21.5608 18.419 21.804C18.9113 22.2953 19.6437 22.5117 20.347 22.4825C21.0502 22.4534 21.7258 22.1972 22.3366 21.8551C23.9101 20.9739 25.1016 19.5042 25.7512 17.8529C26.053 17.0853 26.2444 16.243 26.0603 15.4396C25.9021 14.7506 25.4836 14.1507 25.1316 13.5338C24.7796 12.9169 24.4827 12.2206 24.5922 11.5226C24.6944 10.8943 25.1291 10.3496 25.6685 9.99128C26.1146 9.69459 26.9046 9.29007 27.4667 9.31358C28.0888 9.3379 30.1782 9.82348 30.0103 9.24143Z" fill="url(#paint17_linear)"/>
</g>
<path d="M29.9292 9.16355C29.758 8.58232 29.4693 7.50173 28.865 7.36716C28.7334 7.34737 28.6033 7.31839 28.4757 7.28042C28.2324 7.18801 28.0612 6.96994 27.8584 6.80619C27.4075 6.44302 26.6345 6.90104 26.053 6.84267C25.5071 6.78755 24.9345 6.75026 24.4308 6.95454C23.4145 7.35986 23.0276 8.54746 22.2976 9.34919C21.751 9.94907 21.0072 10.3341 20.3161 10.7686C19.6251 11.2031 18.943 11.7374 18.6469 12.4856C18.4377 13.0149 18.4425 13.601 18.4928 14.1669C18.6324 15.7213 19.0864 17.2312 19.8271 18.6052C20.0396 18.9991 20.278 19.3883 20.3826 19.8211C20.4873 20.254 20.4354 20.7534 20.1223 21.0776C19.6811 21.5357 18.9308 21.483 18.3379 21.7262C18.8302 22.2174 19.5626 22.4339 20.2658 22.4047C20.9691 22.3755 21.6447 22.1193 22.2554 21.7772C23.829 20.8961 25.0204 19.4263 25.6701 17.7751C25.9719 17.0074 26.1633 16.1651 25.9792 15.3618C25.821 14.6727 25.4025 14.0728 25.0505 13.4559C24.6984 12.839 24.4016 12.1427 24.5111 11.4447C24.6133 10.8165 25.048 10.2717 25.5874 9.9134C26.0335 9.6167 26.8235 9.21219 27.3856 9.2357C28.0085 9.26164 30.0987 9.74803 29.9292 9.16355Z" fill="url(#paint18_linear)"/>
<path opacity="0.1" d="M33.2262 28.9482C33.2262 28.9482 31.7079 29.8837 29.9503 29.7281L33.2262 28.9482Z" fill="url(#paint19_linear)"/>
<path opacity="0.1" d="M34.8241 30.4292C34.8241 30.4292 30.9089 31.9103 29.3898 31.7546L34.8241 30.4292Z" fill="url(#paint20_linear)"/>
<path opacity="0.1" d="M24.4381 26.6095C24.4381 26.6095 28.6728 26.9994 29.3914 26.2196C29.3914 26.2196 31.7087 26.9208 33.2262 26.2196" fill="url(#paint21_linear)"/>
<path d="M29.1027 9.72127L29.9446 11.3628C30.1198 11.7049 30.2982 12.0551 30.3331 12.4264C30.3769 12.8844 30.1993 13.3416 30.2414 13.7996C30.2804 14.2204 30.5026 14.6151 30.7605 14.9791C32.3624 17.2416 35.5727 18.6465 38.7254 18.4649C37.5339 18.9805 36.1713 19.1369 34.8395 19.2853C34.1955 19.3566 33.5418 19.4288 32.9002 19.338C32.3146 19.2569 31.7647 19.0405 31.248 18.8029C30.2179 18.332 29.2381 17.7491 28.5349 16.966C27.8317 16.1829 27.4278 15.1826 27.6289 14.2179C27.6995 13.8799 27.8422 13.5532 27.8998 13.2135C27.9874 12.6996 27.8779 12.171 27.9988 11.662C28.1034 11.2202 28.3751 10.8165 28.4968 10.3771C28.6071 9.97986 28.2332 9.41241 28.5122 9.11328C28.8123 9.18624 28.981 9.48456 29.1027 9.72127Z" fill="#252223"/>
<path d="M20.1069 36.4183L24.4292 30.5006L23.7462 23.529L33.3357 22.7378L33.3001 21.3321L35.4235 25.9528L41.87 32.2443L41.9146 32.3091L43.3932 31.5544L37.7773 24.5909L35.1226 19.9702L35.1161 19.9492C34.794 18.8894 34.15 17.956 33.2734 17.2784C32.3967 16.6008 31.3309 16.2126 30.2236 16.1675C29.6558 16.1448 29.1765 16.1026 28.9794 16.0289C28.3727 15.8011 28.676 13.5272 28.676 13.5272L24.5809 13.982C24.5809 13.982 24.9613 14.9126 25.2427 15.9016C25.394 16.4391 25.3644 17.0114 25.1585 17.5305C24.9526 18.0495 24.5818 18.4866 24.1031 18.7745C22.854 19.5284 20.3389 20.8328 20.6755 22.1298C21.2067 24.1767 21.7753 28.9895 21.7753 28.9895L19.2723 36.1905" fill="#F0898B"/>
<path d="M19.2723 36.1881C19.2723 36.1881 15.8592 39.4477 17.3005 39.4477C18.7418 39.4477 20.1069 36.4183 20.1069 36.4183" fill="#FDB797"/>
<path d="M43.4646 31.6404L43.3932 31.5544L41.9154 32.3124C42.2074 32.7307 43.862 35.024 44.828 34.7484C45.8914 34.4452 43.4646 31.6404 43.4646 31.6404Z" fill="#FDB797"/>
<path d="M32.1645 54.1521C32.1645 54.1521 32.9229 58.0181 31.7849 58.9276C30.647 59.8372 29.9648 59.6102 29.9648 59.6102V54.3799L32.1645 54.1521Z" fill="#333333"/>
<path d="M17.8602 38.6881C17.8602 38.6881 16.4651 40.3572 16.9972 40.7358C17.5292 41.1144 18.7418 40.8874 18.8172 41.7215C18.8927 42.5557 21.5474 42.3279 21.5474 42.3279C21.5474 42.3279 24.4292 44.147 26.8559 43.6922C29.2827 43.2375 33.7575 42.6311 33.7575 42.6311L36.1843 42.5549C36.1843 42.5549 38.156 41.5691 38.5364 41.7207C38.9168 41.8723 40.3565 40.5858 39.8261 39.6739C39.2956 38.7619 17.8602 38.6881 17.8602 38.6881Z" fill="#F0898B"/>
<path opacity="0.2" d="M17.8602 38.6881C17.8602 38.6881 16.4651 40.3572 16.9972 40.7358C17.5292 41.1144 18.7418 40.8874 18.8172 41.7215C18.8927 42.5557 21.5474 42.3279 21.5474 42.3279C21.5474 42.3279 24.4292 44.147 26.8559 43.6922C29.2827 43.2375 33.7575 42.6311 33.7575 42.6311L36.1843 42.5549C36.1843 42.5549 38.156 41.5691 38.5364 41.7207C38.9168 41.8723 40.3565 40.5858 39.8261 39.6739C39.2956 38.7619 17.8602 38.6881 17.8602 38.6881Z" fill="black"/>
<path d="M34.2879 41.1906L33.2262 48.0917C33.2262 48.0917 34.0608 49.9108 32.3916 52.6394L32.0883 54.1553L30.0403 54.3831L29.2803 39.0684L34.2879 41.1906Z" fill="#FDB797"/>
<path opacity="0.1" d="M24.6571 40.2057L26.7805 45.6597C26.7805 45.6597 27.1601 47.9336 27.0084 48.3884C26.8567 48.8432 26.6288 53.2393 27.4634 54.6036C28.2981 55.9679 29.4352 61.122 29.4352 61.122L31.7135 60.8999C31.7135 60.8999 30.8789 59.4594 30.8789 58.549V54.2283C30.8789 54.2283 30.8789 51.2719 30.3477 49.1496L30.5504 47.7301C30.6169 47.2649 30.6037 46.7918 30.5115 46.331L29.1327 39.4478L24.6571 40.2057Z" fill="black"/>
<path d="M24.5054 40.2057L26.6289 45.6597C26.6289 45.6597 27.0085 47.9336 26.8568 48.3884C26.7051 48.8432 26.4772 53.2393 27.3118 54.6036C28.1464 55.9679 29.2803 61.1253 29.2803 61.1253L31.5578 60.8999C31.5578 60.8999 30.7232 59.4594 30.7232 58.549V54.2283C30.7232 54.2283 30.7232 51.2719 30.192 49.1496L30.3947 47.7301C30.4612 47.2649 30.448 46.7918 30.3558 46.331L28.977 39.4478L24.5054 40.2057Z" fill="#FDB797"/>
<path d="M29.2803 61.1253C29.2803 61.1253 29.7353 62.4896 29.2803 62.869C28.8253 63.2483 28.9769 65.7492 28.9769 65.7492C28.9769 65.7492 31.7833 66.8841 32.1621 65.0666C32.1621 65.0666 31.4037 61.6554 31.5554 60.8975L29.2803 61.1253Z" fill="#333333"/>
<path opacity="0.1" d="M27.6143 22.6203C27.6143 22.6203 31.3307 20.0433 33.3025 22.6203C33.3025 22.6203 33.7575 25.8037 33.3025 26.4101C33.3025 26.4101 32.9229 28.9118 33.5304 29.2903C34.1379 29.6689 34.5921 30.8824 34.5921 30.8824C34.5921 30.8824 36.7918 31.8682 37.0951 32.5499C37.3985 33.2317 40.5828 40.0541 40.5828 40.0541C40.5828 40.0541 36.3368 42.328 34.8192 42.1002C33.3017 41.8724 29.9657 42.1002 29.9657 42.1002C29.9657 42.1002 28.1448 40.1295 24.8842 41.039C21.6236 41.9486 17.3005 39.5985 17.3005 39.5985L23.9742 30.5817C23.9742 30.5817 25.1097 29.0658 24.5809 27.3221C24.052 25.5784 23.9742 23.2291 23.9742 23.2291C23.9742 23.2291 24.2021 21.4076 27.6143 22.6203Z" fill="black"/>
<path d="M27.6143 22.4687C27.6143 22.4687 31.3307 19.8917 33.3025 22.4687C33.3025 22.4687 33.7575 25.6521 33.3025 26.2585C33.3025 26.2585 32.9229 28.7601 33.5304 29.1387C34.1379 29.5173 34.5921 30.7308 34.5921 30.7308C34.5921 30.7308 36.791 31.7166 37.0943 32.3983C37.3977 33.0801 40.582 39.9025 40.582 39.9025C40.582 39.9025 36.3368 42.1739 34.8192 41.9486C33.3017 41.7232 29.9657 41.9486 29.9657 41.9486C29.9657 41.9486 28.1448 39.9779 24.8842 40.8874C21.6236 41.797 17.3005 39.4469 17.3005 39.4469L23.9742 30.4277C23.9742 30.4277 25.1097 28.9117 24.5809 27.168C24.052 25.4243 23.9742 23.0751 23.9742 23.0751C23.9742 23.0751 24.2021 21.2592 27.6143 22.4687Z" fill="#F0898B"/>
<path opacity="0.1" d="M29.4733 16.4351C29.4733 16.4351 31.9131 16.2324 32.5214 17.0512L29.4733 16.4351Z" fill="#72351C"/>
<path opacity="0.1" d="M23.1201 19.9476C23.1201 19.9476 24.8899 18.2574 25.8778 18.5127L23.1201 19.9476Z" fill="#72351C"/>
<path opacity="0.1" d="M24.8087 13.9796C24.8087 13.9796 24.9653 14.3623 25.1518 14.8973C25.6715 15.3098 26.3097 15.5451 26.9729 15.5689C27.6361 15.5927 28.2895 15.4036 28.8374 15.0294C28.8188 14.5267 28.8411 14.0232 28.9039 13.524L24.8087 13.9796Z" fill="#72351C"/>
<path d="M26.8559 15.5718C28.5734 15.5718 29.9656 14.1802 29.9656 12.4637C29.9656 10.7472 28.5734 9.35571 26.8559 9.35571C25.1385 9.35571 23.7462 10.7472 23.7462 12.4637C23.7462 14.1802 25.1385 15.5718 26.8559 15.5718Z" fill="#FDB797"/>
<path opacity="0.1" d="M30.0573 9.93931C29.8951 9.37186 29.621 8.32369 29.0467 8.19237C28.9217 8.1742 28.7981 8.14711 28.6769 8.11131C28.4433 8.02132 28.2835 7.80893 28.0904 7.65005C27.663 7.29742 26.9282 7.74246 26.3766 7.68572C25.8583 7.63221 25.3149 7.59573 24.8356 7.79434C23.8712 8.19237 23.5037 9.34268 22.8078 10.1225C22.2895 10.7062 21.5831 11.0799 20.9269 11.5006C20.2707 11.9213 19.6284 12.4418 19.3437 13.1697C19.145 13.6845 19.1498 14.2544 19.1969 14.8048C19.3287 16.3129 19.7593 17.7797 20.4638 19.1199C20.6657 19.5033 20.8912 19.8811 20.991 20.3026C21.0908 20.7242 21.0405 21.2089 20.7477 21.5243C20.3291 21.9693 19.617 21.9199 19.0509 22.1517C19.5181 22.6292 20.214 22.84 20.8807 22.8116C21.5474 22.7832 22.1898 22.5343 22.7697 22.202C24.2629 21.3451 25.3944 19.9176 26.0141 18.3109C26.3004 17.5643 26.4821 16.7447 26.3077 15.9649C26.1576 15.2945 25.7602 14.7116 25.426 14.1117C25.0919 13.5118 24.8064 12.8341 24.9134 12.1556C25.0099 11.5444 25.4228 11.015 25.9346 10.6665C26.358 10.3787 27.1082 9.98471 27.6379 10.0082C28.2356 10.0325 30.2196 10.5051 30.0573 9.93931Z" fill="#72351C"/>
<path d="M29.9811 9.864C29.8189 9.29654 29.5447 8.24838 28.9705 8.11705C28.8454 8.09888 28.7218 8.07179 28.6006 8.03599C28.367 7.94601 28.2072 7.73362 28.0142 7.57473C27.5867 7.2221 26.8519 7.66714 26.3004 7.6104C25.7821 7.5569 25.2386 7.52042 24.7593 7.71902C23.7949 8.11705 23.4275 9.26736 22.7316 10.0472C22.2133 10.6309 21.5068 11.0046 20.8507 11.4253C20.1945 11.846 19.5472 12.3665 19.2674 13.0944C19.0687 13.6092 19.0736 14.1791 19.1206 14.7295C19.2524 16.2376 19.6831 17.7044 20.3875 19.0446C20.5895 19.428 20.815 19.8058 20.9147 20.2273C21.0145 20.6488 20.9642 21.1336 20.6714 21.449C20.2529 21.894 19.5407 21.8445 18.9746 22.0764C19.4418 22.5539 20.1377 22.7646 20.8044 22.7363C21.4711 22.7079 22.1135 22.459 22.6934 22.1267C24.1867 21.2698 25.3181 19.8423 25.9378 18.2355C26.2241 17.4889 26.4058 16.6694 26.2314 15.8895C26.0814 15.2191 25.6839 14.6363 25.3498 14.0364C25.0156 13.4365 24.7301 12.7588 24.8372 12.0803C24.9337 11.4691 25.3465 10.9397 25.8583 10.5911C26.2817 10.3034 27.032 9.90939 27.5616 9.9329C28.1602 9.95722 30.1433 10.429 29.9811 9.864Z" fill="#252223"/>
<path opacity="0.1" d="M33.1127 29.1014C33.1127 29.1014 31.6714 30.011 30.003 29.8594L33.1127 29.1014Z" fill="#72351C"/>
<path opacity="0.1" d="M34.6335 30.5411C34.6335 30.5411 30.9171 31.9817 29.4766 31.8301L34.6335 30.5411Z" fill="#72351C"/>
<path opacity="0.1" d="M24.7706 26.8275C24.7706 26.8275 28.7904 27.2069 29.4749 26.4481C29.4749 26.4481 31.6746 27.1307 33.1151 26.4481" fill="#72351C"/>
<path opacity="0.1" d="M24.357 29.7451L20.2707 34.9876L20.1069 35.8063L24.357 29.7451Z" fill="#72351C"/>
<path opacity="0.2" d="M70.4706 9.31514L67.768 8.39181C67.7196 8.37524 67.6683 8.36838 67.6172 8.37164C67.5661 8.37489 67.5161 8.3882 67.4702 8.41079C67.4242 8.43338 67.3832 8.46482 67.3494 8.50329C67.3156 8.54177 67.2897 8.58653 67.2733 8.63501L66.347 11.3353C66.3304 11.3837 66.3236 11.4349 66.3268 11.486C66.3301 11.5371 66.3434 11.5871 66.366 11.633C66.3886 11.6789 66.4201 11.72 66.4586 11.7537C66.4971 11.7875 66.5418 11.8133 66.5903 11.8298L69.2929 12.7531C69.3413 12.7697 69.3926 12.7765 69.4437 12.7733C69.4948 12.77 69.5448 12.7567 69.5908 12.7341C69.6367 12.7115 69.6778 12.6801 69.7116 12.6416C69.7453 12.6031 69.7712 12.5584 69.7877 12.5099L70.7115 9.80882C70.7448 9.71142 70.7382 9.60478 70.6931 9.51225C70.6479 9.41972 70.5679 9.34884 70.4706 9.31514ZM69.6782 10.4055C69.6725 10.4273 69.6644 10.45 69.6571 10.4711C69.4292 11.1367 68.6611 11.7301 67.7348 11.4139C67.461 11.3218 67.2194 11.153 67.0389 10.9275C67.0777 10.9457 67.1175 10.9617 67.1581 10.9753C67.3843 11.0537 67.6303 11.0537 67.8565 10.9753C67.7521 10.9375 67.6621 10.868 67.5991 10.7766C67.5362 10.6852 67.5033 10.5764 67.5053 10.4654C67.5764 10.5041 67.6549 10.5274 67.7356 10.5335C67.6296 10.4715 67.5483 10.3747 67.5056 10.2596C67.4629 10.1445 67.4613 10.0182 67.5012 9.90205V9.89556C67.5575 9.95814 67.6278 10.0065 67.7064 10.0366C67.6531 9.96714 67.6177 9.88556 67.6036 9.79915C67.5894 9.71273 67.5969 9.62415 67.6253 9.54131C67.6552 9.45179 67.7087 9.37198 67.7802 9.31028C67.8534 9.50909 67.9676 9.69029 68.1155 9.84211C68.2633 9.99392 68.4415 10.1129 68.6383 10.1915C68.6506 10.0749 68.7009 9.96572 68.7815 9.88069C68.8622 9.79567 68.9686 9.73958 69.0843 9.72111C69.2001 9.70265 69.3187 9.72284 69.4218 9.77856C69.5249 9.83428 69.6067 9.92241 69.6546 10.0293C69.7747 10.0463 69.8969 10.0422 70.0156 10.0172C69.9385 10.1206 69.8263 10.1923 69.7001 10.219C69.8041 10.2419 69.911 10.249 70.0172 10.2401C69.9146 10.3139 69.8002 10.3698 69.679 10.4055H69.6782Z" fill="black"/>
<path opacity="0.2" d="M60.431 17.9948L60.4658 20.8491C60.4665 20.9002 60.457 20.9509 60.4381 20.9984C60.4191 21.0458 60.391 21.0891 60.3553 21.1257C60.3196 21.1622 60.277 21.1914 60.23 21.2116C60.183 21.2317 60.1325 21.2424 60.0814 21.2431L59.3895 21.2512L59.3717 19.8147L59.8632 19.809L59.9273 19.2602L59.3652 19.2667L59.3611 18.9165C59.3611 18.7544 59.4017 18.649 59.6296 18.6466H59.92L59.9143 18.1602C59.7736 18.1468 59.6322 18.1412 59.4909 18.1431C59.0724 18.148 58.7885 18.4074 58.7942 18.8727L58.799 19.2781L58.3059 19.2837L58.3124 19.8317L58.8064 19.826L58.8242 21.2617L57.2272 21.2812C57.176 21.2818 57.1253 21.2724 57.0778 21.2534C57.0303 21.2344 56.987 21.2063 56.9504 21.1706C56.9138 21.135 56.8846 21.0924 56.8645 21.0455C56.8443 20.9985 56.8336 20.948 56.833 20.8969L56.7981 18.0426C56.7975 17.9915 56.8069 17.9408 56.8259 17.8933C56.8448 17.8459 56.873 17.8026 56.9087 17.766C56.9444 17.7295 56.9869 17.7003 57.0339 17.6801C57.0809 17.66 57.1314 17.6493 57.1826 17.6486L60.0368 17.6114C60.1399 17.6101 60.2393 17.6497 60.3132 17.7216C60.3871 17.7935 60.4295 17.8917 60.431 17.9948Z" fill="black"/>
<path opacity="0.2" d="M64.3047 26.3071L65.1969 28.9531C65.2133 29.0009 65.2201 29.0516 65.2167 29.1021C65.2134 29.1526 65.2 29.202 65.1773 29.2473C65.1547 29.2926 65.1232 29.3329 65.0848 29.3659C65.0464 29.3989 65.0018 29.4239 64.9535 29.4394L63.1067 30.0612C63.1472 29.8927 63.166 29.7197 63.1627 29.5464C63.1562 29.4524 63.1294 29.069 63.1294 29.069C63.2284 29.1638 63.4368 29.2011 63.6242 29.1387C64.1814 28.9514 64.4101 28.3045 64.1919 27.6682C63.9867 27.0586 63.3346 26.77 62.6939 26.9856C61.8966 27.2539 61.654 27.9308 61.8503 28.5137C61.9412 28.7844 62.1991 29.0722 62.4659 29.1022C62.5065 29.1071 62.5227 29.0933 62.5195 29.0568C62.5162 29.0203 62.5065 28.8947 62.5 28.8306C62.4996 28.8205 62.4965 28.8107 62.4911 28.8022C62.4857 28.7937 62.4781 28.7867 62.4692 28.782C62.3388 28.6897 62.2409 28.5586 62.1894 28.4075C62.1525 28.2993 62.1381 28.1847 62.147 28.0708C62.1559 27.9568 62.1878 27.8459 62.2409 27.7446C62.294 27.6434 62.3672 27.554 62.4559 27.482C62.5447 27.4099 62.6471 27.3566 62.7571 27.3253C63.2105 27.1729 63.6331 27.3747 63.7815 27.8165C63.9494 28.3159 63.8148 28.7463 63.4855 28.8566C63.4441 28.8729 63.3995 28.8792 63.3553 28.875C63.3111 28.8709 63.2684 28.8564 63.2308 28.8327C63.1932 28.809 63.1618 28.7768 63.1389 28.7387C63.1161 28.7006 63.1025 28.6577 63.0994 28.6134C63.0775 28.3767 63.0994 28.1059 63.0451 27.947C62.9104 27.549 62.3613 27.7946 62.5406 28.3264C62.5713 28.4212 62.6216 28.5085 62.6882 28.5826C62.7888 29.6599 62.7571 29.6851 62.9534 30.105H62.9721L62.3053 30.3295C62.2574 30.346 62.2067 30.3527 62.1562 30.3494C62.1056 30.346 62.0563 30.3326 62.011 30.31C61.9656 30.2874 61.9253 30.2559 61.8923 30.2175C61.8593 30.1791 61.8343 30.1345 61.8187 30.0863L60.9265 27.4404C60.91 27.3925 60.9033 27.3418 60.9066 27.2913C60.91 27.2408 60.9234 27.1914 60.946 27.1462C60.9687 27.1009 61.0001 27.0606 61.0386 27.0276C61.077 26.9946 61.1216 26.9696 61.1698 26.954L63.8172 26.0623C63.8653 26.0457 63.9162 26.039 63.9669 26.0424C64.0176 26.0458 64.0671 26.0593 64.1125 26.0821C64.158 26.1049 64.1984 26.1365 64.2314 26.1752C64.2643 26.2138 64.2893 26.2587 64.3047 26.3071Z" fill="black"/>
<path opacity="0.2" d="M68.8468 20.0919C68.7801 20.2891 68.7733 20.5015 68.8272 20.7025C68.8812 20.9035 68.9934 21.084 69.1499 21.2213C69.3063 21.3586 69.5 21.4466 69.7064 21.4741C69.9127 21.5016 70.1227 21.4674 70.3096 21.3758C70.4966 21.2842 70.6523 21.1394 70.757 20.9595C70.8617 20.7797 70.9108 20.5728 70.8981 20.3651C70.8854 20.1574 70.8114 19.9581 70.6855 19.7923C70.5597 19.6266 70.3875 19.5018 70.1907 19.4337C70.0593 19.3882 69.9201 19.3691 69.7812 19.3776C69.6424 19.3861 69.5066 19.422 69.3816 19.4831C69.2567 19.5443 69.1451 19.6296 69.0533 19.7341C68.9615 19.8386 68.8913 19.9602 68.8468 20.0919ZM70.499 20.6594C70.4549 20.788 70.3737 20.9007 70.2656 20.9832C70.1575 21.0657 70.0273 21.1143 69.8915 21.1228C69.7558 21.1314 69.6205 21.0995 69.5029 21.0313C69.3853 20.963 69.2905 20.8614 69.2306 20.7394C69.1708 20.6173 69.1484 20.4802 69.1665 20.3455C69.1846 20.2107 69.2422 20.0844 69.3321 19.9824C69.422 19.8804 69.5402 19.8073 69.6717 19.7724C69.8031 19.7375 69.942 19.7423 70.0707 19.7863C70.2431 19.8457 70.3849 19.9708 70.4652 20.1345C70.5455 20.2981 70.5576 20.4868 70.499 20.6594ZM69.2426 18.803C69.2876 18.8192 69.3267 18.8483 69.3553 18.8867C69.3838 18.925 69.4004 18.9709 69.403 19.0186C69.4055 19.0663 69.394 19.1138 69.3698 19.1549C69.3455 19.1961 69.3097 19.2293 69.2668 19.2503C69.2238 19.2712 69.1756 19.2791 69.1282 19.2729C69.0808 19.2666 69.0363 19.2466 69.0002 19.2152C68.9642 19.1838 68.9381 19.1425 68.9254 19.0965C68.9127 19.0504 68.9138 19.0016 68.9287 18.9562C68.9388 18.9252 68.955 18.8966 68.9764 18.8721C68.9978 18.8475 69.0239 18.8275 69.0532 18.8132C69.0825 18.7989 69.1143 18.7907 69.1469 18.7889C69.1794 18.7871 69.2119 18.7919 69.2426 18.803ZM69.7065 18.2209C69.3886 18.1285 69.0868 18.105 68.7803 18.2566C68.4737 18.4082 68.3074 18.6619 68.1849 18.9667C68.0624 19.2715 67.725 20.2484 67.6334 20.5775C67.5417 20.9066 67.5182 21.196 67.6682 21.5033C67.8183 21.8105 68.0738 21.9759 68.3788 22.0983C68.6837 22.2207 69.6611 22.5579 69.9904 22.6495C70.3197 22.7411 70.6101 22.7654 70.9167 22.6138C71.2233 22.4623 71.3895 22.2085 71.512 21.9037C71.6345 21.5989 71.9719 20.6221 72.0636 20.293C72.1552 19.9638 72.1795 19.6736 72.0279 19.3672C71.8762 19.0608 71.6223 18.8946 71.3174 18.7722C71.0124 18.6498 70.0358 18.3134 69.7065 18.2209ZM71.5201 19.3064C71.5926 19.3683 71.6516 19.4444 71.6934 19.53C71.7353 19.6157 71.7591 19.7089 71.7635 19.8041C71.7772 20.096 71.5453 20.6959 71.4479 20.982C71.3506 21.2682 71.1641 21.8843 70.9751 22.1056C70.9131 22.178 70.837 22.237 70.7513 22.2788C70.6656 22.3206 70.5723 22.3444 70.4771 22.3488C70.1851 22.3625 69.5849 22.1307 69.2985 22.0334C69.0122 21.9361 68.3958 21.7497 68.1744 21.5608C68.1019 21.4989 68.0429 21.4228 68.0011 21.3372C67.9592 21.2516 67.9354 21.1583 67.931 21.0631C67.9173 20.7712 68.1492 20.1714 68.2466 19.8852C68.3439 19.599 68.5304 18.983 68.7194 18.7616C68.7814 18.6892 68.8575 18.6303 68.9432 18.5884C69.0289 18.5466 69.1222 18.5228 69.2174 18.5185C69.5094 18.5047 70.1096 18.7365 70.396 18.8338C70.6823 18.9311 71.2995 19.1175 71.5209 19.3072L71.5201 19.3064Z" fill="black"/>
<path opacity="0.2" d="M50.603 26.3153L51.4855 26.5666L50.8179 27.1956L50.603 26.3153ZM52.4863 24.8042L53.1855 27.6634C53.21 27.7669 53.1928 27.876 53.1376 27.967C53.0824 28.058 52.9935 28.1237 52.8903 28.1497L50.0255 28.8485C49.9219 28.8731 49.8127 28.8559 49.7217 28.8007C49.6306 28.7454 49.5649 28.6566 49.5388 28.5535L48.8397 25.6902C48.8151 25.5867 48.8323 25.4776 48.8876 25.3866C48.9428 25.2956 49.0317 25.2299 49.1349 25.2039L51.9997 24.5051C52.1039 24.4807 52.2135 24.4984 52.3047 24.5545C52.3958 24.6105 52.4611 24.7003 52.4863 24.8042ZM52.4944 26.3217C52.4944 26.3217 52.376 25.8353 52.2576 25.6197C52.2257 25.561 52.179 25.5117 52.122 25.4767C52.0651 25.4417 52 25.4223 51.9332 25.4203C51.6898 25.4138 50.7603 25.64 50.7603 25.64C50.7603 25.64 49.8333 25.8662 49.6183 25.9845C49.5599 26.0166 49.5109 26.0634 49.4762 26.1203C49.4415 26.1772 49.4222 26.2422 49.4204 26.3088C49.4147 26.552 49.534 27.0383 49.534 27.0383C49.534 27.0383 49.6524 27.5247 49.7708 27.7404C49.8028 27.7986 49.8497 27.8474 49.9067 27.8817C49.9637 27.916 50.0287 27.9347 50.0952 27.9357C50.3386 27.9414 51.2673 27.7152 51.2673 27.7152C51.2673 27.7152 52.1943 27.4891 52.4093 27.3707C52.4682 27.3391 52.5176 27.2924 52.5525 27.2355C52.5875 27.1785 52.6066 27.1133 52.608 27.0465C52.6137 26.8033 52.4953 26.3169 52.4953 26.3169L52.4944 26.3217Z" fill="black"/>
</g>
<defs>
<linearGradient id="paint0_linear" x1="33.2668" y1="18.9488" x2="33.2668" y2="8.38934" gradientUnits="userSpaceOnUse">
<stop stop-color="#808080" stop-opacity="0.25"/>
<stop offset="0.54" stop-color="#808080" stop-opacity="0.12"/>
<stop offset="1" stop-color="#808080" stop-opacity="0.1"/>
</linearGradient>
<linearGradient id="paint1_linear" x1="12713.1" y1="11469.7" x2="12713.1" y2="4632.81" gradientUnits="userSpaceOnUse">
<stop stop-color="#808080" stop-opacity="0.25"/>
<stop offset="0.54" stop-color="#808080" stop-opacity="0.12"/>
<stop offset="1" stop-color="#808080" stop-opacity="0.1"/>
</linearGradient>
<linearGradient id="paint2_linear" x1="1125.85" y1="1796.42" x2="1125.85" y2="1657.81" gradientUnits="userSpaceOnUse">
<stop stop-color="#808080" stop-opacity="0.25"/>
<stop offset="0.54" stop-color="#808080" stop-opacity="0.12"/>
<stop offset="1" stop-color="#808080" stop-opacity="0.1"/>
</linearGradient>
<linearGradient id="paint3_linear" x1="2247.08" y1="1572.43" x2="2247.08" y2="1437.39" gradientUnits="userSpaceOnUse">
<stop stop-color="#808080" stop-opacity="0.25"/>
<stop offset="0.54" stop-color="#808080" stop-opacity="0.12"/>
<stop offset="1" stop-color="#808080" stop-opacity="0.1"/>
</linearGradient>
<linearGradient id="paint4_linear" x1="1312.94" y1="4459.95" x2="1312.94" y2="4067.76" gradientUnits="userSpaceOnUse">
<stop stop-color="#808080" stop-opacity="0.25"/>
<stop offset="0.54" stop-color="#808080" stop-opacity="0.12"/>
<stop offset="1" stop-color="#808080" stop-opacity="0.1"/>
</linearGradient>
<linearGradient id="paint5_linear" x1="11231.3" y1="3066.45" x2="11231.3" y2="2730.37" gradientUnits="userSpaceOnUse">
<stop stop-color="#808080" stop-opacity="0.25"/>
<stop offset="0.54" stop-color="#808080" stop-opacity="0.12"/>
<stop offset="1" stop-color="#808080" stop-opacity="0.1"/>
</linearGradient>
<linearGradient id="paint6_linear" x1="11231.3" y1="3066.45" x2="11231.3" y2="2730.37" gradientUnits="userSpaceOnUse">
<stop stop-color="#808080" stop-opacity="0.25"/>
<stop offset="0.54" stop-color="#808080" stop-opacity="0.12"/>
<stop offset="1" stop-color="#808080" stop-opacity="0.1"/>
</linearGradient>
<linearGradient id="paint7_linear" x1="2694.21" y1="11291.1" x2="2694.21" y2="8232.27" gradientUnits="userSpaceOnUse">
<stop stop-color="#808080" stop-opacity="0.25"/>
<stop offset="0.54" stop-color="#808080" stop-opacity="0.12"/>
<stop offset="1" stop-color="#808080" stop-opacity="0.1"/>
</linearGradient>
<linearGradient id="paint8_linear" x1="3433.6" y1="17880.8" x2="3433.6" y2="11748.3" gradientUnits="userSpaceOnUse">
<stop stop-color="#808080" stop-opacity="0.25"/>
<stop offset="0.54" stop-color="#808080" stop-opacity="0.12"/>
<stop offset="1" stop-color="#808080" stop-opacity="0.1"/>
</linearGradient>
<linearGradient id="paint9_linear" x1="3418.8" y1="17880.8" x2="3418.8" y2="11748.3" gradientUnits="userSpaceOnUse">
<stop stop-color="#808080" stop-opacity="0.25"/>
<stop offset="0.54" stop-color="#808080" stop-opacity="0.12"/>
<stop offset="1" stop-color="#808080" stop-opacity="0.1"/>
</linearGradient>
<linearGradient id="paint10_linear" x1="1684.29" y1="4679.64" x2="1684.29" y2="4326.57" gradientUnits="userSpaceOnUse">
<stop stop-color="#808080" stop-opacity="0.25"/>
<stop offset="0.54" stop-color="#808080" stop-opacity="0.12"/>
<stop offset="1" stop-color="#808080" stop-opacity="0.1"/>
</linearGradient>
<linearGradient id="paint11_linear" x1="11509.4" y1="11888.6" x2="11509.4" y2="6328.82" gradientUnits="userSpaceOnUse">
<stop stop-color="#808080" stop-opacity="0.25"/>
<stop offset="0.54" stop-color="#808080" stop-opacity="0.12"/>
<stop offset="1" stop-color="#808080" stop-opacity="0.1"/>
</linearGradient>
<linearGradient id="paint12_linear" x1="11506" y1="11847.7" x2="11506" y2="6287.91" gradientUnits="userSpaceOnUse">
<stop stop-color="#808080" stop-opacity="0.25"/>
<stop offset="0.54" stop-color="#808080" stop-opacity="0.12"/>
<stop offset="1" stop-color="#808080" stop-opacity="0.1"/>
</linearGradient>
<linearGradient id="paint13_linear" x1="1620.64" y1="174.533" x2="1620.64" y2="169.207" gradientUnits="userSpaceOnUse">
<stop stop-color="#808080" stop-opacity="0.25"/>
<stop offset="0.54" stop-color="#808080" stop-opacity="0.12"/>
<stop offset="1" stop-color="#808080" stop-opacity="0.1"/>
</linearGradient>
<linearGradient id="paint14_linear" x1="1216.11" y1="435.477" x2="1216.11" y2="407.61" gradientUnits="userSpaceOnUse">
<stop stop-color="#808080" stop-opacity="0.25"/>
<stop offset="0.54" stop-color="#808080" stop-opacity="0.12"/>
<stop offset="1" stop-color="#808080" stop-opacity="0.1"/>
</linearGradient>
<linearGradient id="paint15_linear" x1="1928.71" y1="480.503" x2="1928.71" y2="425.875" gradientUnits="userSpaceOnUse">
<stop stop-color="#808080" stop-opacity="0.25"/>
<stop offset="0.54" stop-color="#808080" stop-opacity="0.12"/>
<stop offset="1" stop-color="#808080" stop-opacity="0.1"/>
</linearGradient>
<linearGradient id="paint16_linear" x1="2174.96" y1="1194.18" x2="2174.96" y2="690.109" gradientUnits="userSpaceOnUse">
<stop stop-color="#808080" stop-opacity="0.25"/>
<stop offset="0.54" stop-color="#808080" stop-opacity="0.12"/>
<stop offset="1" stop-color="#808080" stop-opacity="0.1"/>
</linearGradient>
<linearGradient id="paint17_linear" x1="4792.39" y1="4951.14" x2="4792.39" y2="1894.74" gradientUnits="userSpaceOnUse">
<stop stop-color="#808080" stop-opacity="0.25"/>
<stop offset="0.54" stop-color="#808080" stop-opacity="0.12"/>
<stop offset="1" stop-color="#808080" stop-opacity="0.1"/>
</linearGradient>
<linearGradient id="paint18_linear" x1="4781.02" y1="4935.95" x2="4781.02" y2="1879.55" gradientUnits="userSpaceOnUse">
<stop stop-color="#808080" stop-opacity="0.25"/>
<stop offset="0.54" stop-color="#808080" stop-opacity="0.12"/>
<stop offset="1" stop-color="#808080" stop-opacity="0.1"/>
</linearGradient>
<linearGradient id="paint19_linear" x1="1676" y1="350.807" x2="1676" y2="342.969" gradientUnits="userSpaceOnUse">
<stop stop-color="#808080" stop-opacity="0.25"/>
<stop offset="0.54" stop-color="#808080" stop-opacity="0.12"/>
<stop offset="1" stop-color="#808080" stop-opacity="0.1"/>
</linearGradient>
<linearGradient id="paint20_linear" x1="2794.68" y1="603.424" x2="2794.68" y2="581.379" gradientUnits="userSpaceOnUse">
<stop stop-color="#808080" stop-opacity="0.25"/>
<stop offset="0.54" stop-color="#808080" stop-opacity="0.12"/>
<stop offset="1" stop-color="#808080" stop-opacity="0.1"/>
</linearGradient>
<linearGradient id="paint21_linear" x1="4141.51" y1="204.706" x2="4141.51" y2="201.776" gradientUnits="userSpaceOnUse">
<stop stop-color="#808080" stop-opacity="0.25"/>
<stop offset="0.54" stop-color="#808080" stop-opacity="0.12"/>
<stop offset="1" stop-color="#808080" stop-opacity="0.1"/>
</linearGradient>
<clipPath id="clip0">
<rect width="79" height="67" fill="white"/>
</clipPath>
</defs>
</svg>
