<svg width="100" height="80" viewBox="0 0 97 64" fill="none" xmlns="http://www.w3.org/2000/svg">
<g clip-path="url(#clip0)">
<path d="M96.9944 36.8168C96.899 41.9758 95.3553 47.0063 92.5365 51.3436C89.7177 55.6809 85.7353 59.1532 81.0366 61.3707C77.3425 63.1072 73.3044 64.0054 69.2162 63.9999C68.6283 63.9999 68.0447 63.9819 67.4653 63.9458C54.8341 63.1609 42.1658 63.1609 29.5347 63.9458C28.9556 63.9816 28.372 63.9996 27.7838 63.9999C23.0394 64.0068 18.3738 62.7963 14.2408 60.4862C9.9954 58.1109 6.44895 54.6778 3.95227 50.5265C1.45558 46.3751 0.0951729 41.6494 0.00561062 36.8168C-0.302451 21.2846 12.097 8.58574 27.6542 8.51421C35.9396 8.47651 43.3858 12.0609 48.5 17.7718C53.6142 12.0609 61.0603 8.47651 69.3458 8.51421C84.9029 8.58574 97.3024 21.2846 96.9944 36.8168Z" fill="#F2F2F2"/>
<path d="M81.0366 61.3707C77.3425 63.1073 73.3044 64.0055 69.2162 64C68.6283 64 68.0447 63.982 67.4653 63.9459C54.8341 63.161 42.1658 63.161 29.5347 63.9459C28.9556 63.9816 28.372 63.9997 27.7838 64C23.0394 64.0069 18.3738 62.7964 14.2408 60.4862C20.4927 57.8009 32.704 55.9768 46.7452 55.9768C62.2789 55.9768 75.5734 58.2088 81.0366 61.3707Z" fill="#2F2E41"/>
<path d="M61.7952 22.9248C61.4797 22.6555 61.0949 22.4786 60.6838 22.4141C60.2727 22.3495 59.8516 22.3998 59.4677 22.5592C58.3098 23.0599 57.8055 24.4666 57.8865 25.7166C57.9674 26.9666 58.4927 28.1391 58.8329 29.3455C59.2899 30.9657 59.4085 32.7218 58.873 34.3182C58.3374 35.9147 57.0773 37.3215 55.4427 37.7728C53.9255 38.1917 52.3162 37.7717 50.799 37.3529" stroke="#3F3D56" stroke-miterlimit="10"/>
<path d="M64.542 20.4271C64.5521 20.2551 64.5279 20.0828 64.4708 19.92C64.4137 19.7573 64.3249 19.6073 64.2093 19.4786C64.0938 19.3499 63.9538 19.245 63.7973 19.17C63.6409 19.095 63.4711 19.0513 63.2976 19.0414C63.1241 19.0314 62.9503 19.0555 62.7862 19.1122C62.6221 19.1689 62.4709 19.2571 62.3412 19.3717C62.2115 19.4864 62.1058 19.6253 62.0302 19.7805C61.9547 19.9356 61.9107 20.104 61.9008 20.2761L61.7484 22.895L64.3896 23.046C64.563 23.0559 64.7367 23.0319 64.9008 22.9752C65.0648 22.9186 65.216 22.8305 65.3457 22.7159C65.4754 22.6013 65.5811 22.4625 65.6567 22.3074C65.7323 22.1524 65.7764 21.984 65.7864 21.8121C65.7964 21.6401 65.7721 21.4679 65.715 21.3052C65.6579 21.1426 65.569 20.9927 65.4534 20.864C65.3379 20.7354 65.1979 20.6307 65.0415 20.5557C64.8851 20.4807 64.7154 20.437 64.542 20.4271Z" fill="#33CAFF"/>
<path d="M61.7019 27.2462C61.7221 26.8989 61.6023 26.5579 61.3689 26.2981C61.1356 26.0384 60.8077 25.8812 60.4574 25.8612C60.1072 25.8412 59.7633 25.9599 59.5013 26.1913C59.2394 26.4227 59.0809 26.7478 59.0607 27.0951L58.9083 29.714L61.5495 29.8651C61.8997 29.8849 62.2434 29.766 62.5051 29.5346C62.7669 29.3032 62.9253 28.9782 62.9455 28.6311C62.9657 28.2839 62.846 27.9431 62.6128 27.6834C62.3796 27.4237 62.052 27.2664 61.7019 27.2462Z" fill="#33CAFF"/>
<path d="M57.8962 19.9413C57.7631 19.8306 57.6092 19.7469 57.4435 19.6951C57.2777 19.6433 57.1033 19.6244 56.9302 19.6395C56.757 19.6546 56.5886 19.7034 56.4345 19.783C56.2804 19.8627 56.1436 19.9717 56.032 20.1038C55.9204 20.2359 55.8361 20.3885 55.784 20.5529C55.7319 20.7173 55.713 20.8902 55.7283 21.0619C55.7437 21.2335 55.793 21.4005 55.8734 21.5533C55.9539 21.706 56.0639 21.8416 56.1972 21.9521L58.2251 23.6368L59.9241 21.626C60.0358 21.494 60.1202 21.3415 60.1724 21.1771C60.2247 21.0127 60.2437 20.8398 60.2285 20.6681C60.2133 20.4965 60.1641 20.3295 60.0838 20.1766C60.0035 20.0238 59.8935 19.8882 59.7603 19.7775C59.6271 19.6669 59.4732 19.5833 59.3074 19.5317C59.1416 19.48 58.9672 19.4612 58.794 19.4764C58.6209 19.4916 58.4525 19.5405 58.2985 19.6203C58.1444 19.7001 58.0077 19.8092 57.8962 19.9413H57.8962Z" fill="#33CAFF"/>
<path d="M73.6932 21.7309C73.4615 21.388 73.1381 21.1159 72.7592 20.9451C72.3803 20.7743 71.9609 20.7115 71.5481 20.7638C70.2975 20.9406 69.4335 22.1632 69.1758 23.3894C68.918 24.6156 69.1093 25.8846 69.1131 27.1371C69.1183 28.8196 68.7609 30.5436 67.8158 31.9408C66.8707 33.3381 65.2782 34.3613 63.5814 34.3646C62.0066 34.3676 60.5682 33.5377 59.2183 32.7333" stroke="#3F3D56" stroke-miterlimit="10"/>
<path d="M77.0118 20.0489C77.0676 19.8858 77.0905 19.7134 77.0791 19.5415C77.0678 19.3696 77.0224 19.2017 76.9455 19.0472C76.8687 18.8927 76.7619 18.7547 76.6313 18.6412C76.5007 18.5276 76.3489 18.4406 76.1844 18.3853C76.0199 18.3299 75.846 18.3072 75.6726 18.3185C75.4993 18.3297 75.3299 18.3748 75.1741 18.4509C75.0183 18.5271 74.8792 18.633 74.7646 18.7625C74.6501 18.892 74.5624 19.0426 74.5066 19.2057L73.6562 21.6897L76.1614 22.5329C76.3259 22.5883 76.4998 22.611 76.6731 22.5997C76.8464 22.5885 77.0158 22.5435 77.1716 22.4673C77.3274 22.3911 77.4666 22.2852 77.5811 22.1557C77.6956 22.0262 77.7833 21.8756 77.8392 21.7125C77.895 21.5494 77.9179 21.377 77.9065 21.2051C77.8952 21.0333 77.8498 20.8653 77.7729 20.7108C77.6961 20.5563 77.5894 20.4184 77.4587 20.3048C77.3281 20.1912 77.1763 20.1043 77.0118 20.0489Z" fill="#33CAFF"/>
<path d="M72.4424 25.8714C72.5552 25.542 72.5314 25.1817 72.3762 24.8697C72.221 24.5577 71.9472 24.3196 71.615 24.2078C71.2828 24.096 70.9194 24.1196 70.6048 24.2735C70.2901 24.4273 70.05 24.6988 69.9372 25.0282L69.0869 27.5122L71.592 28.3555C71.9242 28.4673 72.2876 28.4437 72.6023 28.2898C72.9169 28.1359 73.1571 27.8644 73.2698 27.535C73.3826 27.2056 73.3588 26.8453 73.2036 26.5333C73.0484 26.2213 72.7746 25.9832 72.4424 25.8714Z" fill="#33CAFF"/>
<path d="M70.7366 17.8254C70.638 17.6835 70.5122 17.5622 70.3664 17.4685C70.2205 17.3748 70.0575 17.3105 69.8866 17.2793C69.7156 17.2482 69.5402 17.2507 69.3703 17.2868C69.2003 17.3228 69.0392 17.3918 68.8962 17.4896C68.7531 17.5874 68.6309 17.7123 68.5365 17.857C68.4421 18.0016 68.3774 18.1634 68.3461 18.3329C68.3147 18.5024 68.3174 18.6763 68.3539 18.8448C68.3904 19.0133 68.46 19.173 68.5588 19.3148L70.0608 21.4742L72.2387 19.9848C72.5275 19.7873 72.7253 19.4841 72.7887 19.142C72.852 18.7999 72.7757 18.4468 72.5766 18.1604C72.3774 17.874 72.0716 17.6779 71.7266 17.615C71.3815 17.5522 71.0254 17.6279 70.7366 17.8254Z" fill="#33CAFF"/>
<path d="M67.9923 4.24412C68.4035 4.17988 68.8245 4.23047 69.2083 4.39022C69.5921 4.54998 69.9234 4.81257 70.1651 5.14857C70.8836 6.17884 70.5653 7.63796 69.8326 8.65835C69.1 9.67874 68.0307 10.4013 67.1009 11.2492C65.852 12.388 64.8185 13.819 64.426 15.4558C64.0335 17.0926 64.3577 18.9466 65.5076 20.1837C66.5749 21.3319 68.1661 21.8152 69.6783 22.2513" stroke="#3F3D56" stroke-miterlimit="10"/>
<path d="M66.9836 0.686555C67.0664 0.535144 67.1785 0.401391 67.3134 0.292931C67.4484 0.184471 67.6036 0.103429 67.7701 0.0544318C67.9366 0.00543439 68.1113 -0.0105591 68.284 0.00736553C68.4568 0.0252901 68.6243 0.0767818 68.777 0.158899C68.9297 0.241017 69.0646 0.352153 69.174 0.485962C69.2834 0.619771 69.3651 0.773633 69.4145 0.938762C69.464 1.10389 69.4801 1.27706 69.462 1.44837C69.4439 1.61968 69.392 1.78578 69.3092 1.93719L68.0479 4.24313L65.7223 2.9925C65.5696 2.91038 65.4347 2.79924 65.3253 2.66544C65.216 2.53163 65.1342 2.37776 65.0848 2.21264C65.0354 2.04751 65.0193 1.87434 65.0373 1.70303C65.0554 1.53172 65.1073 1.36562 65.1902 1.21421C65.273 1.0628 65.3851 0.929046 65.52 0.820586C65.655 0.712126 65.8101 0.631084 65.9767 0.582086C66.1432 0.533089 66.3178 0.517096 66.4906 0.535021C66.6634 0.552945 66.8309 0.604436 66.9836 0.686554V0.686555Z" fill="#33CAFF"/>
<path d="M65.7767 7.96646C65.8596 7.81505 65.9716 7.6813 66.1066 7.57284C66.2415 7.46438 66.3967 7.38334 66.5632 7.33434C66.7298 7.28534 66.9044 7.26935 67.0772 7.28727C67.2499 7.3052 67.4175 7.35669 67.5702 7.43881C67.7229 7.52092 67.8578 7.63206 67.9671 7.76587C68.0765 7.89968 68.1583 8.05354 68.2077 8.21867C68.2571 8.3838 68.2732 8.55696 68.2551 8.72827C68.2371 8.89958 68.1851 9.06568 68.1023 9.21709L66.841 11.523L64.5155 10.2724C64.3628 10.1903 64.2279 10.0792 64.1185 9.94534C64.0091 9.81153 63.9274 9.65767 63.878 9.49254C63.8285 9.32741 63.8124 9.15425 63.8305 8.98294C63.8486 8.81163 63.9005 8.64553 63.9833 8.49412C64.0661 8.34271 64.1782 8.20895 64.3132 8.10049C64.4481 7.99203 64.6033 7.91099 64.7698 7.86199C64.9363 7.813 65.111 7.797 65.2838 7.81493C65.4565 7.83285 65.624 7.88434 65.7767 7.96646L65.7767 7.96646Z" fill="#33CAFF"/>
<path d="M72.8913 3.74347C73.0633 3.71881 73.2385 3.72801 73.407 3.77053C73.5754 3.81305 73.7337 3.88806 73.8729 3.99128C74.0121 4.0945 74.1293 4.2239 74.2181 4.37208C74.3068 4.52027 74.3652 4.68434 74.3899 4.85491C74.4146 5.02549 74.4052 5.19923 74.3622 5.36619C74.3192 5.53316 74.2434 5.69009 74.1392 5.82801C74.035 5.96593 73.9045 6.08214 73.7549 6.16999C73.6054 6.25784 73.4399 6.31562 73.2679 6.34002L70.6492 6.71339L70.2727 4.11685C70.2227 3.77253 70.3128 3.42264 70.523 3.14415C70.7333 2.86567 71.0465 2.6814 71.3937 2.63189C71.741 2.58238 72.0938 2.67167 72.3747 2.88014C72.6555 3.0886 72.8414 3.39915 72.8913 3.74347Z" fill="#33CAFF"/>
<path d="M45.3804 32.0039H42.9432V33.2606H45.3804V32.0039Z" fill="#FBBEBE"/>
<path opacity="0.1" d="M45.3804 32.0039H42.9432V33.2606H45.3804V32.0039Z" fill="black"/>
<path d="M38.4587 13.9275C40.1817 13.9275 41.5784 12.5426 41.5784 10.8342C41.5784 9.12588 40.1817 7.74097 38.4587 7.74097C36.7358 7.74097 35.3391 9.12588 35.3391 10.8342C35.3391 12.5426 36.7358 13.9275 38.4587 13.9275Z" fill="#2F2E41"/>
<path d="M45.5266 31.3755C45.5266 31.3755 44.5517 31.0855 44.3567 31.1822C44.1618 31.2789 45.0392 32.0522 45.0392 32.0522L45.5266 31.3755Z" fill="#FBBEBE"/>
<path opacity="0.1" d="M45.5266 31.3755C45.5266 31.3755 44.5517 31.0855 44.3567 31.1822C44.1618 31.2789 45.0392 32.0522 45.0392 32.0522L45.5266 31.3755Z" fill="black"/>
<path d="M38.7999 56.1218C38.7999 56.1218 41.0422 56.4118 41.4321 56.4118C41.8221 56.4118 42.8944 56.7985 42.3095 57.2818C41.7246 57.7651 38.02 58.4418 37.5326 58.1518C37.0452 57.8618 36.3627 56.9918 36.8502 56.8951C37.3376 56.7985 38.7999 56.1218 38.7999 56.1218Z" fill="#3F3D56"/>
<path d="M34.803 59.6984L34.0231 61.0517L34.998 61.5351L36.8502 61.9217L37.8251 60.6651L37.4352 59.2151L34.803 59.6984Z" fill="#FBBEBE"/>
<path d="M39.9698 49.7419C39.9698 49.7419 38.7025 55.0585 38.8975 55.3485C39.0924 55.6385 39.4824 56.4118 39.0924 56.7018C38.7025 56.9918 37.1427 57.0885 37.1427 57.0885L37.6301 54.2852L38.3125 50.9019L39.9698 49.7419Z" fill="#2F2E41"/>
<path d="M36.4603 38.5288L37.7276 44.232C37.7276 44.232 37.9226 47.0353 37.4351 48.0986C36.9477 49.1619 34.3155 60.3751 34.3155 60.3751C34.3155 60.3751 37.0452 60.4717 37.6301 60.1817C38.215 59.8917 39.2016 53.1962 39.2016 53.1962C39.2016 53.1962 42.407 46.842 42.3095 45.5853C42.212 44.3287 42.7939 37.9452 41.9668 37.4637C41.1397 36.9821 36.4603 38.5288 36.4603 38.5288Z" fill="#2F2E41"/>
<path d="M36.6552 61.4384L37.8251 60.2784C37.8251 60.2784 40.9447 61.8251 41.4321 61.9217C41.9196 62.0184 42.9919 62.7917 41.9196 63.0817C40.8472 63.3717 36.8502 63.1784 35.8753 63.0817C34.9004 62.985 32.9507 62.8884 33.2431 62.3084C33.5356 61.7284 34.023 59.6984 34.023 59.6984C34.023 59.6984 34.2925 59.3291 34.4502 59.8037C34.608 60.2784 34.7055 60.9551 35.0954 60.9551C35.4854 60.9551 36.6552 61.4384 36.6552 61.4384Z" fill="#3F3D56"/>
<path d="M51.6684 36.8855L54.398 36.6921L56.2503 37.6588L56.0553 38.8188L55.2754 39.0121C55.2754 39.0121 53.1307 38.1421 51.8633 38.4321C50.596 38.7221 51.6684 36.8855 51.6684 36.8855Z" fill="#A0616A"/>
<path d="M54.8855 37.2722C54.8855 37.2722 55.9578 38.4352 54.8855 38.8687C54.8855 38.8687 55.0804 39.2055 55.8603 39.3021C56.6402 39.3988 57.7126 40.0755 58.0051 40.0755C58.2975 40.0755 59.5649 39.8821 58.785 38.8188C58.0051 37.7555 54.8855 35.4355 54.8855 35.4355C54.8855 35.4355 54.0081 35.0489 53.7156 35.8222C53.4231 36.5955 53.2688 36.7722 53.2688 36.7722C53.2688 36.7722 54.6905 37.0788 54.8855 37.2722Z" fill="#2F2E41"/>
<path d="M46.6965 46.5519C46.6965 46.5519 47.5739 49.8386 47.5739 50.0319C47.5739 50.2252 48.7437 49.2586 48.7437 49.2586L48.9387 47.5186C48.9387 47.5186 48.1588 46.7453 48.1588 46.2619C48.1588 45.7786 46.6965 46.5519 46.6965 46.5519Z" fill="#A0616A"/>
<path d="M48.4513 48.8719C48.4513 48.8719 47.7688 49.7419 47.2814 49.4519L47.5739 52.7385C47.5739 52.7385 47.7688 54.3818 48.4513 53.7052C49.1337 53.0285 49.8161 49.6452 49.8161 49.6452C49.8161 49.6452 50.791 47.6153 50.0111 47.3253C49.5684 47.1571 49.1117 47.0277 48.6462 46.9386C48.6462 46.9386 48.6462 48.9686 48.4513 48.8719Z" fill="#2F2E41"/>
<path d="M42.1145 37.8521L45.0392 43.8454C45.0392 43.8454 46.0141 47.2287 46.404 47.3253C46.794 47.422 48.2563 46.7453 48.4513 46.6487C48.6462 46.552 46.794 42.7821 46.794 42.1054C46.794 41.4287 44.5517 37.6588 44.5517 37.6588L42.1145 37.8521Z" fill="#FF6584"/>
<path opacity="0.1" d="M42.1145 37.8521L45.0392 43.8454C45.0392 43.8454 46.0141 47.2287 46.404 47.3253C46.794 47.422 48.2563 46.7453 48.4513 46.6487C48.6462 46.552 46.794 42.7821 46.794 42.1054C46.794 41.4287 44.5517 37.6588 44.5517 37.6588L42.1145 37.8521Z" fill="black"/>
<path d="M44.1618 27.4123C44.1618 27.4123 44.2593 29.4423 43.8693 30.7956C43.4794 32.1489 44.3568 36.5955 44.3568 36.5955C44.3568 36.5955 45.8191 36.6922 46.209 36.5955C46.599 36.4988 51.8633 36.4022 52.1558 36.5955C52.4483 36.7888 52.3508 40.1721 52.1558 40.0755C51.9608 39.9788 46.8914 38.9155 44.4542 39.3021C42.017 39.6888 41.7246 39.1088 41.6271 38.9155C41.5296 38.7221 39.8723 33.5022 39.8723 33.5022L39.2874 30.9889L38.5075 28.2823L38.9949 25.6724L44.1618 27.4123Z" fill="#FF6584"/>
<path d="M38.2638 14.7975C39.7175 14.7975 40.8959 13.629 40.8959 12.1876C40.8959 10.7462 39.7175 9.57764 38.2638 9.57764C36.8101 9.57764 35.6316 10.7462 35.6316 12.1876C35.6316 13.629 36.8101 14.7975 38.2638 14.7975Z" fill="#A0616A"/>
<path d="M33.3407 20.9357C34.7944 20.9357 35.9728 19.7672 35.9728 18.3258C35.9728 16.8843 34.7944 15.7158 33.3407 15.7158C31.8869 15.7158 30.7085 16.8843 30.7085 18.3258C30.7085 19.7672 31.8869 20.9357 33.3407 20.9357Z" fill="#FBBEBE"/>
<path d="M38.9949 13.9759C38.9949 13.9759 40.7497 15.1358 40.4572 15.8125C40.1648 16.4892 39.3849 17.2625 39.3849 17.2625L39.2874 18.3258L40.7497 18.8091L44.4542 19.0024C44.4542 19.0024 44.2593 15.7158 43.0894 14.8458C41.9195 13.9759 40.5547 13.3959 40.3597 12.6226C40.1648 11.8492 38.9949 13.9759 38.9949 13.9759Z" fill="#A0616A"/>
<path d="M43.8319 16.3602C43.1939 15.1784 41.3989 15.322 41.0269 16.6107C40.9781 16.7667 40.9629 16.9312 40.9823 17.0935C41.0018 17.2557 41.0553 17.4121 41.1396 17.5525C41.8221 18.7124 42.3095 19.5824 42.3095 19.5824L44.4542 19.3891C44.4542 19.3891 44.4964 17.5911 43.8319 16.3602Z" fill="#A0616A"/>
<path d="M39.7053 16.9158C39.7053 16.9158 37.1427 18.5191 37.3376 19.5824C37.5326 20.6457 37.7276 22.4823 37.7276 23.159C37.7276 23.8356 38.41 25.9623 39.3849 26.3489C40.3598 26.7356 40.3598 25.6723 41.7246 26.9289C43.0894 28.1856 44.5517 28.7656 44.4542 28.9589C44.3568 29.1522 44.8442 27.2189 44.0643 26.4456C43.2844 25.6723 42.407 23.449 43.1869 22.4823C43.9668 21.5157 44.6492 19.0024 44.6492 19.0024C44.6492 19.0024 44.5517 18.4224 43.9668 18.5191C43.3819 18.6157 39.7748 18.2291 39.5798 17.7458C39.523 17.6091 39.5046 17.4597 39.5267 17.3136C39.5488 17.1674 39.6105 17.0299 39.7053 16.9158Z" fill="#2F2E41"/>
<path d="M39.3415 17.7354C39.3415 17.7354 42.017 14.8458 42.407 14.9424C42.7969 15.0391 43.9199 16.1831 43.9199 16.1831L42.407 15.1358L39.3415 17.8983L39.3415 17.7354Z" fill="#2F2E41"/>
<path d="M35.5829 18.8091C35.5829 18.8091 35.9491 22.7188 36.4484 23.0839C36.9477 23.449 32.6582 23.3523 32.6582 23.3523C32.6582 23.3523 33.6331 20.3557 33.0482 19.9691C32.4633 19.5824 35.5829 18.8091 35.5829 18.8091Z" fill="#FBBEBE"/>
<path d="M36.5577 21.999C36.5577 21.999 33.2431 21.129 32.8532 21.6124C32.4632 22.0957 31.6833 26.2523 31.6833 26.2523C31.6833 26.2523 32.0733 29.0556 32.7557 31.0855C33.4381 33.1155 34.3155 40.2687 34.9979 40.2687C35.6803 40.2687 36.8502 39.2054 37.1427 39.2054C37.4351 39.2054 39.1899 38.3354 40.2623 38.5287C40.8783 38.6489 41.5147 38.6157 42.1145 38.4321C42.1145 38.4321 41.6271 34.3722 40.4572 33.3088C39.2874 32.2455 38.7025 24.899 38.7025 24.899C38.7025 24.899 37.0452 21.8057 36.5577 21.999Z" fill="#3F3D56"/>
<path d="M41.6271 31.1823C41.6271 31.1823 42.7356 32.6741 43.8386 32.7498L44.4542 32.7289C44.4542 32.7289 43.4794 35.2422 43.9668 35.3389C44.4542 35.4355 45.9166 33.5022 45.4291 32.4389C44.9417 31.3756 43.4794 29.7323 43.4794 29.7323L41.6271 31.1823Z" fill="#FBBEBE"/>
<path d="M45.5266 31.1823C45.5266 31.1823 43.8693 32.7289 44.5518 33.4055C45.2342 34.0822 46.1116 33.4055 46.1116 33.4055C46.1116 33.4055 46.794 32.4389 45.5266 31.1823Z" fill="#FBBEBE"/>
<path opacity="0.1" d="M45.5266 31.1823C45.5266 31.1823 43.8693 32.7289 44.5518 33.4055C45.2342 34.0822 46.1116 33.4055 46.1116 33.4055C46.1116 33.4055 46.794 32.4389 45.5266 31.1823Z" fill="black"/>
<path d="M39.1412 13.3476C40.8641 13.3476 42.2608 11.9627 42.2608 10.2543C42.2608 8.54592 40.8641 7.16101 39.1412 7.16101C37.4183 7.16101 36.0216 8.54592 36.0216 10.2543C36.0216 11.9627 37.4183 13.3476 39.1412 13.3476Z" fill="#2F2E41"/>
<path d="M40.6035 9.48089C41.6265 9.48089 42.4557 8.6586 42.4557 7.64425C42.4557 6.62991 41.6265 5.80762 40.6035 5.80762C39.5805 5.80762 38.7512 6.62991 38.7512 7.64425C38.7512 8.6586 39.5805 9.48089 40.6035 9.48089Z" fill="#2F2E41"/>
<path d="M39.1412 7.0643C39.1412 6.61069 39.3105 6.17314 39.6165 5.83595C39.9225 5.49875 40.3435 5.28575 40.7985 5.23799C40.7337 5.23118 40.6686 5.22774 40.6035 5.22766C40.3519 5.22751 40.103 5.27816 39.8718 5.37654C39.6406 5.47492 39.4321 5.61896 39.2589 5.79988C39.0857 5.98079 38.9515 6.19479 38.8645 6.42882C38.7774 6.66285 38.7394 6.91201 38.7527 7.1611C38.7659 7.41019 38.8302 7.65399 38.9416 7.87764C39.053 8.10129 39.2092 8.30009 39.4006 8.46192C39.592 8.62375 39.8147 8.74522 40.055 8.81893C40.2954 8.89263 40.5483 8.91702 40.7985 8.89061C40.3435 8.84285 39.9225 8.62985 39.6165 8.29265C39.3105 7.95545 39.1412 7.51791 39.1412 7.0643Z" fill="#2F2E41"/>
<path d="M38.1175 13.3476C39.4905 13.3476 40.6035 12.5253 40.6035 11.511C40.6035 10.4966 39.4905 9.67432 38.1175 9.67432C36.7446 9.67432 35.6316 10.4966 35.6316 11.511C35.6316 12.5253 36.7446 13.3476 38.1175 13.3476Z" fill="#2F2E41"/>
<path d="M33.4504 17.3568C33.4163 17.5383 33.335 17.7206 33.4036 17.9074C33.4545 18.0459 33.5782 18.1556 33.6525 18.2867C33.8021 18.5507 33.703 18.8885 33.4456 18.992C33.3009 18.9091 33.131 18.8806 32.9668 18.9116C32.8921 18.9283 32.8261 18.9717 32.7815 19.0335C32.7369 19.0953 32.7169 19.1713 32.7252 19.2468C32.7595 19.47 33.0219 19.613 33.1554 19.8121C33.2374 19.9613 33.2925 20.1235 33.3184 20.2915C33.384 20.5521 33.4996 20.811 33.513 21.0717C33.5263 21.3325 33.3984 21.6081 33.1374 21.6454C32.918 21.6768 32.6821 21.5294 32.5234 21.3503C32.3647 21.1713 32.2577 20.959 32.1123 20.7705C31.64 20.1581 30.8326 19.8727 30.2859 19.3169C29.5854 18.6048 29.437 17.5499 29.6877 16.7091C29.7929 16.356 29.9671 16.0184 30.263 15.803C30.5736 15.5769 30.9883 15.5046 31.3361 15.3287C31.708 15.1407 31.9933 14.8399 32.3223 14.5944C32.6512 14.3489 33.0587 14.1521 33.5077 14.2183C33.8208 14.2645 34.1178 14.4335 34.4286 14.5132C34.7664 14.6047 35.1259 14.5753 35.4441 14.4302L35.1554 14.7374C35.3631 14.8191 35.5869 14.8527 35.8097 14.8358C35.72 15.0181 35.5626 15.1591 35.3705 15.2291C35.5259 15.3497 35.7213 15.4081 35.918 15.3927C35.7037 15.6355 35.4735 15.8881 35.1433 15.9727C34.9816 16.0141 34.8054 16.0121 34.6385 16.0392C34.2827 16.0969 33.9831 16.2831 33.6925 16.4659C33.54 16.5619 33.3481 16.6708 33.3491 16.87C33.3501 17.036 33.4853 17.1714 33.4504 17.3568Z" fill="#2F2E41"/>
<path d="M34.608 22.9657C34.608 22.9657 33.7306 26.1556 35.2904 26.8323C36.8502 27.5089 40.0673 30.0222 40.6522 30.8922C41.2372 31.7622 41.9196 32.0522 41.9196 32.0522C41.9196 32.0522 44.2593 30.1189 43.7718 29.5389C43.2844 28.9589 41.3346 27.2189 41.3346 27.2189C41.3346 27.2189 36.3628 21.9024 34.608 22.9657Z" fill="#3F3D56"/>
<path d="M42.3095 23.0623C42.3095 23.0623 38.7279 22.0471 37.6428 21.8781C36.5577 21.709 33.7306 21.999 34.3155 22.4824C34.9004 22.9657 38.3125 23.3523 38.3125 23.3523L42.407 24.899L42.3095 23.0623Z" fill="#A0616A"/>
<path d="M42.3095 19.0991C42.3095 19.0991 42.6019 21.0324 42.6019 21.709C42.6019 22.3857 43.0894 22.9657 42.6994 22.9657C42.3095 22.9657 42.017 22.579 42.017 22.9657C42.017 23.3523 41.4321 25.6723 42.017 25.6723C42.6019 25.6723 44.0643 25.2856 44.3567 25.2856C44.6492 25.2856 45.6241 25.0923 45.5266 24.029C45.4291 22.9657 45.0391 21.8057 45.2341 21.6124C45.4291 21.419 45.5266 20.4524 45.3316 20.2591C45.1366 20.0657 44.6492 18.8091 44.6492 18.8091L42.3095 19.0991Z" fill="#2F2E41"/>
<g opacity="0.3">
<path opacity="0.3" d="M62.9155 38.775C62.7356 38.7536 62.5545 38.8039 62.412 38.9149C62.2695 39.0259 62.1773 39.1885 62.1557 39.3669C62.1341 39.5453 62.1848 39.7249 62.2968 39.8662C62.4087 40.0075 62.5727 40.0989 62.7526 40.1203L64.1093 40.2819L64.2723 38.9366C64.283 38.8483 64.276 38.7587 64.2518 38.673C64.2276 38.5874 64.1866 38.5073 64.1312 38.4373C64.0757 38.3673 64.007 38.3089 63.9288 38.2653C63.8505 38.2217 63.7644 38.1938 63.6754 38.1832C63.5863 38.1726 63.4959 38.1795 63.4095 38.2035C63.3231 38.2275 63.2424 38.2681 63.1718 38.3231C63.1012 38.378 63.0423 38.4462 62.9983 38.5238C62.9544 38.6013 62.9262 38.6867 62.9155 38.775Z" fill="#33CAFF"/>
</g>
<g opacity="0.3">
<path opacity="0.3" d="M79.2671 32.3105C79.1093 32.2226 78.9226 32.2003 78.7483 32.2486C78.5739 32.297 78.426 32.412 78.3371 32.5684C78.2481 32.7248 78.2255 32.9098 78.2741 33.0828C78.3226 33.2558 78.4385 33.4026 78.5961 33.4909L79.7865 34.1562L80.4575 32.9759C80.5017 32.8984 80.53 32.813 80.5409 32.7246C80.5518 32.6362 80.545 32.5466 80.5209 32.4608C80.4968 32.3751 80.4559 32.2949 80.4005 32.2248C80.3451 32.1547 80.2764 32.0961 80.1982 32.0524C80.12 32.0087 80.0338 31.9807 79.9447 31.97C79.8555 31.9593 79.7651 31.9661 79.6787 31.9901C79.5922 32.0141 79.5113 32.0547 79.4407 32.1097C79.3701 32.1647 79.3111 32.2329 79.2671 32.3105Z" fill="#33CAFF"/>
</g>
<g opacity="0.3">
<path opacity="0.3" d="M71.9819 41.4817C71.8928 41.4711 71.8025 41.478 71.7161 41.502C71.6297 41.526 71.5489 41.5666 71.4783 41.6216C71.4078 41.6766 71.3488 41.7448 71.3049 41.8223C71.2609 41.8999 71.2327 41.9853 71.2221 42.0736C71.2114 42.1619 71.2183 42.2515 71.2425 42.3371C71.2667 42.4228 71.3077 42.5029 71.3631 42.5729C71.4186 42.6428 71.4874 42.7013 71.5656 42.7449C71.6438 42.7885 71.7299 42.8164 71.819 42.827L73.1757 42.9885L73.3386 41.6433C73.3602 41.4649 73.3095 41.2853 73.1975 41.144C73.0856 41.0027 72.9216 40.9113 72.7417 40.8898C72.5618 40.8684 72.3807 40.9187 72.2382 41.0297C72.0957 41.1407 72.0035 41.3033 71.9819 41.4817Z" fill="#33CAFF"/>
</g>
</g>
<defs>
<clipPath id="clip0">
<rect width="97" height="64" fill="white"/>
</clipPath>
</defs>
</svg>
