<svg width="1200" height="269" viewBox="0 0 1200 269" fill="none" xmlns="http://www.w3.org/2000/svg">
<path fill-rule="evenodd" clip-rule="evenodd" d="M1200 180L1150 150C1100 120 1000 60.0001 900 90.0001C800 120 700 240 600 264C500 288 400 216 300 180C200 144 100 144 50 144L1.09102e-05 144L2.34991e-05 -1.33546e-05L50 -8.98346e-06C100 -4.61232e-06 200 4.12996e-06 300 1.28722e-05C400 2.16145e-05 500 3.03568e-05 600 3.90991e-05C700 4.78413e-05 800 5.65836e-05 900 6.53259e-05C1000 7.40682e-05 1100 8.28105e-05 1150 8.71816e-05L1200 9.15527e-05L1200 180Z" fill="#D0E1FA"/>
</svg>
