<svg width="500" height="483" viewBox="0 0 573 483" fill="none" xmlns="http://www.w3.org/2000/svg">
<path d="M433.41 7.29242C391.827 -8.38235 341.601 1.76147 309.49 32.4392C272.318 67.8866 257.853 127.16 211.299 148.88C176.635 165.07 135.455 154.501 98.1267 162.876C44.2727 174.968 5.1977 227.993 0.540059 282.989C-3.02035 325.222 11.3109 367.23 35.047 401.804C57.1932 434.094 96.9847 451.963 133.574 462.533C187.786 478.207 248.761 483.066 305.034 482.999C346.773 482.999 388.737 479.797 429.559 470.84C463.371 463.406 498.819 454.494 526.563 432.773C539.573 422.584 554.263 407.402 559.57 391.324C566.175 371.171 563.779 345.823 558.36 325.804C549.403 292.73 530.93 263.105 517.136 231.755C508.38 211.848 508.425 192.591 505.738 171.43C502.827 148.321 501.416 125.01 497.274 102.013C493.646 81.6356 487.51 61.1017 476.852 43.0309C465.655 23.9301 453.586 14.9059 433.41 7.29242Z" fill="#E1E2FF"/>
<path d="M233.422 309.345C244.86 329.537 251.789 351.966 253.732 375.09C254.704 386.873 254.418 398.725 252.882 410.448C252.031 417.165 255.972 430.265 245.246 430.489C240.387 430.489 236.02 427.779 231.407 426.257C221.084 422.875 209.933 426.01 199.139 427.197C190.509 427.951 181.835 428.079 173.187 427.578C162.359 427.588 151.56 426.469 140.964 424.241C130.462 421.599 120.251 416.516 113.331 408.164C108.517 402.364 105.404 394.504 107.397 387.204C108.594 383.357 110.734 379.87 113.622 377.06C117.726 372.761 122.695 369.38 128.2 367.14C136.351 363.826 146.942 361.744 149.473 353.324C151.6 346.315 146.539 339.418 142.755 333.171C138.971 326.923 137.157 317.295 143.337 313.354C148.152 310.263 154.959 312.839 159.997 310.107C166.715 306.39 165.707 296.514 163.983 288.968C161.834 279.593 160.147 270.129 158.922 260.574C157.937 252.871 158.407 243.041 165.64 239.996C172.873 236.95 180.688 243.959 184.719 250.901C188.722 257.828 191.666 265.315 193.452 273.114C194.818 279.048 195.579 285.318 198.871 290.424C204.917 299.761 211.142 294.253 219.158 295.955C225.675 297.276 230.086 303.456 233.422 309.345Z" fill="#7970E5"/>
<path d="M158.206 146.955C136.844 149.328 115.19 147.268 93.8724 150.605C77.9737 153.09 57.5069 158.599 47.2064 172.057C46.6018 172.841 47.7438 173.893 48.5051 173.378C55.9842 168.384 62.5676 163.212 71.032 159.808C79.2303 156.634 87.7771 154.446 96.4923 153.292C116.914 150.314 137.695 150.851 158.206 148.478C159.147 148.478 159.169 146.865 158.206 146.977V146.955Z" fill="#E1E2FF"/>
<path d="M245.088 431.116C244.237 428.877 226.503 424.801 223.592 423.704C216.501 421.017 209.484 418.143 202.543 415.083C190.16 409.641 175.672 404.805 164.878 396.564C163.826 395.952 162.926 395.111 162.244 394.103C161.562 393.095 161.115 391.946 160.937 390.742C161.037 389.593 161.491 388.504 162.237 387.626C162.984 386.747 163.985 386.122 165.102 385.838C167.334 385.344 169.659 385.476 171.82 386.219C172.626 386.566 173.526 386.629 174.373 386.398C174.935 386.081 175.357 385.564 175.556 384.95C175.755 384.337 175.716 383.67 175.448 383.084C174.848 381.938 173.931 380.989 172.805 380.352C164.453 374.597 154.533 371.552 145.733 366.513C137.895 362.035 129.185 354.086 127.595 344.636C126.005 335.186 135.253 329.364 135.97 320.25C136.529 313.264 132.297 306.949 128.938 300.791C125.579 294.633 123.027 286.841 126.699 280.907C131.178 273.696 142.575 274.189 149.316 279.362C156.056 284.534 159.571 292.797 163.535 300.299C166.715 306.3 171.954 315.705 177.418 319.87C178.821 321.058 180.556 321.785 182.387 321.954C184.217 322.122 186.056 321.723 187.652 320.81C189.318 319.236 190.818 317.495 192.13 315.615C197.907 309.412 209.26 312.435 213.828 319.579C218.397 326.722 217.859 335.992 216.068 344.21C214.929 347.703 214.555 351.399 214.97 355.048C215.709 358.654 218.979 362.035 222.584 361.453C224.823 361.094 226.727 359.213 229.011 359.213C230.368 359.271 231.671 359.764 232.728 360.618C233.784 361.473 234.538 362.645 234.877 363.961C235.512 366.601 235.611 369.342 235.169 372.022C233.467 393.205 237.856 411.59 245.088 431.116Z" fill="#5D5AE0"/>
<g style="mix-blend-mode:screen" opacity="0.38">
<path d="M137.537 288.095C144.111 308.906 153.442 328.743 165.282 347.077C165.416 347.838 165.573 348.577 165.729 349.316C165.765 349.457 165.836 349.587 165.935 349.694C166.034 349.801 166.158 349.882 166.296 349.929C166.434 349.975 166.581 349.987 166.725 349.962C166.868 349.937 167.003 349.877 167.118 349.786L169.111 352.742C158.9 345.487 148.689 338.836 140.202 329.23C139.687 328.648 138.769 329.431 139.284 330.014C148.241 340.449 158.698 351.197 171.663 356.482C185.614 376.03 202.879 395.579 223.166 408.611C224.04 409.171 225.271 407.962 224.443 407.201C215.15 398.759 206.036 390.496 197.415 381.763C197.449 363.793 193.462 346.042 185.748 329.812C185.547 329.387 184.785 329.588 184.92 330.081C189.918 346.348 193.492 363.018 195.601 379.904C187.679 371.901 180.36 363.324 173.701 354.242C171.462 351.085 169.223 347.883 167.118 344.636C166.021 330.238 160.4 316.041 153.346 303.725C153.055 303.21 152.249 303.59 152.518 304.128C157.701 315.373 161.462 327.22 163.714 339.396C153.558 323.109 145.223 305.755 138.858 287.647C138.59 286.908 137.291 287.333 137.537 288.095Z" fill="#7970E5"/>
</g>
<path d="M368.785 280.459C372.986 277.008 376.68 272.982 379.758 268.501C383.234 263.187 385.489 257.168 386.364 250.878C387.08 245.997 387.819 237.779 385.132 233.367C383.784 231.462 382.238 229.706 380.519 228.128C377.711 225.467 375.762 222.028 374.921 218.252C374.272 214.267 375.57 210.258 376.488 206.317C378.185 199.814 378.551 193.036 377.563 186.388C376.56 179.709 373.472 173.517 368.741 168.698C366.345 166.458 363.523 164.51 360.903 162.405C353.222 156.049 347.16 147.96 343.213 138.804C341.182 134.234 339.571 129.49 338.399 124.629C338.248 122.81 337.81 121.026 337.1 119.345C335.403 117.536 333.544 115.887 331.547 114.418C327.344 110.048 323.558 105.295 320.238 100.221C313.901 91.2644 307.788 81.9043 301.227 73.0145C297.913 68.536 298.383 64.9084 292.27 63.9231C283.673 62.2972 274.822 62.6108 266.362 64.8412C252.017 69.0466 239.173 77.2669 229.347 88.5325C222.544 96.5111 217.766 106.013 215.419 116.232C213.18 125.95 211.344 136.117 210.09 146.037C208.96 149.568 206.641 152.599 203.529 154.613C197.483 158.039 189.287 155.419 183.375 159.091C174.53 164.622 177.105 179.446 175.986 188.202C175.404 192.68 174.463 197.942 170.343 200.652C164.118 204.75 155.25 200.652 148.398 202.734C132.32 207.482 134.828 230.949 142.151 241.832C146.893 248.589 154.053 253.263 162.147 254.887C171.574 257.26 179.255 263.709 181.069 273.584C182.233 279.921 181.382 286.415 181.069 292.864C180.621 302.068 182.099 309.323 188.19 316.309C201.267 331.335 222.226 338.097 242.088 336.754C249.818 336.537 257.365 334.348 264.011 330.394C268.462 327.179 272.541 323.476 276.17 319.355C282.641 312.637 289.762 306.3 298.562 303.143C307.363 299.985 317.036 300.343 326.06 297.813C330.852 296.47 333.159 295.35 338.13 295.372C342.522 295.434 346.878 294.572 350.916 292.842C354.768 291.027 358.397 288.773 361.732 286.124C364.083 284.288 366.479 282.429 368.785 280.459Z" fill="#463360"/>
<g style="mix-blend-mode:multiply" opacity="0.34">
<path d="M238.08 336.91C219.45 337.134 200.394 330.327 188.212 316.332C182.144 309.323 180.666 302.068 181.091 292.864C181.382 286.438 182.233 279.921 181.091 273.584C179.255 263.709 171.574 257.26 162.125 254.887C154.033 253.257 146.881 248.573 142.151 241.809C134.828 230.971 132.32 207.504 148.398 202.734C155.25 200.719 164.073 204.75 170.343 200.674C174.463 197.92 175.404 192.747 175.986 188.224C177.128 179.469 174.53 164.645 183.398 159.114C188.481 155.912 195.512 156.874 201.2 155.732C200.64 158.196 195.982 159.114 193.922 160.39C191.057 161.974 188.78 164.44 187.428 167.421C186.757 169.43 186.394 171.529 186.353 173.646C185.599 179.594 185.599 185.613 186.353 191.56C187.249 196.375 188.078 202.891 184.965 207.078C181.853 211.266 175.65 211.938 171.53 215.319C165.864 220.066 165.797 228.754 167.924 235.92C169.728 242.11 172.965 247.787 177.374 252.491C181.853 256.969 184.495 262.164 190.25 265.478C194.258 267.717 198.625 269.666 201.804 273.002C203.706 275.05 205.223 277.425 206.283 280.011C208.555 286.056 209.935 292.4 210.381 298.843C210.664 302.983 211.415 307.077 212.62 311.047C214.277 315.537 216.727 319.694 219.853 323.318C224.937 329.046 231.14 333.671 238.08 336.91Z" fill="#523D6B"/>
</g>
<g style="mix-blend-mode:multiply" opacity="0.34">
<path d="M386.385 250.878C385.453 257.171 383.161 263.185 379.668 268.501C376.576 272.985 372.876 277.017 368.673 280.481C366.434 282.429 363.971 284.265 361.552 286.079C360.836 286.639 360.097 287.154 359.313 287.714C361.853 283.09 363.537 278.045 364.284 272.823C364.978 267.919 365.739 259.723 363.052 255.289C361.685 253.394 360.132 251.639 358.417 250.05C355.605 247.393 353.654 243.952 352.819 240.175C352.17 236.189 353.491 232.18 354.409 228.262C356.094 221.757 356.459 214.981 355.484 208.332C354.466 201.651 351.381 195.457 346.661 190.62C344.243 188.381 341.421 186.432 338.824 184.35C331.148 177.988 325.086 169.901 321.134 160.748C319.143 156.179 317.584 151.433 316.476 146.574C316.304 144.751 315.866 142.963 315.177 141.267C313.473 139.458 311.606 137.809 309.601 136.34C305.4 131.969 301.614 127.216 298.293 122.144C291.979 113.186 285.843 103.826 279.304 94.9366C276.013 90.4581 272.094 85.9796 274.826 80.4038C276.455 77.0822 278.911 74.2355 281.958 72.1374C285.005 70.0393 288.541 68.7605 292.225 68.4238C300.264 67.7744 301.876 73.6861 305.839 79.2618C310.743 86.1811 315.468 93.2571 320.327 100.221C323.641 105.299 327.428 110.052 331.636 114.418C333.643 115.875 335.503 117.525 337.189 119.344C337.899 121.026 338.337 122.81 338.488 124.629C339.66 129.49 341.271 134.234 343.302 138.804C347.251 147.964 353.323 156.054 361.015 162.405C363.612 164.488 366.434 166.369 368.83 168.698C373.569 173.512 376.658 179.706 377.652 186.388C378.625 193.035 378.268 199.809 376.6 206.317C375.279 210.157 374.738 214.223 375.01 218.275C375.847 222.046 377.797 225.478 380.608 228.127C382.293 229.709 383.795 231.474 385.087 233.39C387.841 237.801 387.08 245.974 386.385 250.878Z" fill="#523D6B"/>
</g>
<path d="M288.755 254.304C274.827 251.438 270.192 232.583 268.826 220.715C268.131 214.983 267.392 209.273 266.698 203.518C265.758 195.457 264.929 187.373 264.459 179.267C263.922 169.728 267.706 151.343 281.321 154.142C294.935 156.942 300.601 175.908 301.272 187.731C301.675 194.942 302.37 202.107 303.198 209.25C303.982 215.968 304.833 222.529 305.617 229.18C306.669 238.786 301.855 257.014 288.755 254.304Z" fill="#FCD6B1"/>
<g style="mix-blend-mode:multiply">
<path d="M303.063 209.273C300.958 210.572 298.808 211.826 296.681 213.057C294.697 214.381 292.465 215.288 290.12 215.722C286.801 215.792 283.541 214.838 280.782 212.99C275.788 210.296 271.037 207.172 266.585 203.652C265.645 195.591 264.816 187.507 264.346 179.401C263.809 169.862 267.593 151.478 281.208 154.277C294.822 157.076 300.488 176.042 301.16 187.866C301.54 194.919 302.19 202.085 303.063 209.273Z" fill="#FCD6B1"/>
</g>
<path d="M239.132 142.79C239.132 157.143 242.647 172.169 251.425 183.791C258.773 193.085 268.008 200.717 278.52 206.183C281.29 208.025 284.555 208.978 287.88 208.915C290.218 208.481 292.443 207.574 294.419 206.25C302.749 201.436 311.303 196.442 317.147 188.806C322.656 181.574 325.298 172.549 326.821 163.57C329.463 147.895 331.725 128.324 321.111 115.404C312.759 105.238 298.36 100.446 285.529 100.446C263.562 100.446 239.132 114.105 239.132 142.79Z" fill="#FCD6B1"/>
<path d="M265.69 141.245C267.942 140.412 270.343 140.055 272.741 140.198C275.138 140.34 277.48 140.979 279.618 142.073C280.133 142.32 280.76 141.648 280.267 141.245C278.181 139.537 275.597 138.553 272.904 138.44C270.21 138.327 267.553 139.091 265.331 140.618C265.04 140.864 265.331 141.334 265.69 141.245Z" fill="#68411D"/>
<path d="M252.411 156.987C253.486 164.085 249.769 170.422 244.126 171.363C238.483 172.303 233.041 167.13 231.966 160.032C230.892 152.933 234.631 146.596 240.274 145.656C245.917 144.715 251.358 149.888 252.411 156.987Z" fill="#FCD6B1"/>
<g style="mix-blend-mode:multiply" opacity="0.43">
<path d="M296.793 127.518C294.444 130.17 291.891 132.633 289.157 134.885C283.264 139.997 276.413 143.887 269.003 146.328C261.569 148.567 250.978 149.911 243.633 147.358C238.147 145.432 239.624 140.013 238.527 134.952C238.035 132.683 237.632 130.399 237.318 128.1C236.643 123.512 236.493 118.862 236.87 114.239C237.061 111.96 237.497 109.708 238.169 107.522C243.364 91.6228 258.322 71.4696 277.445 73.3729C284.163 74.0447 291.329 78.8591 297.42 81.6134C301.562 83.4944 305.974 85.5993 308.146 89.5851C309.436 92.2573 309.985 95.227 309.735 98.1839C309.332 109.201 304.115 119.278 296.793 127.518Z" fill="#523D6B"/>
</g>
<path d="M292.852 127.249C290.486 129.884 287.934 132.346 285.216 134.616C279.311 139.711 272.464 143.599 265.063 146.059C257.628 148.298 247.037 149.642 239.692 147.089C234.206 145.163 235.684 139.744 234.587 134.683C234.094 132.399 233.691 130.115 233.377 127.831C232.703 123.243 232.552 118.593 232.929 113.97C233.118 111.691 233.554 109.438 234.228 107.253C239.423 91.3538 254.382 71.2005 273.505 73.1039C280.222 73.7757 287.366 78.5901 293.479 81.3444C297.621 83.2029 302.01 85.3302 304.205 89.2937C305.486 91.9764 306.027 94.9528 305.772 97.9148C305.392 108.932 300.152 118.986 292.852 127.249Z" fill="#463360"/>
<g style="mix-blend-mode:multiply" opacity="0.43">
<path d="M299.95 114.709C308.594 120.755 318.178 125.906 323.709 134.863C327.123 140.348 328.692 146.783 328.187 153.224C327.695 159.45 325.254 165.473 325.433 171.721C325.747 176.681 327.64 181.411 330.835 185.218C334.03 189.026 338.36 191.711 343.19 192.882C343.454 192.948 343.731 192.931 343.984 192.834C344.238 192.736 344.455 192.563 344.607 192.338C344.759 192.113 344.837 191.847 344.832 191.575C344.827 191.304 344.739 191.041 344.579 190.822C341.566 186.864 340.173 181.908 340.682 176.961C341.399 170.646 345.161 164.981 345.407 158.576C345.519 153.851 343.168 150.179 340.929 146.462C337.75 140.96 336.542 134.538 337.503 128.257C338.443 123.98 339.899 119.792 340.436 115.426C341.623 105.797 338.197 96.0339 332.599 88.0622C325.832 78.2915 316.247 70.8159 305.123 66.6325C299.413 64.5276 290.165 61.527 284.029 63.0273C278.61 64.3261 277.939 76.1494 277.939 81.2773C277.866 87.7121 279.739 94.0187 283.313 99.3704C287.261 104.669 292.067 109.27 297.532 112.985C298.308 113.597 299.114 114.172 299.95 114.709Z" fill="#523D6B"/>
</g>
<path d="M303.175 115.224C311.796 121.27 321.38 126.533 326.933 135.378C330.339 140.875 331.907 147.314 331.412 153.762C330.897 159.987 328.479 166.011 328.658 172.258C328.968 177.22 330.86 181.951 334.056 185.759C337.251 189.567 341.583 192.252 346.415 193.419C346.677 193.479 346.95 193.457 347.199 193.358C347.449 193.258 347.662 193.085 347.81 192.861C347.958 192.637 348.035 192.374 348.03 192.105C348.024 191.837 347.938 191.577 347.781 191.359C344.772 187.4 343.386 182.443 343.907 177.498C344.624 171.183 348.385 165.518 348.632 159.114C348.632 154.389 346.393 150.694 344.041 146.999C340.832 141.459 339.623 134.985 340.615 128.66C341.533 124.36 342.989 120.173 343.526 115.829C344.713 106.2 341.287 96.437 335.711 88.4428C329.53 79.4875 320.954 72.4518 310.964 68.1396C300.973 63.8274 289.971 62.4128 279.215 64.0574C275.408 64.6396 270.683 64.7739 269.765 69.3644C269.049 72.9696 271.803 76.8883 273.281 79.9337C279.605 93.1524 289.06 104.628 300.824 113.366L303.175 115.224Z" fill="#463360"/>
<path d="M238.215 145.566C254.158 151.679 274.916 138.848 283.604 125.883C284.097 125.144 283.044 124.472 282.44 124.987C276.483 130.138 271.244 135.713 264.145 139.475C255.748 143.954 247.575 144.379 238.327 144.693C238.222 144.699 238.123 144.741 238.047 144.812C237.97 144.884 237.921 144.979 237.908 145.083C237.895 145.187 237.918 145.292 237.974 145.38C238.03 145.468 238.115 145.534 238.215 145.566Z" fill="#392A51"/>
<path d="M239.491 145.544C253.464 144.379 268.333 132.892 275.7 121.449C276.282 120.531 274.894 119.434 274.155 120.263C269.413 125.983 263.948 131.064 257.898 135.378C252.009 139.319 245.56 141.468 239.29 144.603C239.203 144.655 239.135 144.734 239.096 144.828C239.058 144.922 239.051 145.025 239.076 145.124C239.101 145.222 239.157 145.309 239.236 145.373C239.315 145.436 239.412 145.473 239.514 145.477L239.491 145.544Z" fill="#392A51"/>
<path d="M238.841 145.253C242.066 145.253 244.104 141.961 245.806 139.588C249.412 134.67 252.695 129.524 255.636 124.182C255.784 123.929 255.826 123.628 255.753 123.345C255.679 123.061 255.496 122.818 255.244 122.67C254.992 122.522 254.691 122.479 254.407 122.553C254.124 122.626 253.881 122.809 253.732 123.062C250.844 127.137 248.246 131.437 245.537 135.624C244.373 137.516 243.102 139.34 241.73 141.088C240.678 142.364 239.491 143.327 238.416 144.581C238.377 144.649 238.356 144.725 238.356 144.803C238.356 144.881 238.376 144.958 238.414 145.026C238.453 145.094 238.508 145.15 238.575 145.19C238.642 145.23 238.719 145.252 238.797 145.253H238.841Z" fill="#392A51"/>
<path d="M323.306 195.502C325.232 206.026 334.973 212.296 344.086 216.26C356.85 221.79 369.86 225.776 374.966 240.04C375.324 241.093 377.205 241.048 377.048 239.749C375.996 229.292 366.188 222.776 357.388 218.835C344.848 213.214 329.912 209.542 325.075 195.009C325.01 194.774 324.854 194.575 324.642 194.456C324.43 194.336 324.179 194.305 323.944 194.371C323.71 194.436 323.511 194.592 323.391 194.804C323.271 195.016 323.241 195.267 323.306 195.502Z" fill="#392A51"/>
<path d="M315.177 202.757C313.991 209.475 320.283 215.14 325.68 218.028C326.665 218.543 327.919 217.178 326.934 216.394C322.209 212.453 317.439 209.676 316.7 202.958C316.7 202.175 315.334 201.816 315.177 202.757Z" fill="#392A51"/>
<path d="M223.816 159.494C222.216 162.599 219.85 165.244 216.943 167.18C214.036 169.116 210.682 170.278 207.201 170.556C205.395 170.608 203.618 171.019 201.972 171.765C200.327 172.511 198.846 173.577 197.617 174.9C189.802 184.193 197.169 196.218 196.519 206.563C196.538 208.585 196.072 210.58 195.16 212.384C194.248 214.188 192.918 215.747 191.28 216.931C188.525 218.123 185.601 218.878 182.614 219.17C180.831 219.444 179.135 220.126 177.659 221.164C176.183 222.201 174.967 223.565 174.105 225.149C169.425 234.8 178.897 245.303 182.054 253.655C182.457 254.752 184.428 254.707 184.293 253.364C183.084 243.825 166.379 226.358 183.42 221.902C187.473 220.85 191.571 220.716 194.795 217.693C197.362 215.074 198.944 211.648 199.274 207.997C200.573 197.495 189.869 177.677 205.141 173.423C209.933 172.101 214.098 172.191 218.375 169.19C221.568 166.917 223.978 163.71 225.271 160.009C225.563 159.159 224.264 158.643 223.838 159.405L223.816 159.494Z" fill="#392A51"/>
<path d="M345.34 262.59C349.057 257.82 352.931 252.938 358.193 249.96C363.456 246.982 370.532 246.377 375.301 250.117C377.706 252.295 379.608 254.969 380.877 257.954C385.625 267.412 389.834 277.131 393.484 287.065C397.806 298.798 402.732 312.346 414.488 316.578C423.311 319.78 433.701 316.578 442.143 320.653C452.108 325.468 455.153 338.164 455.444 349.226C455.735 360.288 454.638 372.156 460.438 381.583C466.551 391.526 480.031 398.669 478.643 410.268C477.702 418.173 469.798 423.323 462.229 425.943C431.462 436.199 397.985 421.577 365.673 424.286C354.185 425.249 340.839 427.824 332.599 419.807C328.68 416.001 326.934 410.537 325.523 405.275C313.701 359.875 318.703 311.731 339.608 269.733" fill="#7970E5"/>
<path d="M342.496 318.168C343.235 309.726 344.019 301.149 347.221 293.312C350.423 285.475 356.447 278.331 364.553 275.913C372.055 273.674 380.653 275.599 387.438 271.726C393.529 268.255 396.395 261.201 399.553 254.954C402.71 248.706 407.793 242.235 414.802 241.966C423.311 241.675 429.29 251.304 428.797 259.88C428.305 268.456 423.468 275.891 419.482 283.414C414.309 293.2 411.13 305.807 415.742 316.264C419.213 324.079 428.596 333.215 424.252 342.441C422.192 346.92 417.399 349.159 412.809 350.883C408.219 352.607 403.27 353.861 399.799 357.243C396.328 360.624 395.097 367.006 398.769 370.208C403.247 374.059 411.152 370.992 415.115 375.269C416.54 376.981 417.231 379.185 417.041 381.404C416.683 391.414 406.539 397.796 397.604 402.341C385.848 408.32 365.941 414.142 357.164 423.883C344.109 392.085 340.862 352.451 339.742 318.392" fill="#5D5AE0"/>
<g style="mix-blend-mode:screen" opacity="0.38">
<path d="M414.735 254.842C401.237 271.995 390.091 290.874 381.594 310.98C381.034 311.517 380.497 312.055 379.959 312.614C379.863 312.724 379.796 312.856 379.764 312.999C379.732 313.141 379.737 313.289 379.777 313.429C379.817 313.57 379.891 313.698 379.994 313.802C380.096 313.906 380.223 313.983 380.362 314.025C379.915 315.122 379.467 316.264 379.041 317.339C379.288 304.822 379.041 292.707 382.221 280.212C382.263 280.055 382.24 279.888 382.158 279.747C382.076 279.606 381.942 279.504 381.784 279.462C381.627 279.421 381.46 279.443 381.319 279.525C381.178 279.607 381.076 279.742 381.034 279.899C377.451 293.155 374.451 307.845 377.384 321.549C369.077 344.098 362.628 369.357 363.232 393.407C363.232 394.437 364.956 394.773 365.113 393.675C366.86 381.248 368.584 369.044 370.935 356.996C385.849 346.942 398.321 333.674 407.435 318.168C407.681 317.765 407.077 317.25 406.763 317.653C396.13 330.93 384.367 343.262 371.607 354.511C373.779 343.45 376.773 332.567 380.564 321.952C381.885 318.302 383.318 314.697 384.796 311.114C395.992 302.157 404.658 289.505 410.861 276.719C411.13 276.182 410.368 275.734 410.077 276.249C403.69 286.855 396.019 296.632 387.237 305.359C394.966 287.786 404.616 271.121 416.011 255.67C416.392 255.066 415.228 254.215 414.735 254.842Z" fill="#7970E5"/>
</g>
<path d="M375.145 420.434C379.414 388.108 390.332 357.016 407.211 329.118C415.864 314.977 425.908 301.737 437.194 289.595C448.816 277.1 461.692 264.09 477.658 257.439C478.979 256.879 478.508 254.797 477.053 255.2C461.378 259.857 448.592 273.383 437.62 284.915C425.823 297.311 415.319 310.877 406.27 325.4C388.535 353.817 375.951 386.599 373.241 420.166C373.241 421.263 375.055 421.554 375.212 420.412L375.145 420.434Z" fill="#3131A8"/>
<path d="M456.698 267.494L474.142 261.56C479.046 259.88 484.443 257.82 486.749 253.162C486.992 252.776 487.08 252.312 486.995 251.864C486.771 251.237 486.01 251.013 485.361 250.923C482.715 250.74 480.06 251.094 477.555 251.964C475.049 252.833 472.746 254.201 470.783 255.984C465.881 259.624 461.235 263.597 456.877 267.874" fill="#3131A8"/>
<path d="M438.784 283.817C437.38 274.872 438.756 265.712 442.725 257.573C443.308 256.409 444.136 255.11 445.435 254.976C446.734 254.842 448.189 256.454 448.547 257.999C448.942 260.698 448.626 263.454 447.629 265.993C445.755 271.902 443.396 277.647 440.576 283.168" fill="#3131A8"/>
<path d="M422.191 303.075C420.703 293.713 422.134 284.12 426.289 275.599C426.894 274.368 427.767 273.024 429.133 272.867C430.499 272.711 432.022 274.413 432.38 276.047C432.808 278.867 432.475 281.751 431.417 284.4C429.49 290.565 427.048 296.557 424.117 302.314" fill="#3131A8"/>
<path d="M405.755 328.155C401.37 319.747 399.681 310.193 400.918 300.791C400.916 300.109 401.081 299.436 401.397 298.832C401.713 298.227 402.171 297.708 402.732 297.32C404.254 296.626 405.979 297.88 406.83 299.291C408.138 301.824 408.741 304.662 408.576 307.509C408.715 313.981 408.303 320.453 407.345 326.856" fill="#3131A8"/>
<path d="M450.316 274.95C458.259 276.261 466.413 275.096 473.672 271.614C474.724 271.099 475.911 270.382 475.911 269.218C475.911 268.053 474.612 266.754 473.246 266.441C470.854 266.068 468.407 266.331 466.148 267.202C460.889 268.812 455.773 270.857 450.854 273.315" fill="#3131A8"/>
<path d="M433.5 292.954C442.989 294.523 452.731 293.131 461.401 288.968C462.633 288.364 464.021 287.49 464.178 286.124C464.334 284.758 462.61 283.169 460.976 282.788C458.115 282.344 455.188 282.661 452.489 283.706C446.238 285.638 440.157 288.079 434.306 291.006" fill="#3131A8"/>
<path d="M416.706 314.518C426.194 316.097 435.939 314.705 444.607 310.532C445.838 309.928 447.227 309.077 447.383 307.688C447.54 306.3 445.838 304.755 444.204 304.374C441.343 303.919 438.413 304.236 435.717 305.292C429.435 307.198 423.33 309.64 417.467 312.592" fill="#3131A8"/>
<path d="M400.717 339.373C410.206 340.952 419.951 339.56 428.618 335.388C429.872 334.783 431.238 333.932 431.395 332.544C431.551 331.155 429.849 329.61 428.215 329.23C425.355 328.775 422.425 329.092 419.728 330.148C413.447 332.053 407.341 334.496 401.478 337.448" fill="#3131A8"/>
<path d="M213.829 421.129C193.992 409.067 175.736 394.58 159.483 378.001C143.203 360.915 126.207 340.628 119.714 317.541C119.378 316.354 117.295 316.533 117.474 317.855C118.975 329.745 126.051 340.247 132.768 349.786C139.706 359.711 147.347 369.125 155.631 377.956C172.09 395.534 191.459 411.545 212.844 422.741C213.069 422.835 213.321 422.844 213.552 422.766C213.783 422.688 213.978 422.53 214.101 422.319C214.224 422.109 214.267 421.861 214.221 421.621C214.175 421.382 214.044 421.167 213.852 421.017L213.829 421.129Z" fill="#3131A8"/>
<path d="M126.587 340.001C125.468 333.977 124.348 327.931 123.206 321.885C122.265 316.802 120.967 311.159 116.712 308.226C116.364 307.929 115.915 307.777 115.458 307.8C114.809 307.912 114.473 308.629 114.294 309.278C113.727 311.868 113.695 314.547 114.199 317.149C114.703 319.752 115.734 322.225 117.227 324.415C120.126 329.789 123.388 334.959 126.99 339.889" fill="#3131A8"/>
<path d="M140.314 360.019C131.251 360.154 122.367 357.487 114.876 352.384C113.802 351.645 112.637 350.659 112.637 349.338C112.637 348.017 114.496 346.83 116.063 346.696C118.791 346.677 121.473 347.389 123.833 348.756C129.41 351.42 134.751 354.551 139.799 358.116" fill="#3131A8"/>
<path d="M156.997 379.143C147.517 379.286 138.225 376.494 130.394 371.149C129.252 370.387 128.043 369.335 128.155 367.969C128.267 366.603 130.103 365.327 131.76 365.192C134.62 365.21 137.424 365.982 139.889 367.432C145.741 370.209 151.345 373.483 156.638 377.217" fill="#3131A8"/>
<path d="M179.478 398.982C170.533 402.117 160.84 402.43 151.711 399.878C150.39 399.497 148.912 398.893 148.532 397.639C148.151 396.385 149.517 394.526 151.062 393.877C153.76 392.939 156.661 392.746 159.459 393.317C165.873 394.109 172.21 395.435 178.403 397.281" fill="#3131A8"/>
<path d="M133.171 347.301C135.601 339.621 135.601 331.379 133.171 323.699C132.813 322.579 132.275 321.46 131.133 321.057C129.991 320.654 128.514 321.975 127.998 323.296C127.3 325.615 127.215 328.077 127.752 330.439C128.585 335.869 129.881 341.218 131.626 346.427" fill="#3131A8"/>
<path d="M148.599 366.513C151.482 357.337 151.482 347.497 148.599 338.321C148.174 337 147.524 335.522 146.181 335.164C144.837 334.805 143.046 336.283 142.419 337.851C141.571 340.619 141.47 343.562 142.128 346.382C143.137 352.865 144.68 359.254 146.74 365.483" fill="#3131A8"/>
<path d="M167.611 386.174C170.511 377.008 170.511 367.17 167.611 358.004C167.185 356.683 166.514 355.183 165.17 354.847C163.826 354.511 162.057 355.944 161.43 357.511C160.579 360.271 160.471 363.206 161.117 366.021C162.127 372.504 163.669 378.892 165.73 385.121" fill="#3131A8"/>
<path d="M189.846 405.678C192.746 396.512 192.746 386.674 189.846 377.508C189.421 376.187 188.749 374.709 187.428 374.351C186.107 373.992 184.293 375.47 183.666 377.038C182.818 379.806 182.718 382.749 183.375 385.569C184.384 392.045 185.927 398.426 187.987 404.648" fill="#3131A8"/>
<path d="M389.229 436.177C407.636 420.838 422.952 401.199 435.246 380.733C441.52 370.266 447.035 359.363 451.749 348.107C456.228 337.314 461.176 325.49 460.102 313.533C460.05 313.274 459.91 313.041 459.705 312.874C459.501 312.707 459.246 312.616 458.982 312.616C458.718 312.616 458.462 312.707 458.258 312.874C458.054 313.041 457.914 313.274 457.862 313.533C456.407 337.403 444.136 360.736 431.909 380.845C419.526 400.525 404.729 418.579 387.863 434.587C386.923 435.505 388.311 436.826 389.274 435.997L389.229 436.177Z" fill="#3131A8"/>
<path d="M455.847 336.911L455.31 318.482C455.153 313.309 455.198 307.532 458.758 303.747C459.031 303.387 459.432 303.146 459.878 303.075C460.55 303.075 461.02 303.68 461.334 304.262C462.433 306.676 463.032 309.288 463.094 311.94C463.155 314.592 462.678 317.228 461.692 319.691C460.004 325.555 457.909 331.294 455.422 336.866" fill="#3131A8"/>
<path d="M446.711 359.415C455.588 357.604 463.695 353.109 469.932 346.539C470.44 346.132 470.839 345.607 471.097 345.01C471.355 344.413 471.462 343.762 471.41 343.113C471.03 341.568 469.059 341.031 467.492 341.255C464.822 341.817 462.35 343.076 460.326 344.905C455.454 348.699 450.907 352.893 446.734 357.444" fill="#3131A8"/>
<path d="M434.462 381.695C443.749 379.819 452.232 375.128 458.758 368.26C459.294 367.838 459.717 367.29 459.991 366.665C460.264 366.04 460.379 365.357 460.325 364.677C459.922 363.065 457.862 362.438 456.227 362.729C453.435 363.315 450.847 364.628 448.726 366.536C443.622 370.514 438.858 374.91 434.484 379.68" fill="#3131A8"/>
<path d="M416.706 405.79C426.111 406.97 435.652 405.219 444.024 400.774C445.234 400.125 446.555 399.207 446.644 397.841C446.734 396.475 445.01 395.019 443.375 394.706C440.545 394.366 437.677 394.792 435.067 395.937C428.96 398.081 423.042 400.733 417.377 403.864" fill="#3131A8"/>
<path d="M450.965 345.442C446.964 338.46 445.205 330.416 445.927 322.4C445.898 321.817 446.014 321.236 446.264 320.709C446.514 320.181 446.89 319.724 447.36 319.377C448.614 318.728 450.114 319.736 450.898 320.9C452.083 323.02 452.693 325.413 452.667 327.842C452.999 333.321 452.872 338.819 452.286 344.278" fill="#3131A8"/>
<path d="M439.994 367.499C435.202 359.164 433.098 349.553 433.97 339.978C433.934 339.283 434.071 338.591 434.368 337.961C434.665 337.332 435.113 336.787 435.672 336.373C437.173 335.612 438.964 336.799 439.904 338.209C441.318 340.732 442.044 343.581 442.009 346.472C442.402 353.02 442.244 359.589 441.539 366.11" fill="#3131A8"/>
<path d="M425.595 390.809C420.793 382.478 418.688 372.864 419.571 363.289C419.53 362.596 419.662 361.904 419.955 361.274C420.249 360.645 420.694 360.098 421.25 359.684C422.751 358.922 424.565 360.109 425.483 361.498C426.911 364.014 427.638 366.867 427.588 369.76C427.987 376.308 427.837 382.877 427.14 389.399" fill="#3131A8"/>
<path d="M407.994 414.545C403.201 406.211 401.097 396.6 401.971 387.025C401.944 386.331 402.085 385.642 402.381 385.014C402.677 384.387 403.12 383.84 403.672 383.42C405.173 382.658 406.964 383.845 407.905 385.256C409.313 387.78 410.039 390.628 410.009 393.519C410.413 400.066 410.255 406.636 409.539 413.157" fill="#3131A8"/>
<path d="M234.05 181.215C233.694 181.159 233.331 181.159 232.975 181.215C232.927 181.215 232.882 181.234 232.848 181.268C232.815 181.301 232.796 181.347 232.796 181.394C232.796 181.442 232.815 181.487 232.848 181.521C232.882 181.555 232.927 181.573 232.975 181.573C233.331 181.629 233.694 181.629 234.05 181.573C234.207 181.573 234.207 181.26 234.05 181.238V181.215Z" fill="#392A51"/>
<path d="M295.337 147.335C295.177 151.001 295.252 154.674 295.561 158.33C295.546 160.165 295.772 161.995 296.233 163.771C296.681 164.891 298.472 165.361 299.48 165.697C300.07 165.844 300.646 166.039 301.204 166.279C301.486 166.397 301.74 166.571 301.952 166.79C302.163 167.01 302.328 167.27 302.436 167.556C302.529 167.872 302.545 168.205 302.483 168.529C302.42 168.852 302.281 169.156 302.077 169.414C301.674 169.945 301.172 170.394 300.6 170.735C299.41 171.496 298.15 172.141 296.838 172.661" stroke="#E59E6E" stroke-width="0.56" stroke-linecap="round" stroke-linejoin="round"/>
<path d="M304.16 180.431C303.903 183.015 302.881 185.463 301.226 187.463C299.2 190.065 296.335 191.886 293.119 192.616C289.903 193.347 286.533 192.942 283.581 191.471C282.203 190.751 280.93 189.847 279.797 188.784C276.763 186.268 274.788 182.703 274.266 178.797C277.324 179.774 280.476 180.427 283.671 180.745C286.947 181.233 290.272 181.308 293.568 180.969C297.413 180.401 301.021 178.764 303.98 176.244C304.238 177.624 304.298 179.034 304.16 180.431Z" fill="#523D6B"/>
<path d="M301.227 187.463C299.201 190.065 296.336 191.886 293.12 192.617C289.904 193.347 286.534 192.942 283.582 191.471C282.204 190.751 280.931 189.847 279.797 188.784C281.207 187.171 282.956 185.889 284.918 185.03C286.881 184.17 289.009 183.755 291.15 183.813C294.845 183.743 298.434 185.043 301.227 187.463Z" fill="#F85C55"/>
<path d="M325.522 161.443C325.522 163.682 320.842 165.608 315.065 165.608C309.288 165.608 304.585 163.749 304.585 161.443C304.585 159.136 309.265 157.255 315.065 157.255C320.865 157.255 325.522 159.136 325.522 161.443Z" fill="#FCC2A2"/>
<path d="M345.967 304.688C344.766 302.032 343.807 299.274 343.101 296.447C342.327 293.805 342.22 291.012 342.787 288.319C344.489 281.892 355.148 278.376 360.836 276.786C363.478 276.025 367.083 276.204 369.457 274.973C372.442 285.507 376.184 295.812 380.653 305.807C382.907 310.793 385.378 315.682 388.065 320.474C390.707 325.132 393.954 328.916 397.022 333.305C402.676 341.879 406.158 351.702 407.166 361.923C407.741 366.814 407.823 371.75 407.412 376.657C407.032 381.136 405.867 383.868 401.904 379.949C400.359 378.404 398.41 377.396 396.865 375.851C391.737 370.835 387.729 364.655 382.489 359.728C378.29 356.164 374.375 352.278 370.778 348.107C369.012 345.695 367.411 343.166 365.986 340.538L352.125 316.287C349.931 312.503 347.736 308.673 345.967 304.688Z" fill="#F9B485"/>
<path d="M366.927 429.437L366.367 429.795C364.582 430.645 362.633 431.095 360.657 431.116C339.007 432.9 317.268 433.363 295.562 432.504C283.873 432.012 272.184 431.183 260.517 430.265C255.076 429.817 247.866 429.884 242.85 427.399C237.834 424.913 241.797 418.285 242.85 413.65C245.884 401.819 247.959 389.763 249.052 377.598C250.799 352.16 241.999 330.999 230.086 309.077C224.913 299.537 219.472 290.043 216.023 279.742C212.648 269.706 211.809 258.989 213.583 248.55C215.15 239.302 226.749 237.756 234.341 235.271C242.815 232.344 251.101 228.896 259.151 224.948C261.391 223.918 268.646 220.223 268.646 220.223C268.646 220.223 271.915 224.545 273.124 225.821C276.941 229.676 281.782 232.357 287.075 233.547C290.147 234.484 293.407 234.622 296.547 233.95C302.481 232.046 304.25 225.463 304.25 219.82C304.25 220.492 313.879 226.851 314.774 227.59L328.994 239.324C334.992 243.64 339.549 249.665 342.071 256.611C343.37 259.477 344.668 262.343 345.99 265.21C347.311 268.076 348.229 270.27 349.483 272.823L350.491 275.062L351.834 278.018C352.08 278.6 352.349 279.138 352.595 279.72C358.014 292.081 361.552 304.352 357.074 317.787C355.439 322.736 352.931 327.349 351.118 332.231C347.136 343.811 346.363 356.253 348.878 368.238C349.823 372.316 351.042 376.326 352.528 380.24C355.842 389.332 359.149 398.438 362.448 407.559C364.24 412.194 372.167 425.607 366.927 429.437Z" fill="#F7B228"/>
<path d="M320.776 225.53C327.494 227.635 334.212 229.718 341.153 231.666C343.643 232.279 346.054 233.173 348.341 234.331C354.23 237.645 357.477 244.116 360.366 250.229C363.255 256.342 365.987 262.12 368.808 268.143C371.19 272.797 372.843 277.789 373.712 282.945C368.159 285.363 362.516 287.199 357.074 290.066C351.633 292.932 346.729 297.567 341.265 300.321C344.669 297.679 320.261 252.625 318.111 248.415C313.901 240.13 307.9 240.242 305.415 230.748C303.78 224.523 305.572 227.187 304.362 219.798C304.362 220.268 306.87 221.097 307.273 221.253C308.306 221.694 309.359 222.083 310.431 222.418L320.776 225.53Z" fill="#F7B228"/>
<g style="mix-blend-mode:multiply" opacity="0.28">
<path d="M357.231 317.81C355.596 322.758 353.088 327.371 351.275 332.253C347.294 343.833 346.52 356.275 349.035 368.26C331.435 373.478 312.536 374.978 294.084 375.873C286.919 376.232 279.462 376.5 272.923 373.634C264.526 369.962 259.04 361.811 254.808 353.66C248.676 341.785 244.272 329.094 241.73 315.973C240.445 309.323 239.652 302.587 239.357 295.82C239.2 292.551 239.469 289.102 239.245 285.945C239.021 282.788 237.968 280.011 239.133 276.988C239.516 275.807 240.323 274.81 241.398 274.189C242.474 273.569 243.741 273.369 244.955 273.629C246.067 274.12 247.032 274.891 247.754 275.868C258.95 289.17 263.429 308.785 278.902 318.414C294.935 328.424 315.805 326.767 333.674 320.654C337.988 319.473 341.943 317.242 345.184 314.16C349.886 309.077 350.491 301.441 350.312 294.477C350.065 285.52 348.946 273.383 345.833 264.941L345.99 265.165C347.47 267.546 348.644 270.104 349.483 272.778C349.875 274.188 350.392 275.559 351.028 276.876L351.834 277.929C352.081 278.511 352.35 279.048 352.596 279.63C358.172 292.125 361.665 304.307 357.231 317.81Z" fill="#F85C55"/>
</g>
<path d="M405.688 381.986C405.635 382.079 405.567 382.162 405.486 382.233C404.501 383.308 402.71 383.196 401.389 383.621C399.62 384.181 397.806 384.674 395.97 385.077C392.428 385.912 388.792 386.281 385.154 386.174C376.197 385.838 367.643 382.121 359.246 378.784C355.529 377.291 351.797 375.873 348.05 374.53C339.929 371.544 331.718 368.954 323.418 366.76C319.275 365.618 315.065 364.52 310.878 363.625C304.854 362.236 294.755 360.736 289.135 358.161C283.514 355.586 282.305 351.712 279.775 346.069C278.796 344.126 278.474 341.918 278.857 339.777C279.349 337.649 276.192 335.947 278.364 335.791C279.596 335.791 278.364 335.365 279.506 335.791C302.75 344.748 332.979 344.636 358.91 346.629C363.284 346.942 367.762 347.375 372.345 347.927L374.025 348.129C380.093 348.935 386.453 345.89 392.23 347.95C398.545 350.189 403.023 356.145 405.128 362.483C406.06 365.749 406.461 369.143 406.315 372.537C406.315 374.283 406.315 376.052 406.315 377.799C406.578 379.226 406.357 380.699 405.688 381.986Z" fill="#F9B485"/>
<g style="mix-blend-mode:multiply" opacity="0.49">
<path d="M374.629 352.205C373.779 353.059 372.832 353.81 371.808 354.444C367.962 357.696 364.341 361.205 360.97 364.946C357.138 369.207 353.663 373.775 350.58 378.606C350.522 378.663 350.477 378.732 350.445 378.807C342.324 375.821 334.114 373.224 325.813 371.014C328.971 366.11 334.345 363.177 339.495 360.468C346.383 356.466 353.699 353.251 361.306 350.884C363.621 350.253 365.978 349.789 368.359 349.495C369.972 349.316 373.554 348.555 374.719 350.234C374.936 350.522 375.046 350.876 375.029 351.236C375.013 351.595 374.871 351.938 374.629 352.205Z" fill="#FFCBA1"/>
</g>
<path d="M213.203 288.005C223.369 309.457 231.117 331.917 241.955 353.078C247.14 363.674 253.437 373.687 260.742 382.95C263.653 386.51 266.676 391.571 270.617 393.832C275.857 396.833 283.694 395.333 289.158 393.944C302.06 390.285 314.45 385.019 326.039 378.27C330.316 376.03 334.996 374.44 339.161 372.044C343.93 369.268 348.677 366.491 353.492 363.759C358.306 361.027 363.591 358.072 368.674 355.295C372.548 353.168 377.631 348.823 381.998 348.398C382.664 348.429 383.325 348.265 383.901 347.928C385.827 346.383 383.363 343.337 382.042 342.419L379.064 340.359C377.643 339.283 376.093 338.388 374.451 337.694C368.898 335.634 364.554 338.456 359.291 339.934C347.513 343.449 334.884 344.994 322.792 347.368C310.1 349.913 297.215 351.374 284.276 351.734C282.968 351.904 281.64 351.645 280.492 350.995C279.451 350.035 278.771 348.747 278.566 347.346C276.327 338.859 249.21 278.869 239.626 268.972C230.813 274.445 222.654 280.906 215.308 288.229" fill="#FCD6B1"/>
<g style="mix-blend-mode:multiply">
<g style="mix-blend-mode:multiply">
<path d="M276.662 234.666C283.156 238.719 294.756 244.452 302.548 240.443C306.87 238.204 308.034 233.435 309.266 229.247C309.512 228.441 308.348 228.172 308.034 228.911C306.556 232.539 305.683 236.928 301.944 238.943C294.509 242.996 283.716 236.525 276.953 233.972C276.483 233.77 276.214 234.509 276.618 234.756L276.662 234.666Z" fill="#F7B228"/>
</g>
</g>
<path d="M260.293 301.732C260.357 301.378 260.294 301.013 260.114 300.702L243.969 268.747C240.614 261.55 236.604 254.676 231.989 248.213C228.854 244.116 224.645 239.816 219.158 241.496C213.672 243.175 209.776 248.684 208.432 254.573C207.397 260.505 207.457 266.577 208.611 272.487C209.574 279.361 212.933 316.757 219.808 317.63C222.047 317.921 227.332 313.712 229.481 312.682C232.885 311.024 236.348 309.532 239.871 308.203C243.395 306.874 246.947 305.665 250.53 304.575C252.254 304.083 254.023 303.68 255.77 303.232C257.091 302.896 259.958 302.963 260.293 301.732Z" fill="#F7B228"/>
<path d="M265.6 221.275C269.378 257.963 283.871 292.728 307.273 321.235C307.765 321.818 308.773 321.056 308.325 320.429C297.504 305.524 288.323 289.495 280.939 272.621C274.304 256.021 269.476 238.753 266.541 221.119C266.541 220.603 265.555 220.715 265.6 221.253V221.275Z" fill="#333333"/>
<path d="M307.541 221.32C309.605 238.477 310.808 255.725 311.147 273.002C311.147 281.646 310.803 290.282 310.116 298.91C309.445 307.509 307.877 316.085 307.519 324.684C307.526 324.794 307.571 324.898 307.646 324.978C307.721 325.058 307.822 325.109 307.931 325.122C308.04 325.136 308.151 325.11 308.243 325.051C308.336 324.991 308.404 324.901 308.437 324.796C312.916 308.449 313.028 289.841 312.916 273.002C313.149 255.624 311.543 238.27 308.124 221.231C308.105 221.159 308.062 221.096 308.004 221.05C307.945 221.005 307.873 220.981 307.799 220.981C307.725 220.981 307.653 221.005 307.594 221.05C307.535 221.096 307.493 221.159 307.474 221.231L307.541 221.32Z" fill="#333333"/>
<path d="M326.225 315.478L291.294 318.553C289.717 318.692 288.551 320.083 288.69 321.659L290.592 343.274C290.731 344.851 292.122 346.017 293.699 345.878L328.63 342.804C330.207 342.665 331.373 341.274 331.234 339.697L329.332 318.082C329.193 316.505 327.802 315.34 326.225 315.478Z" fill="white"/>
<path d="M323.225 319.182L294.918 321.674C293.341 321.812 292.176 323.203 292.314 324.78L293.612 339.524C293.751 341.101 295.142 342.267 296.719 342.128L325.025 339.637C326.602 339.498 327.768 338.107 327.629 336.53L326.331 321.786C326.193 320.209 324.802 319.043 323.225 319.182Z" fill="#EAEAEA"/>
<path d="M240.61 154.255C239.664 154.754 238.887 155.523 238.377 156.463C237.867 157.403 237.647 158.474 237.744 159.539C237.774 160.586 238.121 161.6 238.742 162.444C239.362 163.288 240.225 163.923 241.215 164.264C241.528 164.264 241.887 163.973 241.663 163.659C240.722 162.316 239.424 161.42 239.132 159.696C239.038 158.792 239.159 157.878 239.486 157.029C239.813 156.181 240.337 155.422 241.013 154.814C241.062 154.753 241.089 154.678 241.091 154.6C241.093 154.522 241.07 154.445 241.024 154.382C240.978 154.318 240.913 154.272 240.839 154.249C240.764 154.226 240.684 154.228 240.61 154.255Z" fill="#E59E6E"/>
<path d="M301.541 158.531C302.482 155.374 303.288 147.335 308.259 148.298C312.737 149.104 312.737 155.508 313.611 158.89C313.902 160.076 315.469 159.673 315.604 158.621C316.163 153.739 313.364 145.633 307.363 145.857C301.81 146.081 299.481 154.053 300.645 158.531C300.677 158.631 300.739 158.719 300.824 158.781C300.908 158.843 301.011 158.877 301.116 158.877C301.221 158.877 301.323 158.843 301.407 158.781C301.492 158.719 301.555 158.631 301.586 158.531H301.541Z" fill="#68411D"/>
<path d="M266.362 160.01C267.302 156.852 268.131 148.813 273.079 149.776C278.028 150.739 277.558 156.987 278.431 160.368C278.722 161.577 280.312 161.174 280.424 160.099C281.006 155.218 278.185 147.111 272.206 147.358C266.63 147.582 264.302 155.553 265.488 160.01C265.512 160.114 265.57 160.207 265.653 160.274C265.737 160.341 265.84 160.378 265.947 160.378C266.054 160.378 266.158 160.341 266.242 160.274C266.325 160.207 266.383 160.114 266.406 160.01H266.362Z" fill="#68411D"/>
<path d="M276.729 164.757C276.729 166.996 272.049 168.922 266.272 168.922C260.494 168.922 255.792 167.063 255.792 164.757C255.792 162.45 260.472 160.592 266.272 160.592C272.071 160.592 276.729 162.45 276.729 164.757Z" fill="#FCC2A2"/>
<path d="M231.206 166.906C231.698 178.259 217.569 180.991 211.948 188.694C207.47 194.785 207.962 202.264 208.41 209.43C209.104 220.312 207.873 230.232 198.849 237.622C192.624 242.727 186.667 245.549 188.011 254.797C188.083 255.062 188.241 255.295 188.46 255.462C188.678 255.629 188.945 255.719 189.22 255.719C189.495 255.719 189.762 255.629 189.98 255.462C190.199 255.295 190.356 255.062 190.429 254.797C190.922 251.662 190.966 248.281 193.116 245.683C194.959 243.951 197.004 242.448 199.207 241.205C202.545 238.795 205.375 235.751 207.537 232.248C212.015 224.858 211.792 217.065 211.097 208.713C210.503 204.561 210.594 200.34 211.366 196.218C212.777 190.486 216.763 187.015 221.465 183.857C227.757 179.625 234.005 175.147 232.661 166.749C232.661 165.921 231.161 166.122 231.183 166.951L231.206 166.906Z" fill="#392A51"/>
<path d="M242.469 190.777C241.214 195.083 239.188 199.127 236.491 202.712C234.376 204.884 232.555 207.323 231.072 209.967C228.183 216.259 231.072 223.761 229.616 230.411C229.556 230.634 229.577 230.872 229.677 231.08C229.777 231.289 229.949 231.454 230.161 231.547C230.373 231.639 230.611 231.652 230.831 231.583C231.052 231.515 231.241 231.369 231.363 231.173C236.312 224.612 230.176 215.767 235.013 208.646C238.887 202.958 244.194 198.502 243.835 190.956C243.837 190.787 243.776 190.623 243.664 190.495C243.553 190.368 243.399 190.285 243.232 190.263C243.064 190.241 242.894 190.281 242.753 190.376C242.613 190.47 242.512 190.613 242.469 190.777Z" fill="#392A51"/>
<path d="M301.72 140.662C304.011 139.928 306.43 139.676 308.823 139.923C311.216 140.17 313.533 140.909 315.626 142.095C316.141 142.364 316.723 141.692 316.275 141.267C314.276 139.48 311.753 138.386 309.082 138.148C306.411 137.91 303.735 138.54 301.451 139.946C301.387 139.998 301.342 140.07 301.323 140.151C301.303 140.231 301.31 140.316 301.343 140.391C301.376 140.467 301.433 140.53 301.505 140.571C301.577 140.612 301.66 140.628 301.742 140.617L301.72 140.662Z" fill="#68411D"/>
<path d="M260.472 318.996C260.162 318.747 259.791 318.585 259.398 318.526C259.002 318.555 258.633 318.737 258.369 319.034C258.105 319.331 257.968 319.719 257.987 320.116C258.055 320.935 258.367 321.715 258.883 322.355C260.478 324.685 262.376 326.794 264.525 328.625C260.689 328.796 256.851 328.319 253.172 327.214C252.459 326.939 251.698 326.809 250.933 326.834C250.547 326.87 250.184 327.036 249.904 327.304C249.624 327.573 249.442 327.927 249.388 328.312C249.443 328.884 249.715 329.413 250.15 329.79C251.181 330.879 252.422 331.748 253.8 332.342C253.089 332.057 252.324 331.934 251.56 331.984C251.17 332.012 250.798 332.164 250.5 332.417C250.202 332.671 249.993 333.014 249.903 333.395C249.746 334.38 250.664 335.164 251.493 335.634C254.497 337.569 257.805 338.984 261.279 339.821C260.39 339.577 259.462 339.509 258.547 339.62C258.092 339.683 257.668 339.885 257.331 340.197C256.995 340.509 256.762 340.918 256.666 341.367C256.487 342.576 257.606 343.606 258.681 344.121C261.734 345.231 264.905 345.982 268.131 346.36C272.675 347.813 277.118 349.563 281.432 351.6C281.686 351.737 281.971 351.809 282.26 351.809C282.55 351.809 282.834 351.737 283.089 351.6C283.33 351.39 283.495 351.107 283.559 350.794C283.766 350.029 283.793 349.226 283.637 348.449C283.482 347.672 283.149 346.942 282.663 346.315C282.174 345.828 281.732 345.295 281.342 344.725C280.874 343.328 280.676 341.853 280.76 340.381C279.237 329.319 268.377 324.684 260.472 318.996Z" fill="#F9B485"/>
<path d="M454.75 107.185C448.06 99.5143 439.247 93.9974 429.424 91.3314C425.328 90.191 421.151 89.3675 416.929 88.8683C395.253 86.2036 370.241 92.4287 361.418 114.754C359.444 119.517 358.512 124.648 358.686 129.802C357.701 130.541 356.738 131.683 355.909 132.422L354.14 134.012C353.849 134.28 352.752 134.93 352.864 135.467C352.976 136.005 354.006 136.161 354.476 136.34L357.298 137.348L360.634 138.535C362.656 143.334 366.083 147.409 370.464 150.224C384.639 159.673 402.911 160.883 419.728 158.173C430.611 156.404 441.494 152.844 450.092 145.678C455.484 141.401 459.304 135.454 460.953 128.772C461.64 124.939 461.438 120.999 460.363 117.257C459.287 113.514 457.367 110.069 454.75 107.185Z" fill="white"/>
<path d="M513.508 129.175C513.883 162.477 519.879 195.478 531.243 226.784C542.797 257.909 561.854 285.475 570.43 317.765C570.833 319.31 572.96 318.616 572.669 317.115C570.43 301.754 563.399 287.356 556.435 273.674C548.438 258.79 541.211 243.506 534.781 227.881C522.456 196.364 515.536 162.994 514.314 129.175C514.314 128.615 513.418 128.615 513.441 129.175H513.508Z" fill="#E1E2FF"/>
<path d="M369.547 67.6401C369.551 69.5287 368.995 71.3761 367.948 72.9483C366.902 74.5204 365.412 75.7465 363.668 76.4713C361.924 77.1961 360.004 77.3869 358.152 77.0195C356.299 76.6522 354.598 75.7432 353.262 74.4078C351.927 73.0723 351.018 71.3705 350.65 69.518C350.283 67.6655 350.474 65.7457 351.199 64.0017C351.923 62.2577 353.15 60.7681 354.722 59.7216C356.294 58.6752 358.141 58.1189 360.03 58.1233C362.554 58.1233 364.974 59.126 366.759 60.9107C368.544 62.6955 369.547 65.1161 369.547 67.6401Z" fill="white"/>
<path d="M129.992 249.983C129.996 251.871 129.44 253.717 128.395 255.289C127.349 256.86 125.861 258.087 124.118 258.812C122.376 259.537 120.457 259.729 118.605 259.364C116.753 258.998 115.051 258.092 113.715 256.758C112.379 255.425 111.468 253.726 111.098 251.875C110.728 250.024 110.916 248.104 111.637 246.36C112.358 244.616 113.581 243.124 115.15 242.075C116.719 241.026 118.565 240.466 120.452 240.466C121.704 240.463 122.944 240.707 124.101 241.184C125.258 241.661 126.31 242.362 127.196 243.246C128.082 244.13 128.785 245.18 129.265 246.336C129.745 247.492 129.992 248.731 129.992 249.983Z" fill="#F7B228"/>
<path d="M71.8825 325.647C77.1385 325.647 81.3994 321.387 81.3994 316.131C81.3994 310.875 77.1385 306.614 71.8825 306.614C66.6266 306.614 62.3657 310.875 62.3657 316.131C62.3657 321.387 66.6266 325.647 71.8825 325.647Z" fill="white"/>
<path d="M137.582 185.962C137.582 187.45 137.141 188.905 136.314 190.142C135.488 191.379 134.313 192.344 132.938 192.913C131.563 193.483 130.05 193.632 128.591 193.341C127.131 193.051 125.791 192.335 124.738 191.282C123.686 190.23 122.97 188.889 122.679 187.43C122.389 185.97 122.538 184.458 123.107 183.083C123.677 181.708 124.641 180.533 125.879 179.706C127.116 178.88 128.57 178.438 130.059 178.438C131.047 178.435 132.027 178.628 132.941 179.005C133.855 179.382 134.686 179.936 135.385 180.635C136.085 181.335 136.639 182.165 137.016 183.079C137.393 183.994 137.585 184.973 137.582 185.962Z" fill="#7970E5"/>
<path d="M418.451 207.123C423.707 207.123 427.968 202.862 427.968 197.606C427.968 192.35 423.707 188.09 418.451 188.09C413.195 188.09 408.935 192.35 408.935 197.606C408.935 202.862 413.195 207.123 418.451 207.123Z" fill="#7970E5"/>
<path d="M496.826 361.542C496.821 363.423 496.259 365.261 495.211 366.823C494.162 368.385 492.675 369.601 490.935 370.318C489.196 371.035 487.283 371.22 485.438 370.851C483.594 370.481 481.9 369.573 480.572 368.241C479.243 366.909 478.339 365.213 477.973 363.368C477.608 361.522 477.798 359.61 478.519 357.872C479.24 356.135 480.459 354.65 482.024 353.605C483.588 352.56 485.428 352.003 487.309 352.003C488.56 352.003 489.8 352.25 490.956 352.729C492.112 353.209 493.162 353.912 494.046 354.798C494.93 355.684 495.631 356.736 496.108 357.893C496.585 359.05 496.829 360.29 496.826 361.542Z" fill="white"/>
<path d="M399.374 179.939C399.378 180.874 399.105 181.79 398.589 182.57C398.072 183.35 397.336 183.959 396.473 184.32C395.61 184.681 394.659 184.778 393.741 184.598C392.823 184.418 391.979 183.97 391.316 183.31C390.653 182.65 390.201 181.808 390.017 180.891C389.833 179.974 389.925 179.023 390.282 178.158C390.639 177.294 391.244 176.554 392.022 176.034C392.799 175.514 393.714 175.236 394.649 175.236C395.269 175.233 395.882 175.353 396.456 175.588C397.029 175.823 397.55 176.169 397.989 176.606C398.428 177.043 398.776 177.562 399.014 178.134C399.252 178.706 399.374 179.319 399.374 179.939Z" fill="white"/>
<path d="M96.6044 360.288C96.6088 361.225 96.3349 362.141 95.8174 362.922C95.3 363.702 94.5623 364.311 93.698 364.672C92.8338 365.032 91.8819 365.127 90.9633 364.946C90.0447 364.764 89.2008 364.314 88.5386 363.652C87.8765 362.99 87.4261 362.146 87.2445 361.227C87.0629 360.308 87.1583 359.357 87.5187 358.492C87.8791 357.628 88.4882 356.89 89.2686 356.373C90.049 355.855 90.9656 355.582 91.9019 355.586C93.1491 355.586 94.3452 356.081 95.2271 356.963C96.1089 357.845 96.6044 359.041 96.6044 360.288Z" fill="#F7B228"/>
<path d="M488.765 315.861C488.769 316.797 488.496 317.713 487.979 318.492C487.463 319.272 486.726 319.881 485.863 320.243C485 320.604 484.05 320.7 483.132 320.521C482.214 320.341 481.37 319.893 480.707 319.233C480.044 318.573 479.592 317.731 479.407 316.814C479.223 315.897 479.316 314.946 479.672 314.081C480.029 313.216 480.635 312.477 481.412 311.957C482.19 311.437 483.104 311.159 484.04 311.159C484.659 311.156 485.273 311.275 485.846 311.51C486.419 311.745 486.94 312.091 487.379 312.528C487.818 312.965 488.167 313.485 488.405 314.057C488.642 314.629 488.765 315.242 488.765 315.861Z" fill="white"/>
<path d="M404.502 225.664C404.502 226.599 404.225 227.512 403.706 228.289C403.186 229.066 402.449 229.672 401.585 230.029C400.722 230.387 399.772 230.48 398.855 230.298C397.939 230.116 397.097 229.666 396.436 229.005C395.775 228.344 395.325 227.502 395.143 226.586C394.961 225.669 395.054 224.719 395.412 223.856C395.77 222.993 396.375 222.255 397.152 221.736C397.929 221.216 398.843 220.939 399.777 220.939C400.398 220.936 401.014 221.056 401.589 221.293C402.163 221.529 402.685 221.877 403.125 222.317C403.564 222.756 403.912 223.278 404.148 223.852C404.385 224.427 404.505 225.043 404.502 225.664Z" fill="#F7B228"/>
<path d="M540.939 345.397C540.939 346.328 540.663 347.237 540.146 348.01C539.629 348.783 538.895 349.386 538.036 349.742C537.176 350.098 536.231 350.191 535.319 350.01C534.407 349.828 533.569 349.38 532.911 348.723C532.253 348.065 531.805 347.227 531.624 346.315C531.443 345.403 531.536 344.457 531.892 343.598C532.248 342.739 532.85 342.004 533.624 341.488C534.397 340.971 535.306 340.695 536.236 340.695C537.483 340.695 538.679 341.19 539.561 342.072C540.443 342.954 540.939 344.15 540.939 345.397Z" fill="#7970E5"/>
<path d="M80.7053 225.149C80.7141 226.087 80.4435 227.007 79.9277 227.791C79.412 228.575 78.6745 229.187 77.8094 229.55C76.9442 229.914 75.9905 230.011 75.0698 229.83C74.1492 229.649 73.3032 229.198 72.6397 228.535C71.9763 227.871 71.5254 227.025 71.3445 226.105C71.1636 225.184 71.261 224.23 71.6241 223.365C71.9873 222.5 72.5998 221.763 73.3836 221.247C74.1674 220.731 75.087 220.46 76.0253 220.469C77.2629 220.481 78.4465 220.978 79.3216 221.853C80.1968 222.728 80.6936 223.912 80.7053 225.149Z" fill="white"/>
<path d="M469.261 304.083C471.858 304.083 473.963 301.978 473.963 299.381C473.963 296.784 471.858 294.678 469.261 294.678C466.664 294.678 464.559 296.784 464.559 299.381C464.559 301.978 466.664 304.083 469.261 304.083Z" fill="#F7B228"/>
<path d="M350.625 278.516L328.94 281.236C327.688 281.393 326.801 282.535 326.958 283.787L327.672 289.475C327.829 290.726 328.971 291.614 330.222 291.457L351.907 288.736C353.159 288.579 354.046 287.438 353.889 286.186L353.176 280.498C353.019 279.246 351.877 278.359 350.625 278.516Z" fill="#8C5C07"/>
<path d="M439.433 435.639H175.829C174.047 435.639 172.338 434.931 171.078 433.672C169.819 432.412 169.111 430.703 169.111 428.921C169.111 427.14 169.819 425.431 171.078 424.171C172.338 422.911 174.047 422.204 175.829 422.204H439.433C441.215 422.204 442.924 422.911 444.184 424.171C445.443 425.431 446.151 427.14 446.151 428.921C446.151 430.703 445.443 432.412 444.184 433.672C442.924 434.931 441.215 435.639 439.433 435.639Z" fill="#8C5C07"/>
<g style="mix-blend-mode:multiply">
<g style="mix-blend-mode:multiply">
<path d="M350.2 427.331C376.511 427.936 403.203 429.571 429.514 428.608C429.585 428.608 429.654 428.579 429.704 428.529C429.754 428.479 429.783 428.41 429.783 428.339C429.783 428.268 429.754 428.199 429.704 428.149C429.654 428.099 429.585 428.07 429.514 428.07C403.27 426.122 376.488 426.816 350.2 426.928C350.146 426.928 350.095 426.95 350.057 426.987C350.019 427.025 349.998 427.076 349.998 427.13C349.998 427.183 350.019 427.235 350.057 427.272C350.095 427.31 350.146 427.331 350.2 427.331Z" fill="#8C5C07"/>
</g>
</g>
<g style="mix-blend-mode:multiply">
<g style="mix-blend-mode:multiply">
<path d="M188.458 432.235C214.791 432.84 241.461 434.474 267.794 433.534C267.866 433.534 267.934 433.506 267.984 433.455C268.035 433.405 268.063 433.337 268.063 433.265C268.063 433.194 268.035 433.126 267.984 433.075C267.934 433.025 267.866 432.997 267.794 432.997C241.55 431.048 214.769 431.72 188.458 431.855C188.418 431.868 188.384 431.894 188.36 431.928C188.335 431.962 188.322 432.003 188.322 432.045C188.322 432.087 188.335 432.128 188.36 432.162C188.384 432.196 188.418 432.222 188.458 432.235Z" fill="#8C5C07"/>
</g>
</g>
<g style="mix-blend-mode:multiply">
<g style="mix-blend-mode:multiply">
<path d="M197.908 429.1C224.219 429.705 250.911 431.34 277.222 430.377C277.294 430.377 277.362 430.348 277.412 430.298C277.463 430.248 277.491 430.179 277.491 430.108C277.491 430.037 277.463 429.968 277.412 429.918C277.362 429.868 277.294 429.839 277.222 429.839C250.978 427.891 224.197 428.585 197.908 428.72C197.878 428.709 197.845 428.706 197.813 428.711C197.781 428.715 197.751 428.727 197.725 428.746C197.699 428.764 197.677 428.789 197.663 428.818C197.648 428.846 197.64 428.878 197.64 428.91C197.64 428.942 197.648 428.974 197.663 429.003C197.677 429.031 197.699 429.056 197.725 429.074C197.751 429.093 197.781 429.105 197.813 429.11C197.845 429.114 197.878 429.111 197.908 429.1Z" fill="#8C5C07"/>
</g>
</g>
<g style="mix-blend-mode:multiply">
<g style="mix-blend-mode:multiply">
<path d="M292.404 430.108C318.738 430.713 345.429 432.347 371.741 431.384C371.812 431.384 371.88 431.356 371.931 431.306C371.981 431.255 372.009 431.187 372.009 431.116C372.009 431.044 371.981 430.976 371.931 430.926C371.88 430.875 371.812 430.847 371.741 430.847C345.497 428.899 318.715 429.571 292.404 429.705C292.158 429.705 292.158 430.086 292.404 430.108Z" fill="#8C5C07"/>
</g>
</g>
<g style="mix-blend-mode:multiply">
<g style="mix-blend-mode:multiply">
<path d="M250.082 426.481C276.416 427.063 303.085 428.72 329.419 427.757C329.49 427.757 329.558 427.729 329.609 427.678C329.659 427.628 329.688 427.56 329.688 427.488C329.688 427.417 329.659 427.349 329.609 427.298C329.558 427.248 329.49 427.22 329.419 427.22C303.175 425.272 276.393 425.943 250.082 426.078C249.836 426.078 249.836 426.458 250.082 426.481Z" fill="#8C5C07"/>
</g>
</g>
<path d="M24.9032 276.45C19.8028 298.477 19.9947 321.399 25.463 343.337C30.7253 364.296 40.7571 387.361 56.8126 402.453C57.5067 403.125 58.8055 402.229 58.2009 401.378C51.8026 392.944 45.9249 384.128 40.6004 374.978C24.6498 344.875 19.6476 310.168 26.4483 276.786C26.6499 275.779 25.1272 275.353 24.9032 276.361V276.45Z" fill="white"/>
<path d="M508.358 94.2654C509.302 99.7502 509.855 105.295 510.015 110.858C510.045 111.029 510.134 111.184 510.267 111.296C510.4 111.408 510.569 111.469 510.742 111.469C510.916 111.469 511.084 111.408 511.217 111.296C511.35 111.184 511.44 111.029 511.47 110.858C511.656 105.16 510.9 99.4704 509.231 94.019C509.198 93.8914 509.116 93.7819 509.003 93.7147C508.889 93.6475 508.754 93.6281 508.626 93.6608C508.499 93.6934 508.389 93.7755 508.322 93.8889C508.255 94.0023 508.235 94.1377 508.268 94.2654H508.358Z" fill="#E1E2FF"/>
<path d="M202.253 109.783C201.833 110.347 201.452 110.938 201.111 111.552C200.304 113.164 199.68 114.862 199.252 116.613C197.013 124.629 194.214 130.608 185.369 132.556C179.368 133.877 171.933 132.422 168.933 126.421C167.4 122.75 167.28 118.642 168.597 114.889C170.803 107.851 175.127 101.665 180.98 97.1761C186.811 92.7078 193.459 89.4218 200.551 87.5025C201.351 87.231 202.192 87.1022 203.036 87.1218C203.973 87.2274 204.859 87.6005 205.589 88.1967C206.868 89.2408 207.87 90.5838 208.506 92.1068C209.143 93.6299 209.394 95.2863 209.239 96.9298C208.914 100.226 207.603 103.347 205.477 105.887C204.447 107.208 203.26 108.507 202.253 109.783Z" fill="#E1E2FF"/>
<path d="M214.523 72.4099C212.888 75.4329 210.291 77.2915 210.358 80.7399C210.358 85.2184 214.836 90.0328 219.315 87.7712C220.795 86.971 222.032 85.7877 222.898 84.3451C223.806 83.0142 224.416 81.503 224.686 79.9146C224.957 78.3263 224.881 76.6983 224.465 75.1418C223.166 71.1111 216.561 67.2372 214.187 72.4995" fill="#E1E2FF"/>
</svg>
