<svg width="100" height="80" viewBox="0 0 95 77" fill="none" xmlns="http://www.w3.org/2000/svg">
<g clip-path="url(#clip0)">
<path opacity="0.1" d="M84.9365 42.1132C81.4817 47.9729 82.0299 55.8976 83.4501 62.1329C83.9256 64.2206 84.4757 66.4239 84.0238 68.7719C83.4711 71.6432 81.5464 73.9155 79.6094 75.2239C76.0784 77.609 72.0765 77.5907 69.1905 75.1762C66.6965 73.0896 65.0798 69.4194 62.5315 67.4468C58.267 64.1457 52.3484 66.2475 47.1901 69.441C43.5408 71.7003 39.5211 74.556 36.1902 73.0064C33.8465 71.916 32.4121 68.7771 31.764 65.3508C31.4512 63.6965 31.2714 61.8879 30.5258 60.6331C30.0825 59.8872 29.4667 59.392 28.8279 58.9879C22.9946 55.2987 15.0126 58.5358 9.39391 54.3472C5.59922 51.5184 3.48886 45.6091 2.84416 39.2704C2.19945 32.9318 2.86114 26.1333 3.67119 19.438C4.24685 14.6799 5.01196 9.58309 7.40589 5.68938C9.93834 1.57036 13.8801 -0.302023 17.2846 0.0394976C20.6891 0.381018 23.623 2.64326 26.1434 5.41403C29.2934 8.87689 32.1193 13.3135 36.2336 14.3939C39.0354 15.1296 42.1151 14.2033 45.1059 13.6639C50.1058 12.7622 55.0232 12.9459 59.9056 13.2041C64.5797 13.4513 69.2818 13.7735 73.6209 15.4701C76.6915 16.6708 79.0299 19.2177 81.89 20.8577C83.7543 21.9268 85.8691 22.0402 87.6013 23.4748C89.7352 25.2419 91.5617 28.5298 90.6533 32.723C89.7897 36.7097 86.7701 39.0031 84.9365 42.1132Z" fill="#33CAFF"/>
<path d="M15.2156 39.7263C15.2156 39.7263 22.7945 41.1612 28.2584 33.6278C28.2584 33.6278 23.6758 29.054 20.5032 30.0405C17.3307 31.027 15.2156 36.8564 15.2156 36.8564V39.7263Z" fill="#33CAFF"/>
<path opacity="0.1" d="M15.2156 39.7263C15.2156 39.7263 22.7945 41.1612 28.2584 33.6278C28.2584 33.6278 23.6758 29.054 20.5032 30.0405C17.3307 31.027 15.2156 36.8564 15.2156 36.8564V39.7263Z" fill="black"/>
<path d="M18.6526 33.6278L26.4077 49.8605L28.2584 48.874L20.2388 33.6278H18.6526Z" fill="#504F60"/>
<path d="M28.2584 33.6278C26.8539 33.6421 25.4563 33.8315 24.0971 34.1919C22.2216 34.6955 20.4385 35.5041 18.8165 36.5865C16.4714 38.1407 15.2156 39.7263 15.2156 39.7263C9.62393 29.7248 10.8745 11.6823 10.9793 10.3039V10.303C10.9811 10.2814 10.982 10.2635 10.9829 10.251C10.9846 10.2303 10.9855 10.2205 10.9855 10.2205C14.6868 10.2205 28.2584 33.6278 28.2584 33.6278Z" fill="#33CAFF"/>
<path d="M94.8358 53.0703L86.2461 55.4209C86.2461 55.4209 73.027 55.6899 68.4444 59.7257C63.8618 63.7614 50.5546 63.313 50.2021 63.313C49.8496 63.313 44.9144 58.9185 35.9255 63.4924C26.9365 68.0662 16.185 65.1964 16.185 65.1964C16.185 65.1964 4.99284 69.9496 1.82026 68.3353C-1.35232 66.721 0.586479 64.5686 0.586479 64.5686C0.586479 64.5686 7.10789 59.4566 2.08464 53.8066C-2.93861 48.1565 2.96591 48.1565 2.96591 48.1565H19.9559C21.3426 48.1696 22.711 47.8348 23.9402 47.1817C25.2674 46.4597 26.829 46.6902 27.8742 46.9942C28.7779 47.2556 29.7276 47.3077 30.6537 47.1467C39.1818 45.675 44.6236 46.0965 46.885 46.4176C47.8261 46.5501 48.7789 46.5738 49.7253 46.4884C52.6071 46.2328 58.5874 45.6902 61.8349 45.2974C62.7285 45.1898 63.415 45.0938 63.7736 45.0176C64.7783 44.8042 69.5213 45.7449 74.3189 47.0032C79.6207 48.3924 84.9903 50.1699 85.4529 51.2058C86.091 52.6335 91.7144 52.699 94.7732 52.6263C94.8274 52.6252 94.8802 52.6443 94.9215 52.68C94.9628 52.7157 94.9899 52.7655 94.9976 52.8201C95.0053 52.8747 94.9931 52.9303 94.9633 52.9764C94.9335 53.0225 94.8881 53.0559 94.8358 53.0703Z" fill="#EED1D7"/>
<path d="M61.3942 59.636L59.2792 60.0844C59.2792 60.0844 50.9071 55.5105 49.7614 57.0351" fill="#CCB2BB"/>
<path d="M59.2792 46.5422C59.2792 46.5422 45.7076 43.762 40.0675 47.0803L59.2792 46.5422Z" fill="#CCB2BB"/>
<path opacity="0.1" d="M49.0679 51.5382C49.0679 51.5382 45.6748 50.1267 45.8234 50.9333C45.972 51.7398 47.7057 52.5463 47.7057 52.5463C47.7057 52.5463 44.2879 52.2439 44.4365 53.4537C44.4365 53.4537 48.3497 53.3529 48.2011 54.2602C48.0525 55.1676 48.2011 56.3774 48.845 56.1253C49.4889 55.8733 49.8852 52.9496 51.6189 54.361C53.3526 55.7725 53.1049 52.8992 50.975 52.6471C50.975 52.6471 52.1142 51.7902 52.0152 51.3869C51.9161 50.9837 49.0679 51.5382 49.0679 51.5382Z" fill="black"/>
<path d="M49.0184 51.3869C49.0184 51.3869 45.6253 49.9755 45.7739 50.782C45.9225 51.5886 47.6562 52.3951 47.6562 52.3951C47.6562 52.3951 44.2384 52.0926 44.387 53.3024C44.387 53.3024 48.3001 53.2016 48.1515 54.109C48.0029 55.0163 48.1515 56.2261 48.7955 55.9741C49.4394 55.7221 49.8357 52.7984 51.5694 54.2098C53.3031 55.6212 53.0554 52.7479 50.9254 52.4959C50.9254 52.4959 52.0647 51.639 51.9656 51.2357C51.8666 50.8324 49.0184 51.3869 49.0184 51.3869Z" fill="#F89898"/>
<path d="M75.4064 54.1653C75.4064 54.1653 70.5594 52.6407 70.1188 52.9098L75.4064 54.1653Z" fill="#CCB2BB"/>
<path d="M37.7761 55.5105C37.7761 55.5105 44.2976 53.6272 46.7651 55.0621L37.7761 55.5105Z" fill="#CCB2BB"/>
<path d="M48.5717 47.8426C48.5717 47.8426 50.3343 42.5513 53.8594 43.6275C57.3844 44.7037 60.0283 47.4839 60.0283 47.4839L48.5717 48.3807V47.8426Z" fill="#EED1D7"/>
<path d="M10.2364 53.7617C10.2364 53.7617 12.9684 54.9276 17.551 54.4792C22.1336 54.0308 25.7468 56.811 25.7468 56.811" fill="#CCB2BB"/>
<g opacity="0.05">
<path opacity="0.05" d="M21.3321 32.2614C21.3543 32.2243 21.3645 32.1814 21.3615 32.1384C21.3483 32.1785 21.3385 32.2197 21.3321 32.2614Z" fill="url(#paint0_linear)"/>
</g>
<g opacity="0.05">
<path opacity="0.05" d="M21.3321 32.1996C21.3543 32.1626 21.3645 32.1197 21.3615 32.0767C21.3483 32.1168 21.3385 32.1579 21.3321 32.1996Z" fill="url(#paint1_linear)"/>
</g>
<g opacity="0.05">
<path opacity="0.05" d="M26.5409 47.6939C26.3498 47.7771 25.8948 48.2133 25.3046 48.8391C25.1172 47.583 24.9957 46.4501 25.0743 45.979C25.081 45.9086 25.1049 45.841 25.1439 45.7824C25.4982 45.7577 26.2176 46.659 26.7924 47.4737C26.6332 47.6035 26.5409 47.6939 26.5409 47.6939Z" fill="url(#paint2_linear)"/>
</g>
<path d="M35.9582 53.1919C35.9582 53.1919 39.0469 59.4179 39.8191 59.6597C40.5913 59.9015 41.1259 59.5388 41.1259 59.5388C41.1259 59.5388 47.5409 58.3299 46.3529 59.7202C45.1649 61.1105 34.7702 60.2642 34.7702 60.2642L32.1567 54.2799L35.9582 53.1919Z" fill="#EF91A3"/>
<path opacity="0.1" d="M27.1079 53.3128C27.1079 53.3128 32.0973 49.9278 33.4635 49.9278C33.4635 49.9278 35.483 49.2629 36.671 53.8569C36.671 53.8569 32.5725 54.5822 32.6319 56.577L31.8597 54.8845L28.5334 58.6322L24.4944 55.8516L27.1079 53.3128Z" fill="black"/>
<path d="M27.1079 53.192C27.1079 53.192 32.0973 49.8069 33.4635 49.8069C33.4635 49.8069 35.483 49.142 36.671 53.736C36.671 53.736 32.5725 54.4614 32.6319 56.4561L31.8597 54.7636L28.5334 58.5113L24.4944 55.7308L27.1079 53.192Z" fill="#5D526E"/>
<path d="M32.5725 51.4994C32.2755 52.9502 30.7312 53.1919 30.7312 53.1919L28.5334 51.8017C28.5334 51.8017 28.2234 49.7193 27.9614 48.4499C27.861 47.9621 27.7678 47.5939 27.7019 47.5099C27.4643 47.2077 31.2064 47.2681 31.2064 47.2681C31.469 47.7199 31.7081 48.1853 31.9227 48.6626C32.3302 49.5699 32.7311 50.7245 32.5725 51.4994Z" fill="#EF91A3"/>
<path d="M23.0688 40.5585L21.8214 46.6032L18.7921 45.8174C18.7921 45.8174 16.0004 43.5809 16.832 42.1906C17.104 41.736 17.2424 41.0747 17.306 40.3911C17.4361 38.9821 17.2478 37.4757 17.2478 37.4757C17.2478 37.4757 20.5741 36.569 19.9207 39.0473C19.6522 40.0653 20.1351 40.5017 20.7974 40.6631C21.7484 40.8946 23.0688 40.5585 23.0688 40.5585Z" fill="#EF91A3"/>
<path opacity="0.1" d="M20.7974 40.6631C20.3248 40.913 19.7999 41.043 19.2673 41.0421C18.5337 41.0421 17.8275 40.5749 17.2775 40.1656C17.3536 39.2701 17.3437 38.3692 17.2478 37.4757C17.2478 37.4757 20.5741 36.569 19.9207 39.0474C19.6522 40.0653 20.1351 40.5017 20.7974 40.6631Z" fill="black"/>
<path d="M19.2673 40.9212C21.1044 40.9212 22.5936 39.4057 22.5936 37.5362C22.5936 35.6667 21.1044 34.1511 19.2673 34.1511C17.4302 34.1511 15.941 35.6667 15.941 37.5362C15.941 39.4057 17.4302 40.9212 19.2673 40.9212Z" fill="#EF91A3"/>
<path opacity="0.1" d="M19.0186 44.5974L19.9207 45.8778L20.434 43.9842C20.6322 43.2267 20.7368 42.4468 20.7452 41.6629C20.7495 41.3305 20.8558 41.0077 21.0493 40.7398C21.9749 40.226 22.6621 39.9548 23.8286 40.0766C24.9843 40.2051 26.0822 40.6578 26.9997 41.3844C30.4669 44.0942 32.0973 48.5979 32.0973 48.5979C32.0973 48.5979 27.3455 47.6308 27.5831 48.7188C27.5831 48.7188 25.5041 45.3338 25.0289 45.8778C24.5538 46.4218 26.0387 53.615 26.0387 53.615L16.2974 54.3404L13.7433 47.4494L13.8621 42.3114C13.8621 42.3114 16.3865 41.1327 16.9211 41.1327C17.1082 41.1327 17.0796 41.0664 17.1587 41.3745C17.4634 42.5617 18.316 43.6002 19.0186 44.5974Z" fill="black"/>
<path opacity="0.1" d="M31.9227 48.6626C31.0965 48.5109 28.7562 48.1234 27.9614 48.4498C27.861 47.962 27.7678 47.5939 27.7019 47.5099C27.4643 47.2077 31.2064 47.2681 31.2064 47.2681C31.469 47.7199 31.7081 48.1853 31.9227 48.6626Z" fill="black"/>
<path d="M19.1374 44.537L20.0395 45.8174L20.5528 43.9238C20.751 43.1662 20.8556 42.3864 20.864 41.6025C20.8683 41.27 20.9746 40.9473 21.1681 40.6794C22.0937 40.1656 22.7809 39.8944 23.9474 40.0162C25.1031 40.1447 26.201 40.5974 27.1185 41.324C30.5857 44.0338 32.2161 48.5375 32.2161 48.5375C32.2161 48.5375 27.4643 47.5703 27.7019 48.6584C27.7019 48.6584 25.6229 45.2733 25.1477 45.8174C24.6726 46.3614 26.1575 53.5546 26.1575 53.5546L16.4162 54.28L13.8621 47.389L13.9809 42.251C13.9809 42.251 16.5053 41.0723 17.0399 41.0723C17.227 41.0723 17.1984 41.006 17.2775 41.314C17.5822 42.5013 18.4348 43.5397 19.1374 44.537Z" fill="#DFECFB"/>
<path opacity="0.1" d="M16.958 39.9275C16.6242 39.9881 16.2354 39.8735 16.0727 39.5708C16.0084 39.4205 15.9628 39.2626 15.9369 39.1008C15.7644 38.4122 15.2003 37.898 14.9224 37.246C14.4544 36.1478 14.8653 34.8879 15.2772 33.7666C15.4797 33.2157 15.6972 32.6417 16.1292 32.2509C16.7931 31.6504 17.783 31.6361 18.6636 31.7542C19.0204 31.8021 19.3791 31.8664 19.7379 31.8375C20.0967 31.8086 20.4641 31.6732 20.6911 31.389C20.8823 31.5153 20.8116 31.8075 20.7726 32.036C20.7342 32.2616 20.7659 32.5257 20.9447 32.6646C21.1235 32.8035 21.4571 32.6891 21.4422 32.4607C21.2814 32.9448 21.6364 33.48 22.0936 33.6913C22.2454 33.7599 22.4057 33.807 22.57 33.8313C22.8457 33.8716 23.0975 34.0127 23.2784 34.2282C23.4592 34.4437 23.5568 34.7189 23.5527 35.0023L23.5526 35.0075C23.5574 35.0704 23.5434 35.1334 23.5126 35.1882C23.4745 35.2319 23.4259 35.2648 23.3715 35.2836C22.9101 35.4985 22.533 35.8648 22.3005 36.3238C22.1774 36.5687 22.0847 36.8523 21.8577 37.0016C21.5788 37.1851 21.2137 37.0937 20.8825 37.1197C20.6083 37.1463 20.3482 37.2555 20.1354 37.4333C19.9225 37.6112 19.7667 37.8496 19.6877 38.1181C19.6108 38.3981 19.621 38.7031 19.4489 38.9519C19.4124 39.0081 19.3645 39.0558 19.3084 39.0917C19.2524 39.1277 19.1895 39.1511 19.1239 39.1604C18.8663 39.1888 18.7478 38.9537 18.563 38.8323C18.1285 38.5471 17.8514 38.9237 17.7142 39.2788C17.5634 39.6691 17.4581 39.8368 16.958 39.9275Z" fill="black"/>
<path d="M16.958 39.8671C16.6242 39.9277 16.2354 39.813 16.0727 39.5103C16.0084 39.3601 15.9628 39.2022 15.9369 39.0404C15.7644 38.3518 15.2003 37.8375 14.9224 37.1856C14.4544 36.0874 14.8653 34.8274 15.2772 33.7062C15.4797 33.1552 15.6972 32.5813 16.1292 32.1905C16.7931 31.5899 17.783 31.5756 18.6636 31.6938C19.0204 31.7417 19.3791 31.806 19.7379 31.7771C20.0967 31.7482 20.4641 31.6127 20.6911 31.3286C20.8823 31.4549 20.8116 31.747 20.7726 31.9756C20.7342 32.2011 20.7659 32.4653 20.9447 32.6042C21.1235 32.743 21.4571 32.6286 21.4422 32.4003C21.2814 32.8844 21.6364 33.4196 22.0936 33.6308C22.2454 33.6995 22.4057 33.7466 22.57 33.7709C22.8457 33.8112 23.0975 33.9523 23.2784 34.1678C23.4592 34.3833 23.5568 34.6585 23.5527 34.9419L23.5526 34.9471C23.5574 35.01 23.5434 35.073 23.5126 35.1278C23.4745 35.1715 23.4259 35.2044 23.3715 35.2232C22.9101 35.4381 22.533 35.8044 22.3005 36.2634C22.1774 36.5082 22.0847 36.7919 21.8577 36.9412C21.5788 37.1246 21.2137 37.0333 20.8825 37.0593C20.6083 37.0859 20.3482 37.1951 20.1354 37.3729C19.9225 37.5508 19.7667 37.7892 19.6877 38.0577C19.6108 38.3377 19.621 38.6427 19.4489 38.8915C19.4124 38.9477 19.3645 38.9954 19.3084 39.0313C19.2524 39.0672 19.1895 39.0907 19.1239 39.1C18.8663 39.1284 18.7478 38.8932 18.563 38.7719C18.1285 38.4867 17.8514 38.8632 17.7142 39.2184C17.5634 39.6086 17.4581 39.7763 16.958 39.8671Z" fill="#572142"/>
<g opacity="0.05">
<path opacity="0.05" d="M26.4057 41.2635C29.6125 43.7699 31.2479 47.8103 31.4755 48.403C31.9183 48.4768 32.2161 48.5375 32.2161 48.5375C32.2161 48.5375 30.5857 44.0338 27.1185 41.324C26.201 40.5974 25.1031 40.1446 23.9474 40.0162C23.7856 39.9993 23.6337 39.9907 23.4884 39.9885C24.5518 40.1533 25.5561 40.5922 26.4057 41.2635Z" fill="black"/>
<path opacity="0.05" d="M16.5647 41.2536C16.8694 42.4409 17.722 43.4793 18.4246 44.4766L19.3267 45.7569L19.5129 45.07L19.1374 44.537C18.4348 43.5398 17.5821 42.5013 17.2775 41.3141C17.1984 41.006 17.227 41.0723 17.0399 41.0723C16.8716 41.0882 16.706 41.126 16.5471 41.1849C16.5524 41.2057 16.5581 41.2279 16.5647 41.2536Z" fill="black"/>
<path opacity="0.05" d="M27.3857 48.1626C27.5787 48.4578 27.7019 48.6583 27.7019 48.6583C27.5982 48.1837 28.4442 48.1002 29.431 48.1569C28.6568 48.0732 27.8531 48.0372 27.3857 48.1626Z" fill="black"/>
<path opacity="0.05" d="M25.0779 46.0122C24.7971 45.7434 24.5603 45.6135 24.435 45.7569C23.9598 46.3009 25.4447 53.4942 25.4447 53.4942L16.3753 54.1695L16.4162 54.28L26.1575 53.5546C26.1575 53.5546 24.8646 47.2915 25.0779 46.0122Z" fill="black"/>
</g>
<path d="M16.077 60.4027C15.5086 60.8814 13.8947 62.0287 11.9019 61.5941C9.91565 61.1607 11.5818 60.1917 12.3433 59.8139C12.3836 59.794 12.419 59.7651 12.4468 59.7294C12.4746 59.6936 12.4941 59.6519 12.5039 59.6074C12.5136 59.5629 12.5134 59.5167 12.5032 59.4723C12.4929 59.4279 12.473 59.3864 12.4448 59.3509C12.0081 58.8081 11.5065 58.323 10.9516 57.9068C10.4675 57.5442 9.88476 56.8913 9.3775 56.2645V56.2639C9.1108 55.9357 8.86608 55.6153 8.6665 55.3463C8.629 55.2958 8.60798 55.2345 8.60638 55.1712C8.60478 55.1079 8.62268 55.0456 8.65759 54.9932C8.69249 54.9407 8.74264 54.9007 8.80101 54.8787C8.85938 54.8568 8.92305 54.8539 8.9831 54.8706L12.8772 55.9465C12.9382 55.9634 12.9923 55.9996 13.0317 56.0499L14.3117 57.6777L16.1204 59.9784C16.1694 60.0407 16.1924 60.1202 16.1842 60.1996C16.1761 60.279 16.1376 60.352 16.077 60.4027Z" fill="#EF91A3"/>
<path opacity="0.1" d="M14.3117 57.6777C11.062 55.2659 9.83546 55.6969 9.3775 56.2639C9.1108 55.9357 8.86608 55.6153 8.6665 55.3463C8.629 55.2957 8.60798 55.2345 8.60638 55.1712C8.60478 55.1079 8.62268 55.0456 8.65758 54.9932C8.69249 54.9407 8.74264 54.9007 8.80101 54.8787C8.85938 54.8568 8.92305 54.8539 8.98309 54.8706L12.8772 55.9465C12.9382 55.9634 12.9923 55.9996 13.0317 56.0499L14.3117 57.6777Z" fill="black"/>
<path d="M11.6049 50.23C11.6049 50.23 6.37788 48.4771 7.20946 52.1643C8.04103 55.8516 9.1102 56.7583 9.1102 56.7583C9.1102 56.7583 9.40719 53.8569 14.456 57.665L12.6741 54.7636L14.753 52.1039L11.6049 50.23Z" fill="#5D526E"/>
<path opacity="0.1" d="M10.3576 46.9054C10.3576 46.9054 9.88239 49.4442 11.6049 52.527C12.9704 54.9708 11.3498 56.0851 10.6193 56.4421C10.5236 56.4889 10.4159 56.5044 10.3112 56.4865C10.2064 56.4687 10.1097 56.4182 10.0342 56.3422C9.55294 55.8577 8.63037 54.629 9.1696 52.7083L9.52599 51.7412L7.56585 50.2905C7.56585 50.2905 7.03554 48.2888 7.27099 47.8389C7.50645 47.389 9.4072 46.1801 9.4072 46.1801L10.3576 46.9054Z" fill="black"/>
<path d="M10.3576 46.7846C10.3576 46.7846 9.88239 49.3233 11.6049 52.4062C12.9704 54.85 11.3498 55.9643 10.6193 56.3212C10.5236 56.368 10.4159 56.3836 10.3112 56.3657C10.2064 56.3478 10.1097 56.2974 10.0342 56.2214C9.55294 55.7369 8.63037 54.5082 9.1696 52.5875L9.52599 51.6203L7.56585 50.1696C7.56585 50.1696 7.03554 48.1679 7.27099 47.718C7.50645 47.2681 9.4072 46.0592 9.4072 46.0592L10.3576 46.7846Z" fill="#EF91A3"/>
<path d="M14.6937 41.9487C14.6937 41.9487 10.417 44.4271 8.63503 46.0591C6.85308 47.6912 7.20948 48.2352 7.20948 48.2352C7.20948 48.2352 8.93202 44.9711 10.417 47.8121C10.417 47.8121 14.5749 44.7293 15.7034 46.0592C16.832 47.389 14.6937 41.9487 14.6937 41.9487Z" fill="#DFECFB"/>
<path d="M13.0899 56.2143L16.6537 55.4889L16.2379 57.3627L13.6553 57.0891L13.0899 56.2143Z" fill="#5D526E"/>
<path d="M19.2673 48.2353L19.1485 49.5651L14.8718 48.8397L13.5651 47.9935L11.6049 47.2681C11.8361 46.6198 11.8723 45.9161 11.7089 45.2467C11.6348 44.9581 11.5197 44.682 11.3673 44.4271C10.5358 43.0368 14.8718 43.6413 14.8718 43.6413C14.8248 43.9547 14.803 44.2715 14.8065 44.5885C14.8154 45.5986 15.0964 47.0221 16.6538 46.7845L17.9605 47.5703L19.2673 48.2353Z" fill="#FFC1CD"/>
<path d="M15.05 46.3614C15.05 46.3614 17.2478 45.3942 18.3169 47.389C19.3861 49.3837 19.8613 49.2628 19.8613 49.2628L17.723 47.8725L15.05 46.3614Z" fill="#FFC1CD"/>
<path d="M16.8914 56.4561C16.8914 56.4561 15.2282 57.8464 16.1786 59.5994C17.129 61.3523 23.0688 61.0501 23.0688 61.0501C23.0688 61.0501 19.2983 59.6083 20.2332 54.7681C20.2332 54.7681 17.5448 55.5494 16.8914 56.4561Z" fill="#5F5470"/>
<path d="M24.7913 58.5112L24.1974 60.8082L26.2763 60.3851C26.2763 60.3851 25.3853 58.4508 25.5041 57.9068C25.6229 57.3628 24.7913 58.5112 24.7913 58.5112Z" fill="#5F5470"/>
<path d="M26.4545 55.7307C26.4545 55.7307 31.8597 56.2747 33.3447 57.121L34.4732 57.4837C34.4732 57.4837 34.889 57.3628 35.78 58.1486L40.4131 59.2366L43.977 59.962C43.977 59.962 47.2439 60.5665 47.4815 60.4456C47.7191 60.3247 49.3228 61.3523 47.7785 61.8359C46.2341 62.3194 43.0266 61.5941 43.0266 61.5941C43.0266 61.5941 40.6507 61.2918 40.1161 61.4732C39.5815 61.6545 35.9582 61.1105 35.9582 61.1105L32.3943 61.3523C32.3943 61.3523 31.8003 60.4456 30.256 60.7478C29.1539 60.9635 27.2352 60.6251 26.2265 60.4136C26.0312 60.3728 25.8523 60.2737 25.7127 60.129C25.573 59.9843 25.4788 59.8005 25.4423 59.601L25.0883 57.665L26.4545 55.7307Z" fill="#FFC1CD"/>
<path opacity="0.05" d="M26.4545 55.7307C26.4545 55.7307 31.8597 56.2747 33.3447 57.121L34.4732 57.4837C34.4732 57.4837 34.889 57.3628 35.78 58.1486L40.4131 59.2366L43.977 59.962C43.977 59.962 47.2439 60.5665 47.4815 60.4456C47.7191 60.3247 49.3228 61.3523 47.7785 61.8359C46.2341 62.3194 43.0266 61.5941 43.0266 61.5941C43.0266 61.5941 40.6507 61.2918 40.1161 61.4732C39.5815 61.6545 35.9582 61.1105 35.9582 61.1105L32.3943 61.3523C32.3943 61.3523 31.8003 60.4456 30.256 60.7478C29.1539 60.9635 27.2352 60.6251 26.2265 60.4136C26.0312 60.3728 25.8523 60.2737 25.7127 60.129C25.573 59.9843 25.4788 59.8005 25.4423 59.601L25.0883 57.665L26.4545 55.7307Z" fill="black"/>
<path opacity="0.1" d="M14.8065 44.5885C14.387 44.9558 13.8828 45.2088 13.3411 45.3239C12.7993 45.439 12.2378 45.4125 11.7089 45.2467C11.6348 44.9581 11.5197 44.682 11.3673 44.4271C10.5358 43.0368 14.8718 43.6413 14.8718 43.6413C14.8248 43.9547 14.803 44.2715 14.8065 44.5885Z" fill="black"/>
<path d="M12.6741 45.2733C14.4784 45.2733 15.941 43.7849 15.941 41.9487C15.941 40.1126 14.4784 38.6241 12.6741 38.6241C10.8698 38.6241 9.4072 40.1126 9.4072 41.9487C9.4072 43.7849 10.8698 45.2733 12.6741 45.2733Z" fill="#FFC1CD"/>
<path opacity="0.1" d="M11.3079 46.845C11.3079 46.845 13.8027 48.2353 13.9215 49.142C14.0403 50.0487 13.5651 51.1367 13.5651 51.1367C13.5651 51.1367 14.6936 58.0277 16.1192 58.5113L19.9207 54.7636L23.1282 53.3128C23.1282 53.3128 21.2274 53.1919 21.0493 51.3785C20.8711 49.5651 21.2868 48.9607 19.1485 48.1144C17.0102 47.2681 15.8519 46.2708 15.8519 46.2708L15.2997 46.4125L18.1387 47.9331C18.1387 47.9331 19.7425 48.9002 15.5846 48.1748L11.6643 46.7241L11.3079 46.845Z" fill="black"/>
<path d="M11.2486 46.7242C11.2486 46.7242 13.7433 48.1144 13.8621 49.0211C13.9809 49.9279 13.5057 51.0159 13.5057 51.0159C13.5057 51.0159 14.6343 57.9069 16.0598 58.3904L19.8613 54.6427L23.0688 53.192C23.0688 53.192 21.1681 53.0711 20.9899 51.2577C20.8117 49.4443 21.2275 48.8398 19.0891 47.9935C16.9508 47.1473 15.7925 46.1499 15.7925 46.1499L15.2403 46.2917L18.0794 47.8122C18.0794 47.8122 19.6831 48.7794 15.5252 48.054L11.6049 46.6033L11.2486 46.7242Z" fill="#FF808C"/>
<path opacity="0.1" d="M12.1395 47.2077C12.1395 47.2077 9.7042 46.301 10.2982 49.2025C10.8922 52.104 13.9809 57.1211 13.9809 57.1211L21.2275 54.5823C21.2275 54.5823 23.4846 52.8293 22.8906 52.648C22.2966 52.4666 19.1485 53.6151 19.1485 53.6151L14.8718 54.2801L13.8621 51.3786C13.8621 51.3786 14.8124 50.7137 14.5155 49.8674C14.5125 49.859 14.5095 49.8505 14.5065 49.842C14.103 48.7155 13.2897 47.7898 12.2346 47.2561L12.1395 47.2077Z" fill="black"/>
<path d="M12.0207 47.0868C12.0207 47.0868 9.5854 46.1801 10.1794 49.0815C10.7734 51.983 13.8621 57.0001 13.8621 57.0001L21.1086 54.4613C21.1086 54.4613 23.3658 52.7084 22.7718 52.527C22.1778 52.3457 19.0297 53.4942 19.0297 53.4942L14.753 54.1591L13.7433 51.2576C13.7433 51.2576 14.6936 50.5927 14.3966 49.7464C14.3937 49.738 14.3907 49.7295 14.3877 49.721C13.9842 48.5945 13.1709 47.6688 12.1158 47.1352L12.0207 47.0868Z" fill="#FFC1CD"/>
<path opacity="0.1" d="M12.2478 37.181C11.9657 37.0986 11.6716 37.0673 11.3789 37.0884C11.1033 37.1295 10.8361 37.2163 10.5881 37.3453C10.1888 37.5349 9.80658 37.7597 9.44572 38.017C9.20305 38.1901 8.96527 38.3805 8.68528 38.4792C8.26536 38.6273 7.77953 38.5585 7.39263 38.7811C6.8504 39.0929 6.72921 39.8407 6.80928 40.4693C6.88935 41.0979 7.10845 41.7243 7.01103 42.3503C6.86526 43.2872 6.06685 43.9527 5.33334 44.538C5.10236 44.7223 4.85443 44.9387 4.81897 45.2352C4.7968 45.4206 4.86367 45.6034 4.91954 45.7814C5.22895 46.7561 5.21284 47.8075 4.87372 48.7719C4.52724 49.7357 3.84444 50.5361 2.95542 51.0206C2.61825 51.1998 2.20916 51.3828 2.13019 51.7615C2.02993 52.2422 2.53863 52.6146 2.99158 52.785C3.3611 52.9239 3.74319 53.0255 4.13229 53.0882C4.47451 53.1433 4.84038 53.1648 5.15268 53.0121C5.51609 52.8344 5.73775 52.4574 5.92981 52.0967C6.67757 50.6921 7.59554 50.0035 8.07937 48.4838C8.18372 48.156 8.35012 47.7661 8.68711 47.733C8.89788 47.7122 9.08842 47.8475 9.26758 47.9623C10.1319 48.5165 11.0398 47.8955 11.8444 47.2548C12.0306 47.1066 12.1898 46.9206 12.3971 46.8048C12.8373 46.559 13.4785 46.6293 13.7424 46.1946C13.8038 46.0799 13.8465 45.956 13.8688 45.8274C13.977 45.3548 14.085 44.8586 13.96 44.3902C13.8444 43.9569 13.5428 43.6016 13.3651 43.1906C13.1874 42.7795 13.1771 42.2179 13.5402 41.9627C13.6491 41.8862 13.78 41.8466 13.8871 41.7675C14.1992 41.5372 14.2062 41.0771 14.2045 40.6849C14.1965 40.5879 14.2129 40.4905 14.2519 40.4016C14.309 40.3172 14.3841 40.247 14.4717 40.1963C14.8182 39.9546 15.088 39.6155 15.2482 39.2203C15.4056 38.7883 15.0026 38.5927 14.6806 38.3499C13.9532 37.8011 13.1264 37.4039 12.2478 37.181Z" fill="black"/>
<path d="M12.1884 37.1206C11.9063 37.0382 11.6122 37.0069 11.3194 37.028C11.0439 37.0691 10.7767 37.1559 10.5287 37.2849C10.1294 37.4745 9.74717 37.6992 9.38632 37.9566C9.14365 38.1296 8.90586 38.32 8.62587 38.4188C8.20595 38.5669 7.72012 38.4981 7.33322 38.7206C6.79099 39.0325 6.6698 39.7803 6.74987 40.4089C6.82994 41.0374 7.04904 41.6639 6.95162 42.2899C6.80585 43.2268 6.00744 43.8923 5.27393 44.4775C5.04295 44.6618 4.79502 44.8782 4.75956 45.1747C4.73739 45.3602 4.80426 45.543 4.86013 45.7209C5.16954 46.6956 5.15343 47.7471 4.81431 48.7115C4.46783 49.6753 3.78503 50.4757 2.89601 50.9601C2.55884 51.1393 2.14975 51.3224 2.07078 51.701C1.97052 52.1818 2.47922 52.5542 2.93217 52.7245C3.30169 52.8635 3.68378 52.9651 4.07288 53.0278C4.4151 53.0829 4.78097 53.1044 5.09327 52.9517C5.45668 52.774 5.67834 52.397 5.8704 52.0362C6.61817 50.6317 7.53613 49.9431 8.01995 48.4234C8.12431 48.0956 8.29072 47.7057 8.62771 47.6725C8.83847 47.6518 9.02901 47.7871 9.20817 47.9019C10.0725 48.4561 10.9804 47.8351 11.785 47.1944C11.9711 47.0461 12.1304 46.8601 12.3377 46.7444C12.7779 46.4986 13.4191 46.5689 13.683 46.1341C13.7444 46.0195 13.787 45.8955 13.8094 45.767C13.9176 45.2943 14.0256 44.7981 13.9006 44.3298C13.785 43.8964 13.4834 43.5412 13.3056 43.1302C13.1279 42.7191 13.1177 42.1575 13.4808 41.9022C13.5897 41.8257 13.7206 41.7862 13.8277 41.7071C14.1398 41.4768 14.1468 41.0167 14.1451 40.6245C14.1371 40.5275 14.1535 40.43 14.1925 40.3412C14.2496 40.2568 14.3247 40.1866 14.4123 40.1359C14.7588 39.8942 15.0286 39.5551 15.1888 39.1598C15.3462 38.7278 14.9431 38.5323 14.6212 38.2895C13.8937 37.7407 13.067 37.3435 12.1884 37.1206Z" fill="#B46D86"/>
<path d="M39.8488 63.6191C38.2361 63.9654 33.5306 63.8186 32.8398 63.2564C31.7825 62.3956 32.0427 61.631 32.1128 61.4732H32.0973C32.0973 61.4732 32.6913 60.0225 32.0973 58.9344C32.0973 58.9344 32.0379 57.6046 30.7906 56.577C29.5432 55.5494 28.177 52.6479 28.177 52.6479L27.4643 54.1591C27.4643 54.1591 26.3927 57.4771 25.2814 58.9502C25.059 59.2424 24.9076 59.5839 24.8395 59.9469C24.7658 60.3465 24.5116 60.85 23.7222 60.9896L23.6812 60.9969C23.1285 61.091 22.5608 61.0226 22.045 60.7997C21.5291 60.5769 21.0864 60.2089 20.7689 59.739C20.2373 58.9601 19.6351 57.8788 19.4989 56.8257C19.4545 56.4715 19.4834 56.1117 19.5838 55.7694C19.6841 55.4272 19.8537 55.1101 20.0816 54.8385L20.0882 54.8307C21.3676 53.2923 25.8035 48.0008 26.5139 47.6913C26.5139 47.6913 29.7214 44.548 30.9688 48.7793C32.2161 53.0106 32.6319 54.28 32.6319 54.28C32.6319 54.28 34.1234 56.9911 34.5326 57.9068C34.9556 58.8534 36.7149 61.2145 36.8937 61.4533C37.0571 61.5669 38.6293 62.6519 39.136 62.6519C39.3599 62.6519 41.0106 63.3694 39.8488 63.6191Z" fill="#FFC1CD"/>
<g opacity="0.05">
<path opacity="0.05" d="M32.3404 59.7862C32.3908 59.3164 32.3633 58.7567 32.0973 58.2695C32.0973 58.2695 32.0379 56.9397 30.7906 55.9121C29.5432 54.8845 28.1771 51.983 28.1771 51.983L27.4643 53.4942C27.4643 53.4942 26.3927 56.8121 25.2814 58.2852C25.0591 58.5775 24.9076 58.919 24.8395 59.282C24.7658 59.6816 24.5116 60.1851 23.7222 60.3247L23.6812 60.332C23.1285 60.426 22.5608 60.3576 22.045 60.1348C21.5291 59.912 21.0864 59.544 20.7689 59.0741C20.2432 58.3038 19.6492 57.2379 19.5044 56.1959C19.4713 56.4246 19.4695 56.6569 19.4989 56.8862C19.6351 57.9393 20.2373 59.0205 20.7689 59.7994C21.0864 60.2694 21.5291 60.6374 22.045 60.8602C22.5608 61.083 23.1285 61.1514 23.6812 61.0573L23.7222 61.0501C24.5116 60.9105 24.7658 60.4069 24.8395 60.0074C24.9076 59.6444 25.0591 59.3028 25.2814 59.0106C26.3927 57.5375 27.4643 54.2196 27.4643 54.2196L28.1771 52.7084C28.1771 52.7084 29.5432 55.6099 30.7906 56.6375C32.0379 57.6651 32.0973 58.9949 32.0973 58.9949C32.2278 59.2402 32.3104 59.5089 32.3404 59.7862Z" fill="black"/>
</g>
<path opacity="0.05" d="M16.8617 51.9527C16.8617 51.9527 19.4158 51.8923 19.2376 51.046L16.8617 51.9527Z" fill="black"/>
<path d="M58.7504 54.9725C58.7504 54.9725 62.7161 52.1923 66.5937 53.1788C70.4713 54.1653 67.5631 57.5733 67.5631 57.5733L58.7504 54.9725Z" fill="#EED1D7"/>
<path d="M57.1641 53.1788C57.1641 53.1788 61.0417 51.4748 63.6855 53.2685C66.3293 55.0622 71.617 55.959 71.617 55.959" fill="#CCB2BB"/>
</g>
<defs>
<linearGradient id="paint0_linear" x1="21.347" y1="32.2614" x2="21.347" y2="32.1384" gradientUnits="userSpaceOnUse">
<stop stop-color="#808080" stop-opacity="0.25"/>
<stop offset="0.53514" stop-color="#808080" stop-opacity="0.12"/>
<stop offset="1" stop-color="#808080" stop-opacity="0.1"/>
</linearGradient>
<linearGradient id="paint1_linear" x1="30.4171" y1="78.7658" x2="30.4171" y2="78.5973" gradientUnits="userSpaceOnUse">
<stop stop-color="#808080" stop-opacity="0.25"/>
<stop offset="0.53514" stop-color="#808080" stop-opacity="0.12"/>
<stop offset="1" stop-color="#808080" stop-opacity="0.1"/>
</linearGradient>
<linearGradient id="paint2_linear" x1="643.837" y1="1774" x2="643.837" y2="1669.78" gradientUnits="userSpaceOnUse">
<stop stop-color="#808080" stop-opacity="0.25"/>
<stop offset="0.53514" stop-color="#808080" stop-opacity="0.12"/>
<stop offset="1" stop-color="#808080" stop-opacity="0.1"/>
</linearGradient>
<clipPath id="clip0">
<rect width="95" height="77" fill="white"/>

    <filter id="f1" x="0" y="0" width="200%" height="200%">
      <feOffset result="offOut" in="SourceAlpha" dx="20" dy="20" />
      <feGaussianBlur result="blurOut" in="offOut" stdDeviation="10" />
      <feBlend in="SourceGraphic" in2="blurOut" mode="normal" />
    </filter>
</clipPath>
</defs>
</svg>
