<svg width="100" height="100" viewBox="0 0 217 163" fill="none" xmlns="http://www.w3.org/2000/svg">
<g opacity="0.8">
<g clip-path="url(#clip0)">
<path opacity="0.25" d="M205.917 63.024V48.4902H197.318V63.024H187.135V40.5421H179.668V23.7375H173.558V6.47876H160.887V23.7375H154.777V40.5421H147.536V20.3312H143.463V10.1122H140.974V20.3312H126.492V84.8245H115.404V78.0118H108.615V84.8245H97.5276V63.024H77.6148V48.4902H69.016V63.024H68.5635V90.9559H59.5122V74.6055H48.6507V90.9559H39.5994V40.5421H32.5846V23.7375H6.78846V40.5421H0V129.334H39.5994H68.5635H97.5276H126.492H147.536H187.135H216.099V63.024H205.917Z" fill="#87CDFF"/>
<path opacity="0.4" d="M13.8032 45.7651H4.29935V51.2153H13.8032V45.7651Z" fill="white"/>
<path opacity="0.4" d="M25.5699 51.2153H35.0737V45.7652H25.5699V51.2153Z" fill="white"/>
<path opacity="0.4" d="M13.8032 56.4385H4.29935V61.8886H13.8032V56.4385Z" fill="white"/>
<path opacity="0.4" d="M25.5699 61.8884H35.0737V56.4383H25.5699V61.8884Z" fill="white"/>
<path opacity="0.4" d="M13.8032 67.1116H4.29935V72.5617H13.8032V67.1116Z" fill="white"/>
<path opacity="0.4" d="M25.5699 72.5618H35.0737V67.1116H25.5699V72.5618Z" fill="white"/>
<path opacity="0.4" d="M13.8032 77.7847H4.29935V83.2348H13.8032V77.7847Z" fill="white"/>
<path opacity="0.4" d="M25.5699 83.2349H35.0737V77.7847H25.5699V83.2349Z" fill="white"/>
<path opacity="0.4" d="M13.8032 88.458H4.29935V93.9082H13.8032V88.458Z" fill="white"/>
<path opacity="0.4" d="M25.5699 93.9082H35.0737V88.458H25.5699V93.9082Z" fill="white"/>
<path opacity="0.4" d="M13.8032 99.1311H4.29935V104.581H13.8032V99.1311Z" fill="white"/>
<path opacity="0.4" d="M25.5699 104.581H35.0737V99.1312H25.5699V104.581Z" fill="white"/>
<path opacity="0.4" d="M13.8032 109.804H4.29935V115.254H13.8032V109.804Z" fill="white"/>
<path opacity="0.4" d="M25.5699 115.254H35.0737V109.804H25.5699V115.254Z" fill="white"/>
<path opacity="0.4" d="M65.1693 96.406H42.9936V99.1311H65.1693V96.406Z" fill="white"/>
<path opacity="0.4" d="M65.1693 100.494H42.9936V103.219H65.1693V100.494Z" fill="white"/>
<path opacity="0.4" d="M65.1693 104.581H42.9936V107.306H65.1693V104.581Z" fill="white"/>
<path opacity="0.4" d="M123.097 97.7686H100.922V100.494H123.097V97.7686Z" fill="white"/>
<path opacity="0.4" d="M123.097 101.856H100.922V104.581H123.097V101.856Z" fill="white"/>
<path opacity="0.4" d="M123.097 105.944H100.922V108.669H123.097V105.944Z" fill="white"/>
<path opacity="0.4" d="M65.1693 108.669H42.9936V111.394H65.1693V108.669Z" fill="white"/>
<path opacity="0.4" d="M65.1693 112.757H42.9936V115.482H65.1693V112.757Z" fill="white"/>
<path opacity="0.4" d="M65.1693 116.844H42.9936V119.569H65.1693V116.844Z" fill="white"/>
<path opacity="0.4" d="M79.425 68.2471H73.3154V76.1952H79.425V68.2471Z" fill="white"/>
<path opacity="0.4" d="M86.666 76.1951H92.7757V68.2469H86.666V76.1951Z" fill="white"/>
<path opacity="0.4" d="M79.425 80.9639H73.3154V88.912H79.425V80.9639Z" fill="white"/>
<path opacity="0.4" d="M86.666 88.9121H92.7757V80.964H86.666V88.9121Z" fill="white"/>
<path opacity="0.4" d="M79.425 93.6809H73.3154V101.629H79.425V93.6809Z" fill="white"/>
<path opacity="0.4" d="M86.666 101.629H92.7757V93.681H86.666V101.629Z" fill="white"/>
<path opacity="0.4" d="M79.425 106.398H73.3154V114.346H79.425V106.398Z" fill="white"/>
<path opacity="0.4" d="M86.666 114.346H92.7757V106.398H86.666V114.346Z" fill="white"/>
<path opacity="0.4" d="M134.638 25.5544H126.492V36.0005H134.638V25.5544Z" fill="white"/>
<path opacity="0.4" d="M134.638 40.5422H126.492V50.9883H134.638V40.5422Z" fill="white"/>
<path opacity="0.4" d="M134.638 55.53H126.492V65.9761H134.638V55.53Z" fill="white"/>
<path opacity="0.4" d="M134.638 70.5178H126.492V80.9639H134.638V70.5178Z" fill="white"/>
<path opacity="0.4" d="M134.638 85.5059H126.492V95.9519H134.638V85.5059Z" fill="white"/>
<path opacity="0.4" d="M134.638 100.494H126.492V110.94H134.638V100.494Z" fill="white"/>
<path opacity="0.4" d="M182.497 46.9006H152.175V55.7571H182.497V46.9006Z" fill="white"/>
<path opacity="0.4" d="M182.61 65.9761H152.288V74.8325H182.61V65.9761Z" fill="white"/>
<path opacity="0.4" d="M182.723 85.0518H152.401V93.9083H182.723V85.0518Z" fill="white"/>
<path opacity="0.4" d="M182.836 104.127H152.514V112.984H182.836V104.127Z" fill="white"/>
<path opacity="0.4" d="M10.8615 28.5063H6.78845V37.1357H10.8615V28.5063Z" fill="white"/>
<path opacity="0.4" d="M216.099 68.2471H205.917V81.4182H216.099V68.2471Z" fill="white"/>
<path opacity="0.4" d="M216.099 87.3225H205.917V100.494H216.099V87.3225Z" fill="white"/>
<path opacity="0.4" d="M216.099 106.398H205.917V119.569H216.099V106.398Z" fill="white"/>
<path opacity="0.1" d="M59.8923 17.3064H58.3355C58.4828 17.3131 58.6299 17.2899 58.7679 17.2379C58.9059 17.186 59.0321 17.1066 59.1386 17.0044C59.2452 16.9022 59.3301 16.7794 59.388 16.6433C59.446 16.5073 59.4759 16.3609 59.4759 16.213C59.4759 16.065 59.446 15.9186 59.388 15.7826C59.3301 15.6466 59.2452 15.5238 59.1386 15.4216C59.0321 15.3194 58.9059 15.2399 58.7679 15.188C58.6299 15.1361 58.4828 15.1128 58.3355 15.1195H45.7248C45.4444 15.1324 45.1798 15.2532 44.9859 15.4568C44.792 15.6605 44.6838 15.9313 44.6838 16.213C44.6838 16.4946 44.792 16.7655 44.9859 16.9691C45.1798 17.1728 45.4444 17.2936 45.7248 17.3064H47.2816C47.1344 17.2997 46.9873 17.323 46.8492 17.3749C46.7112 17.4268 46.5851 17.5062 46.4785 17.6084C46.3719 17.7106 46.2871 17.8335 46.2291 17.9695C46.1712 18.1055 46.1413 18.2519 46.1413 18.3998C46.1413 18.5478 46.1712 18.6942 46.2291 18.8302C46.2871 18.9662 46.3719 19.089 46.4785 19.1912C46.5851 19.2934 46.7112 19.3729 46.8492 19.4248C46.9873 19.4767 47.1344 19.5 47.2816 19.4933H45.1025C44.8222 19.5061 44.5575 19.6269 44.3636 19.8306C44.1697 20.0342 44.0615 20.305 44.0615 20.5867C44.0615 20.8684 44.1697 21.1392 44.3636 21.3429C44.5575 21.5465 44.8222 21.6673 45.1025 21.6801H57.7132C57.9936 21.6673 58.2583 21.5465 58.4522 21.3429C58.6461 21.1392 58.7543 20.8684 58.7543 20.5867C58.7543 20.305 58.6461 20.0342 58.4522 19.8306C58.2583 19.6269 57.9936 19.5061 57.7132 19.4933H59.8923C60.0396 19.5 60.1867 19.4767 60.3247 19.4248C60.4628 19.3729 60.5889 19.2934 60.6955 19.1912C60.802 19.089 60.8869 18.9662 60.9448 18.8302C61.0028 18.6942 61.0327 18.5478 61.0327 18.3998C61.0327 18.2519 61.0028 18.1055 60.9448 17.9695C60.8869 17.8335 60.802 17.7106 60.6955 17.6084C60.5889 17.5062 60.4628 17.4268 60.3247 17.3749C60.1867 17.323 60.0396 17.2997 59.8923 17.3064Z" fill="#252223"/>
<path opacity="0.1" d="M115.558 44.7842H114.001C114.148 44.7909 114.295 44.7676 114.433 44.7157C114.571 44.6638 114.697 44.5844 114.804 44.4822C114.911 44.38 114.995 44.2571 115.053 44.1211C115.111 43.9851 115.141 43.8387 115.141 43.6908C115.141 43.5428 115.111 43.3964 115.053 43.2604C114.995 43.1244 114.911 43.0016 114.804 42.8994C114.697 42.7972 114.571 42.7177 114.433 42.6658C114.295 42.6139 114.148 42.5906 114.001 42.5973H101.39C101.11 42.6102 100.845 42.731 100.651 42.9346C100.457 43.1383 100.349 43.4091 100.349 43.6908C100.349 43.9724 100.457 44.2433 100.651 44.4469C100.845 44.6506 101.11 44.7714 101.39 44.7842H102.947C102.8 44.7775 102.653 44.8008 102.515 44.8527C102.377 44.9046 102.25 44.984 102.144 45.0862C102.037 45.1884 101.952 45.3112 101.895 45.4473C101.837 45.5833 101.807 45.7297 101.807 45.8776C101.807 46.0256 101.837 46.172 101.895 46.308C101.952 46.444 102.037 46.5668 102.144 46.669C102.25 46.7712 102.377 46.8507 102.515 46.9026C102.653 46.9545 102.8 46.9778 102.947 46.9711H100.768C100.621 46.9643 100.474 46.9876 100.336 47.0395C100.198 47.0914 100.071 47.1709 99.9648 47.2731C99.8582 47.3753 99.7734 47.4981 99.7154 47.6341C99.6575 47.7702 99.6276 47.9166 99.6276 48.0645C99.6276 48.2124 99.6575 48.3588 99.7154 48.4949C99.7734 48.6309 99.8582 48.7537 99.9648 48.8559C100.071 48.9581 100.198 49.0376 100.336 49.0895C100.474 49.1414 100.621 49.1647 100.768 49.1579H113.379C113.526 49.1647 113.673 49.1414 113.811 49.0895C113.949 49.0376 114.075 48.9581 114.182 48.8559C114.288 48.7537 114.373 48.6309 114.431 48.4949C114.489 48.3588 114.519 48.2124 114.519 48.0645C114.519 47.9166 114.489 47.7702 114.431 47.6341C114.373 47.4981 114.288 47.3753 114.182 47.2731C114.075 47.1709 113.949 47.0914 113.811 47.0395C113.673 46.9876 113.526 46.9643 113.379 46.9711H115.558C115.705 46.9778 115.852 46.9545 115.99 46.9026C116.128 46.8507 116.254 46.7712 116.361 46.669C116.467 46.5668 116.552 46.444 116.61 46.308C116.668 46.172 116.698 46.0256 116.698 45.8776C116.698 45.7297 116.668 45.5833 116.61 45.4473C116.552 45.3112 116.467 45.1884 116.361 45.0862C116.254 44.984 116.128 44.9046 115.99 44.8527C115.852 44.8008 115.705 44.7775 115.558 44.7842Z" fill="#252223"/>
<path opacity="0.1" d="M210.37 8.90431H208.813C208.96 8.91105 209.107 8.88776 209.246 8.83585C209.384 8.78394 209.51 8.70448 209.616 8.60228C209.723 8.50008 209.808 8.37726 209.866 8.24124C209.924 8.10522 209.953 7.95881 209.953 7.81088C209.953 7.66294 209.924 7.51654 209.866 7.38051C209.808 7.24449 209.723 7.12167 209.616 7.01947C209.51 6.91728 209.384 6.83782 209.246 6.78591C209.107 6.734 208.96 6.71071 208.813 6.71744H196.202C195.922 6.73027 195.657 6.85107 195.464 7.05473C195.27 7.25838 195.161 7.52921 195.161 7.81088C195.161 8.09255 195.27 8.36337 195.464 8.56703C195.657 8.77068 195.922 8.89149 196.202 8.90431H197.759C197.612 8.89758 197.465 8.92087 197.327 8.97278C197.189 9.02469 197.063 9.10414 196.956 9.20634C196.85 9.30854 196.765 9.43136 196.707 9.56738C196.649 9.70341 196.619 9.84981 196.619 9.99775C196.619 10.1457 196.649 10.2921 196.707 10.4281C196.765 10.5641 196.85 10.687 196.956 10.7892C197.063 10.8913 197.189 10.9708 197.327 11.0227C197.465 11.0746 197.612 11.0979 197.759 11.0912H195.58C195.433 11.0844 195.286 11.1077 195.148 11.1596C195.01 11.2116 194.884 11.291 194.777 11.3932C194.67 11.4954 194.586 11.6182 194.528 11.7543C194.47 11.8903 194.44 12.0367 194.44 12.1846C194.44 12.3326 194.47 12.479 194.528 12.615C194.586 12.751 194.67 12.8738 194.777 12.976C194.884 13.0782 195.01 13.1577 195.148 13.2096C195.286 13.2615 195.433 13.2848 195.58 13.2781H208.191C208.338 13.2848 208.485 13.2615 208.623 13.2096C208.761 13.1577 208.887 13.0782 208.994 12.976C209.101 12.8738 209.185 12.751 209.243 12.615C209.301 12.479 209.331 12.3326 209.331 12.1846C209.331 12.0367 209.301 11.8903 209.243 11.7543C209.185 11.6182 209.101 11.4954 208.994 11.3932C208.887 11.291 208.761 11.2116 208.623 11.1596C208.485 11.1077 208.338 11.0844 208.191 11.0912H210.37C210.517 11.0979 210.664 11.0746 210.802 11.0227C210.94 10.9708 211.067 10.8913 211.173 10.7892C211.28 10.687 211.365 10.5641 211.422 10.4281C211.48 10.2921 211.51 10.1457 211.51 9.99775C211.51 9.84981 211.48 9.70341 211.422 9.56738C211.365 9.43136 211.28 9.30854 211.173 9.20634C211.067 9.10414 210.94 9.02469 210.802 8.97278C210.664 8.92087 210.517 8.89758 210.37 8.90431Z" fill="#252223"/>
<path d="M180.584 1.03091C178.677 1.01262 176.771 1.12796 174.88 1.37609C174.88 1.01171 174.736 0.662254 174.479 0.4046C174.222 0.146946 173.874 0.00219727 173.511 0.00219727C173.148 0.00219727 172.8 0.146946 172.543 0.4046C172.286 0.662254 172.142 1.01171 172.142 1.37609C170.251 1.12796 168.344 1.01262 166.437 1.03091C162.217 1.03091 158.793 1.48509 158.793 2.06189C158.793 2.6387 162.215 3.09288 166.437 3.09288C168.344 3.11117 170.251 2.99583 172.142 2.7477C172.142 2.91297 172.172 3.07687 172.23 3.2314C172.107 3.3078 172.003 3.41289 171.928 3.53783C171.854 3.66277 171.81 3.80389 171.801 3.94927C171.792 4.09466 171.819 4.24006 171.877 4.37321C171.936 4.50635 172.026 4.62334 172.14 4.7143C171.807 4.828 171.502 5.00989 171.244 5.24839C170.986 5.48689 170.78 5.77676 170.639 6.09954C170.261 5.80933 169.803 5.64215 169.327 5.62038L155.114 4.98453C154.597 4.28983 153.925 3.72588 153.152 3.33756C152.38 2.94923 151.527 2.74726 150.663 2.7477H141.716C140.845 2.7473 139.986 2.95265 139.208 3.34715C138.43 3.74165 137.756 4.31423 137.24 5.01859L123.74 5.62492C123.3 5.64439 122.874 5.78846 122.511 6.04049C122.245 5.46871 121.777 5.01691 121.197 4.77334C121.342 4.6804 121.458 4.54773 121.531 4.39092C121.604 4.23412 121.63 4.0597 121.608 3.88819C121.585 3.71668 121.514 3.5552 121.403 3.42276C121.292 3.29032 121.146 3.19241 120.982 3.14057C121.02 3.01309 121.039 2.88073 121.038 2.7477C122.929 2.99584 124.836 3.11118 126.743 3.09288C130.963 3.09288 134.387 2.6387 134.387 2.06189C134.387 1.48509 130.965 1.03091 126.743 1.03091C124.836 1.01262 122.929 1.12796 121.038 1.37609C121.038 1.01472 120.895 0.668153 120.641 0.412628C120.386 0.157104 120.041 0.0135507 119.681 0.0135507C119.321 0.0135507 118.975 0.157104 118.721 0.412628C118.466 0.668153 118.323 1.01472 118.323 1.37609C116.432 1.12796 114.526 1.01262 112.618 1.03091C108.398 1.03091 104.975 1.48509 104.975 2.06189C104.975 2.6387 108.396 3.09288 112.618 3.09288C114.526 3.11117 116.432 2.99583 118.323 2.7477C118.323 2.91297 118.353 3.07687 118.411 3.2314C118.284 3.30973 118.178 3.41844 118.103 3.54783C118.027 3.67722 117.985 3.82328 117.98 3.97299C117.974 4.12271 118.006 4.27144 118.072 4.40593C118.138 4.54042 118.236 4.6565 118.357 4.74382C117.878 4.92503 117.465 5.24827 117.174 5.67055C116.882 6.09283 116.726 6.59414 116.725 7.10781V8.8019C116.726 9.46891 116.989 10.1087 117.457 10.5821C117.926 11.0554 118.561 11.324 119.226 11.3294H120.228C120.621 11.3294 121.009 11.237 121.36 11.0595C121.711 10.882 122.015 10.6245 122.249 10.3075C122.665 10.6972 123.209 10.9208 123.779 10.9365L137.016 11.309C137.439 11.9784 137.998 12.5503 138.657 12.9872C137.389 14.2793 132.447 20.0087 133.244 30.1051C133.244 30.1051 134.043 31.5926 136.095 30.1051C136.095 30.1051 134.783 18.8551 142.13 14.2225C142.255 14.5813 142.487 14.8924 142.796 15.1125C143.104 15.3327 143.473 15.451 143.852 15.4511H144.791C143.729 15.8716 142.846 16.6511 142.294 17.655C141.743 18.6589 141.558 19.8243 141.772 20.9504C141.985 22.0764 142.583 23.0925 143.463 23.8234C144.343 24.5543 145.449 24.9542 146.591 24.9542C147.733 24.9542 148.84 24.5543 149.719 23.8234C150.599 23.0925 151.197 22.0764 151.411 20.9504C151.624 19.8243 151.439 18.6589 150.888 17.655C150.337 16.6511 149.454 15.8716 148.391 15.4511H149.33C149.709 15.451 150.078 15.3327 150.387 15.1125C150.695 14.8924 150.928 14.5813 151.052 14.2225C158.4 18.8551 157.087 30.1051 157.087 30.1051C159.14 31.5926 159.938 30.1051 159.938 30.1051C160.844 18.5417 154.234 12.7056 154.234 12.7056H154.114C154.601 12.3191 155.02 11.854 155.354 11.3294L169.288 10.9388C169.887 10.9251 170.458 10.6813 170.884 10.2575C171.115 10.5927 171.425 10.8665 171.785 11.0555C172.145 11.2445 172.545 11.3432 172.952 11.343H173.954C174.285 11.343 174.613 11.2776 174.919 11.1505C175.225 11.0233 175.503 10.837 175.737 10.6021C175.971 10.3672 176.157 10.0883 176.283 9.78135C176.41 9.47443 176.475 9.14547 176.475 8.81325V7.11917C176.475 6.63059 176.334 6.15251 176.069 5.74267C175.804 5.33284 175.426 5.00879 174.982 4.80967C175.136 4.72377 175.263 4.5943 175.345 4.43725C175.427 4.2802 175.461 4.10243 175.444 3.9259C175.427 3.74936 175.358 3.58178 175.247 3.44384C175.136 3.3059 174.987 3.20363 174.819 3.14965C174.857 3.02217 174.876 2.88981 174.875 2.75679C176.767 3.00492 178.673 3.12026 180.58 3.10196C184.8 3.10196 188.224 2.64778 188.224 2.07098C188.224 1.49417 184.807 1.03091 180.584 1.03091Z" fill="url(#paint0_linear)"/>
<path d="M146.592 24.4121C149.147 24.4121 151.218 22.3339 151.218 19.7704C151.218 17.2068 149.147 15.1287 146.592 15.1287C144.038 15.1287 141.967 17.2068 141.967 19.7704C141.967 22.3339 144.038 24.4121 146.592 24.4121Z" fill="#8E87FF"/>
<path d="M146.592 22.9018C148.316 22.9018 149.713 21.4997 149.713 19.7702C149.713 18.0407 148.316 16.6387 146.592 16.6387C144.869 16.6387 143.472 18.0407 143.472 19.7702C143.472 21.4997 144.869 22.9018 146.592 22.9018Z" fill="#8E87FF"/>
<path opacity="0.2" d="M146.592 22.9018C148.316 22.9018 149.713 21.4997 149.713 19.7702C149.713 18.0407 148.316 16.6387 146.592 16.6387C144.869 16.6387 143.472 18.0407 143.472 19.7702C143.472 21.4997 144.869 22.9018 146.592 22.9018Z" fill="#F5F5F5"/>
<path d="M146.592 21.821C147.721 21.821 148.636 20.9029 148.636 19.7703C148.636 18.6378 147.721 17.7197 146.592 17.7197C145.464 17.7197 144.549 18.6378 144.549 19.7703C144.549 20.9029 145.464 21.821 146.592 21.821Z" fill="#8E87FF"/>
<path opacity="0.25" d="M146.592 21.821C147.721 21.821 148.636 20.9029 148.636 19.7703C148.636 18.6378 147.721 17.7197 146.592 17.7197C145.464 17.7197 144.549 18.6378 144.549 19.7703C144.549 20.9029 145.464 21.821 146.592 21.821Z" fill="black"/>
<path d="M139.383 12.8599C139.383 12.8599 133.144 18.3691 134.004 29.2694C134.004 29.2694 134.758 30.6728 136.695 29.2694C136.695 29.2694 135.081 15.4488 145.839 12.8577L139.383 12.8599Z" fill="#8E87FF"/>
<path d="M153.799 12.8599C153.799 12.8599 160.04 18.3691 159.187 29.2694C159.187 29.2694 158.434 30.6728 156.497 29.2694C156.497 29.2694 158.11 15.4488 147.353 12.8577L153.799 12.8599Z" fill="#8E87FF"/>
<path d="M150.437 3.46533H141.992C139.095 3.46533 136.747 5.82207 136.747 8.72926C136.747 11.6364 139.095 13.9932 141.992 13.9932H150.437C153.334 13.9932 155.682 11.6364 155.682 8.72926C155.682 5.82207 153.334 3.46533 150.437 3.46533Z" fill="#8E87FF"/>
<path d="M139.849 11.6065L125.075 11.191C124.498 11.175 123.95 10.9337 123.548 10.5185C123.146 10.1033 122.921 9.54691 122.921 8.96775V8.40003C122.921 7.8277 123.141 7.27742 123.535 6.86373C123.929 6.45004 124.467 6.20482 125.037 6.17909L139.811 5.51372C140.11 5.50022 140.408 5.54767 140.689 5.65319C140.969 5.75871 141.225 5.92013 141.441 6.12769C141.657 6.33525 141.83 6.58466 141.947 6.86085C142.065 7.13704 142.126 7.43429 142.126 7.73465V9.38559C142.125 9.68259 142.066 9.97654 141.951 10.2501C141.835 10.5236 141.667 10.7712 141.454 10.9782C141.242 11.1853 140.991 11.3475 140.715 11.4554C140.439 11.5633 140.145 11.6147 139.849 11.6065Z" fill="#8E87FF"/>
<path d="M153.227 11.6065L168.001 11.191C168.578 11.175 169.126 10.9337 169.528 10.5185C169.93 10.1033 170.155 9.54691 170.155 8.96775V8.40003C170.155 7.8277 169.935 7.27742 169.541 6.86373C169.147 6.45004 168.609 6.20482 168.039 6.17909L153.265 5.51372C152.966 5.50022 152.668 5.54767 152.388 5.65319C152.107 5.75871 151.851 5.92013 151.635 6.12769C151.419 6.33525 151.246 6.58466 151.129 6.86085C151.011 7.13704 150.951 7.43429 150.951 7.73465V9.38559C150.951 9.68259 151.01 9.97654 151.125 10.2501C151.241 10.5236 151.409 10.7712 151.622 10.9782C151.834 11.1853 152.085 11.3475 152.361 11.4554C152.637 11.5633 152.931 11.6147 153.227 11.6065Z" fill="#8E87FF"/>
<path opacity="0.2" d="M139.849 11.6065L125.075 11.191C124.498 11.175 123.95 10.9337 123.548 10.5185C123.146 10.1033 122.921 9.54691 122.921 8.96775V8.40003C122.921 7.8277 123.141 7.27742 123.535 6.86373C123.929 6.45004 124.467 6.20482 125.037 6.17909L139.811 5.51372C140.11 5.50022 140.408 5.54767 140.689 5.65319C140.969 5.75871 141.225 5.92013 141.441 6.12769C141.657 6.33525 141.83 6.58466 141.947 6.86085C142.065 7.13704 142.126 7.43429 142.126 7.73465V9.38559C142.125 9.68259 142.066 9.97654 141.951 10.2501C141.835 10.5236 141.667 10.7712 141.454 10.9782C141.242 11.1853 140.991 11.3475 140.715 11.4554C140.439 11.5633 140.145 11.6147 139.849 11.6065Z" fill="#F5F5F5"/>
<path opacity="0.2" d="M153.227 11.6065L168.001 11.191C168.578 11.175 169.126 10.9337 169.528 10.5185C169.93 10.1033 170.155 9.54691 170.155 8.96775V8.40003C170.155 7.8277 169.935 7.27742 169.541 6.86373C169.147 6.45004 168.609 6.20482 168.039 6.17909L153.265 5.51372C152.966 5.50022 152.668 5.54767 152.388 5.65319C152.107 5.75871 151.851 5.92013 151.635 6.12769C151.419 6.33525 151.246 6.58466 151.129 6.86085C151.011 7.13704 150.951 7.43429 150.951 7.73465V9.38559C150.951 9.68259 151.01 9.97654 151.125 10.2501C151.241 10.5236 151.409 10.7712 151.622 10.9782C151.834 11.1853 152.085 11.3475 152.361 11.4554C152.637 11.5633 152.931 11.6147 153.227 11.6065Z" fill="#F5F5F5"/>
<path d="M121.579 5.19336H120.932C119.536 5.19336 118.404 6.32903 118.404 7.72994V9.02662C118.404 10.4275 119.536 11.5632 120.932 11.5632H121.579C122.975 11.5632 124.107 10.4275 124.107 9.02662V7.72994C124.107 6.32903 122.975 5.19336 121.579 5.19336Z" fill="#8E87FF"/>
<path d="M172.253 5.19336H171.606C170.21 5.19336 169.078 6.32903 169.078 7.72994V9.02662C169.078 10.4275 170.21 11.5632 171.606 11.5632H172.253C173.649 11.5632 174.78 10.4275 174.78 9.02662V7.72994C174.78 6.32903 173.649 5.19336 172.253 5.19336Z" fill="#8E87FF"/>
<path d="M122.17 3.79028H120.448C119.973 3.79028 119.588 4.17663 119.588 4.65322V4.65549C119.588 5.13208 119.973 5.51843 120.448 5.51843H122.17C122.645 5.51843 123.03 5.13208 123.03 4.65549V4.65322C123.03 4.17663 122.645 3.79028 122.17 3.79028Z" fill="#8E87FF"/>
<path d="M122.493 2.17095C122.493 1.45481 121.915 0.874268 121.202 0.874268C120.489 0.874268 119.911 1.45481 119.911 2.17095V3.46535C119.911 4.18149 120.489 4.76203 121.202 4.76203C121.915 4.76203 122.493 4.18149 122.493 3.46535V2.17095Z" fill="#8E87FF"/>
<path d="M114.53 3.79007C118.512 3.79007 121.74 3.35492 121.74 2.81813C121.74 2.28134 118.512 1.84619 114.53 1.84619C110.549 1.84619 107.321 2.28134 107.321 2.81813C107.321 3.35492 110.549 3.79007 114.53 3.79007Z" fill="#8E87FF"/>
<path d="M127.872 3.79007C131.854 3.79007 135.081 3.35492 135.081 2.81813C135.081 2.28134 131.854 1.84619 127.872 1.84619C123.89 1.84619 120.663 2.28134 120.663 2.81813C120.663 3.35492 123.89 3.79007 127.872 3.79007Z" fill="#8E87FF"/>
<path d="M172.95 3.79028H171.228C170.753 3.79028 170.368 4.17663 170.368 4.65322V4.65549C170.368 5.13208 170.753 5.51843 171.228 5.51843H172.95C173.425 5.51843 173.81 5.13208 173.81 4.65549V4.65322C173.81 4.17663 173.425 3.79028 172.95 3.79028Z" fill="#8E87FF"/>
<path d="M173.273 2.17095C173.273 1.45481 172.695 0.874268 171.982 0.874268C171.269 0.874268 170.691 1.45481 170.691 2.17095V3.46535C170.691 4.18149 171.269 4.76203 171.982 4.76203C172.695 4.76203 173.273 4.18149 173.273 3.46535V2.17095Z" fill="#8E87FF"/>
<path d="M165.313 3.79007C169.294 3.79007 172.522 3.35492 172.522 2.81813C172.522 2.28134 169.294 1.84619 165.313 1.84619C161.331 1.84619 158.103 2.28134 158.103 2.81813C158.103 3.35492 161.331 3.79007 165.313 3.79007Z" fill="#8E87FF"/>
<path d="M178.652 3.79007C182.634 3.79007 185.861 3.35492 185.861 2.81813C185.861 2.28134 182.634 1.84619 178.652 1.84619C174.67 1.84619 171.443 2.28134 171.443 2.81813C171.443 3.35492 174.67 3.79007 178.652 3.79007Z" fill="#8E87FF"/>
<path opacity="0.2" d="M114.53 3.79007C118.512 3.79007 121.74 3.35492 121.74 2.81813C121.74 2.28134 118.512 1.84619 114.53 1.84619C110.549 1.84619 107.321 2.28134 107.321 2.81813C107.321 3.35492 110.549 3.79007 114.53 3.79007Z" fill="#F5F5F5"/>
<path opacity="0.2" d="M127.872 3.79007C131.854 3.79007 135.081 3.35492 135.081 2.81813C135.081 2.28134 131.854 1.84619 127.872 1.84619C123.89 1.84619 120.663 2.28134 120.663 2.81813C120.663 3.35492 123.89 3.79007 127.872 3.79007Z" fill="#F5F5F5"/>
<path opacity="0.2" d="M165.313 3.79007C169.294 3.79007 172.522 3.35492 172.522 2.81813C172.522 2.28134 169.294 1.84619 165.313 1.84619C161.331 1.84619 158.103 2.28134 158.103 2.81813C158.103 3.35492 161.331 3.79007 165.313 3.79007Z" fill="#F5F5F5"/>
<path opacity="0.2" d="M178.652 3.79007C182.634 3.79007 185.861 3.35492 185.861 2.81813C185.861 2.28134 182.634 1.84619 178.652 1.84619C174.67 1.84619 171.443 2.28134 171.443 2.81813C171.443 3.35492 174.67 3.79007 178.652 3.79007Z" fill="#F5F5F5"/>
<path d="M149.174 11.9949H144.01C143.059 11.9949 142.288 12.7681 142.288 13.7219C142.288 14.6757 143.059 15.4489 144.01 15.4489H149.174C150.125 15.4489 150.896 14.6757 150.896 13.7219C150.896 12.7681 150.125 11.9949 149.174 11.9949Z" fill="#8E87FF"/>
<path opacity="0.2" d="M149.174 11.9949H144.01C143.059 11.9949 142.288 12.7681 142.288 13.7219C142.288 14.6757 143.059 15.4489 144.01 15.4489H149.174C150.125 15.4489 150.896 14.6757 150.896 13.7219C150.896 12.7681 150.125 11.9949 149.174 11.9949Z" fill="#F5F5F5"/>
<path d="M154.406 29.9417H135.237V49.1784H154.406H159.303V29.9417H154.406Z" fill="#67647E"/>
<path opacity="0.25" d="M159.305 29.9417H154.406V49.1784H159.305V29.9417Z" fill="black"/>
<path opacity="0.25" d="M141.2 33.1482H137.579V35.0716H141.2V33.1482Z" fill="black"/>
<path d="M145.712 27.6798C146.527 28.8379 146.391 30.3299 146.391 30.3299C146.391 30.3299 144.947 29.9461 144.128 28.788C143.309 27.6298 142.997 26.4444 143.449 26.1378C143.902 25.8313 144.897 26.5194 145.712 27.6798Z" fill="#67647E"/>
<path d="M147.09 27.6798C146.276 28.8379 146.411 30.3299 146.411 30.3299C146.411 30.3299 147.855 29.9461 148.674 28.788C149.493 27.6298 149.805 26.4444 149.353 26.1378C148.9 25.8313 147.905 26.5194 147.09 27.6798Z" fill="#67647E"/>
<path d="M46.1552 80.2715L46.1299 80.3499C46.1406 80.3246 46.1491 80.2983 46.1552 80.2715Z" fill="url(#paint1_linear)"/>
<path d="M118.997 143.087C119.013 143.064 119.029 143.043 119.04 143.021L119.065 142.973C119.076 142.95 119.09 142.93 119.099 142.907L119.117 142.859C119.117 142.837 119.135 142.814 119.142 142.791C119.149 142.769 119.142 142.762 119.153 142.746C119.165 142.73 119.165 142.701 119.169 142.676C119.174 142.651 119.169 142.648 119.169 142.632C119.169 142.617 119.169 142.585 119.169 142.56C119.169 142.535 119.169 142.535 119.169 142.521C119.169 142.508 119.169 142.471 119.169 142.446C119.169 142.421 119.169 142.423 119.169 142.412C119.169 142.401 119.169 142.36 119.169 142.335V142.305C119.169 142.278 119.169 142.251 119.151 142.224V142.199C119.151 142.169 119.133 142.142 119.124 142.112V142.094C119.113 142.064 119.101 142.034 119.088 142.006V141.992C119.074 141.96 119.059 141.929 119.043 141.899L118.988 141.801C118.78 141.477 118.517 141.191 118.212 140.956C115.879 141.922 113.008 140.818 113.008 140.818C113.008 140.818 109.161 138.89 109.439 139.44C109.532 139.626 109.484 139.996 109.38 140.409C107.538 140.021 106.522 139.028 105.97 138.138L108.068 135.867C108.068 135.867 99.5574 131.046 98.5979 128.567C97.6385 126.087 92.9703 119.063 92.9703 119.063C92.9703 119.063 91.461 113.554 88.7162 112.314C88.7162 112.314 83.2424 105.751 80.045 100.124C81.1765 97.2872 82.7604 92.8567 82.4029 90.9651C81.9503 88.6079 82.4187 84.1524 82.6066 82.5764C84.1249 83.8481 90.3001 88.8827 92.6965 88.7623C93.5586 88.7192 94.4864 88.2559 95.3576 87.6382C97.4303 86.3211 99.2858 83.9412 99.2858 83.9412C99.0052 83.9685 98.7767 83.7141 98.5911 83.2826C100.883 80.7847 105.631 75.6434 106.149 75.5389C106.828 75.4004 110.541 68.9283 108.482 67.5499C106.423 66.1715 102.719 71.1311 102.58 72.0917C102.488 72.7457 99.6162 75.6161 97.7788 77.3965C97.7788 77.3511 97.7788 77.3261 97.7788 77.3261L97.5072 77.4624C97.5072 77.3761 97.5072 77.3261 97.5072 77.3261L92.7666 79.7037L88.723 74.1582C88.723 74.1582 87.6255 68.2357 84.8762 67.2706C82.1268 66.3055 80.0971 63.3329 80.0971 63.3329C80.0716 63.4294 80.0512 63.5271 80.036 63.6258C79.898 63.4419 79.8233 63.3329 79.8233 63.3329C79.8233 63.3329 79.8233 63.3578 79.8052 63.3987C79.5979 62.5508 79.545 61.6722 79.6491 60.8054L79.6875 60.7826C79.7034 60.6759 79.7215 60.5737 79.7396 60.4761C81.1433 59.6217 82.1955 58.2909 82.7057 56.7249C83.2159 55.1589 83.1502 53.4614 82.5206 51.9398C83.2198 51.4493 84.2335 51.145 85.0957 50.7726C86.3147 50.2734 87.3826 49.4632 88.1935 48.4222C87.7212 48.3035 87.2259 48.3137 86.7588 48.4517C86.7 47.8136 87.4377 47.0892 86.8629 46.6032C86.5099 46.3012 85.8514 46.3284 85.3491 46.4783C84.8467 46.6282 84.3874 46.8734 83.8534 46.9325C82.9233 47.046 82.0431 46.5941 81.3801 46.1059C80.7171 45.6176 80.0926 45.0454 79.2055 44.8137C77.4428 44.3596 75.6959 45.4064 73.9264 45.8515C71.0843 46.5646 69.4007 47.3276 69.2627 49.1443C68.8969 49.391 68.5599 49.6782 68.258 50.0005C67.6472 50.5333 67.2249 51.2503 67.0542 52.0443C66.8143 53.2796 67.3122 54.5422 67.9141 55.6413C68.2557 56.2704 69.8986 59.5291 71.0141 59.0999C71.3229 59.4559 71.6671 59.7793 72.0414 60.065C72.0052 60.4397 71.9532 60.819 71.8944 61.2005C71.6426 61.3385 71.3695 61.4329 71.0865 61.4798C70.4725 61.5943 69.8488 61.649 69.2242 61.6433C68.248 61.6361 67.2728 61.5762 66.3029 61.4639C65.3602 61.3546 64.412 61.3 63.4631 61.3004C62.9901 61.2988 62.5173 61.3216 62.0466 61.3685H61.9742L61.6936 61.4026H61.6506L61.3451 61.4526H61.3111L61.0622 61.5025L61.0057 61.5139L60.7522 61.5752L60.5033 61.6456L60.4626 61.6569L60.268 61.7183L60.225 61.7319C60.0779 61.7818 59.9399 61.8363 59.8086 61.8908L59.7679 61.909L59.605 61.9794L59.5756 61.993L59.3923 62.0793H59.3764L59.218 62.1588L59.1796 62.1793L59.0257 62.2587L58.8311 62.3609L58.7134 62.4222L58.6591 62.4518L58.4985 62.5335C57.1249 63.2148 43.8127 66.8028 41.4798 73.9652L41.5273 74.0083L41.5793 74.056C41.5409 74.1605 41.5024 74.2649 41.4685 74.3694C41.4685 74.3694 41.6947 74.5738 42.0477 74.9053C41.4209 77.644 39.7419 84.6429 38.8594 84.9745C37.762 85.3878 36.5265 93.7901 39.4093 93.5153C42.2921 93.2405 42.2921 86.4914 42.2921 86.4914C42.2921 86.4914 44.1929 81.3774 45.5936 78.7817C45.8351 79.105 46.0209 79.4665 46.1435 79.8513V79.8809V79.8536C46.1774 79.9717 46.1828 80.0963 46.1593 80.2169C46.2951 79.8173 46.9988 77.9824 48.4674 78.2276C50.0355 78.4911 55.9596 72.6344 56.5208 72.0735C56.5072 72.2257 56.4891 72.4164 56.471 72.6367C56.471 72.7661 56.4483 72.9047 56.437 73.0545V73.1022V73.2158V73.2907V73.4065V73.4883V73.6041V73.7086L56.4257 73.8789V74.0174V74.1151V74.2536V74.3467V74.492V74.5897V74.7486V74.8395L56.4099 75.0893V75.1233L56.3963 75.3504V75.4299V75.6207V75.7115V75.9068V75.9885L56.385 76.2156V76.261C56.385 76.3595 56.3805 76.4586 56.3714 76.5585V76.5767C56.3714 76.6675 56.3676 76.7584 56.3601 76.8492V76.9287V77.1558V77.2466C56.3601 77.3223 56.3601 77.398 56.3601 77.4737V77.5509C56.3601 77.7583 56.3533 77.968 56.3397 78.18V78.2254C56.3397 78.3147 56.3397 78.404 56.3397 78.4933V78.5751C56.3397 78.6553 56.3397 78.7356 56.3397 78.8158V78.8998C56.3397 78.9876 56.3397 79.0762 56.3397 79.1655V79.2178C56.3397 79.4342 56.3397 79.6522 56.3397 79.8718C56.3397 79.8945 56.3397 79.9172 56.3397 79.9422C56.3397 80.0269 56.3397 80.1117 56.3397 80.1965C56.3397 80.2253 56.3397 80.2548 56.3397 80.2851C56.3397 80.3653 56.3397 80.4463 56.3397 80.5281C56.3397 80.5508 56.3397 80.5735 56.3397 80.5962C56.3397 83.6006 56.523 86.6595 57.1951 88.4035C57.5517 89.341 57.7416 90.3341 57.7563 91.3375C57.6929 93.1516 57.2193 94.9276 56.3714 96.531L56.5321 96.4811L56.5026 96.5333L56.5909 96.5061C56.4551 96.7899 56.3646 96.9466 56.3646 96.9466C56.3646 96.9466 56.5637 96.883 56.919 96.7786C56.4121 98.5726 56.075 101.334 57.0503 104.799C57.0503 104.799 57.6001 107.829 57.1883 108.932C56.7765 110.036 56.3646 118.849 56.3646 118.849C56.3646 118.849 55.541 119.951 54.0317 119.263C52.5224 118.575 33.9944 116.233 33.9944 116.233C33.9944 116.233 33.9514 116.308 33.879 116.442C33.3087 116.263 32.4873 115.988 31.8877 115.736C32.114 115.423 32.3154 115.243 32.4851 115.268C32.4851 115.268 31.4962 114.789 30.4191 114.41L30.2222 114.342L30.0299 114.278H30.0163L29.833 114.221H29.8127L29.6452 114.174H29.6113L29.4529 114.133H29.4122L29.2605 114.099H29.2176L29.0818 114.071H29.0297L28.9075 114.051H28.8487L28.7378 114.037H28.6767H28.5726H28.3622H28.2785H28.2242L28.1495 114.053H28.0997L28.0364 114.076L27.9911 114.092C27.9708 114.102 27.9511 114.113 27.9323 114.126L27.8983 114.146C27.8707 114.167 27.8456 114.19 27.8237 114.217C27.1448 115.043 23.298 130.883 25.0788 131.984L25.2327 132.077L25.2961 132.114L25.3775 132.159L25.4567 132.2L25.5133 132.229L25.5993 132.27L25.6423 132.291L25.7305 132.329L25.7622 132.343L25.8527 132.377H25.8731L25.9659 132.407H25.9772C26.9728 132.677 27.3032 131.753 28.5093 129.772C29.6905 127.833 31.2088 125.387 32.5348 124.481C32.5643 124.547 32.5937 124.613 32.6254 124.676C32.6254 124.676 46.4874 126.191 51.5652 127.856C56.6429 129.52 60.6165 131.716 63.9179 127.856C66.8732 124.397 69.8261 113.181 70.4032 110.908L70.4891 110.567V110.538V110.508L81.4684 118.911L86.2723 124.558C86.2723 124.558 92.9974 134.062 94.2329 134.201C95.4684 134.339 101.033 143.434 101.033 143.434L101.241 143.207C101.291 143.459 101.329 143.691 101.359 143.888C100.906 144.981 101.325 146.298 101.736 147.165L101.755 147.201L101.802 147.297L101.827 147.347L101.872 147.435L101.895 147.478L101.942 147.569L101.967 147.612L102.003 147.678L102.022 147.712L102.069 147.794L102.089 147.828L102.119 147.876L102.135 147.903L102.171 147.962L102.184 147.985L102.207 148.019V148.035L102.23 148.071L102.243 148.089C102.243 148.089 116.655 144.647 118.438 143.548C118.495 143.514 118.547 143.477 118.597 143.441L118.642 143.405L118.732 143.332L118.778 143.289L118.848 143.223L118.889 143.175L118.943 143.112L118.997 143.087Z" fill="url(#paint2_linear)"/>
<path d="M35.2977 116.186C35.2977 116.186 32.0891 115.245 31.9556 114.843C31.8221 114.441 29.1474 122.222 29.1474 122.222L31.8221 124.1C31.8221 124.1 34.6302 122.49 36.101 122.757C37.5719 123.025 35.2977 116.186 35.2977 116.186Z" fill="#4C4C56"/>
<path d="M104.413 135.37C104.413 135.37 104.814 139.004 109.226 139.394C113.639 139.785 106.285 143.028 106.285 143.028L100.671 143.43C100.671 143.43 100.537 141.159 99.6003 139.406C98.6635 137.652 104.413 135.37 104.413 135.37Z" fill="#4C4C56"/>
<path d="M58.0255 94.5848C58.0255 94.5848 55.4866 98.4748 57.2245 104.647C57.2245 104.647 57.7585 107.599 57.358 108.671C56.9575 109.743 56.557 118.331 56.557 118.331C56.557 118.331 55.7559 119.406 54.2941 118.733C52.8324 118.061 34.7773 115.781 34.7773 115.781C34.7773 115.781 31.8356 120.879 33.44 123.956C33.44 123.956 46.9422 125.433 51.8888 127.043C56.8353 128.653 60.7138 130.799 63.9202 127.043C67.1266 123.287 70.3375 110.138 70.3375 110.138L81.0316 118.313L85.7112 123.813C85.7112 123.813 92.262 133.07 93.4658 133.204C94.6697 133.338 100.284 142.192 100.284 142.192L107.102 134.814C107.102 134.814 98.7993 130.138 97.8648 127.722C96.9302 125.305 92.3842 118.465 92.3842 118.465C92.3842 118.465 90.9134 113.099 88.241 111.891C88.241 111.891 78.6149 100.353 77.6804 94.9867C76.7458 89.6206 61.6347 92.1731 61.6347 92.1731L58.0255 94.5848Z" fill="#5F5D7E"/>
<path d="M107.756 140.997C107.756 140.997 108.692 138.851 108.434 138.313C108.176 137.775 111.894 139.662 111.894 139.662C111.894 139.662 114.702 140.736 116.974 139.796C116.974 139.796 118.979 141.272 117.241 142.344C115.503 143.416 101.467 146.772 101.467 146.772C101.467 146.772 99.3288 143.686 101.067 141.942L107.756 140.997Z" fill="#986365"/>
<path opacity="0.1" d="M97.8647 127.722C96.9279 125.308 92.3842 118.466 92.3842 118.466C92.3842 118.466 90.9134 113.099 88.241 111.891C88.241 111.891 78.6149 100.353 77.6804 94.9868C77.488 93.8808 76.6915 93.111 75.5511 92.5864L73.6865 98.2069L71.1408 105.882C70.6498 107.363 70.1837 109.014 70.2357 110.545C70.3013 110.29 70.3353 110.15 70.3353 110.15L81.0294 118.325L85.7089 123.825C85.7089 123.825 92.2597 133.081 93.4636 133.215C94.6674 133.349 100.281 142.203 100.281 142.203L107.099 134.825C107.099 134.825 98.7993 130.138 97.8647 127.722Z" fill="black"/>
<path d="M79.8142 60.1062C79.8142 60.1062 78.6828 62.9902 80.1491 65.6744C81.6154 68.3586 79.5472 73.1206 78.2099 73.3954C76.8725 73.6702 71.5255 70.1753 71.125 67.8953C70.7245 65.6153 72.8628 60.9191 71.8038 57.833L79.8142 60.1062Z" fill="#FDC2CC"/>
<path opacity="0.1" d="M72.5958 65.0701C72.5958 65.0701 76.739 73.5223 81.2851 67.484C81.2851 67.484 85.8311 76.7402 84.3602 78.2163C83.3143 79.2377 82.1974 80.1832 81.018 81.0458L78.6127 97.9503C78.6127 97.9503 64.9769 93.2541 59.2293 94.0603L68.0543 72.8638L72.5958 65.0701Z" fill="black"/>
<path d="M72.5958 64.6682C72.5958 64.6682 76.739 73.1205 81.2851 67.0822C81.2851 67.0822 85.8311 76.3383 84.3602 77.8144C83.3139 78.8319 82.1971 79.7736 81.018 80.6326L78.6127 97.5371C78.6127 97.5371 64.9769 92.8409 59.2293 93.647L68.0543 72.4506L72.5958 64.6682Z" fill="#D39999"/>
<path d="M43.0524 74.4602C43.0524 74.4602 40.7896 84.9245 39.7103 85.3264C38.6309 85.7284 37.4474 93.9127 40.2443 93.6447C43.0411 93.3767 43.0524 86.8025 43.0524 86.8025C43.0524 86.8025 45.9941 78.8862 47.1957 77.946C48.3972 77.0059 43.0524 74.4602 43.0524 74.4602Z" fill="#FDC2CC"/>
<path d="M95.5906 79.2904C95.5906 79.2904 101.607 73.6563 101.741 72.7162C101.874 71.776 105.484 66.9481 107.489 68.288C109.493 69.6278 105.884 75.934 105.226 76.0703C104.567 76.2066 96.67 84.9268 96.67 84.9268L95.5906 79.2904Z" fill="#FDC2CC"/>
<path opacity="0.1" d="M71.9939 62.4541C71.9939 62.4541 71.2585 63.3261 66.312 62.7902C61.3654 62.2543 60.1616 63.1921 58.8265 63.8643C57.4915 64.5365 44.5232 68.0223 42.2491 74.9917C42.2491 74.9917 47.3291 79.5539 46.7951 80.7598C46.7951 80.7598 47.474 78.4889 49.0579 78.7477C50.6419 79.0066 56.9461 72.7094 56.9461 72.7094C56.9461 72.7094 55.7423 84.5181 57.3467 88.6738C58.951 92.8295 56.5456 96.9921 56.5456 96.9921C56.5456 96.9921 67.9095 93.3587 72.9895 95.1141C72.9895 95.1141 75.9312 81.8316 73.3901 76.4655C70.8489 71.0994 74.4604 66.0012 74.4604 66.0012L71.9939 62.4541Z" fill="black"/>
<path opacity="0.1" d="M72.1275 62.052C72.1275 62.052 71.392 62.924 66.4455 62.3881C61.499 61.8522 60.2952 62.79 58.9601 63.4622C57.625 64.1344 44.6568 67.6202 42.3827 74.5896C42.3827 74.5896 47.4627 79.1518 46.9287 80.3577C46.9287 80.3577 47.6075 78.0868 49.1915 78.3456C50.7755 78.6045 57.0797 72.3073 57.0797 72.3073C57.0797 72.3073 55.8759 84.116 57.4802 88.2717C59.0845 92.4274 56.6814 96.5968 56.6814 96.5968C56.6814 96.5968 68.0453 92.9634 73.1254 94.7188C73.1254 94.7188 76.067 81.4363 73.5259 76.0702C70.9847 70.7041 74.6007 65.6037 74.6007 65.6037L72.1275 62.052Z" fill="black"/>
<path d="M71.9939 62.052C71.9939 62.052 71.2585 62.924 66.312 62.3881C61.3654 61.8522 60.1616 62.79 58.8265 63.4622C57.4915 64.1344 44.5233 67.6202 42.2491 74.5896C42.2491 74.5896 47.3291 79.1518 46.7951 80.3577C46.7951 80.3577 47.474 78.0868 49.0579 78.3457C50.6419 78.6045 56.9461 72.3074 56.9461 72.3074C56.9461 72.3074 55.7423 84.116 57.3467 88.2717C58.951 92.4275 56.5456 96.59 56.5456 96.59C56.5456 96.59 67.9095 92.9566 72.9895 94.712C72.9895 94.712 75.9312 81.4295 73.3901 76.0634C70.8489 70.6973 74.4672 65.6037 74.4672 65.6037L71.9939 62.052Z" fill="#EC7580"/>
<path opacity="0.1" d="M79.4816 64.4683C79.4816 64.4683 81.4208 67.3523 84.0932 68.2924C86.7656 69.2326 87.8359 75.0007 87.8359 75.0007L91.8456 80.5008L96.6586 78.0936C96.6586 78.0936 96.7922 84.6678 98.1295 84.5339C98.1295 84.5339 94.7873 88.8281 92.1126 88.9621C89.438 89.0961 81.9548 82.6354 81.9548 82.6354C81.9548 82.6354 81.1538 88.5397 81.6878 91.3556C82.2219 94.1715 78.3456 102.76 78.3456 102.76L72.9986 101.686C72.9986 101.686 75.8068 90.9537 79.2825 89.2096C79.2825 89.2096 79.2824 81.9655 78.7484 80.2214C78.2144 78.4774 82.2241 71.9032 81.6901 70.5611C81.3891 69.8094 80.2125 68.1993 79.6173 66.7369C79.3442 66.0119 79.2969 65.2208 79.4816 64.4683Z" fill="black"/>
<path opacity="0.1" d="M79.8821 64.1982C79.8821 64.1982 81.8213 67.0823 84.4937 68.0224C87.1661 68.9626 88.2364 74.7306 88.2364 74.7306L92.2462 80.2307L97.0592 77.8168C97.0592 77.8168 97.1927 84.391 98.53 84.257C98.53 84.257 95.1878 88.5513 92.5132 88.6853C89.8385 88.8192 82.3531 82.379 82.3531 82.379C82.3531 82.379 81.5521 88.2833 82.0861 91.0992C82.6201 93.9151 78.7439 102.504 78.7439 102.504L73.3969 101.429C73.3969 101.429 76.205 90.6973 79.6807 88.9532C79.6807 88.9532 79.6807 81.7091 79.1467 79.965C78.6127 78.221 82.6224 71.6468 82.0884 70.3047C81.7874 69.553 80.6107 67.9429 80.0156 66.4805C79.7404 65.7512 79.6938 64.9549 79.8821 64.1982Z" fill="black"/>
<path d="M79.6151 64.1982C79.6151 64.1982 81.5544 67.0823 84.2267 68.0224C86.8991 68.9626 87.9694 74.7306 87.9694 74.7306L91.9814 80.2307L96.7944 77.8168C96.7944 77.8168 96.9279 84.391 98.2653 84.257C98.2653 84.257 94.9231 88.5513 92.2484 88.6853C89.5738 88.8192 82.0884 82.379 82.0884 82.379C82.0884 82.379 81.2873 88.2833 81.8214 91.0992C82.3554 93.9151 78.4792 102.504 78.4792 102.504L73.1321 101.429C73.1321 101.429 75.9403 90.6973 79.416 88.9532C79.416 88.9532 79.416 81.7091 78.882 79.965C78.3479 78.221 82.3576 71.6468 81.8236 70.3047C81.5227 69.553 80.346 67.9429 79.7509 66.4805C79.4749 65.7514 79.4276 64.9551 79.6151 64.1982Z" fill="#EC7580"/>
<path opacity="0.05" d="M79.8414 64.4253C79.8414 64.4253 81.7806 67.3093 84.453 68.2495C87.1254 69.1896 88.1957 74.9577 88.1957 74.9577L92.2077 80.4578L97.0207 78.0438C97.0207 78.0438 97.1542 84.6181 98.4916 84.4841C98.4916 84.4841 95.1494 88.7783 92.4747 88.9123C89.8001 89.0463 82.3146 82.6061 82.3146 82.6061C82.3146 82.6061 81.5136 88.5104 82.0476 91.3263C82.5817 94.1422 78.7054 102.731 78.7054 102.731L73.3584 101.657C73.3584 101.657 76.1666 90.9243 79.6423 89.1803C79.6423 89.1803 79.6422 81.9361 79.1082 80.1921C78.5742 78.448 82.5839 71.8738 82.0499 70.5317C81.7489 69.7801 80.5723 68.17 79.9771 66.7075C79.7012 65.9785 79.6538 65.1822 79.8414 64.4253Z" fill="black"/>
<path d="M33.2929 114.844C33.2929 114.844 29.4167 112.966 28.7469 113.769C28.0771 114.573 24.3344 130.002 26.0723 131.076C27.8101 132.15 27.9436 131.344 29.4144 128.93C30.8853 126.516 32.8901 123.296 34.361 123.43C34.361 123.43 30.082 121.954 30.2177 121.418C30.3535 120.882 32.3584 114.71 33.2929 114.844Z" fill="#986365"/>
<path opacity="0.1" d="M72.0369 61.289C73.0961 62.0945 74.3707 62.5648 75.6976 62.6396C77.0245 62.7144 78.3436 62.3905 79.4861 61.7091C79.5506 61.2524 79.6613 60.8035 79.8165 60.3693L71.7947 58.0984C72.1251 59.0454 72.1477 60.1536 72.0369 61.289Z" fill="black"/>
<path d="M76.997 56.0411C78.6262 56.1819 80.6175 55.8754 81.2172 54.7626C81.3914 54.4424 81.4276 54.0814 81.6041 53.7703C82.1155 52.8483 83.5773 52.4713 84.7517 51.9535C85.9387 51.4674 86.9785 50.6783 87.7681 49.6645C87.3076 49.549 86.8248 49.5592 86.3696 49.694C86.3131 49.0741 87.0259 48.3655 86.4715 47.8932C86.1275 47.6003 85.4871 47.6275 84.9961 47.7728C84.5051 47.9182 84.0616 48.1566 83.5388 48.227C82.6337 48.3383 81.7761 47.8977 81.1289 47.4209C80.4818 46.944 79.8753 46.3876 79.0109 46.1628C77.2957 45.7086 75.5918 46.7419 73.8698 47.1733C70.3375 48.0612 68.6246 49.0241 69.584 52.1057C70.2945 54.3879 74.0327 55.7845 76.997 56.0411Z" fill="#865A61"/>
<path d="M76.0715 62.3862C79.7632 62.3862 82.7559 59.3828 82.7559 55.6779C82.7559 51.9731 79.7632 48.9697 76.0715 48.9697C72.3798 48.9697 69.3871 51.9731 69.3871 55.6779C69.3871 59.3828 72.3798 62.3862 76.0715 62.3862Z" fill="#FDC2CC"/>
<path opacity="0.1" d="M70.8761 54.6558C71.1997 53.3387 72.1342 52.1101 73.4353 51.7445C74.5419 51.4334 75.7185 51.7718 76.8002 52.1646C77.8818 52.5575 78.9838 53.0162 80.131 52.9481C81.2783 52.8799 82.4821 52.0851 82.5681 50.9361C82.5889 50.7583 82.5599 50.5782 82.4844 50.416C82.3676 50.2253 82.2029 50.0687 82.0069 49.9619C80.3256 48.8854 78.4135 48.0384 76.42 48.0702C74.7795 48.0975 73.2113 48.7151 71.6862 49.3237C69.7628 50.0913 67.5746 51.1654 67.1786 53.2047C66.9524 54.4083 67.4298 55.6323 68.0159 56.7087C68.3553 57.3309 69.9981 60.5964 71.0843 60.0582C71.5233 59.8493 70.6679 55.5006 70.8761 54.6558Z" fill="black"/>
<path d="M71.1431 54.388C71.4667 53.0709 72.4012 51.8423 73.7023 51.4767C74.8089 51.1656 75.9855 51.5039 77.0671 51.8968C78.1488 52.2897 79.2508 52.7484 80.398 52.6803C81.5453 52.6121 82.7491 51.8173 82.8351 50.6683C82.8559 50.4905 82.8269 50.3104 82.7513 50.1482C82.6346 49.9575 82.4699 49.8009 82.2739 49.694C80.5926 48.6176 78.6805 47.7706 76.687 47.8024C75.0465 47.8296 73.4783 48.4473 71.9532 49.0559C70.0298 49.8235 67.8416 50.8976 67.4456 52.9369C67.2194 54.1404 67.6968 55.3645 68.2829 56.4409C68.6223 57.0631 70.2651 60.3286 71.3513 59.7904C71.7903 59.5815 70.9372 55.2327 71.1431 54.388Z" fill="#865A61"/>
<path opacity="0.5" d="M26.475 131.212C24.7372 130.138 28.4799 114.709 29.1497 113.905C29.4416 113.553 30.3512 113.715 31.2813 114.01C30.2268 113.64 29.0841 113.367 28.7492 113.783C28.0703 114.587 24.3367 130.015 26.0745 131.089C26.37 131.291 26.6975 131.441 27.043 131.532C26.8468 131.438 26.6571 131.331 26.475 131.212Z" fill="white"/>
<path opacity="0.5" d="M117.735 140.62C117.916 141.075 117.861 141.617 117.112 142.078C115.374 143.152 101.338 146.507 101.338 146.507C101.199 146.297 101.071 146.079 100.956 145.855C101.105 146.174 101.277 146.481 101.472 146.774C101.472 146.774 115.501 143.42 117.246 142.346C118.144 141.792 118.042 141.129 117.735 140.62Z" fill="white"/>
<g opacity="0.05">
<path opacity="0.05" d="M47.5102 79.0201C46.3991 77.2261 43.3307 74.4602 43.3307 74.4602C45.5936 67.484 58.5708 63.9959 59.9082 63.3328C60.6458 62.9626 61.3428 62.5107 62.6507 62.27C60.6142 62.4199 59.7566 63.0058 58.8401 63.4668C57.5028 64.148 44.5368 67.6248 42.2627 74.5941C42.2627 74.5941 47.1459 78.9792 46.8313 80.2873C46.9833 79.8288 47.2129 79.4002 47.5102 79.0201Z" fill="black"/>
<path opacity="0.05" d="M46.8204 80.2896L46.7951 80.3657C46.8058 80.3411 46.8143 80.3156 46.8204 80.2896Z" fill="black"/>
<path opacity="0.05" d="M72.1478 62.2723L71.9939 62.0452C71.9939 62.0452 71.8242 62.245 71.1046 62.3949C71.4547 62.3776 71.8032 62.3366 72.1478 62.2723Z" fill="black"/>
<path opacity="0.05" d="M49.2141 78.3594C49.4163 78.3402 49.6138 78.2864 49.7979 78.2004C49.5944 78.2117 49.3954 78.2659 49.2141 78.3594Z" fill="black"/>
<path opacity="0.05" d="M66.6061 94.4167C68.9979 94.1533 71.3332 94.1487 72.9963 94.7187C72.9963 94.7187 73.028 94.5779 73.0801 94.3258C71.2562 93.9693 68.9142 94.0942 66.6061 94.4167Z" fill="black"/>
<path opacity="0.05" d="M57.7404 96.2448C58.1929 95.3365 59.8154 91.7439 58.4192 88.1446C56.8149 83.9865 58.0187 72.1802 58.0187 72.1802C58.0187 72.1802 57.5661 72.6344 56.8602 73.3156C56.6135 76.2428 56.0297 84.8608 57.3512 88.2876C58.9555 92.4456 56.5502 96.6059 56.5502 96.6059C56.5502 96.6059 56.9959 96.456 57.7404 96.2448Z" fill="black"/>
</g>
<path opacity="0.1" d="M177.534 139.712C175.923 140.545 174.235 141.265 172.57 141.983C166.417 144.59 160.172 147.22 153.562 148.114C141.157 149.793 128.345 145.248 116.151 148.076C105.934 150.442 97.4846 157.693 87.5033 160.922C82.8622 162.423 78.0334 163.011 73.1615 163.011H72.5211C71.9177 163.004 71.3188 162.989 70.7245 162.966C65.7847 162.78 60.8246 162.046 55.9822 161.108C40.6923 158.156 25.1309 152.745 13.4412 142.782C47.4808 136.531 117.594 126.952 177.534 139.712Z" fill="#252223"/>
<path d="M141.42 100.739C141.42 100.739 145.814 105.149 143.334 111.694C140.854 118.239 147.588 129.123 147.588 129.123L147.382 129.089C138.356 127.499 133.871 117.13 138.89 109.434C140.754 106.571 142.286 103.214 141.42 100.739Z" fill="#8E87FF"/>
<path d="M141.42 100.739C141.42 100.739 143.909 106.146 141.42 110.556C138.93 114.966 140.994 127.345 147.586 129.123" stroke="#535461" stroke-miterlimit="10"/>
<path d="M133.592 118.577C133.592 118.577 138.607 117.775 139.064 122.285C139.521 126.795 148.708 127.42 148.708 127.42L148.536 127.536C140.951 132.532 133.701 130.715 134.794 124.084C135.201 121.618 135.165 119.14 133.592 118.577Z" fill="#8E87FF"/>
<path opacity="0.2" d="M133.592 118.577C133.592 118.577 138.607 117.775 139.064 122.285C139.521 126.795 148.708 127.42 148.708 127.42L148.536 127.536C140.951 132.532 133.701 130.715 134.794 124.084C135.201 121.618 135.165 119.14 133.592 118.577Z" fill="#F5F5F5"/>
<path d="M133.592 118.577C133.592 118.577 137.484 119.435 137.165 122.987C136.846 126.538 142.947 130.796 148.706 127.422" stroke="#535461" stroke-miterlimit="10"/>
<path d="M152.761 128.28C152.761 128.28 149.606 127.647 148.767 126.804C147.927 125.962 144.142 124.484 143.721 125.539C143.3 126.595 138.043 130.181 141.619 130.815C145.194 131.448 150.03 131.66 151.079 131.237C152.129 130.815 152.761 128.28 152.761 128.28Z" fill="#A8A8A8"/>
<path opacity="0.2" d="M141.616 130.42C145.192 131.053 150.027 131.264 151.077 130.842C151.878 130.52 152.435 128.978 152.661 128.258L152.765 128.281C152.765 128.281 152.134 130.813 151.084 131.233C150.034 131.653 145.201 131.444 141.623 130.81C140.591 130.629 140.297 130.199 140.408 129.654C140.49 130.011 140.858 130.283 141.616 130.42Z" fill="black"/>
<path d="M209.933 133.731C209.933 133.731 212.922 123.541 209.372 116.043C207.863 112.907 207.408 109.364 208.075 105.946C208.405 104.326 208.881 102.74 209.499 101.207" stroke="#535461" stroke-width="2" stroke-miterlimit="10"/>
<path d="M207.29 96.4607C207.29 97.7097 209.553 101.33 209.553 101.33C209.553 101.33 211.816 97.7075 211.816 96.4607C211.763 95.8983 211.502 95.3759 211.086 94.9958C210.669 94.6157 210.126 94.405 209.563 94.405C209 94.405 208.457 94.6157 208.041 94.9958C207.624 95.3759 207.364 95.8983 207.311 96.4607H207.29Z" fill="#8E87FF"/>
<path d="M203.566 103.378C204.245 104.427 208.091 106.237 208.091 106.237C208.091 106.237 208.021 101.967 207.345 100.921C206.996 100.475 206.494 100.177 205.938 100.084C205.381 99.9911 204.81 100.11 204.336 100.418C203.863 100.725 203.521 101.199 203.377 101.747C203.234 102.295 203.299 102.876 203.561 103.378H203.566Z" fill="#8E87FF"/>
<path d="M203.729 115.198C204.84 115.761 209.076 115.373 209.076 115.373C209.076 115.373 206.867 111.723 205.756 111.16C205.489 110.995 205.192 110.887 204.881 110.843C204.571 110.799 204.255 110.821 203.954 110.906C203.652 110.991 203.371 111.138 203.129 111.338C202.887 111.538 202.689 111.786 202.548 112.066C202.406 112.347 202.324 112.654 202.307 112.968C202.29 113.282 202.338 113.596 202.448 113.89C202.558 114.185 202.728 114.453 202.947 114.678C203.166 114.903 203.429 115.08 203.72 115.198H203.729Z" fill="#8E87FF"/>
<path d="M205.858 124.113C206.858 124.856 211.099 125.192 211.099 125.192C211.099 125.192 209.537 121.22 208.537 120.478C208.055 120.188 207.483 120.089 206.932 120.199C206.381 120.31 205.89 120.622 205.556 121.075C205.222 121.529 205.068 122.09 205.123 122.652C205.179 123.213 205.441 123.733 205.858 124.111V124.113Z" fill="#8E87FF"/>
<path d="M212.816 106.48C211.924 107.349 207.765 108.251 207.765 108.251C207.765 108.251 208.784 104.107 209.675 103.237C210.114 102.882 210.67 102.704 211.232 102.738C211.795 102.772 212.325 103.016 212.718 103.422C213.111 103.828 213.339 104.366 213.357 104.932C213.375 105.497 213.182 106.049 212.816 106.48Z" fill="#8E87FF"/>
<path d="M215.183 116.937C214.072 117.5 209.836 117.112 209.836 117.112C209.836 117.112 212.044 113.463 213.156 112.9C213.422 112.734 213.72 112.626 214.03 112.583C214.34 112.539 214.656 112.56 214.958 112.646C215.26 112.731 215.54 112.878 215.782 113.078C216.024 113.277 216.222 113.525 216.364 113.806C216.505 114.086 216.587 114.393 216.604 114.707C216.621 115.021 216.573 115.335 216.463 115.63C216.353 115.924 216.183 116.192 215.964 116.417C215.746 116.642 215.483 116.819 215.192 116.937H215.183Z" fill="#8E87FF"/>
<path d="M216.086 127.417C215.086 128.16 210.845 128.496 210.845 128.496C210.845 128.496 212.406 124.524 213.407 123.782C213.889 123.492 214.461 123.393 215.012 123.504C215.563 123.614 216.053 123.926 216.388 124.38C216.722 124.833 216.876 125.395 216.82 125.956C216.764 126.517 216.503 127.037 216.086 127.415V127.417Z" fill="#8E87FF"/>
<path d="M216.437 132.734C216.437 132.734 210.972 131.637 209.515 130.174C208.057 128.712 201.5 126.153 200.771 127.981C200.042 129.809 190.935 136.024 197.128 137.121C203.321 138.218 211.7 138.583 213.52 137.852C215.339 137.121 216.437 132.734 216.437 132.734Z" fill="#A8A8A8"/>
<path opacity="0.2" d="M197.13 136.442C203.324 137.539 211.703 137.904 213.522 137.173C214.909 136.617 215.873 133.942 216.253 132.695L216.437 132.733C216.437 132.733 215.344 137.121 213.522 137.852C211.7 138.583 203.321 138.218 197.13 137.121C195.343 136.805 194.831 136.06 195.023 135.12C195.177 135.733 195.8 136.206 197.13 136.442Z" fill="black"/>
</g>
</g>
<defs>
<linearGradient id="paint0_linear" x1="146.592" y1="30.7682" x2="146.592" y2="-7.31438e-05" gradientUnits="userSpaceOnUse">
<stop stop-color="#808080" stop-opacity="0.25"/>
<stop offset="0.54" stop-color="#808080" stop-opacity="0.12"/>
<stop offset="1" stop-color="#808080" stop-opacity="0.1"/>
</linearGradient>
<linearGradient id="paint1_linear" x1="54.3498" y1="115.164" x2="54.3498" y2="115.137" gradientUnits="userSpaceOnUse">
<stop stop-color="#808080" stop-opacity="0.25"/>
<stop offset="0.54" stop-color="#808080" stop-opacity="0.12"/>
<stop offset="1" stop-color="#808080" stop-opacity="0.1"/>
</linearGradient>
<linearGradient id="paint2_linear" x1="41417.7" y1="76897.8" x2="41417.7" y2="29821.3" gradientUnits="userSpaceOnUse">
<stop stop-color="#808080" stop-opacity="0.25"/>
<stop offset="0.54" stop-color="#808080" stop-opacity="0.12"/>
<stop offset="1" stop-color="#808080" stop-opacity="0.1"/>
</linearGradient>
<clipPath id="clip0">
<rect width="217" height="163" fill="white"/>
</clipPath>
</defs>
</svg>
