<svg xmlns="http://www.w3.org/2000/svg" xmlns:xlink="http://www.w3.org/1999/xlink" width="40" height="26.667" viewBox="0 0 30 20" xmlns:v="https://vecta.io/nano"><style><![CDATA[.B{stroke:none}.C{fill:rgb(0%,0%,0%)}.D{filter:url(#A)}.E{fill:rgb(18.431373%,18.039216%,25.490196%)}.F{fill-rule:nonzero}.G{fill-opacity:1}.H{fill-opacity:.302}.I{fill:rgb(20%,79.215686%,100%)}.J{fill:rgb(98.431373%,74.509804%,74.509804%)}.K{fill:rgb(62.745098%,38.039216%,41.568627%)}.L{fill-opacity:.102}.M{fill:rgb(24.705882%,23.921569%,33.72549%)}.N{stroke:rgb(24.705882%,23.921569%,33.72549%)}.O{stroke-miterlimit:10}.P{stroke-width:.311}.Q{fill:rgb(100%,39.607843%,51.764706%)}]]></style><defs><filter id="A" x="0%" y="0%" width="100%" height="100%"><feColorMatrix in="SourceGraphic" values="0 0 0 0 1 0 0 0 0 1 0 0 0 0 1 0 0 0 1 0"/></filter><mask id="B"><g class="D"><path d="M0 0h30v20H0z" class="B C L"/></g></mask><clipPath id="C"><path d="M0 0h30v20H0z"/></clipPath><g id="D" clip-path="url(#C)"><path d="M14.035 10h-.754v.395h.754zm0 0" class="B C F G"/></g><mask id="E"><g class="D"><path d="M0 0h30v20H0z" class="B C L"/></g></mask><clipPath id="F"><path d="M0 0h30v20H0z"/></clipPath><g id="G" clip-path="url(#F)"><path d="M14.082 9.805s-.305-.1-.363-.06.21.27.21.27zm0 0" class="B C F G"/></g><mask id="H"><g class="D"><path d="M0 0h30v20H0z" class="B C L"/></g></mask><clipPath id="I"><path d="M0 0h30v20H0z"/></clipPath><g id="J" clip-path="url(#I)"><path d="M13.023 11.828l.906 1.875s.3 1.055.422 1.086.574-.18.633-.21-.512-1.207-.512-1.422-.695-1.387-.695-1.387zm0 0" class="B C F G"/></g><mask id="K"><g class="D"><path d="M0 0h30v20H0z" class="B C L"/></g></mask><clipPath id="L"><path d="M0 0h30v20H0z"/></clipPath><g id="M" clip-path="url(#L)"><path d="M14.082 9.746s-.516.48-.305.69.484 0 .484 0 .21-.3-.18-.69zm0 0" class="B C F G"/></g><mask id="N"><g class="D"><path d="M0 0h30v20H0z" class="B C H"/></g></mask><mask id="O"><g class="D"><path d="M0 0h30v20H0z" class="B C H"/></g></mask><clipPath id="P"><path d="M0 0h30v20H0z"/></clipPath><g id="Q" clip-path="url(#P)"><path d="M19.457 12.117a.21.21 0 0 0-.156.043c-.043.035-.07.086-.078.14a.2.2 0 0 0 .043.156.21.21 0 0 0 .141.082l.422.05.05-.422c.004-.027 0-.055-.008-.082a.26.26 0 0 0-.035-.074c-.02-.023-.04-.04-.062-.055s-.05-.02-.078-.023a.21.21 0 0 0-.086.004.18.18 0 0 0-.07.039c-.023.016-.043.04-.055.063s-.023.05-.027.078zm0 0" class="B F G I"/></g><clipPath id="R"><path d="M0 0h30v20H0z"/></clipPath><g id="S" clip-path="url(#R)"><use xlink:href="#Q" mask="url(#O)"/></g><mask id="T"><g class="D"><path d="M0 0h30v20H0z" class="B C H"/></g></mask><mask id="U"><g class="D"><path d="M0 0h30v20H0z" class="B C H"/></g></mask><clipPath id="V"><path d="M0 0h30v20H0z"/></clipPath><g id="W" clip-path="url(#V)"><path d="M24.516 10.098a.21.21 0 0 0-.16-.02c-.055.016-.102.05-.13.098a.24.24 0 0 0-.02.164c.016.05.05.098.102.125l.367.207.207-.367c.016-.023.023-.05.027-.078s0-.055-.008-.082a.26.26 0 0 0-.035-.074c-.02-.023-.04-.04-.062-.055s-.05-.023-.078-.023-.06-.004-.082.004a.17.17 0 0 0-.074.039c-.023.016-.043.04-.055.063zm0 0" class="B F G I"/></g><clipPath id="X"><path d="M0 0h30v20H0z"/></clipPath><g id="Y" clip-path="url(#X)"><use xlink:href="#W" mask="url(#U)"/></g><mask id="Z"><g class="D"><path d="M0 0h30v20H0z" class="B C H"/></g></mask><mask id="a"><g class="D"><path d="M0 0h30v20H0z" class="B C H"/></g></mask><clipPath id="b"><path d="M0 0h30v20H0z"/></clipPath><g id="c" clip-path="url(#b)"><path d="M22.262 12.965c-.027-.004-.055-.004-.082.004s-.05.02-.074.04-.04.04-.05.063-.023.05-.027.078 0 .055.008.082a.26.26 0 0 0 .035.074c.02.02.04.04.063.055a.26.26 0 0 0 .078.023l.422.05.05-.422c.004-.055-.012-.11-.047-.152s-.082-.074-.14-.082a.21.21 0 0 0-.156.043c-.043.035-.07.086-.078.145zm0 0" class="B F G I"/></g><clipPath id="d"><path d="M0 0h30v20H0z"/></clipPath><g id="e" clip-path="url(#d)"><use xlink:href="#c" mask="url(#a)"/></g></defs><path d="M30 11.504c-.03 1.613-.508 3.188-1.38 4.54s-2.105 2.44-3.56 3.137c-1.14.543-2.39.82-3.656.82a8.2 8.2 0 0 1-.539-.016c-3.906-.246-7.828-.246-11.734 0a8.2 8.2 0 0 1-.539.016c-1.47.004-2.9-.375-4.187-1.098a8.66 8.66 0 0 1-3.184-3.113A8.71 8.71 0 0 1 0 11.504c-.094-4.852 3.742-8.82 8.555-8.844 2.563-.012 4.863 1.11 6.445 2.895 1.582-1.785 3.883-2.906 6.445-2.895 4.813.023 8.648 3.992 8.555 8.844zm0 0" fill="rgb(94.901961%,94.901961%,94.901961%)"/><path d="M25.063 19.18c-1.14.543-2.39.82-3.656.82a8.2 8.2 0 0 1-.539-.016c-3.906-.246-7.828-.246-11.734 0a8.2 8.2 0 0 1-.539.016c-1.47.004-2.9-.375-4.187-1.098 1.934-.84 5.707-1.4 10.05-1.4 4.805 0 8.918.7 10.605 1.688zm0 0" class="E"/><path d="M19.113 7.164a.68.68 0 0 0-.344-.16.7.7 0 0 0-.379.047c-.355.156-.512.594-.488.984s.187.758.293 1.137c.14.504.18 1.055.012 1.55s-.555.94-1.06 1.082c-.47.13-.97 0-1.437-.133" fill="none" class="N O P"/><path d="M19.96 6.383a.36.36 0 0 0-.023-.156.47.47 0 0 0-.078-.14c-.035-.042-.078-.07-.13-.094s-.102-.04-.152-.043-.1.004-.16.023a.44.44 0 0 0-.137.082c-.04.035-.074.078-.098.125a.44.44 0 0 0-.039.156l-.047.82.816.047a.45.45 0 0 0 .16-.023.49.49 0 0 0 .137-.082.42.42 0 0 0 .094-.125c.023-.05.04-.102.043-.156s-.004-.1-.023-.16a.44.44 0 0 0-.082-.137c-.035-.04-.078-.074-.125-.098a.44.44 0 0 0-.156-.039zm-.878 2.133c.008-.1-.03-.215-.102-.297a.4.4 0 0 0-.28-.137.43.43 0 0 0-.297.102.42.42 0 0 0-.137.285l-.047.816.816.047c.1.008.215-.03.297-.102a.42.42 0 0 0 .137-.285c.004-.105-.03-.215-.105-.293a.39.39 0 0 0-.281-.137zM17.906 6.23a.49.49 0 0 0-.14-.074.37.37 0 0 0-.16-.02c-.05.004-.105.02-.152.047s-.1.06-.125.098-.06.1-.074.14a.44.44 0 0 0-.02.16c.008.055.02.105.047.152s.06.1.098.125l.63.527.527-.63a.44.44 0 0 0 .094-.301.43.43 0 0 0-.047-.152c-.023-.047-.06-.1-.098-.125s-.1-.06-.14-.074a.37.37 0 0 0-.16-.02.35.35 0 0 0-.152.047c-.047.027-.1.06-.125.098zm0 0" class="I"/><path d="M22.793 6.79c-.074-.105-.172-.19-.29-.242s-.246-.074-.375-.06c-.387.055-.656.438-.734.82s-.02.78-.02 1.172c0 .527-.11 1.063-.402 1.5s-.785.758-1.31.758c-.488 0-.93-.258-1.348-.508" fill="none" class="N O P"/><path d="M23.816 6.266a.36.36 0 0 0 .023-.16.41.41 0 0 0-.043-.152c-.023-.047-.055-.094-.098-.13s-.086-.062-.137-.078-.105-.023-.16-.023-.105.02-.152.043-.1.06-.125.098a.33.33 0 0 0-.082.137l-.262.777.773.266a.44.44 0 0 0 .16.02.44.44 0 0 0 .152-.043c.047-.023.1-.055.13-.098s.063-.086.078-.137a.44.44 0 0 0 .02-.16.42.42 0 0 0-.039-.152.45.45 0 0 0-.098-.129c-.043-.035-.1-.062-.14-.078zm-1.4 1.82a.4.4 0 0 0-.023-.313.41.41 0 0 0-.234-.207c-.102-.035-.215-.027-.312.02a.41.41 0 0 0-.207.234l-.262.777.773.262c.105.035.215.027.313-.02a.41.41 0 0 0 .187-.546.41.41 0 0 0-.234-.207zM21.88 5.57c-.03-.043-.07-.082-.117-.113s-.094-.047-.148-.06-.105-.008-.16.004a.35.35 0 0 0-.145.063c-.043.033-.082.07-.113.117s-.047.094-.06.148-.008.105.004.16a.35.35 0 0 0 .063.145l.465.676.676-.465a.42.42 0 0 0 .168-.266c.02-.105-.004-.215-.066-.305a.41.41 0 0 0-.262-.172.4.4 0 0 0-.305.066zm0 0" class="I"/><path d="M21.027 1.328c.13-.023.258-.008.38.043s.22.133.293.238c.223.32.125.777-.102 1.098s-.56.543-.844.81c-.387.355-.707.805-.828 1.313s-.02 1.094.336 1.48c.328.36.82.508 1.29.645" fill="none" class="N O P"/><path d="M20.715.215A.46.46 0 0 1 20.82.09a.44.44 0 0 1 .141-.074c.05-.016.105-.02.156-.012a.44.44 0 0 1 .152.047.35.35 0 0 1 .125.102.49.49 0 0 1 .074.14.44.44 0 0 1 .016.16.48.48 0 0 1-.047.152l-.4.72-.72-.4a.35.35 0 0 1-.125-.102c-.035-.04-.06-.1-.074-.14a.44.44 0 0 1-.016-.16.53.53 0 0 1 .047-.152c.027-.047.063-.1.105-.12s.1-.062.14-.074.105-.023.156-.016a.42.42 0 0 1 .152.047zm-.37 2.273c.023-.047.06-.086.102-.12a.5.5 0 0 1 .14-.074.44.44 0 0 1 .16-.016c.055.004.105.023.152.047a.44.44 0 0 1 .121.102.49.49 0 0 1 .074.14.38.38 0 0 1 .016.16.35.35 0 0 1-.047.152l-.4.723-.72-.4a.44.44 0 0 1-.121-.102.34.34 0 0 1-.074-.145.36.36 0 0 1-.016-.156.42.42 0 0 1 .047-.152.35.35 0 0 1 .102-.125.49.49 0 0 1 .14-.074.44.44 0 0 1 .16-.016.48.48 0 0 1 .152.047zm2.2-1.32a.44.44 0 0 1 .16.012c.05.012.102.035.145.066a.39.39 0 0 1 .105.12c.027.046.047.098.055.148a.44.44 0 0 1-.008.16.49.49 0 0 1-.07.145c-.03.043-.074.082-.117.1a.37.37 0 0 1-.152.05l-.8.117-.117-.813c-.016-.105.012-.215.078-.3a.39.39 0 0 1 .27-.16.41.41 0 0 1 .3.074c.085.062.145.164.16.27zm0 0" class="I"/><path d="M14.035 10h-.754v.395h.754zm0 0" class="J"/><use xlink:href="#D" mask="url(#B)"/><path d="M11.895 4.352c.53 0 .965-.434.965-.965a.97.97 0 0 0-.965-.969.97.97 0 0 0-.965.969c0 .53.434.965.965.965zm0 0" class="E"/><path d="M14.082 9.805s-.305-.1-.363-.06.21.27.21.27zm0 0" class="J"/><use xlink:href="#G" mask="url(#E)"/><path d="M12 17.54l.813.1c.12 0 .453.12.273.273s-1.328.36-1.477.27-.363-.363-.21-.39.602-.242.602-.242zm0 0" class="M"/><path d="M10.766 18.656l-.242.422.3.152.574.12.3-.395-.12-.453zm0 0" class="J"/><g class="E"><path d="M12.363 15.543l-.332 1.754c.06.1.18.332.06.422s-.602.12-.602.12l.148-.875.21-1.06zm0 0"/><path d="M11.277 12.04l.39 1.785s.063.875-.1 1.207-.965 3.836-.965 3.836.844.03 1.023-.06.488-2.184.488-2.184.992-1.988.96-2.38.148-2.387-.105-2.54-1.703.332-1.703.332zm0 0"/></g><path d="M11.336 19.2l.363-.363 1.113.516c.152.027.484.27.152.363s-1.566.027-1.87 0-.902-.062-.812-.242.242-.816.242-.816.082-.117.133.03.078.36.2.36.48.152.48.152zm0 0" class="M"/><path d="M15.98 11.527l.844-.062.574.305-.062.363-.242.06s-.66-.273-1.055-.18-.06-.484-.06-.484zm0 0" class="K"/><path d="M16.977 11.648s.328.363 0 .496c0 0 .06.105.3.137s.57.242.664.242.48-.06.238-.39-1.203-1.06-1.203-1.06-.273-.12-.363.12-.137.297-.137.297.438.094.5.156zm0 0" class="E"/><path d="M14.44 14.547l.273 1.1c0 .06.36-.242.36-.242l.063-.547s-.242-.238-.242-.39-.453.1-.453.1zm0 0" class="K"/><path d="M14.984 15.273s-.21.27-.36.18l.1 1.027s.06.516.27.3.422-1.266.422-1.266.3-.637.063-.727c-.137-.05-.28-.094-.422-.12 0 0 0 .633-.062.605zm0 0" class="E"/><path d="M13.023 11.828l.906 1.875s.3 1.055.422 1.086.574-.18.633-.21-.512-1.207-.512-1.422-.695-1.387-.695-1.387zm0 0" class="Q"/><use xlink:href="#J" mask="url(#H)"/><path d="M13.66 8.566s.027.633-.094 1.06.152 1.813.152 1.813.453.027.574 0 1.746-.062 1.836 0 .063 1.117 0 1.086-1.625-.363-2.38-.242-.844-.06-.875-.12-.543-1.69-.543-1.69l-.18-.785-.242-.844.148-.816zm0 0" class="Q"/><path d="M11.836 4.625c.45 0 .813-.367.813-.816s-.363-.816-.812-.816-.816.367-.816.816.363.816.816.816zm0 0" class="K"/><path d="M10.313 6.543c.45 0 .813-.367.813-.816s-.363-.816-.812-.816a.82.82 0 0 0-.816.816.82.82 0 0 0 .816.816zm0 0" class="J"/><g class="K"><path d="M12.06 4.367s.543.363.453.574-.332.453-.332.453l-.027.332.45.152 1.148.06s-.062-1.027-.422-1.297-.785-.453-.848-.695-.422.422-.422.422zm0 0"/><path d="M13.555 5.113c-.195-.37-.75-.324-.867.078-.016.047-.02.098-.012.148a.37.37 0 0 0 .047.145l.363.637.664-.062s.012-.562-.195-.945zm0 0"/></g><g class="E"><path d="M12.28 5.285s-.793.504-.734.836.12.906.12 1.117.21.875.512.996.3-.21.727.18.87.574.844.637.12-.543-.12-.785-.512-.937-.273-1.238.453-1.1.453-1.1-.03-.18-.21-.148-1.297-.094-1.355-.242c-.02-.043-.023-.1-.016-.137s.023-.1.055-.125zm0 0"/><path d="M12.168 5.543s.828-.902.95-.875.465.39.465.39l-.465-.328-.95.863zm0 0"/></g><path d="M11.004 5.88s.113 1.223.27 1.336-1.172.082-1.172.082.3-.937.12-1.055.78-.363.78-.363zm0 0" class="J"/><path d="M11.305 6.875s-1.023-.273-1.145-.12-.36 1.45-.36 1.45.117.875.328 1.512.484 2.867.695 2.867.574-.332.664-.332.633-.27.965-.21c.19.04.387.027.57-.027 0 0-.148-1.27-.512-1.602s-.543-2.63-.543-2.63-.512-.97-.664-.906zm0 0" class="M"/><g class="J"><path d="M12.875 9.746s.344.465.684.488l.19-.008s-.305.785-.152.816.602-.574.453-.906-.605-.844-.605-.844zm0 0"/><path d="M14.082 9.746s-.516.48-.305.69.484 0 .484 0 .21-.3-.18-.69zm0 0"/></g><use xlink:href="#M" mask="url(#K)"/><g class="E"><path d="M12.105 4.172a.97.97 0 0 0 .965-.969c0-.53-.434-.965-.965-.965s-.965.434-.965.965a.97.97 0 0 0 .965.969zm0 0"/><path d="M12.56 2.96a.57.57 0 0 0 .57-.57.57.57 0 0 0-.57-.574c-.316 0-.574.254-.574.574a.57.57 0 0 0 .574.57zm0 0"/><path d="M12.105 2.207a.56.56 0 0 1 .148-.383.57.57 0 0 1 .363-.187c-.02-.004-.04-.004-.06-.004a.56.56 0 0 0-.227.047.65.65 0 0 0-.191.133.63.63 0 0 0-.121.195.58.58 0 0 0-.035.23c.004.078.023.152.06.223a.55.55 0 0 0 .145.184.56.56 0 0 0 .199.113.65.65 0 0 0 .23.02.57.57 0 0 1-.363-.187.56.56 0 0 1-.148-.383zM11.8 4.172c.426 0 .77-.258.77-.574s-.344-.574-.77-.574-.77.258-.77.574.344.574.77.574zm0 0"/><path d="M10.344 5.426c-.008.055-.035.113-.012.172.016.043.055.074.074.117.047.082.016.188-.062.22-.043-.023-.098-.035-.148-.023-.023.004-.043.02-.06.04s-.02.043-.016.066c.012.07.094.113.133.176a.42.42 0 0 1 .051.148c.02.082.055.164.06.246s-.035.168-.113.18c-.07.008-.14-.04-.19-.094s-.082-.12-.13-.18c-.145-.19-.395-.28-.562-.457-.22-.223-.262-.55-.184-.812.03-.113.086-.22.176-.285.098-.07.227-.094.332-.148.113-.06.203-.152.305-.227s.227-.14.367-.12c.098.016.188.07.285.094.105.027.215.02.313-.027l-.1.098a.46.46 0 0 0 .203.031c-.027.055-.074.102-.137.12a.23.23 0 0 0 .172.051c-.066.078-.137.156-.242.184-.047.012-.102.012-.152.02-.113.02-.203.078-.293.133-.047.03-.11.066-.11.13.004.05.043.094.03.152zm0 0"/></g><path d="M10.703 7.176s-.27.996.21 1.21 1.477.996 1.66 1.266.39.363.39.363.723-.602.574-.785-.754-.723-.754-.723-1.54-1.664-2.082-1.332zm0 0" class="M"/><path d="M13.086 7.207l-1.445-.37c-.336-.05-1.207.04-1.027.19s1.234.27 1.234.27l1.27.484zm0 0" class="K"/><path d="M13.086 5.97l.1.816c0 .21.152.39.03.39s-.21-.12-.21 0-.184.848 0 .848.633-.12.723-.12.39-.062.363-.395-.152-.695-.094-.754.094-.363.03-.422-.21-.453-.21-.453zm0 0" class="E"/><use xlink:href="#S" mask="url(#N)"/><use xlink:href="#Y" mask="url(#T)"/><use xlink:href="#e" mask="url(#Z)"/></svg>