<svg width="100" height="100" viewBox="0 0 234 142" fill="none" xmlns="http://www.w3.org/2000/svg">
<g opacity="0.8">
<g clip-path="url(#clip0)">
<path d="M15.3442 103.971L13.939 98.388C11.4474 97.3243 8.89824 96.403 6.30363 95.6285L6.12621 98.2232L5.40676 95.3646C2.18903 94.439 0 94.0312 0 94.0312C0 94.0312 2.95687 105.358 9.1587 114.018L16.3852 115.297L10.7711 116.112C11.5516 117.058 12.3903 117.953 13.2824 118.793C22.3042 127.229 32.353 131.1 35.7268 127.438C39.1006 123.777 34.5219 113.97 25.5 105.533C22.7031 102.918 19.1896 100.819 15.6727 99.1677L15.3442 103.971Z" fill="#E6E6E6"/>
<path d="M28.7086 97.9078L30.3705 92.3966C28.7834 90.1886 27.074 88.0725 25.2503 86.0584L23.767 88.1872L24.6179 85.3655C22.3383 82.8976 20.6736 81.4087 20.6736 81.4087C20.6736 81.4087 17.3928 92.6449 18.2584 103.287L23.7884 108.145L18.5642 105.92C18.747 107.136 19.0055 108.339 19.3383 109.522C22.7328 121.442 29.3489 129.988 34.1158 128.61C38.8828 127.232 39.9953 116.453 36.6008 104.533C35.5485 100.838 33.6177 97.2121 31.4546 93.9668L28.7086 97.9078Z" fill="#E6E6E6"/>
<path d="M234 129.439H0.0210571V130.034H234V129.439Z" fill="#3F3D56"/>
<path d="M36.9881 67.8489C36.9881 67.8489 35.166 89.9195 34.7748 94.6488C34.5065 97.6134 33.8488 100.529 32.8187 103.319C32.8187 103.319 32.0363 104.896 32.0363 106.472V126.572C32.0363 126.572 30.4714 126.572 30.8626 128.148C31.2538 129.725 31.645 132.483 31.645 132.483H37.5134C37.5134 132.483 37.1221 131.301 38.2958 130.907C39.4695 130.513 38.2958 127.36 38.2958 127.36L44.5553 103.713L53.9447 84.0078C53.9447 84.0078 59.4218 101.743 60.5954 103.713C60.5954 103.713 64.8989 125.784 65.6813 127.754C66.4638 129.725 66.855 129.725 66.4638 130.513C66.0725 131.301 66.0725 132.089 66.4638 132.483C66.855 132.878 74.2882 132.483 74.2882 132.483L72.3321 104.502L68.8111 71.0022L50.8149 65.4846L36.9881 67.8489Z" fill="#2F2E41"/>
<path d="M35.9485 129.33C35.9485 129.33 33.9924 122.236 30.8626 127.754C27.7328 133.271 27.7328 135.242 27.7328 135.242C27.7328 135.242 22.6469 142.73 29.6889 141.942C36.7309 141.154 35.166 137.607 35.166 137.607C35.166 137.607 37.9046 136.03 37.9046 134.848C37.9046 133.666 35.9485 129.33 35.9485 129.33Z" fill="#2F2E41"/>
<path d="M67.6374 128.542C67.6374 128.542 69.5935 121.448 72.7233 126.966C75.8531 132.483 75.8531 134.454 75.8531 134.454C75.8531 134.454 80.9389 141.942 73.8969 141.154C66.855 140.365 68.4199 136.818 68.4199 136.818C68.4199 136.818 65.6813 135.242 65.6813 134.06C65.6813 132.877 67.6374 128.542 67.6374 128.542Z" fill="#2F2E41"/>
<path d="M49.25 14.6443C49.25 14.6443 50.0325 19.7677 47.6851 20.9501C45.3378 22.1324 52.771 26.4676 54.7271 26.4676C56.6832 26.4676 60.2042 22.5265 60.2042 22.5265C60.2042 22.5265 58.2481 16.6148 58.6393 15.4325L49.25 14.6443Z" fill="#A0616A"/>
<path d="M53.5534 18.5853C58.0908 18.5853 61.7691 14.8799 61.7691 10.309C61.7691 5.73815 58.0908 2.03271 53.5534 2.03271C49.0161 2.03271 45.3378 5.73815 45.3378 10.309C45.3378 14.8799 49.0161 18.5853 53.5534 18.5853Z" fill="#A0616A"/>
<path d="M69.5935 27.2558L59.8133 21.2865C59.8133 21.2865 54.2486 27.6499 48.2283 20.5559L37.9046 23.3147L39.4695 50.1142C39.4695 50.1142 37.1221 60.7552 37.9046 62.7257C38.687 64.6963 35.9485 65.4845 36.7309 65.8786C37.5134 66.2727 36.7309 69.0315 36.7309 69.0315C36.7309 69.0315 51.9886 76.9137 68.8111 71.002L67.2462 65.8786C67.4592 65.2089 67.4991 64.4955 67.3622 63.8059C67.2253 63.1162 66.916 62.4732 66.4637 61.9375C66.4637 61.9375 68.0286 59.5728 66.0725 57.6023C66.0725 57.6023 66.855 54.0553 64.8988 52.4788L64.5076 46.9613L65.6813 44.2025L69.5935 27.2558Z" fill="#CFCCE0"/>
<path d="M49.3489 6.46608C49.3489 6.46608 48.3694 8.60142 52.2873 7.74728C52.2873 7.74728 53.7566 8.60143 53.7566 7.32022C53.7566 7.32022 55.7155 9.45557 56.2052 8.17436C56.695 6.89315 57.6745 8.60142 57.6745 8.60142L58.6539 6.46608L59.6334 7.74728H63.0615C63.0615 7.74728 64.041 -0.794098 52.2873 0.0600417C40.5337 0.914182 46.3159 14.4472 46.3159 14.4472C46.3159 14.4472 46.4105 12.018 47.39 13.2992C48.3694 14.5804 49.3489 6.46608 49.3489 6.46608Z" fill="#2F2E41"/>
<path d="M73.1145 43.02L73.5057 51.2963C73.5057 51.2963 75.0706 66.6667 71.9409 73.3665V76.9135C71.9409 76.9135 71.1584 85.978 67.2462 85.5839C63.334 85.1898 68.4199 72.5783 68.4199 72.5783L67.6374 55.2374L66.855 45.3847L73.1145 43.02Z" fill="#A0616A"/>
<path d="M65.2901 27.6497L69.1927 27.011C72.004 29.7321 73.919 33.2564 74.6794 37.1084C75.8531 43.4141 76.2443 44.5965 76.2443 44.5965L66.855 46.9611L61.7691 37.1084L65.2901 27.6497Z" fill="#CFCCE0"/>
<path d="M110.225 23.1521H48.4865V54.0473H110.225V23.1521Z" fill="white"/>
<path d="M55.228 25.0102C53.6419 24.0493 51.7294 24.1227 51.0023 24.1961C51.2792 24.8771 52.11 26.614 53.6961 27.5753C55.2861 28.5387 57.196 28.4631 57.922 28.3902C57.6452 27.7094 56.8144 25.9718 55.228 25.0102Z" fill="#8E87FF" fill-opacity="0.54"/>
<path d="M62.6813 44.0769H52.7679C52.4748 44.0766 52.1845 44.1345 51.9136 44.2472C51.6427 44.36 51.3965 44.5255 51.1891 44.7342C50.9817 44.9429 50.8172 45.1907 50.705 45.4634C50.5927 45.7362 50.5349 46.0286 50.5349 46.3239C50.5349 46.6192 50.5927 46.9116 50.705 47.1843C50.8172 47.4571 50.9817 47.7049 51.1891 47.9136C51.3965 48.1223 51.6427 48.2878 51.9136 48.4005C52.1845 48.5133 52.4748 48.5712 52.7679 48.5709H62.6813C62.9744 48.5712 63.2647 48.5133 63.5356 48.4005C63.8065 48.2878 64.0527 48.1223 64.2601 47.9136C64.4675 47.7049 64.632 47.4571 64.7442 47.1843C64.8565 46.9116 64.9142 46.6192 64.9142 46.3239C64.9142 46.0286 64.8565 45.7362 64.7442 45.4634C64.632 45.1907 64.4675 44.9429 64.2601 44.7342C64.0527 44.5255 63.8065 44.36 63.5356 44.2472C63.2647 44.1345 62.9744 44.0766 62.6813 44.0769Z" fill="#010101"/>
<path d="M107.573 20.3589H51.9912C51.3447 20.3589 50.7044 20.4872 50.1071 20.7364C49.5097 20.9857 48.9669 21.351 48.5098 21.8116C48.0526 22.2722 47.6899 22.8189 47.4425 23.4207C47.195 24.0225 47.0677 24.6674 47.0677 25.3188V52.5992C47.0677 53.9146 47.5864 55.1762 48.5098 56.1063C49.4331 57.0365 50.6854 57.5591 51.9912 57.5591H107.573C108.879 57.5591 110.131 57.0365 111.054 56.1063C111.978 55.1762 112.496 53.9146 112.496 52.5992V25.3188C112.496 24.6674 112.369 24.0225 112.121 23.4207C111.874 22.8189 111.511 22.2722 111.054 21.8116C110.597 21.351 110.054 20.9857 109.457 20.7364C108.86 20.4872 108.219 20.3589 107.573 20.3589ZM50.616 23.7423C50.7258 23.7223 53.3284 23.2761 55.4836 24.5825C57.6386 25.8886 58.4665 28.4143 58.5007 28.521L58.5878 28.7934L58.3081 28.8434C57.9092 28.9061 57.5058 28.936 57.102 28.9326C55.821 28.9573 54.5568 28.6363 53.4405 28.0029C51.2855 26.6971 50.4576 24.1714 50.4235 24.0646L50.3364 23.7923L50.616 23.7423ZM62.6813 49.0704H52.7679C52.0449 49.0704 51.3515 48.7811 50.8402 48.266C50.3289 47.751 50.0417 47.0525 50.0417 46.3241C50.0417 45.5957 50.3289 44.8972 50.8402 44.3822C51.3515 43.8671 52.0449 43.5778 52.7679 43.5778H62.6813C63.4044 43.5778 64.0978 43.8671 64.609 44.3822C65.1203 44.8972 65.4075 45.5957 65.4075 46.3241C65.4075 47.0525 65.1203 47.751 64.609 48.266C64.0978 48.7811 63.4044 49.0704 62.6813 49.0704ZM107.787 48.5711C107.785 49.365 107.471 50.1257 106.914 50.687C106.357 51.2484 105.601 51.5648 104.813 51.5671H97.3783C96.5903 51.5648 95.8351 51.2484 95.2779 50.687C94.7207 50.1257 94.4066 49.365 94.4043 48.5711V44.0771C94.4066 43.2832 94.7207 42.5226 95.2779 41.9612C95.8351 41.3998 96.5903 41.0834 97.3783 41.0811H104.813C105.601 41.0834 106.357 41.3998 106.914 41.9612C107.471 42.5226 107.785 43.2832 107.787 44.0771V48.5711Z" fill="#ACE2FA" fill-opacity="0.8"/>
<path d="M99.7327 47.6973H96.5109C96.2808 47.6973 96.0602 47.7893 95.8975 47.9532C95.7348 48.1171 95.6434 48.3393 95.6434 48.5711C95.6434 48.8028 95.7348 49.0251 95.8975 49.189C96.0602 49.3529 96.2808 49.4449 96.5109 49.4449H99.7327C99.9628 49.4449 100.183 49.3529 100.346 49.189C100.509 49.0251 100.6 48.8028 100.6 48.5711C100.6 48.3393 100.509 48.1171 100.346 47.9532C100.183 47.7893 99.9628 47.6973 99.7327 47.6973ZM99.7327 48.9456H96.5109C96.462 48.9457 96.4135 48.9361 96.3683 48.9174C96.3231 48.8986 96.282 48.871 96.2474 48.8363C96.2127 48.8015 96.1852 48.7601 96.1665 48.7146C96.1478 48.6691 96.1381 48.6204 96.1381 48.5711C96.1381 48.5218 96.1478 48.473 96.1665 48.4275C96.1852 48.382 96.2127 48.3407 96.2474 48.3059C96.282 48.2711 96.3231 48.2436 96.3683 48.2248C96.4135 48.2061 96.462 48.1965 96.5109 48.1966H99.7327C99.8311 48.1969 99.9254 48.2364 99.9949 48.3066C100.064 48.3768 100.103 48.4719 100.103 48.5711C100.103 48.6702 100.064 48.7653 99.9949 48.8356C99.9254 48.9058 99.8311 48.9453 99.7327 48.9456Z" fill="#8E87FF"/>
<path d="M105.681 47.6973H102.459C102.229 47.6973 102.008 47.7893 101.846 47.9532C101.683 48.1171 101.591 48.3393 101.591 48.5711C101.591 48.8028 101.683 49.0251 101.846 49.189C102.008 49.3529 102.229 49.4449 102.459 49.4449H105.681C105.911 49.4449 106.131 49.3529 106.294 49.189C106.457 49.0251 106.548 48.8028 106.548 48.5711C106.548 48.3393 106.457 48.1171 106.294 47.9532C106.131 47.7893 105.911 47.6973 105.681 47.6973ZM105.681 48.9456H102.459C102.41 48.9457 102.362 48.9361 102.316 48.9174C102.271 48.8986 102.23 48.871 102.195 48.8363C102.161 48.8015 102.133 48.7601 102.115 48.7146C102.096 48.6691 102.086 48.6204 102.086 48.5711C102.086 48.5218 102.096 48.473 102.115 48.4275C102.133 48.382 102.161 48.3407 102.195 48.3059C102.23 48.2711 102.271 48.2436 102.316 48.2248C102.362 48.2061 102.41 48.1965 102.459 48.1966H105.681C105.779 48.1969 105.874 48.2364 105.943 48.3066C106.013 48.3768 106.052 48.4719 106.052 48.5711C106.052 48.6702 106.013 48.7653 105.943 48.8356C105.874 48.9058 105.779 48.9453 105.681 48.9456Z" fill="#8E87FF"/>
<path d="M99.7327 45.4502H96.5109C96.2808 45.4502 96.0602 45.5423 95.8975 45.7061C95.7348 45.87 95.6434 46.0923 95.6434 46.324C95.6434 46.5558 95.7348 46.778 95.8975 46.9419C96.0602 47.1058 96.2808 47.1979 96.5109 47.1979H99.7327C99.9628 47.1979 100.183 47.1058 100.346 46.9419C100.509 46.778 100.6 46.5558 100.6 46.324C100.6 46.0923 100.509 45.87 100.346 45.7061C100.183 45.5423 99.9628 45.4502 99.7327 45.4502ZM99.7327 46.6985H96.5109C96.462 46.6985 96.4137 46.6888 96.3686 46.67C96.3235 46.6512 96.2825 46.6236 96.248 46.5888C96.2135 46.5541 96.1861 46.5128 96.1674 46.4673C96.1487 46.4219 96.1391 46.3732 96.1391 46.324C96.1391 46.2748 96.1487 46.2262 96.1674 46.1807C96.1861 46.1353 96.2135 46.094 96.248 46.0592C96.2825 46.0244 96.3235 45.9969 96.3686 45.978C96.4137 45.9592 96.462 45.9495 96.5109 45.9495H99.7327C99.7815 45.9495 99.8299 45.9592 99.875 45.978C99.9201 45.9969 99.9611 46.0244 99.9956 46.0592C100.03 46.094 100.057 46.1353 100.076 46.1807C100.095 46.2262 100.104 46.2748 100.104 46.324C100.104 46.3732 100.095 46.4219 100.076 46.4673C100.057 46.5128 100.03 46.5541 99.9956 46.5888C99.9611 46.6236 99.9201 46.6512 99.875 46.67C99.8299 46.6888 99.7815 46.6985 99.7327 46.6985Z" fill="#8E87FF"/>
<path d="M105.681 45.4502H102.459C102.229 45.4502 102.008 45.5423 101.846 45.7061C101.683 45.87 101.591 46.0923 101.591 46.324C101.591 46.5558 101.683 46.778 101.846 46.9419C102.008 47.1058 102.229 47.1979 102.459 47.1979H105.681C105.911 47.1979 106.131 47.1058 106.294 46.9419C106.457 46.778 106.548 46.5558 106.548 46.324C106.548 46.0923 106.457 45.87 106.294 45.7061C106.131 45.5423 105.911 45.4502 105.681 45.4502ZM105.681 46.6985H102.459C102.41 46.6985 102.362 46.6888 102.317 46.67C102.272 46.6512 102.231 46.6236 102.196 46.5888C102.162 46.5541 102.134 46.5128 102.115 46.4673C102.097 46.4219 102.087 46.3732 102.087 46.324C102.087 46.2748 102.097 46.2262 102.115 46.1807C102.134 46.1353 102.162 46.094 102.196 46.0592C102.231 46.0244 102.272 45.9969 102.317 45.978C102.362 45.9592 102.41 45.9495 102.459 45.9495H105.681C105.73 45.9495 105.778 45.9592 105.823 45.978C105.868 45.9969 105.909 46.0244 105.944 46.0592C105.978 46.094 106.006 46.1353 106.024 46.1807C106.043 46.2262 106.053 46.2748 106.053 46.324C106.053 46.3732 106.043 46.4219 106.024 46.4673C106.006 46.5128 105.978 46.5541 105.944 46.5888C105.909 46.6236 105.868 46.6512 105.823 46.67C105.778 46.6888 105.73 46.6985 105.681 46.6985Z" fill="#8E87FF"/>
<path d="M99.7327 43.2034H96.5109C96.2808 43.2034 96.0602 43.2954 95.8975 43.4593C95.7348 43.6232 95.6434 43.8455 95.6434 44.0772C95.6434 44.309 95.7348 44.5312 95.8975 44.6951C96.0602 44.859 96.2808 44.951 96.5109 44.951H99.7327C99.9628 44.951 100.183 44.859 100.346 44.6951C100.509 44.5312 100.6 44.309 100.6 44.0772C100.6 43.8455 100.509 43.6232 100.346 43.4593C100.183 43.2954 99.9628 43.2034 99.7327 43.2034ZM99.7327 44.4517H96.5109C96.462 44.4518 96.4135 44.4422 96.3683 44.4235C96.3231 44.4047 96.282 44.3772 96.2474 44.3424C96.2127 44.3076 96.1852 44.2662 96.1665 44.2207C96.1478 44.1752 96.1381 44.1265 96.1381 44.0772C96.1381 44.0279 96.1478 43.9792 96.1665 43.9337C96.1852 43.8882 96.2127 43.8468 96.2474 43.812C96.282 43.7772 96.3231 43.7497 96.3683 43.7309C96.4135 43.7122 96.462 43.7026 96.5109 43.7027H99.7327C99.8311 43.703 99.9254 43.7425 99.9949 43.8127C100.064 43.8829 100.103 43.9781 100.103 44.0772C100.103 44.1764 100.064 44.2715 99.9949 44.3417C99.9254 44.4119 99.8311 44.4514 99.7327 44.4517Z" fill="#8E87FF"/>
<path d="M105.681 43.2034H102.459C102.229 43.2034 102.008 43.2954 101.846 43.4593C101.683 43.6232 101.591 43.8455 101.591 44.0772C101.591 44.309 101.683 44.5312 101.846 44.6951C102.008 44.859 102.229 44.951 102.459 44.951H105.681C105.911 44.951 106.131 44.859 106.294 44.6951C106.457 44.5312 106.548 44.309 106.548 44.0772C106.548 43.8455 106.457 43.6232 106.294 43.4593C106.131 43.2954 105.911 43.2034 105.681 43.2034ZM105.681 44.4517H102.459C102.41 44.4518 102.362 44.4422 102.316 44.4235C102.271 44.4047 102.23 44.3772 102.195 44.3424C102.161 44.3076 102.133 44.2662 102.115 44.2207C102.096 44.1752 102.086 44.1265 102.086 44.0772C102.086 44.0279 102.096 43.9792 102.115 43.9337C102.133 43.8882 102.161 43.8468 102.195 43.812C102.23 43.7772 102.271 43.7497 102.316 43.7309C102.362 43.7122 102.41 43.7026 102.459 43.7027H105.681C105.779 43.703 105.874 43.7425 105.943 43.8127C106.013 43.8829 106.052 43.9781 106.052 44.0772C106.052 44.1764 106.013 44.2715 105.943 44.3417C105.874 44.4119 105.779 44.4514 105.681 44.4517Z" fill="#8E87FF"/>
<path d="M32.0363 38.2909C32.0363 38.2909 28.5153 53.2671 32.8187 53.2671C37.1221 53.2671 47.2939 36.3203 47.2939 36.3203C47.2939 36.3203 57.8569 30.8028 53.5534 28.8322C49.25 26.8617 43.7729 31.9851 43.7729 31.9851L37.4531 40.8241L37.1221 36.3203L32.0363 38.2909Z" fill="#A0616A"/>
<path d="M40.2519 25.6794L37.9046 23.3147C37.9046 23.3147 33.2099 26.0735 32.8187 28.8322C32.4275 31.591 30.4714 40.2614 30.4714 40.2614L37.709 40.8526L40.0563 37.3056L40.2519 25.6794Z" fill="#CFCCE0"/>
<path d="M151.449 20.073C151.155 19.1963 147.459 16.2163 149.724 15.7154L151.581 18.2101L160.12 9.6084L160.978 10.4735L151.449 20.073Z" fill="#8E87FF"/>
<path d="M151.449 49.3223C151.155 48.4456 147.459 45.4655 149.724 44.9647L151.581 47.4594L160.12 38.8577L160.978 39.7228L151.449 49.3223Z" fill="#8E87FF"/>
<path d="M151.449 78.9898C151.155 78.1131 147.459 75.133 149.724 74.6321L151.581 77.1269L160.12 68.5251L160.978 69.3903L151.449 78.9898Z" fill="#8E87FF"/>
<path d="M177.313 19.1708C178.768 19.1708 179.948 17.9824 179.948 16.5164C179.948 15.0505 178.768 13.8621 177.313 13.8621C175.858 13.8621 174.678 15.0505 174.678 16.5164C174.678 17.9824 175.858 19.1708 177.313 19.1708Z" fill="#3F3D56"/>
<path d="M229.616 16.2507H187.194V16.7816H229.616V16.2507Z" fill="#3F3D56"/>
<path d="M177.313 48.42C178.768 48.42 179.948 47.2316 179.948 45.7657C179.948 44.2997 178.768 43.1113 177.313 43.1113C175.858 43.1113 174.678 44.2997 174.678 45.7657C174.678 47.2316 175.858 48.42 177.313 48.42Z" fill="#3F3D56"/>
<path d="M229.616 45.5002H187.194V46.0311H229.616V45.5002Z" fill="#3F3D56"/>
<path d="M177.313 78.0873C178.768 78.0873 179.948 76.8989 179.948 75.4329C179.948 73.967 178.768 72.7786 177.313 72.7786C175.858 72.7786 174.678 73.967 174.678 75.4329C174.678 76.8989 175.858 78.0873 177.313 78.0873Z" fill="#3F3D56"/>
<path d="M229.616 75.1675H187.194V75.6984H229.616V75.1675Z" fill="#3F3D56"/>
<path d="M158.104 82.9447H144.93V69.4075H153.889V69.9383H145.457V82.4138H157.577V76.3088H158.104V82.9447Z" fill="#3F3D56"/>
<path d="M158.104 53.2157H144.93V39.6785H153.889V40.2093H145.457V52.6848H157.577V46.5798H158.104V53.2157Z" fill="#3F3D56"/>
<path d="M158.104 22.9562H144.93V9.41895H153.889V9.94982H145.457V22.4253H157.577V16.3203H158.104V22.9562Z" fill="#3F3D56"/>
</g>
</g>
<defs>
<clipPath id="clip0">
<rect width="234" height="142" fill="white"/>
</clipPath>
</defs>
</svg>
