<svg width="100" height="100" viewBox="0 0 195 141" fill="none" xmlns="http://www.w3.org/2000/svg">
<g opacity="0.8">
<path opacity="0.2" d="M50.1976 82.2779C50.1976 82.2779 50.6068 90.4725 33.1475 100.579C33.1475 100.579 33.1268 100.624 160.955 100.579C160.955 100.579 146.36 90.1994 145.405 78.5903" fill="black"/>
<path d="M144.865 76.4195V7.55979C145.688 7.34638 146.417 6.86534 146.937 6.19218C147.458 5.51903 147.74 4.69188 147.74 3.84061C147.74 3.33625 147.641 2.83684 147.448 2.37087C147.256 1.90491 146.973 1.48152 146.617 1.12488C146.261 0.768249 145.838 0.485354 145.372 0.292346C144.907 0.0993379 144.408 -1.1635e-06 143.905 0H51.8482C51.3445 -8.72619e-07 50.8457 0.0993378 50.3804 0.292346C49.915 0.485354 49.4921 0.768252 49.136 1.12489C48.7798 1.48152 48.4973 1.90491 48.3045 2.37087C48.1117 2.83684 48.0125 3.33625 48.0125 3.84061C48.0125 4.8592 48.4166 5.83608 49.136 6.55634C49.8553 7.2766 50.8309 7.68123 51.8482 7.68123H51.849L49.7178 76.4805L32.607 98.4083C32.607 98.4083 32.4632 98.4088 160.415 98.4083C160.415 98.4083 160.325 98.6303 144.865 76.4195Z" fill="#E6E6E6"/>
<path opacity="0.2" d="M101.338 90.6722C116.904 90.6722 129.522 89.7003 129.522 88.5014C129.522 87.3025 116.904 86.3306 101.338 86.3306C85.7727 86.3306 73.1544 87.3025 73.1544 88.5014C73.1544 89.7003 85.7727 90.6722 101.338 90.6722Z" fill="black"/>
<path opacity="0.2" d="M51.8481 7.68141L144.865 10.3939L144.905 7.5144L51.8481 7.68141Z" fill="black"/>
<path d="M119.055 31.8305V40.2966C119.055 40.3748 119.024 40.4497 118.969 40.5051C118.913 40.5604 118.839 40.5915 118.76 40.5917H118.551V84.6947C118.55 85.9151 118.066 87.0855 117.204 87.9485C116.343 88.8115 115.174 89.2963 113.955 89.2964H86.4328C85.8294 89.2963 85.2318 89.1772 84.6744 88.9459C84.1169 88.7146 83.6103 88.3757 83.1837 87.9484C82.757 87.521 82.4186 87.0138 82.1878 86.4555C81.957 85.8972 81.8382 85.2989 81.8383 84.6947V42.1385H81.6864C81.6313 42.1386 81.5784 42.1168 81.5393 42.0779C81.5002 42.039 81.4781 41.9862 81.4779 41.931V37.1128C81.4779 37.0853 81.4832 37.0582 81.4937 37.0328C81.5042 37.0075 81.5196 36.9845 81.5389 36.9651C81.5583 36.9457 81.5813 36.9303 81.6066 36.9198C81.6319 36.9093 81.659 36.9039 81.6864 36.9039H81.8383V35.089H81.6851C81.6273 35.0888 81.5719 35.0656 81.5311 35.0245C81.4903 34.9834 81.4674 34.9278 81.4676 34.8699V30.1174C81.4677 30.0597 81.4907 30.0043 81.5314 29.9635C81.5722 29.9227 81.6275 29.8997 81.6851 29.8995H81.8383V27.4221H81.6825C81.6572 27.4221 81.632 27.4171 81.6086 27.4074C81.5852 27.3977 81.5639 27.3835 81.5459 27.3655C81.528 27.3476 81.5138 27.3262 81.5041 27.3028C81.4944 27.2793 81.4894 27.2541 81.4894 27.2287V24.6353C81.4893 24.5839 81.5096 24.5345 81.5458 24.498C81.582 24.4615 81.6312 24.4409 81.6825 24.4407H81.8383V19.1893C81.8384 17.9692 82.3224 16.7991 83.1841 15.9363C84.0457 15.0736 85.2143 14.5889 86.4328 14.5889H113.955C115.173 14.5889 116.342 15.0735 117.204 15.9362C118.066 16.7989 118.55 17.9691 118.551 19.1893V31.5353H118.76C118.839 31.5355 118.913 31.5666 118.969 31.622C119.024 31.6773 119.055 31.7522 119.055 31.8305Z" fill="#3F3D56"/>
<path d="M101.52 16.9487H97.0476C96.8669 16.9487 96.7204 17.0954 96.7204 17.2764V17.6634C96.7204 17.8444 96.8669 17.9911 97.0476 17.9911H101.52C101.7 17.9911 101.847 17.8444 101.847 17.6634V17.2764C101.847 17.0954 101.7 16.9487 101.52 16.9487Z" fill="#E6E8EC"/>
<path d="M103.213 18.0611C103.539 18.0611 103.803 17.7964 103.803 17.4699C103.803 17.1434 103.539 16.8787 103.213 16.8787C102.886 16.8787 102.622 17.1434 102.622 17.4699C102.622 17.7964 102.886 18.0611 103.213 18.0611Z" fill="#E6E8EC"/>
<path d="M116.35 20.0995V85.0763C116.349 85.8504 116.042 86.5927 115.495 87.1399C114.949 87.6872 114.207 87.9946 113.434 87.9946H87.0887C86.7057 87.9953 86.3264 87.9203 85.9724 87.7739C85.6184 87.6275 85.2968 87.4126 85.0259 87.1415C84.755 86.8704 84.5402 86.5484 84.3939 86.194C84.2475 85.8396 84.1724 85.4598 84.1729 85.0763V20.0995C84.1729 19.7161 84.2483 19.3364 84.3948 18.9822C84.5413 18.628 84.7561 18.3061 85.0269 18.035C85.2976 17.7639 85.6191 17.5489 85.9729 17.4021C86.3266 17.2554 86.7058 17.1799 87.0887 17.1799H91.0318V17.6865C91.0318 18.3241 91.2848 18.9355 91.735 19.3864C92.1853 19.8372 92.7959 20.0905 93.4327 20.0905H106.831C107.468 20.0905 108.079 19.8372 108.529 19.3864C108.979 18.9355 109.232 18.3241 109.232 17.6865V17.1799H113.434C113.817 17.1798 114.196 17.2552 114.55 17.4019C114.904 17.5486 115.225 17.7636 115.496 18.0348C115.767 18.3059 115.982 18.6278 116.128 18.9821C116.275 19.3364 116.35 19.7161 116.35 20.0995Z" fill="white"/>
<path d="M113.703 59.9561H86.9268V63.4363H113.703V59.9561Z" fill="#E6E6E6"/>
<path d="M113.703 66.1436H86.9268V69.6238H113.703V66.1436Z" fill="#E6E6E6"/>
<path d="M113.703 72.3306H86.9268V75.8109H113.703V72.3306Z" fill="#E6E6E6"/>
<path d="M113.65 34.9497H86.8731V52.7378H113.65V34.9497Z" fill="#E6E6E6"/>
<path d="M50.2452 10.2302L36.5136 10.3156C36.5136 10.3156 13.9119 22.3569 29.7757 47.2935C29.7757 47.2935 36.2577 45.7563 43.422 51.0511C43.422 51.0511 47.6012 11.1696 50.2452 10.2302Z" fill="#8E87FF"/>
<path opacity="0.2" d="M46.1605 10.3552C43.7004 20.6446 40.9193 47.183 40.9193 47.183C34.5185 42.4526 28.6665 43.175 27.491 43.3828C28.1844 44.7574 28.9469 46.0959 29.7757 47.3931C29.7757 47.3931 36.2577 45.8559 43.422 51.1507C43.422 51.1507 47.6012 11.2692 50.2452 10.3298L46.1605 10.3552Z" fill="black"/>
<path d="M29.6904 23.1257L28.4963 28.9329L13.4905 26.2019L13.4854 26.2001L13.1443 19.3682H16.0442L29.6904 23.1257Z" fill="#3F3D56"/>
<path opacity="0.2" d="M15.802 19.3682L13.4905 26.2019L13.4854 26.2001L13.1443 19.3682H15.802Z" fill="black"/>
<path d="M29.1787 29.616C30.1208 29.616 30.8845 27.8572 30.8845 25.6876C30.8845 23.5181 30.1208 21.7593 29.1787 21.7593C28.2366 21.7593 27.4729 23.5181 27.4729 25.6876C27.4729 27.8572 28.2366 29.616 29.1787 29.616Z" fill="#3F3D56"/>
<path d="M20.3086 108.705C20.2401 108.705 20.1723 108.692 20.1091 108.666C20.0458 108.639 19.9883 108.601 19.9399 108.552C19.8915 108.504 19.8531 108.446 19.8269 108.383C19.8007 108.32 19.7872 108.252 19.7872 108.183V25.6876C19.7872 25.5491 19.8421 25.4163 19.9399 25.3184C20.0377 25.2205 20.1703 25.1655 20.3086 25.1655C20.4469 25.1655 20.5795 25.2205 20.6773 25.3184C20.775 25.4163 20.83 25.5491 20.83 25.6876V108.183C20.83 108.252 20.8165 108.32 20.7903 108.383C20.7641 108.446 20.7257 108.504 20.6773 108.552C20.6289 108.601 20.5714 108.639 20.5081 108.666C20.4449 108.692 20.3771 108.705 20.3086 108.705Z" fill="#3F3D56"/>
<path d="M27.4723 123.223C27.3515 123.223 27.2344 123.181 27.1412 123.104C27.048 123.027 26.9844 122.92 26.9612 122.801L19.7969 86.0263C19.7738 85.9075 19.7926 85.7844 19.85 85.678C19.9075 85.5716 20.0002 85.4884 20.1121 85.4428C20.224 85.3972 20.3483 85.3919 20.4637 85.4279C20.5791 85.4639 20.6784 85.5389 20.7446 85.64L39.6789 114.558C39.7547 114.674 39.7815 114.815 39.7533 114.951C39.7252 115.086 39.6444 115.205 39.5287 115.281C39.4131 115.357 39.2721 115.384 39.1367 115.356C39.0013 115.327 38.8826 115.247 38.8067 115.131L21.3289 88.4369L27.9846 122.601C27.9978 122.669 27.9975 122.738 27.9839 122.805C27.9703 122.872 27.9436 122.936 27.9054 122.993C27.8671 123.05 27.8181 123.099 27.761 123.137C27.7039 123.174 27.6399 123.201 27.5727 123.214C27.5396 123.22 27.506 123.223 27.4723 123.223Z" fill="#3F3D56"/>
<path d="M0.52092 116.733C0.426954 116.733 0.334763 116.707 0.254098 116.659C0.173432 116.611 0.107292 116.541 0.0626688 116.459C0.0180451 116.376 -0.00340324 116.283 0.000594152 116.189C0.00459154 116.095 0.0338839 116.003 0.0853754 115.925L19.8725 85.6934C19.9484 85.5778 20.067 85.4972 20.2023 85.4691C20.3375 85.4411 20.4783 85.4679 20.5938 85.5437C20.7093 85.6194 20.7901 85.738 20.8184 85.8734C20.8466 86.0087 20.8201 86.1498 20.7446 86.2656L0.957485 116.497C0.910055 116.569 0.845293 116.629 0.769064 116.67C0.692834 116.711 0.607545 116.733 0.52092 116.733Z" fill="#3F3D56"/>
<path d="M144.755 10.2302L158.486 10.3156C158.486 10.3156 181.088 22.3569 165.224 47.2935C165.224 47.2935 158.742 45.7563 151.578 51.0511C151.578 51.0511 147.399 11.1696 144.755 10.2302Z" fill="#8E87FF"/>
<path opacity="0.2" d="M148.84 10.3552C151.3 20.6446 154.081 47.183 154.081 47.183C160.481 42.4526 166.333 43.175 167.509 43.3828C166.816 44.7574 166.053 46.0959 165.224 47.3931C165.224 47.3931 158.742 45.8559 151.578 51.1507C151.578 51.1507 147.399 11.2692 144.755 10.3298L148.84 10.3552Z" fill="black"/>
<path d="M165.31 23.1257L166.504 28.9329L181.509 26.2019L181.515 26.2001L181.856 19.3682H178.956L165.31 23.1257Z" fill="#3F3D56"/>
<path opacity="0.2" d="M179.198 19.3682L181.509 26.2019L181.515 26.2001L181.856 19.3682H179.198Z" fill="black"/>
<path d="M165.821 29.616C166.763 29.616 167.527 27.8572 167.527 25.6876C167.527 23.5181 166.763 21.7593 165.821 21.7593C164.879 21.7593 164.115 23.5181 164.115 25.6876C164.115 27.8572 164.879 29.616 165.821 29.616Z" fill="#3F3D56"/>
<path d="M174.691 108.705C174.623 108.705 174.555 108.692 174.492 108.666C174.429 108.639 174.371 108.601 174.323 108.552C174.274 108.504 174.236 108.446 174.21 108.383C174.183 108.32 174.17 108.252 174.17 108.183V25.6876C174.17 25.5491 174.225 25.4163 174.323 25.3184C174.421 25.2205 174.553 25.1655 174.691 25.1655C174.83 25.1655 174.962 25.2205 175.06 25.3184C175.158 25.4163 175.213 25.5491 175.213 25.6876V108.183C175.213 108.252 175.199 108.32 175.173 108.383C175.147 108.446 175.109 108.504 175.06 108.552C175.012 108.601 174.954 108.639 174.891 108.666C174.828 108.692 174.76 108.705 174.691 108.705Z" fill="#3F3D56"/>
<path d="M167.528 123.223C167.494 123.223 167.46 123.22 167.427 123.214C167.292 123.187 167.172 123.108 167.095 122.993C167.017 122.878 166.989 122.737 167.015 122.601L173.671 88.4367L156.193 115.131C156.156 115.188 156.107 115.237 156.051 115.276C155.994 115.315 155.93 115.342 155.863 115.356C155.796 115.37 155.727 115.37 155.66 115.357C155.593 115.345 155.529 115.319 155.471 115.281C155.414 115.243 155.365 115.195 155.326 115.138C155.288 115.082 155.261 115.018 155.247 114.951C155.233 114.884 155.232 114.814 155.245 114.747C155.258 114.68 155.284 114.615 155.321 114.558L174.255 85.64C174.322 85.5388 174.421 85.4639 174.536 85.4279C174.652 85.3919 174.776 85.3972 174.888 85.4428C175 85.4884 175.093 85.5715 175.15 85.678C175.208 85.7844 175.226 85.9075 175.203 86.0263L168.039 122.801C168.016 122.92 167.952 123.027 167.859 123.104C167.766 123.181 167.649 123.223 167.528 123.223Z" fill="#3F3D56"/>
<path d="M194.479 116.733C194.392 116.733 194.307 116.711 194.231 116.67C194.155 116.629 194.09 116.569 194.043 116.497L174.255 86.2656C174.18 86.1498 174.153 86.0087 174.182 85.8734C174.21 85.738 174.291 85.6194 174.406 85.5437C174.522 85.4679 174.663 85.4411 174.798 85.4691C174.933 85.4972 175.052 85.5778 175.127 85.6934L194.915 115.925C194.966 116.003 194.995 116.095 194.999 116.189C195.003 116.283 194.982 116.376 194.937 116.459C194.893 116.542 194.827 116.611 194.746 116.659C194.665 116.707 194.573 116.733 194.479 116.733Z" fill="#3F3D56"/>
<path d="M85.6157 72.4939L89.3514 71.4524C89.3514 71.4524 90.8147 71.1599 89.9206 68.2985C89.0265 65.4371 87.2532 66.2379 87.2532 66.2379L83.9393 67.2019L82.6309 67.6065L84.4719 70.1925L84.6262 71.9161L85.6157 72.4939Z" fill="#3F3D56"/>
<path d="M78.3973 64.9335L77.2253 69.6213L83.2306 75.4489L83.7469 75.5785L85.1241 75.1911L86.2964 70.5035L85.1091 69.2534L86.3227 68.9351L83.7329 66.4178L82.3815 66.7017L81.2976 65.6242L82.0291 65.3313L82.0982 65.0556L81.212 64.3572L78.3973 64.9335Z" fill="#3F3D56"/>
<path d="M84.0238 71.5453L83.248 74.6473L79.6688 71.2593L80.5652 68.114L84.0238 71.5453Z" fill="#8E87FF"/>
<path d="M78.3973 64.9335L78.2329 65.5909L84.2046 71.4077L84.7209 71.537L86.0552 71.1756L86.1287 71.174L86.2964 70.5035L85.1091 69.2534L86.3227 68.9351L83.7329 66.4178L82.3816 66.7017L81.2976 65.6241L82.0292 65.3313L82.0982 65.0556L81.212 64.3572L78.3973 64.9335Z" stroke="#3F3D56" stroke-miterlimit="10"/>
<path d="M81.6378 64.995C81.683 64.8142 81.5039 64.6135 81.2377 64.5467C80.9716 64.48 80.7191 64.5725 80.6739 64.7534C80.6287 64.9342 80.8078 65.1349 81.074 65.2016C81.3401 65.2684 81.5926 65.1758 81.6378 64.995Z" fill="#8E87FF"/>
<path d="M85.4316 70.0118C85.4768 69.831 85.2977 69.6303 85.0315 69.5636C84.7653 69.4969 84.5129 69.5894 84.4677 69.7702C84.4225 69.951 84.6016 70.1517 84.8678 70.2185C85.1339 70.2852 85.3864 70.1927 85.4316 70.0118Z" fill="#8E87FF"/>
<path d="M88.0978 78.3336L87.2831 75.5602C87.2831 75.5602 89.4012 70.5028 86.9572 70.0133C84.5132 69.5239 84.3503 74.7445 84.3503 74.7445L85.3279 77.8442L88.0978 78.3336Z" fill="#FFB6B6"/>
<path d="M72.9724 72.941C76.5469 72.941 79.4446 70.0396 79.4446 66.4605C79.4446 62.8814 76.5469 59.98 72.9724 59.98C69.398 59.98 66.5003 62.8814 66.5003 66.4605C66.5003 70.0396 69.398 72.941 72.9724 72.941Z" fill="#FFB6B6"/>
<path d="M75.0664 71.0347C75.0664 71.0347 75.4471 75.7998 76.3989 76.181C77.3507 76.5622 66.1196 79.2306 66.1196 79.2306L68.9749 75.9904C68.9749 75.9904 69.546 71.0347 68.2135 69.8911L75.0664 71.0347Z" fill="#FFB6B6"/>
<path d="M84.1874 76.8651L86.7943 76.5388C86.7943 76.5388 89.89 78.1703 89.89 80.2911C89.89 82.412 91.6823 85.838 91.6823 85.838C91.6823 85.838 92.9858 90.406 90.053 90.7323C87.1202 91.0585 84.5133 85.838 84.5133 85.838L84.1874 76.8651Z" fill="#8E87FF"/>
<path d="M85.6538 102.805C85.6538 102.805 91.3564 97.4211 92.9858 97.7474C94.6151 98.0737 97.8738 98.5631 97.8738 101.01C97.8738 103.457 92.497 109.167 92.497 109.167C92.497 109.167 88.4236 118.14 84.5132 118.467C81.9409 118.7 79.3841 119.081 76.8554 119.609C76.8554 119.609 78.6476 126.134 77.67 127.929C76.6924 129.723 72.945 131.844 72.6191 131.681C72.2933 131.518 67.7311 127.276 65.7759 121.24C63.8207 115.204 62.5173 110.636 64.3095 110.309C66.1018 109.983 85.6538 102.805 85.6538 102.805Z" fill="#2F2E41"/>
<path d="M97.3849 100.521C97.3849 100.521 98.5255 100.358 98.3625 103.131C98.1996 105.905 97.7108 115.856 96.8962 117.814C96.0815 119.772 95.9186 122.056 96.2444 122.871C96.5703 123.687 97.222 124.992 96.0815 125.155C94.941 125.319 90.2159 124.666 89.7271 124.503C89.2383 124.34 88.7495 121.566 89.0754 121.566C89.4012 121.566 90.2159 121.403 89.89 120.261C89.5642 119.119 89.4012 119.119 89.89 118.793C90.3788 118.467 91.6823 117.977 91.3564 117.651C91.0306 117.325 90.7047 109.657 90.7047 109.657L97.3849 100.521Z" fill="#2F2E41"/>
<path d="M95.7556 124.666C95.7556 124.666 98.5255 123.851 98.8513 125.645C98.8513 125.645 99.3401 128.419 97.222 129.397C95.8551 130.044 94.5468 130.808 93.3116 131.681C93.3116 131.681 89.89 132.987 89.7271 131.355C89.5642 129.724 90.3788 123.851 90.3788 123.851L95.7556 124.666Z" fill="#2F2E41"/>
<path d="M77.3442 126.624L72.1303 122.382C72.1303 122.382 73.1079 127.603 71.8045 128.582L71.2091 130.324L72.8764 131.69C72.8764 131.69 77.9959 130.866 77.3442 126.624Z" fill="#2F2E41"/>
<path d="M70.0122 119.446C70.0122 119.446 73.4338 120.424 72.945 123.85C72.4562 127.276 71.8295 130.999 71.8295 130.999C71.8295 130.999 71.6415 140.165 69.1975 140.817C66.7535 141.47 66.1018 140.165 66.1018 140.165C66.1018 140.165 63.3237 133.002 64.1466 130.866C65.1427 128.28 66.5781 125.376 66.1018 124.503C65.6331 123.644 66.4277 118.956 70.0122 119.446Z" fill="#2F2E41"/>
<path d="M68.057 74.4181C68.057 74.4181 69.3605 74.5812 71.4786 74.9075C73.5968 75.2338 75.0631 73.6024 76.2037 73.9286C77.3442 74.2549 86.7943 76.5389 86.7943 76.5389L85.3279 87.7958C85.3279 87.7958 87.1202 100.847 86.7943 103.131C86.4685 105.415 90.7047 105.089 88.2607 107.862C85.8167 110.636 81.5805 113.083 72.945 112.267C64.3096 111.452 63.169 111.615 63.169 110.31C63.169 109.004 65.1242 97.9107 64.4725 96.9318C63.8208 95.9529 62.5173 94.811 63.169 93.6689C63.8208 92.5269 64.4725 91.8744 63.4949 90.8955C62.5173 89.9167 62.0285 88.9378 62.0285 88.4484C62.0285 87.9589 59.7474 79.9649 59.7474 79.9649C59.7474 79.9649 60.725 76.0495 61.8656 75.8864C63.0061 75.7232 63.9837 74.9075 64.7984 74.9075C65.613 74.9075 66.1018 75.0706 66.5906 74.9075L68.057 74.4181Z" fill="#ADA8FF"/>
<path d="M83.6816 64.1872C83.5978 63.8101 83.1874 62.5495 82.3532 62.2419C81.7428 62.0169 80.6072 62.4923 80.0415 62.4134L79.9686 62.206C79.9202 61.7975 79.8185 61.3972 79.6661 61.0152C79.3673 60.2513 78.9175 59.5557 78.3437 58.97C77.77 58.3844 77.084 57.9208 76.3269 57.607C74.4639 56.8272 71.5171 56.1824 68.9604 58.2258C65.4487 61.0325 66.0675 65.2323 66.3227 66.3975C66.3652 66.5919 66.4017 66.7875 66.4321 66.9844C66.5895 68.0108 67.043 68.1332 67.043 68.1332C67.043 68.1332 67.0332 68.1037 67.0173 68.0497L70.1892 68.3588L71.904 68.0658C71.9327 68.2337 71.9439 68.333 71.9439 68.333C76.948 67.5671 79.8601 64.9279 80.333 64.4702C80.7487 64.7462 81.523 65.1968 82.2738 65.2956C83.3735 65.4404 83.7654 64.5643 83.6816 64.1872ZM70.7878 66.7105L66.7581 66.5637C66.701 65.4624 66.985 64.1745 68.6048 64.1088C70.1665 64.0454 71.0189 65.3168 71.4707 66.4808L70.7878 66.7105Z" fill="#2F2E41"/>
<path d="M71.8408 57.2935C72.2289 57.2272 72.5232 57.0542 72.4981 56.9072C72.4731 56.7601 72.1381 56.6947 71.75 56.761C71.3619 56.8273 71.0676 57.0003 71.0927 57.1473C71.1178 57.2944 71.4527 57.3598 71.8408 57.2935Z" fill="#2F2E41"/>
</g>
</svg>
